<svg width="1128" height="132" viewBox="0 0 1128 132" fill="none" xmlns="http://www.w3.org/2000/svg">
<path d="M4.18 17H1.606V1.38H11.044V3.734H4.18V8.134H10.142V10.4H4.18V17ZM21.8194 7.76L22.2154 5.582H24.3714V17H21.8194V14.668C21.2034 16.23 19.5974 17.22 17.5294 17.22C14.0534 17.22 11.8974 14.558 11.8974 11.258C11.8974 7.87 14.1414 5.34 17.6614 5.34C19.3774 5.34 20.9614 6.176 21.8194 7.672V7.76ZM18.1454 14.954C20.2794 14.954 21.8194 13.37 21.8194 11.28C21.8194 9.212 20.2794 7.628 18.1454 7.628C15.9894 7.628 14.4494 9.146 14.4494 11.28C14.4494 13.436 15.9894 14.954 18.1454 14.954ZM28.2478 4.152C27.4118 4.152 26.7518 3.492 26.7518 2.678C26.7518 1.842 27.4118 1.182 28.2478 1.182C29.0618 1.182 29.7218 1.842 29.7218 2.678C29.7218 3.492 29.0618 4.152 28.2478 4.152ZM26.9718 5.582H29.5018V17H26.9718V5.582ZM34.1746 5.582L34.5266 7.298C35.1426 6.088 36.2646 5.296 38.2226 5.56L38.2006 7.738C36.0006 7.452 34.7026 8.222 34.6146 9.982L34.6366 17H32.1066V5.582H34.1746ZM45.1548 1.38H51.0068C54.2628 1.38 56.6828 3.184 56.6828 6.528C56.6828 9.85 54.2628 11.808 50.8748 11.808H47.7288V17H45.1548V1.38ZM47.7288 9.476H51.0068C52.7888 9.476 54.1088 8.508 54.1088 6.594C54.1088 4.702 52.7888 3.734 51.0068 3.734H47.7288V9.476ZM59.9803 4.152C59.1443 4.152 58.4843 3.492 58.4843 2.678C58.4843 1.842 59.1443 1.182 59.9803 1.182C60.7943 1.182 61.4543 1.842 61.4543 2.678C61.4543 3.492 60.7943 4.152 59.9803 4.152ZM58.7043 5.582H61.2343V17H58.7043V5.582ZM70.153 5.34C72.573 5.34 74.751 6.814 74.751 10.312V17H72.199V10.686C72.199 8.244 70.813 7.518 69.383 7.518C67.579 7.518 66.391 8.684 66.391 10.862V17H63.839V5.582H65.995L66.347 7.496C67.051 6.132 68.327 5.34 70.153 5.34ZM81.9983 10.906L87.6743 17H84.6823L79.5783 11.434C79.6883 12.82 79.7323 14.514 79.7323 17H77.2023V0.499999H79.7323C79.7323 5.89 79.7323 8.354 79.5563 10.378L84.6603 5.582H87.6523L81.9983 10.906Z" fill="#333333"/>
<path d="M477.502 17H474.928V3.712H470.682V1.38H481.726V3.712H477.502V17ZM486.718 5.34C490.194 5.34 492.68 7.76 492.57 12.116H483.396C483.55 13.898 485.024 15.13 486.916 15.13C488.544 15.13 489.6 14.294 490.084 13.304L492.306 13.546C491.69 15.592 489.578 17.22 486.894 17.22C483.418 17.22 480.866 14.866 480.866 11.302C480.866 7.914 483.308 5.34 486.718 5.34ZM486.718 7.386C484.914 7.386 483.528 8.574 483.396 10.202H489.974C489.908 8.596 488.588 7.386 486.718 7.386ZM499.824 5.34C503.3 5.34 505.786 7.76 505.676 12.116H496.502C496.656 13.898 498.13 15.13 500.022 15.13C501.65 15.13 502.706 14.294 503.19 13.304L505.412 13.546C504.796 15.592 502.684 17.22 500 17.22C496.524 17.22 493.972 14.866 493.972 11.302C493.972 7.914 496.414 5.34 499.824 5.34ZM499.824 7.386C498.02 7.386 496.634 8.574 496.502 10.202H503.08C503.014 8.596 501.694 7.386 499.824 7.386ZM513.985 5.34C516.405 5.34 518.583 6.814 518.583 10.312V17H516.031V10.686C516.031 8.244 514.645 7.518 513.215 7.518C511.411 7.518 510.223 8.684 510.223 10.862V17H507.671V5.582H509.827L510.179 7.496C510.883 6.132 512.159 5.34 513.985 5.34ZM531.655 10.642V8.376H541.071C541.071 13.986 537.749 17.22 533.305 17.22C528.663 17.22 525.407 13.678 525.407 9.168C525.407 4.724 528.619 1.16 533.327 1.16C536.143 1.16 538.607 2.458 539.773 4.218L537.925 5.846C537.133 4.592 535.505 3.536 533.415 3.536C530.203 3.536 527.981 5.934 527.981 9.212C527.981 12.446 530.071 14.844 533.261 14.844C535.945 14.844 537.859 13.128 538.365 10.642H531.655ZM545.231 5.582L545.583 7.298C546.199 6.088 547.321 5.296 549.279 5.56L549.257 7.738C547.057 7.452 545.759 8.222 545.671 9.982L545.693 17H543.163V5.582H545.231ZM555.833 5.34C559.309 5.34 561.795 7.76 561.685 12.116H552.511C552.665 13.898 554.139 15.13 556.031 15.13C557.659 15.13 558.715 14.294 559.199 13.304L561.421 13.546C560.805 15.592 558.693 17.22 556.009 17.22C552.533 17.22 549.981 14.866 549.981 11.302C549.981 7.914 552.423 5.34 555.833 5.34ZM555.833 7.386C554.029 7.386 552.643 8.574 552.511 10.202H559.089C559.023 8.596 557.703 7.386 555.833 7.386ZM571.422 5.582H574.106L567.44 22.06H564.822L566.802 17.066L561.94 5.582H564.69C567.066 11.302 567.814 13.26 568.122 14.712C568.408 13.282 569.09 11.346 571.422 5.582Z" fill="#333333"/>
<path d="M669.606 1.38H675.458C678.714 1.38 681.134 3.184 681.134 6.528C681.134 9.85 678.714 11.808 675.326 11.808H672.18V17H669.606V1.38ZM672.18 9.476H675.458C677.24 9.476 678.56 8.508 678.56 6.594C678.56 4.702 677.24 3.734 675.458 3.734H672.18V9.476ZM691.339 11.72V5.582H693.891V17H691.735L691.427 14.976C690.723 16.406 689.425 17.242 687.577 17.242C685.179 17.242 683.001 15.768 683.001 12.27V5.582H685.509V11.896C685.509 14.338 686.917 15.086 688.347 15.086C690.151 15.086 691.339 13.898 691.339 11.72ZM698.565 5.582L698.917 7.298C699.533 6.088 700.655 5.296 702.613 5.56L702.591 7.738C700.391 7.452 699.093 8.222 699.005 9.982L699.027 17H696.497V5.582H698.565ZM709.167 5.34C712.643 5.34 715.129 7.76 715.019 12.116H705.845C705.999 13.898 707.473 15.13 709.365 15.13C710.993 15.13 712.049 14.294 712.533 13.304L714.755 13.546C714.139 15.592 712.027 17.22 709.343 17.22C705.867 17.22 703.315 14.866 703.315 11.302C703.315 7.914 705.757 5.34 709.167 5.34ZM709.167 7.386C707.363 7.386 705.977 8.574 705.845 10.202H712.423C712.357 8.596 711.037 7.386 709.167 7.386ZM738.812 1.38H741.408L737.096 17H734.148C731.948 8.64 731.354 6.088 731.156 4.372C730.958 6.132 730.32 8.64 728.032 17H725.15L720.86 1.38H723.566C725.766 9.74 726.47 12.578 726.734 14.36C726.976 12.402 727.636 9.762 729.814 1.38H732.608C734.742 9.388 735.446 12.336 735.732 14.118C735.996 12.248 736.678 9.454 738.812 1.38ZM749.324 5.34C751.744 5.34 753.944 6.814 753.944 10.312V17H751.392V10.686C751.392 8.244 750.006 7.518 748.576 7.518C746.75 7.518 745.584 8.684 745.584 10.862V17H743.054V0.499999H745.584V7.408C746.31 6.088 747.564 5.34 749.324 5.34ZM757.672 4.152C756.836 4.152 756.176 3.492 756.176 2.678C756.176 1.842 756.836 1.182 757.672 1.182C758.486 1.182 759.146 1.842 759.146 2.678C759.146 3.492 758.486 4.152 757.672 4.152ZM756.396 5.582H758.926V17H756.396V5.582ZM765.05 5.582H767.58V7.562H765.05V17H762.542V7.562H760.76V5.582H762.542V2.26H765.05V5.582ZM774.072 5.34C777.548 5.34 780.034 7.76 779.924 12.116H770.75C770.904 13.898 772.378 15.13 774.27 15.13C775.898 15.13 776.954 14.294 777.438 13.304L779.66 13.546C779.044 15.592 776.932 17.22 774.248 17.22C770.772 17.22 768.22 14.866 768.22 11.302C768.22 7.914 770.662 5.34 774.072 5.34ZM774.072 7.386C772.268 7.386 770.882 8.574 770.75 10.202H777.328C777.262 8.596 775.942 7.386 774.072 7.386Z" fill="#333333"/>
<path d="M873.7 17H867.606V1.38H873.348C876.648 1.38 878.43 2.81 878.43 5.252C878.43 7.144 877.484 8.2 876.23 8.574C878.122 8.904 879.31 10.488 879.31 12.468C879.31 15.13 877.396 17 873.7 17ZM870.18 3.58V7.914H873.348C874.91 7.914 875.834 7.21 875.834 5.736C875.834 4.35 874.91 3.58 873.348 3.58H870.18ZM870.18 9.872V14.8H873.7C875.614 14.8 876.714 13.898 876.714 12.402C876.714 10.862 875.614 9.872 873.788 9.872H870.18ZM883.481 5.582L883.833 7.298C884.449 6.088 885.571 5.296 887.529 5.56L887.507 7.738C885.307 7.452 884.009 8.222 883.921 9.982L883.943 17H881.413V5.582H883.481ZM898.153 7.76L898.549 5.582H900.705V17H898.153V14.668C897.537 16.23 895.931 17.22 893.863 17.22C890.387 17.22 888.231 14.558 888.231 11.258C888.231 7.87 890.475 5.34 893.995 5.34C895.711 5.34 897.295 6.176 898.153 7.672V7.76ZM894.479 14.954C896.613 14.954 898.153 13.37 898.153 11.28C898.153 9.212 896.613 7.628 894.479 7.628C892.323 7.628 890.783 9.146 890.783 11.28C890.783 13.436 892.323 14.954 894.479 14.954ZM906.826 5.582H909.356V7.562H906.826V17H904.318V7.562H902.536V5.582H904.318V2.26H906.826V5.582ZM921.812 10.642V8.376H931.228C931.228 13.986 927.906 17.22 923.462 17.22C918.82 17.22 915.564 13.678 915.564 9.168C915.564 4.724 918.776 1.16 923.484 1.16C926.3 1.16 928.764 2.458 929.93 4.218L928.082 5.846C927.29 4.592 925.662 3.536 923.572 3.536C920.36 3.536 918.138 5.934 918.138 9.212C918.138 12.446 920.228 14.844 923.418 14.844C926.102 14.844 928.016 13.128 928.522 10.642H921.812ZM935.387 5.582L935.739 7.298C936.355 6.088 937.477 5.296 939.435 5.56L939.413 7.738C937.213 7.452 935.915 8.222 935.827 9.982L935.849 17H933.319V5.582H935.387ZM945.99 5.34C949.466 5.34 951.952 7.76 951.842 12.116H942.668C942.822 13.898 944.296 15.13 946.188 15.13C947.816 15.13 948.872 14.294 949.356 13.304L951.578 13.546C950.962 15.592 948.85 17.22 946.166 17.22C942.69 17.22 940.138 14.866 940.138 11.302C940.138 7.914 942.58 5.34 945.99 5.34ZM945.99 7.386C944.186 7.386 942.8 8.574 942.668 10.202H949.246C949.18 8.596 947.86 7.386 945.99 7.386ZM959.095 5.34C962.571 5.34 965.057 7.76 964.947 12.116H955.773C955.927 13.898 957.401 15.13 959.293 15.13C960.921 15.13 961.977 14.294 962.461 13.304L964.683 13.546C964.067 15.592 961.955 17.22 959.271 17.22C955.795 17.22 953.243 14.866 953.243 11.302C953.243 7.914 955.685 5.34 959.095 5.34ZM959.095 7.386C957.291 7.386 955.905 8.574 955.773 10.202H962.351C962.285 8.596 960.965 7.386 959.095 7.386ZM973.257 5.34C975.677 5.34 977.855 6.814 977.855 10.312V17H975.303V10.686C975.303 8.244 973.917 7.518 972.487 7.518C970.683 7.518 969.495 8.684 969.495 10.862V17H966.943V5.582H969.099L969.451 7.496C970.155 6.132 971.431 5.34 973.257 5.34Z" fill="#333333"/>
<path d="M1016.3 1.38H1018.9L1014.59 17H1011.64C1009.44 8.64 1008.85 6.088 1008.65 4.372C1008.45 6.132 1007.81 8.64 1005.52 17H1002.64L998.352 1.38H1001.06C1003.26 9.74 1003.96 12.578 1004.23 14.36C1004.47 12.402 1005.13 9.762 1007.31 1.38H1010.1C1012.23 9.388 1012.94 12.336 1013.22 14.118C1013.49 12.248 1014.17 9.454 1016.3 1.38ZM1021.69 4.152C1020.86 4.152 1020.2 3.492 1020.2 2.678C1020.2 1.842 1020.86 1.182 1021.69 1.182C1022.51 1.182 1023.17 1.842 1023.17 2.678C1023.17 3.492 1022.51 4.152 1021.69 4.152ZM1020.42 5.582H1022.95V17H1020.42V5.582ZM1029.91 17.22C1027.27 17.22 1024.96 16.076 1024.83 13.458L1027.29 13.37C1027.42 14.558 1028.52 15.24 1030 15.24C1031.25 15.24 1032.11 14.734 1032.11 13.876C1032.11 11.588 1025.33 12.886 1025.33 8.728C1025.33 6.638 1027.27 5.362 1029.69 5.362C1032.31 5.362 1034.15 6.88 1034.24 8.86L1031.84 8.926C1031.71 7.958 1030.92 7.276 1029.67 7.276C1028.61 7.276 1027.77 7.76 1027.77 8.552C1027.77 10.796 1034.64 9.432 1034.64 13.766C1034.64 15.988 1032.68 17.22 1029.91 17.22ZM1041.81 5.34C1045.29 5.34 1047.77 7.76 1047.66 12.116H1038.49C1038.64 13.898 1040.12 15.13 1042.01 15.13C1043.64 15.13 1044.69 14.294 1045.18 13.304L1047.4 13.546C1046.78 15.592 1044.67 17.22 1041.99 17.22C1038.51 17.22 1035.96 14.866 1035.96 11.302C1035.96 7.914 1038.4 5.34 1041.81 5.34ZM1041.81 7.386C1040.01 7.386 1038.62 8.574 1038.49 10.202H1045.07C1045 8.596 1043.68 7.386 1041.81 7.386ZM1060.85 17H1054.76V1.38H1060.5C1063.8 1.38 1065.58 2.81 1065.58 5.252C1065.58 7.144 1064.63 8.2 1063.38 8.574C1065.27 8.904 1066.46 10.488 1066.46 12.468C1066.46 15.13 1064.55 17 1060.85 17ZM1057.33 3.58V7.914H1060.5C1062.06 7.914 1062.98 7.21 1062.98 5.736C1062.98 4.35 1062.06 3.58 1060.5 3.58H1057.33ZM1057.33 9.872V14.8H1060.85C1062.76 14.8 1063.86 13.898 1063.86 12.402C1063.86 10.862 1062.76 9.872 1060.94 9.872H1057.33ZM1068.56 0.499999H1071.09V17H1068.56V0.499999ZM1081.88 11.72V5.582H1084.43V17H1082.28L1081.97 14.976C1081.27 16.406 1079.97 17.242 1078.12 17.242C1075.72 17.242 1073.54 15.768 1073.54 12.27V5.582H1076.05V11.896C1076.05 14.338 1077.46 15.086 1078.89 15.086C1080.69 15.086 1081.88 13.898 1081.88 11.72ZM1092.3 5.34C1095.77 5.34 1098.26 7.76 1098.15 12.116H1088.98C1089.13 13.898 1090.6 15.13 1092.5 15.13C1094.12 15.13 1095.18 14.294 1095.66 13.304L1097.89 13.546C1097.27 15.592 1095.16 17.22 1092.47 17.22C1089 17.22 1086.45 14.866 1086.45 11.302C1086.45 7.914 1088.89 5.34 1092.3 5.34ZM1092.3 7.386C1090.49 7.386 1089.11 8.574 1088.98 10.202H1095.55C1095.49 8.596 1094.17 7.386 1092.3 7.386Z" fill="#333333"/>
<rect x="1" y="33" width="468" height="98" fill="#EC3396"/>
<rect x="1" y="33" width="468" height="98" stroke="#333333" stroke-width="2"/>
<path d="M205.548 76.23V78.364H202.732L202.314 82.346H204.888V84.48H202.072L201.698 88H199.256L199.63 84.48H196.308L195.934 88H193.492L193.866 84.48H191.248V82.346H194.108L194.526 78.364H191.908V76.23H194.746L195.164 72.38H197.606L197.188 76.23H200.51L200.928 72.38H203.37L202.952 76.23H205.548ZM196.55 82.346H199.872L200.29 78.364H196.968L196.55 82.346ZM216.961 72.38V74.712H209.811V78.958H215.619V81.224H209.811V85.668H216.961V88H207.237V72.38H216.961ZM225.606 88.22C221.228 88.22 217.796 84.7 217.796 80.19C217.796 75.68 221.228 72.16 225.606 72.16C227.938 72.16 229.456 72.93 230.182 73.524V76.054C229.566 75.438 228.18 74.514 225.914 74.514C222.834 74.514 220.37 76.912 220.37 80.19C220.37 83.468 222.856 85.866 225.914 85.866C228.18 85.866 229.566 84.92 230.182 84.326V86.856C229.456 87.45 227.938 88.22 225.606 88.22ZM240.157 79.75C241.433 80.344 242.423 81.532 242.423 83.512C242.423 85.866 240.509 88.22 236.967 88.22C233.425 88.22 231.159 85.976 231.159 82.962H233.667C233.667 84.942 235.185 85.866 236.835 85.866C238.749 85.866 239.849 84.81 239.849 83.38C239.849 81.686 238.419 81.07 236.637 81.07H235.405V78.87H236.703C238.485 78.782 239.255 77.726 239.255 76.67C239.255 75.372 238.243 74.514 236.703 74.514C235.075 74.514 233.843 75.592 233.843 77.286H231.357C231.357 74.47 233.359 72.16 236.813 72.16C239.805 72.16 241.829 73.964 241.829 76.45C241.829 77.902 241.169 79.024 240.157 79.75ZM252.065 79.75C253.341 80.344 254.331 81.532 254.331 83.512C254.331 85.866 252.417 88.22 248.875 88.22C245.333 88.22 243.067 85.976 243.067 82.962H245.575C245.575 84.942 247.093 85.866 248.743 85.866C250.657 85.866 251.757 84.81 251.757 83.38C251.757 81.686 250.327 81.07 248.545 81.07H247.313V78.87H248.611C250.393 78.782 251.163 77.726 251.163 76.67C251.163 75.372 250.151 74.514 248.611 74.514C246.983 74.514 245.751 75.592 245.751 77.286H243.265C243.265 74.47 245.267 72.16 248.721 72.16C251.713 72.16 253.737 73.964 253.737 76.45C253.737 77.902 253.077 79.024 252.065 79.75ZM260.762 72.16C264.172 72.16 266.46 74.602 266.46 77.528C266.46 78.496 266.196 79.662 265.36 81.07L261.246 88.022L258.408 88L261.664 82.566C261.202 82.742 260.674 82.83 260.08 82.83C257.308 82.83 255.13 80.674 255.13 77.682C255.13 74.602 257.418 72.16 260.762 72.16ZM260.762 80.784C262.566 80.784 263.886 79.464 263.886 77.682C263.886 75.9 262.544 74.58 260.762 74.58C259.024 74.58 257.704 75.9 257.704 77.682C257.704 79.464 259.024 80.784 260.762 80.784ZM273.032 77.55C275.804 77.55 277.96 79.706 277.96 82.698C277.96 85.778 275.694 88.22 272.328 88.22C268.94 88.22 266.652 85.778 266.652 82.852C266.652 81.884 266.894 80.718 267.73 79.31L271.866 72.358L274.682 72.38L271.448 77.814C271.91 77.638 272.438 77.55 273.032 77.55ZM272.328 85.8C274.088 85.8 275.408 84.48 275.408 82.698C275.408 80.916 274.088 79.596 272.328 79.596C270.524 79.596 269.226 80.916 269.226 82.698C269.226 84.48 270.546 85.8 272.328 85.8Z" fill="white"/>
<rect x="469" y="33" width="198" height="98" fill="#333333"/>
<rect x="469" y="33" width="198" height="98" stroke="#333333" stroke-width="2"/>
<path d="M539.048 76.23V78.364H536.232L535.814 82.346H538.388V84.48H535.572L535.198 88H532.756L533.13 84.48H529.808L529.434 88H526.992L527.366 84.48H524.748V82.346H527.608L528.026 78.364H525.408V76.23H528.246L528.664 72.38H531.106L530.688 76.23H534.01L534.428 72.38H536.87L536.452 76.23H539.048ZM530.05 82.346H533.372L533.79 78.364H530.468L530.05 82.346ZM548.723 79.75C549.999 80.344 550.989 81.532 550.989 83.512C550.989 85.866 549.075 88.22 545.533 88.22C541.991 88.22 539.725 85.976 539.725 82.962H542.233C542.233 84.942 543.751 85.866 545.401 85.866C547.315 85.866 548.415 84.81 548.415 83.38C548.415 81.686 546.985 81.07 545.203 81.07H543.971V78.87H545.269C547.051 78.782 547.821 77.726 547.821 76.67C547.821 75.372 546.809 74.514 545.269 74.514C543.641 74.514 542.409 75.592 542.409 77.286H539.923C539.923 74.47 541.925 72.16 545.379 72.16C548.371 72.16 550.395 73.964 550.395 76.45C550.395 77.902 549.735 79.024 548.723 79.75ZM560.631 79.75C561.907 80.344 562.897 81.532 562.897 83.512C562.897 85.866 560.983 88.22 557.441 88.22C553.899 88.22 551.633 85.976 551.633 82.962H554.141C554.141 84.942 555.659 85.866 557.309 85.866C559.223 85.866 560.323 84.81 560.323 83.38C560.323 81.686 558.893 81.07 557.111 81.07H555.879V78.87H557.177C558.959 78.782 559.729 77.726 559.729 76.67C559.729 75.372 558.717 74.514 557.177 74.514C555.549 74.514 554.317 75.592 554.317 77.286H551.831C551.831 74.47 553.833 72.16 557.287 72.16C560.279 72.16 562.303 73.964 562.303 76.45C562.303 77.902 561.643 79.024 560.631 79.75ZM572.54 79.75C573.816 80.344 574.806 81.532 574.806 83.512C574.806 85.866 572.892 88.22 569.35 88.22C565.808 88.22 563.542 85.976 563.542 82.962H566.05C566.05 84.942 567.568 85.866 569.218 85.866C571.132 85.866 572.232 84.81 572.232 83.38C572.232 81.686 570.802 81.07 569.02 81.07H567.788V78.87H569.086C570.868 78.782 571.638 77.726 571.638 76.67C571.638 75.372 570.626 74.514 569.086 74.514C567.458 74.514 566.226 75.592 566.226 77.286H563.74C563.74 74.47 565.742 72.16 569.196 72.16C572.188 72.16 574.212 73.964 574.212 76.45C574.212 77.902 573.552 79.024 572.54 79.75ZM584.448 79.75C585.724 80.344 586.714 81.532 586.714 83.512C586.714 85.866 584.8 88.22 581.258 88.22C577.716 88.22 575.45 85.976 575.45 82.962H577.958C577.958 84.942 579.476 85.866 581.126 85.866C583.04 85.866 584.14 84.81 584.14 83.38C584.14 81.686 582.71 81.07 580.928 81.07H579.696V78.87H580.994C582.776 78.782 583.546 77.726 583.546 76.67C583.546 75.372 582.534 74.514 580.994 74.514C579.366 74.514 578.134 75.592 578.134 77.286H575.648C575.648 74.47 577.65 72.16 581.104 72.16C584.096 72.16 586.12 73.964 586.12 76.45C586.12 77.902 585.46 79.024 584.448 79.75ZM596.356 79.75C597.632 80.344 598.622 81.532 598.622 83.512C598.622 85.866 596.708 88.22 593.166 88.22C589.624 88.22 587.358 85.976 587.358 82.962H589.866C589.866 84.942 591.384 85.866 593.034 85.866C594.948 85.866 596.048 84.81 596.048 83.38C596.048 81.686 594.618 81.07 592.836 81.07H591.604V78.87H592.902C594.684 78.782 595.454 77.726 595.454 76.67C595.454 75.372 594.442 74.514 592.902 74.514C591.274 74.514 590.042 75.592 590.042 77.286H587.556C587.556 74.47 589.558 72.16 593.012 72.16C596.004 72.16 598.028 73.964 598.028 76.45C598.028 77.902 597.368 79.024 596.356 79.75ZM608.265 79.75C609.541 80.344 610.531 81.532 610.531 83.512C610.531 85.866 608.617 88.22 605.075 88.22C601.533 88.22 599.267 85.976 599.267 82.962H601.775C601.775 84.942 603.293 85.866 604.943 85.866C606.857 85.866 607.957 84.81 607.957 83.38C607.957 81.686 606.527 81.07 604.745 81.07H603.513V78.87H604.811C606.593 78.782 607.363 77.726 607.363 76.67C607.363 75.372 606.351 74.514 604.811 74.514C603.183 74.514 601.951 75.592 601.951 77.286H599.465C599.465 74.47 601.467 72.16 604.921 72.16C607.913 72.16 609.937 73.964 609.937 76.45C609.937 77.902 609.277 79.024 608.265 79.75Z" fill="white"/>
<rect x="667" y="33" width="198" height="98" stroke="#333333" stroke-width="2"/>
<path d="M740.048 76.23V78.364H737.232L736.814 82.346H739.388V84.48H736.572L736.198 88H733.756L734.13 84.48H730.808L730.434 88H727.992L728.366 84.48H725.748V82.346H728.608L729.026 78.364H726.408V76.23H729.246L729.664 72.38H732.106L731.688 76.23H735.01L735.428 72.38H737.87L737.452 76.23H740.048ZM731.05 82.346H734.372L734.79 78.364H731.468L731.05 82.346ZM744.311 88H741.737V72.38H751.175V74.734H744.311V79.134H750.273V81.4H744.311V88ZM755.317 88H752.743V72.38H762.181V74.734H755.317V79.134H761.279V81.4H755.317V88ZM766.323 88H763.749V72.38H773.187V74.734H766.323V79.134H772.285V81.4H766.323V88ZM777.329 88H774.755V72.38H784.193V74.734H777.329V79.134H783.291V81.4H777.329V88ZM788.335 88H785.761V72.38H795.199V74.734H788.335V79.134H794.297V81.4H788.335V88ZM799.341 88H796.767V72.38H806.205V74.734H799.341V79.134H805.303V81.4H799.341V88Z" fill="#333333"/>
<rect x="865" y="33" width="132" height="98" fill="#A7D408"/>
<rect x="865" y="33" width="132" height="98" stroke="#333333" stroke-width="2"/>
<path d="M899.548 76.23V78.364H896.732L896.314 82.346H898.888V84.48H896.072L895.698 88H893.256L893.63 84.48H890.308L889.934 88H887.492L887.866 84.48H885.248V82.346H888.108L888.526 78.364H885.908V76.23H888.746L889.164 72.38H891.606L891.188 76.23H894.51L894.928 72.38H897.37L896.952 76.23H899.548ZM890.55 82.346H893.872L894.29 78.364H890.968L890.55 82.346ZM914.327 88H911.555C911.071 86.592 910.631 85.36 910.257 84.238H904.075L902.799 88H900.137L905.747 72.38H908.673L914.327 88ZM904.779 82.104H909.531C907.639 76.56 907.243 75.196 907.111 74.096C906.979 75.218 906.627 76.604 904.779 82.104ZM914.167 74.646V72.38H924.705V74.338L919.095 88H916.367L921.977 74.646H914.167ZM931.191 88H925.999V72.38H931.191C936.053 72.38 938.957 75.812 938.957 80.19C938.957 84.568 936.053 88 931.191 88ZM928.573 74.712V85.668H931.191C934.293 85.668 936.405 83.666 936.405 80.19C936.405 76.714 934.293 74.712 931.191 74.712H928.573ZM949.564 82.786H951.874V84.854H949.564V88H947.056V84.854H939.752V83.072L947.188 72.38H949.564V82.786ZM947.276 75.592L942.458 82.786H947.078V78.298C947.078 77.132 947.144 76.23 947.276 75.592ZM958.643 88.22C955.585 88.22 952.703 86.196 952.703 82.566V77.814C952.703 74.184 955.585 72.16 958.643 72.16C961.723 72.16 964.605 74.184 964.605 77.814V82.566C964.605 86.196 961.723 88.22 958.643 88.22ZM958.643 85.8C960.491 85.8 962.031 84.524 962.031 82.566V77.814C962.031 75.856 960.491 74.58 958.643 74.58C956.817 74.58 955.277 75.856 955.277 77.814V82.566C955.277 84.524 956.817 85.8 958.643 85.8ZM974.368 79.684C975.842 80.454 976.656 81.818 976.656 83.446C976.656 86.24 974.346 88.22 971.134 88.22C967.944 88.22 965.634 86.24 965.634 83.446C965.634 81.818 966.426 80.454 967.922 79.662C966.844 78.936 966.25 77.814 966.25 76.472C966.25 73.854 968.406 72.16 971.156 72.16C973.884 72.16 976.04 73.854 976.04 76.472C976.04 77.814 975.468 78.958 974.368 79.684ZM971.156 74.272C969.88 74.272 968.714 75.064 968.714 76.494C968.714 77.902 969.88 78.738 971.156 78.738C972.432 78.738 973.642 77.902 973.642 76.494C973.642 75.064 972.432 74.272 971.156 74.272ZM971.156 85.932C972.85 85.932 974.126 84.876 974.126 83.336C974.126 81.774 972.85 80.718 971.156 80.718C969.462 80.718 968.186 81.774 968.186 83.336C968.186 84.876 969.462 85.932 971.156 85.932Z" fill="white"/>
<rect x="997" y="33" width="130" height="98" fill="#047FCF"/>
<rect x="997" y="33" width="130" height="98" stroke="#333333" stroke-width="2"/>
<path d="M1033.05 76.23V78.364H1030.23L1029.81 82.346H1032.39V84.48H1029.57L1029.2 88H1026.76L1027.13 84.48H1023.81L1023.43 88H1020.99L1021.37 84.48H1018.75V82.346H1021.61L1022.03 78.364H1019.41V76.23H1022.25L1022.66 72.38H1025.11L1024.69 76.23H1028.01L1028.43 72.38H1030.87L1030.45 76.23H1033.05ZM1024.05 82.346H1027.37L1027.79 78.364H1024.47L1024.05 82.346ZM1040.11 88.22C1037.05 88.22 1034.17 86.196 1034.17 82.566V77.814C1034.17 74.184 1037.05 72.16 1040.11 72.16C1043.19 72.16 1046.07 74.184 1046.07 77.814V82.566C1046.07 86.196 1043.19 88.22 1040.11 88.22ZM1040.11 85.8C1041.95 85.8 1043.49 84.524 1043.49 82.566V77.814C1043.49 75.856 1041.95 74.58 1040.11 74.58C1038.28 74.58 1036.74 75.856 1036.74 77.814V82.566C1036.74 84.524 1038.28 85.8 1040.11 85.8ZM1056.8 82.786H1059.11V84.854H1056.8V88H1054.29V84.854H1046.99V83.072L1054.42 72.38H1056.8V82.786ZM1054.51 75.592L1049.69 82.786H1054.31V78.298C1054.31 77.132 1054.38 76.23 1054.51 75.592ZM1058.65 74.646V72.38H1069.19V74.338L1063.58 88H1060.85L1066.46 74.646H1058.65ZM1073.06 88H1070.48V72.38H1079.92V74.734H1073.06V79.134H1079.02V81.4H1073.06V88ZM1088.57 88.22C1084.2 88.22 1080.76 84.7 1080.76 80.19C1080.76 75.68 1084.2 72.16 1088.57 72.16C1090.91 72.16 1092.42 72.93 1093.15 73.524V76.054C1092.53 75.438 1091.15 74.514 1088.88 74.514C1085.8 74.514 1083.34 76.912 1083.34 80.19C1083.34 83.468 1085.82 85.866 1088.88 85.866C1091.15 85.866 1092.53 84.92 1093.15 84.326V86.856C1092.42 87.45 1090.91 88.22 1088.57 88.22ZM1097.71 88H1095.14V72.38H1104.58V74.734H1097.71V79.134H1103.67V81.4H1097.71V88Z" fill="white"/>
</svg>
