<svg width="1128" height="132" viewBox="0 0 1128 132" fill="none" xmlns="http://www.w3.org/2000/svg">
<path d="M4.18 17H1.606V1.38H11.044V3.734H4.18V8.134H10.142V10.4H4.18V17ZM21.8194 7.76L22.2154 5.582H24.3714V17H21.8194V14.668C21.2034 16.23 19.5974 17.22 17.5294 17.22C14.0534 17.22 11.8974 14.558 11.8974 11.258C11.8974 7.87 14.1414 5.34 17.6614 5.34C19.3774 5.34 20.9614 6.176 21.8194 7.672V7.76ZM18.1454 14.954C20.2794 14.954 21.8194 13.37 21.8194 11.28C21.8194 9.212 20.2794 7.628 18.1454 7.628C15.9894 7.628 14.4494 9.146 14.4494 11.28C14.4494 13.436 15.9894 14.954 18.1454 14.954ZM28.2478 4.152C27.4118 4.152 26.7518 3.492 26.7518 2.678C26.7518 1.842 27.4118 1.182 28.2478 1.182C29.0618 1.182 29.7218 1.842 29.7218 2.678C29.7218 3.492 29.0618 4.152 28.2478 4.152ZM26.9718 5.582H29.5018V17H26.9718V5.582ZM34.1746 5.582L34.5266 7.298C35.1426 6.088 36.2646 5.296 38.2226 5.56L38.2006 7.738C36.0006 7.452 34.7026 8.222 34.6146 9.982L34.6366 17H32.1066V5.582H34.1746ZM45.1548 1.38H51.0068C54.2628 1.38 56.6828 3.184 56.6828 6.528C56.6828 9.85 54.2628 11.808 50.8748 11.808H47.7288V17H45.1548V1.38ZM47.7288 9.476H51.0068C52.7888 9.476 54.1088 8.508 54.1088 6.594C54.1088 4.702 52.7888 3.734 51.0068 3.734H47.7288V9.476ZM59.9803 4.152C59.1443 4.152 58.4843 3.492 58.4843 2.678C58.4843 1.842 59.1443 1.182 59.9803 1.182C60.7943 1.182 61.4543 1.842 61.4543 2.678C61.4543 3.492 60.7943 4.152 59.9803 4.152ZM58.7043 5.582H61.2343V17H58.7043V5.582ZM70.153 5.34C72.573 5.34 74.751 6.814 74.751 10.312V17H72.199V10.686C72.199 8.244 70.813 7.518 69.383 7.518C67.579 7.518 66.391 8.684 66.391 10.862V17H63.839V5.582H65.995L66.347 7.496C67.051 6.132 68.327 5.34 70.153 5.34ZM81.9983 10.906L87.6743 17H84.6823L79.5783 11.434C79.6883 12.82 79.7323 14.514 79.7323 17H77.2023V0.499999H79.7323C79.7323 5.89 79.7323 8.354 79.5563 10.378L84.6603 5.582H87.6523L81.9983 10.906Z" fill="#333333"/>
<path d="M477.502 17H474.928V3.712H470.682V1.38H481.726V3.712H477.502V17ZM486.718 5.34C490.194 5.34 492.68 7.76 492.57 12.116H483.396C483.55 13.898 485.024 15.13 486.916 15.13C488.544 15.13 489.6 14.294 490.084 13.304L492.306 13.546C491.69 15.592 489.578 17.22 486.894 17.22C483.418 17.22 480.866 14.866 480.866 11.302C480.866 7.914 483.308 5.34 486.718 5.34ZM486.718 7.386C484.914 7.386 483.528 8.574 483.396 10.202H489.974C489.908 8.596 488.588 7.386 486.718 7.386ZM499.824 5.34C503.3 5.34 505.786 7.76 505.676 12.116H496.502C496.656 13.898 498.13 15.13 500.022 15.13C501.65 15.13 502.706 14.294 503.19 13.304L505.412 13.546C504.796 15.592 502.684 17.22 500 17.22C496.524 17.22 493.972 14.866 493.972 11.302C493.972 7.914 496.414 5.34 499.824 5.34ZM499.824 7.386C498.02 7.386 496.634 8.574 496.502 10.202H503.08C503.014 8.596 501.694 7.386 499.824 7.386ZM513.985 5.34C516.405 5.34 518.583 6.814 518.583 10.312V17H516.031V10.686C516.031 8.244 514.645 7.518 513.215 7.518C511.411 7.518 510.223 8.684 510.223 10.862V17H507.671V5.582H509.827L510.179 7.496C510.883 6.132 512.159 5.34 513.985 5.34ZM531.655 10.642V8.376H541.071C541.071 13.986 537.749 17.22 533.305 17.22C528.663 17.22 525.407 13.678 525.407 9.168C525.407 4.724 528.619 1.16 533.327 1.16C536.143 1.16 538.607 2.458 539.773 4.218L537.925 5.846C537.133 4.592 535.505 3.536 533.415 3.536C530.203 3.536 527.981 5.934 527.981 9.212C527.981 12.446 530.071 14.844 533.261 14.844C535.945 14.844 537.859 13.128 538.365 10.642H531.655ZM545.231 5.582L545.583 7.298C546.199 6.088 547.321 5.296 549.279 5.56L549.257 7.738C547.057 7.452 545.759 8.222 545.671 9.982L545.693 17H543.163V5.582H545.231ZM555.833 5.34C559.309 5.34 561.795 7.76 561.685 12.116H552.511C552.665 13.898 554.139 15.13 556.031 15.13C557.659 15.13 558.715 14.294 559.199 13.304L561.421 13.546C560.805 15.592 558.693 17.22 556.009 17.22C552.533 17.22 549.981 14.866 549.981 11.302C549.981 7.914 552.423 5.34 555.833 5.34ZM555.833 7.386C554.029 7.386 552.643 8.574 552.511 10.202H559.089C559.023 8.596 557.703 7.386 555.833 7.386ZM571.422 5.582H574.106L567.44 22.06H564.822L566.802 17.066L561.94 5.582H564.69C567.066 11.302 567.814 13.26 568.122 14.712C568.408 13.282 569.09 11.346 571.422 5.582Z" fill="#333333"/>
<path d="M669.606 1.38H675.458C678.714 1.38 681.134 3.184 681.134 6.528C681.134 9.85 678.714 11.808 675.326 11.808H672.18V17H669.606V1.38ZM672.18 9.476H675.458C677.24 9.476 678.56 8.508 678.56 6.594C678.56 4.702 677.24 3.734 675.458 3.734H672.18V9.476ZM691.339 11.72V5.582H693.891V17H691.735L691.427 14.976C690.723 16.406 689.425 17.242 687.577 17.242C685.179 17.242 683.001 15.768 683.001 12.27V5.582H685.509V11.896C685.509 14.338 686.917 15.086 688.347 15.086C690.151 15.086 691.339 13.898 691.339 11.72ZM698.565 5.582L698.917 7.298C699.533 6.088 700.655 5.296 702.613 5.56L702.591 7.738C700.391 7.452 699.093 8.222 699.005 9.982L699.027 17H696.497V5.582H698.565ZM709.167 5.34C712.643 5.34 715.129 7.76 715.019 12.116H705.845C705.999 13.898 707.473 15.13 709.365 15.13C710.993 15.13 712.049 14.294 712.533 13.304L714.755 13.546C714.139 15.592 712.027 17.22 709.343 17.22C705.867 17.22 703.315 14.866 703.315 11.302C703.315 7.914 705.757 5.34 709.167 5.34ZM709.167 7.386C707.363 7.386 705.977 8.574 705.845 10.202H712.423C712.357 8.596 711.037 7.386 709.167 7.386ZM738.812 1.38H741.408L737.096 17H734.148C731.948 8.64 731.354 6.088 731.156 4.372C730.958 6.132 730.32 8.64 728.032 17H725.15L720.86 1.38H723.566C725.766 9.74 726.47 12.578 726.734 14.36C726.976 12.402 727.636 9.762 729.814 1.38H732.608C734.742 9.388 735.446 12.336 735.732 14.118C735.996 12.248 736.678 9.454 738.812 1.38ZM749.324 5.34C751.744 5.34 753.944 6.814 753.944 10.312V17H751.392V10.686C751.392 8.244 750.006 7.518 748.576 7.518C746.75 7.518 745.584 8.684 745.584 10.862V17H743.054V0.499999H745.584V7.408C746.31 6.088 747.564 5.34 749.324 5.34ZM757.672 4.152C756.836 4.152 756.176 3.492 756.176 2.678C756.176 1.842 756.836 1.182 757.672 1.182C758.486 1.182 759.146 1.842 759.146 2.678C759.146 3.492 758.486 4.152 757.672 4.152ZM756.396 5.582H758.926V17H756.396V5.582ZM765.05 5.582H767.58V7.562H765.05V17H762.542V7.562H760.76V5.582H762.542V2.26H765.05V5.582ZM774.072 5.34C777.548 5.34 780.034 7.76 779.924 12.116H770.75C770.904 13.898 772.378 15.13 774.27 15.13C775.898 15.13 776.954 14.294 777.438 13.304L779.66 13.546C779.044 15.592 776.932 17.22 774.248 17.22C770.772 17.22 768.22 14.866 768.22 11.302C768.22 7.914 770.662 5.34 774.072 5.34ZM774.072 7.386C772.268 7.386 770.882 8.574 770.75 10.202H777.328C777.262 8.596 775.942 7.386 774.072 7.386Z" fill="#333333"/>
<path d="M873.7 17H867.606V1.38H873.348C876.648 1.38 878.43 2.81 878.43 5.252C878.43 7.144 877.484 8.2 876.23 8.574C878.122 8.904 879.31 10.488 879.31 12.468C879.31 15.13 877.396 17 873.7 17ZM870.18 3.58V7.914H873.348C874.91 7.914 875.834 7.21 875.834 5.736C875.834 4.35 874.91 3.58 873.348 3.58H870.18ZM870.18 9.872V14.8H873.7C875.614 14.8 876.714 13.898 876.714 12.402C876.714 10.862 875.614 9.872 873.788 9.872H870.18ZM883.481 5.582L883.833 7.298C884.449 6.088 885.571 5.296 887.529 5.56L887.507 7.738C885.307 7.452 884.009 8.222 883.921 9.982L883.943 17H881.413V5.582H883.481ZM898.153 7.76L898.549 5.582H900.705V17H898.153V14.668C897.537 16.23 895.931 17.22 893.863 17.22C890.387 17.22 888.231 14.558 888.231 11.258C888.231 7.87 890.475 5.34 893.995 5.34C895.711 5.34 897.295 6.176 898.153 7.672V7.76ZM894.479 14.954C896.613 14.954 898.153 13.37 898.153 11.28C898.153 9.212 896.613 7.628 894.479 7.628C892.323 7.628 890.783 9.146 890.783 11.28C890.783 13.436 892.323 14.954 894.479 14.954ZM906.826 5.582H909.356V7.562H906.826V17H904.318V7.562H902.536V5.582H904.318V2.26H906.826V5.582ZM921.812 10.642V8.376H931.228C931.228 13.986 927.906 17.22 923.462 17.22C918.82 17.22 915.564 13.678 915.564 9.168C915.564 4.724 918.776 1.16 923.484 1.16C926.3 1.16 928.764 2.458 929.93 4.218L928.082 5.846C927.29 4.592 925.662 3.536 923.572 3.536C920.36 3.536 918.138 5.934 918.138 9.212C918.138 12.446 920.228 14.844 923.418 14.844C926.102 14.844 928.016 13.128 928.522 10.642H921.812ZM935.387 5.582L935.739 7.298C936.355 6.088 937.477 5.296 939.435 5.56L939.413 7.738C937.213 7.452 935.915 8.222 935.827 9.982L935.849 17H933.319V5.582H935.387ZM945.99 5.34C949.466 5.34 951.952 7.76 951.842 12.116H942.668C942.822 13.898 944.296 15.13 946.188 15.13C947.816 15.13 948.872 14.294 949.356 13.304L951.578 13.546C950.962 15.592 948.85 17.22 946.166 17.22C942.69 17.22 940.138 14.866 940.138 11.302C940.138 7.914 942.58 5.34 945.99 5.34ZM945.99 7.386C944.186 7.386 942.8 8.574 942.668 10.202H949.246C949.18 8.596 947.86 7.386 945.99 7.386ZM959.095 5.34C962.571 5.34 965.057 7.76 964.947 12.116H955.773C955.927 13.898 957.401 15.13 959.293 15.13C960.921 15.13 961.977 14.294 962.461 13.304L964.683 13.546C964.067 15.592 961.955 17.22 959.271 17.22C955.795 17.22 953.243 14.866 953.243 11.302C953.243 7.914 955.685 5.34 959.095 5.34ZM959.095 7.386C957.291 7.386 955.905 8.574 955.773 10.202H962.351C962.285 8.596 960.965 7.386 959.095 7.386ZM973.257 5.34C975.677 5.34 977.855 6.814 977.855 10.312V17H975.303V10.686C975.303 8.244 973.917 7.518 972.487 7.518C970.683 7.518 969.495 8.684 969.495 10.862V17H966.943V5.582H969.099L969.451 7.496C970.155 6.132 971.431 5.34 973.257 5.34Z" fill="#333333"/>
<path d="M1016.3 1.38H1018.9L1014.59 17H1011.64C1009.44 8.64 1008.85 6.088 1008.65 4.372C1008.45 6.132 1007.81 8.64 1005.52 17H1002.64L998.352 1.38H1001.06C1003.26 9.74 1003.96 12.578 1004.23 14.36C1004.47 12.402 1005.13 9.762 1007.31 1.38H1010.1C1012.23 9.388 1012.94 12.336 1013.22 14.118C1013.49 12.248 1014.17 9.454 1016.3 1.38ZM1021.69 4.152C1020.86 4.152 1020.2 3.492 1020.2 2.678C1020.2 1.842 1020.86 1.182 1021.69 1.182C1022.51 1.182 1023.17 1.842 1023.17 2.678C1023.17 3.492 1022.51 4.152 1021.69 4.152ZM1020.42 5.582H1022.95V17H1020.42V5.582ZM1029.91 17.22C1027.27 17.22 1024.96 16.076 1024.83 13.458L1027.29 13.37C1027.42 14.558 1028.52 15.24 1030 15.24C1031.25 15.24 1032.11 14.734 1032.11 13.876C1032.11 11.588 1025.33 12.886 1025.33 8.728C1025.33 6.638 1027.27 5.362 1029.69 5.362C1032.31 5.362 1034.15 6.88 1034.24 8.86L1031.84 8.926C1031.71 7.958 1030.92 7.276 1029.67 7.276C1028.61 7.276 1027.77 7.76 1027.77 8.552C1027.77 10.796 1034.64 9.432 1034.64 13.766C1034.64 15.988 1032.68 17.22 1029.91 17.22ZM1041.81 5.34C1045.29 5.34 1047.77 7.76 1047.66 12.116H1038.49C1038.64 13.898 1040.12 15.13 1042.01 15.13C1043.64 15.13 1044.69 14.294 1045.18 13.304L1047.4 13.546C1046.78 15.592 1044.67 17.22 1041.99 17.22C1038.51 17.22 1035.96 14.866 1035.96 11.302C1035.96 7.914 1038.4 5.34 1041.81 5.34ZM1041.81 7.386C1040.01 7.386 1038.62 8.574 1038.49 10.202H1045.07C1045 8.596 1043.68 7.386 1041.81 7.386ZM1060.85 17H1054.76V1.38H1060.5C1063.8 1.38 1065.58 2.81 1065.58 5.252C1065.58 7.144 1064.63 8.2 1063.38 8.574C1065.27 8.904 1066.46 10.488 1066.46 12.468C1066.46 15.13 1064.55 17 1060.85 17ZM1057.33 3.58V7.914H1060.5C1062.06 7.914 1062.98 7.21 1062.98 5.736C1062.98 4.35 1062.06 3.58 1060.5 3.58H1057.33ZM1057.33 9.872V14.8H1060.85C1062.76 14.8 1063.86 13.898 1063.86 12.402C1063.86 10.862 1062.76 9.872 1060.94 9.872H1057.33ZM1068.56 0.499999H1071.09V17H1068.56V0.499999ZM1081.88 11.72V5.582H1084.43V17H1082.28L1081.97 14.976C1081.27 16.406 1079.97 17.242 1078.12 17.242C1075.72 17.242 1073.54 15.768 1073.54 12.27V5.582H1076.05V11.896C1076.05 14.338 1077.46 15.086 1078.89 15.086C1080.69 15.086 1081.88 13.898 1081.88 11.72ZM1092.3 5.34C1095.77 5.34 1098.26 7.76 1098.15 12.116H1088.98C1089.13 13.898 1090.6 15.13 1092.5 15.13C1094.12 15.13 1095.18 14.294 1095.66 13.304L1097.89 13.546C1097.27 15.592 1095.16 17.22 1092.47 17.22C1089 17.22 1086.45 14.866 1086.45 11.302C1086.45 7.914 1088.89 5.34 1092.3 5.34ZM1092.3 7.386C1090.49 7.386 1089.11 8.574 1088.98 10.202H1095.55C1095.49 8.596 1094.17 7.386 1092.3 7.386Z" fill="#333333"/>
<rect x="1" y="33" width="468" height="98" fill="#EC3396"/>
<rect x="1" y="33" width="468" height="98" stroke="#333333" stroke-width="2"/>
<path d="M221.384 82.786H223.694V84.854H221.384V88H218.876V84.854H211.572V83.072L219.008 72.38H221.384V82.786ZM219.096 75.592L214.278 82.786H218.898V78.298C218.898 77.132 218.964 76.23 219.096 75.592ZM230.462 88.22C227.404 88.22 224.522 86.196 224.522 82.566V77.814C224.522 74.184 227.404 72.16 230.462 72.16C233.542 72.16 236.424 74.184 236.424 77.814V82.566C236.424 86.196 233.542 88.22 230.462 88.22ZM230.462 85.8C232.31 85.8 233.85 84.524 233.85 82.566V77.814C233.85 75.856 232.31 74.58 230.462 74.58C228.636 74.58 227.096 75.856 227.096 77.814V82.566C227.096 84.524 228.636 85.8 230.462 85.8ZM241.92 80.564C239.412 80.564 237.608 78.804 237.608 76.384C237.608 73.986 239.412 72.204 241.92 72.204C244.406 72.204 246.21 73.986 246.21 76.384C246.21 78.804 244.384 80.564 241.92 80.564ZM250.126 72.38H252.216L245.088 88H242.976L250.126 72.38ZM241.92 78.76C243.284 78.76 244.318 77.748 244.318 76.384C244.318 75.02 243.306 74.008 241.92 74.008C240.556 74.008 239.522 75.02 239.522 76.384C239.522 77.748 240.556 78.76 241.92 78.76ZM253.294 88.242C250.808 88.242 249.004 86.482 249.004 84.062C249.004 81.664 250.808 79.904 253.294 79.904C255.78 79.904 257.606 81.664 257.606 84.062C257.606 86.482 255.78 88.242 253.294 88.242ZM253.294 86.438C254.68 86.438 255.692 85.426 255.692 84.062C255.692 82.698 254.702 81.686 253.294 81.686C251.952 81.686 250.918 82.698 250.918 84.062C250.918 85.426 251.952 86.438 253.294 86.438Z" fill="white"/>
<rect x="469" y="33" width="198" height="98" fill="#333333"/>
<rect x="469" y="33" width="198" height="98" stroke="#333333" stroke-width="2"/>
<path d="M547.866 85.58H555.94V88H545.226V86.306C545.226 80.916 553.3 80.674 553.3 76.978C553.3 75.592 552.266 74.514 550.638 74.514C548.988 74.514 547.866 75.636 547.778 77.22H545.226C545.226 74.404 547.47 72.16 550.682 72.16C553.542 72.16 555.874 73.942 555.874 77.022C555.874 82.236 548.68 82.434 547.866 85.58ZM563.017 88.22C559.959 88.22 557.077 86.196 557.077 82.566V77.814C557.077 74.184 559.959 72.16 563.017 72.16C566.097 72.16 568.979 74.184 568.979 77.814V82.566C568.979 86.196 566.097 88.22 563.017 88.22ZM563.017 85.8C564.865 85.8 566.405 84.524 566.405 82.566V77.814C566.405 75.856 564.865 74.58 563.017 74.58C561.191 74.58 559.651 75.856 559.651 77.814V82.566C559.651 84.524 561.191 85.8 563.017 85.8ZM574.474 80.564C571.966 80.564 570.162 78.804 570.162 76.384C570.162 73.986 571.966 72.204 574.474 72.204C576.96 72.204 578.764 73.986 578.764 76.384C578.764 78.804 576.938 80.564 574.474 80.564ZM582.68 72.38H584.77L577.642 88H575.53L582.68 72.38ZM574.474 78.76C575.838 78.76 576.872 77.748 576.872 76.384C576.872 75.02 575.86 74.008 574.474 74.008C573.11 74.008 572.076 75.02 572.076 76.384C572.076 77.748 573.11 78.76 574.474 78.76ZM585.848 88.242C583.362 88.242 581.558 86.482 581.558 84.062C581.558 81.664 583.362 79.904 585.848 79.904C588.334 79.904 590.16 81.664 590.16 84.062C590.16 86.482 588.334 88.242 585.848 88.242ZM585.848 86.438C587.234 86.438 588.246 85.426 588.246 84.062C588.246 82.698 587.256 81.686 585.848 81.686C584.506 81.686 583.472 82.698 583.472 84.062C583.472 85.426 584.506 86.438 585.848 86.438Z" fill="white"/>
<rect x="667" y="33" width="198" height="98" stroke="#333333" stroke-width="2"/>
<path d="M745.866 85.58H753.94V88H743.226V86.306C743.226 80.916 751.3 80.674 751.3 76.978C751.3 75.592 750.266 74.514 748.638 74.514C746.988 74.514 745.866 75.636 745.778 77.22H743.226C743.226 74.404 745.47 72.16 748.682 72.16C751.542 72.16 753.874 73.942 753.874 77.022C753.874 82.236 746.68 82.434 745.866 85.58ZM761.017 88.22C757.959 88.22 755.077 86.196 755.077 82.566V77.814C755.077 74.184 757.959 72.16 761.017 72.16C764.097 72.16 766.979 74.184 766.979 77.814V82.566C766.979 86.196 764.097 88.22 761.017 88.22ZM761.017 85.8C762.865 85.8 764.405 84.524 764.405 82.566V77.814C764.405 75.856 762.865 74.58 761.017 74.58C759.191 74.58 757.651 75.856 757.651 77.814V82.566C757.651 84.524 759.191 85.8 761.017 85.8ZM772.474 80.564C769.966 80.564 768.162 78.804 768.162 76.384C768.162 73.986 769.966 72.204 772.474 72.204C774.96 72.204 776.764 73.986 776.764 76.384C776.764 78.804 774.938 80.564 772.474 80.564ZM780.68 72.38H782.77L775.642 88H773.53L780.68 72.38ZM772.474 78.76C773.838 78.76 774.872 77.748 774.872 76.384C774.872 75.02 773.86 74.008 772.474 74.008C771.11 74.008 770.076 75.02 770.076 76.384C770.076 77.748 771.11 78.76 772.474 78.76ZM783.848 88.242C781.362 88.242 779.558 86.482 779.558 84.062C779.558 81.664 781.362 79.904 783.848 79.904C786.334 79.904 788.16 81.664 788.16 84.062C788.16 86.482 786.334 88.242 783.848 88.242ZM783.848 86.438C785.234 86.438 786.246 85.426 786.246 84.062C786.246 82.698 785.256 81.686 783.848 81.686C782.506 81.686 781.472 82.698 781.472 84.062C781.472 85.426 782.506 86.438 783.848 86.438Z" fill="#333333"/>
<rect x="865" y="33" width="132" height="98" fill="#A7D408"/>
<rect x="865" y="33" width="132" height="98" stroke="#333333" stroke-width="2"/>
<path d="M918.532 88H909.094V85.734H912.526V75.262L909.27 76.186V73.854L915.1 72.38V85.734H918.532V88ZM924.976 88.22C921.918 88.22 919.036 86.196 919.036 82.566V77.814C919.036 74.184 921.918 72.16 924.976 72.16C928.056 72.16 930.938 74.184 930.938 77.814V82.566C930.938 86.196 928.056 88.22 924.976 88.22ZM924.976 85.8C926.824 85.8 928.364 84.524 928.364 82.566V77.814C928.364 75.856 926.824 74.58 924.976 74.58C923.15 74.58 921.61 75.856 921.61 77.814V82.566C921.61 84.524 923.15 85.8 924.976 85.8ZM936.433 80.564C933.925 80.564 932.121 78.804 932.121 76.384C932.121 73.986 933.925 72.204 936.433 72.204C938.919 72.204 940.723 73.986 940.723 76.384C940.723 78.804 938.897 80.564 936.433 80.564ZM944.639 72.38H946.729L939.601 88H937.489L944.639 72.38ZM936.433 78.76C937.797 78.76 938.831 77.748 938.831 76.384C938.831 75.02 937.819 74.008 936.433 74.008C935.069 74.008 934.035 75.02 934.035 76.384C934.035 77.748 935.069 78.76 936.433 78.76ZM947.807 88.242C945.321 88.242 943.517 86.482 943.517 84.062C943.517 81.664 945.321 79.904 947.807 79.904C950.293 79.904 952.119 81.664 952.119 84.062C952.119 86.482 950.293 88.242 947.807 88.242ZM947.807 86.438C949.193 86.438 950.205 85.426 950.205 84.062C950.205 82.698 949.215 81.686 947.807 81.686C946.465 81.686 945.431 82.698 945.431 84.062C945.431 85.426 946.465 86.438 947.807 86.438Z" fill="white"/>
<rect x="997" y="33" width="130" height="98" fill="#047FCF"/>
<rect x="997" y="33" width="130" height="98" stroke="#333333" stroke-width="2"/>
<path d="M1049.53 88H1040.09V85.734H1043.53V75.262L1040.27 76.186V73.854L1046.1 72.38V85.734H1049.53V88ZM1055.98 88.22C1052.92 88.22 1050.04 86.196 1050.04 82.566V77.814C1050.04 74.184 1052.92 72.16 1055.98 72.16C1059.06 72.16 1061.94 74.184 1061.94 77.814V82.566C1061.94 86.196 1059.06 88.22 1055.98 88.22ZM1055.98 85.8C1057.82 85.8 1059.36 84.524 1059.36 82.566V77.814C1059.36 75.856 1057.82 74.58 1055.98 74.58C1054.15 74.58 1052.61 75.856 1052.61 77.814V82.566C1052.61 84.524 1054.15 85.8 1055.98 85.8ZM1067.43 80.564C1064.93 80.564 1063.12 78.804 1063.12 76.384C1063.12 73.986 1064.93 72.204 1067.43 72.204C1069.92 72.204 1071.72 73.986 1071.72 76.384C1071.72 78.804 1069.9 80.564 1067.43 80.564ZM1075.64 72.38H1077.73L1070.6 88H1068.49L1075.64 72.38ZM1067.43 78.76C1068.8 78.76 1069.83 77.748 1069.83 76.384C1069.83 75.02 1068.82 74.008 1067.43 74.008C1066.07 74.008 1065.04 75.02 1065.04 76.384C1065.04 77.748 1066.07 78.76 1067.43 78.76ZM1078.81 88.242C1076.32 88.242 1074.52 86.482 1074.52 84.062C1074.52 81.664 1076.32 79.904 1078.81 79.904C1081.29 79.904 1083.12 81.664 1083.12 84.062C1083.12 86.482 1081.29 88.242 1078.81 88.242ZM1078.81 86.438C1080.19 86.438 1081.21 85.426 1081.21 84.062C1081.21 82.698 1080.22 81.686 1078.81 81.686C1077.47 81.686 1076.43 82.698 1076.43 84.062C1076.43 85.426 1077.47 86.438 1078.81 86.438Z" fill="white"/>
</svg>
