<svg width="325" height="325" viewBox="0 0 325 325" fill="none" xmlns="http://www.w3.org/2000/svg">
<rect x="1" y="1" width="323" height="323" fill="#A7D408"/>
<rect x="1" y="1" width="323" height="323" stroke="#333333" stroke-width="2"/>
<path d="M227.973 145.133C228.963 145.133 229.954 144.234 231.027 142.887C232.1 141.539 233.09 139.742 233.998 136.598C234.906 133.903 235.567 130.309 236.227 125.817C236.805 121.325 237.053 115.485 237.053 109.197C237.053 104.705 236.887 100.213 236.557 95.7205C236.145 91.6777 235.567 87.6349 234.906 84.4905C234.164 80.8969 233.338 78.6509 232.183 76.4048C231.109 74.608 229.871 73.7096 228.468 73.7096C227.725 73.7096 226.817 74.608 225.827 75.5064C224.754 76.4048 223.763 78.6509 222.855 81.7953C221.782 84.9397 220.957 89.4317 220.214 95.2713C219.471 101.111 218.893 108.747 218.728 117.731H211.795C211.96 107.4 212.372 97.9665 212.95 89.8809C213.528 82.2445 214.271 75.0572 215.179 69.2176C216.087 63.378 217.077 58.4368 218.15 54.8432C219.306 50.8003 220.461 47.6559 221.617 45.4099C222.855 42.7147 224.011 41.3671 225.249 40.0195C226.487 39.1211 227.643 38.6719 228.716 38.6719C230.614 38.6719 232.513 40.0195 234.411 42.7147C236.31 45.4099 238.043 49.4527 239.529 54.8432C241.015 60.2336 242.17 67.4208 243.078 75.5064C243.986 84.0413 244.481 93.4745 244.481 104.705C244.481 112.341 244.234 118.181 243.904 123.571C243.573 129.411 243.078 133.903 242.418 138.395C241.84 142.438 241.18 145.582 240.354 148.726C239.611 151.422 238.868 153.668 238.208 155.914V156.812C238.951 157.71 239.776 159.058 240.684 161.304C241.592 163.55 242.418 166.694 243.243 170.737C243.986 175.229 244.646 180.62 245.224 186.908C245.719 193.647 245.967 201.283 245.967 210.716C245.967 224.192 245.389 235.422 244.399 244.856C243.408 254.738 242.005 262.374 240.354 269.112C238.703 275.401 236.805 280.342 234.741 283.487C232.595 286.631 230.532 287.979 228.386 287.979C225.662 287.979 223.185 286.182 220.957 282.139C218.728 278.546 216.83 273.155 215.179 265.968C213.61 259.23 212.29 250.695 211.382 240.813C210.391 230.93 209.814 220.149 209.648 208.47H217.077C217.325 217.005 217.738 224.192 218.48 230.032C219.223 235.422 220.049 240.364 221.122 243.508C222.112 246.652 223.268 249.348 224.506 250.695C225.744 252.492 226.982 252.941 228.303 252.941C231.687 252.941 234.246 249.348 235.979 241.711C237.713 234.075 238.538 224.192 238.538 211.615C238.538 206.224 238.373 201.283 238.126 197.24C237.795 193.197 237.218 189.154 236.557 186.459C235.814 183.315 234.824 181.069 233.668 179.272C232.43 177.924 230.944 177.475 229.211 177.475H228.055C227.56 177.475 227.147 177.475 226.652 177.924H225.331L224.176 178.823V145.133H227.973Z" fill="white"/>
<path d="M173.991 225.981H174.156L195.37 45.8516H203.872V280.784H196.36V100.654H196.195L175.064 280.784H166.562V45.8516H173.991V225.981Z" fill="white"/>
<path d="M141.399 45.8516C146.682 45.8516 150.561 51.242 153.203 62.0228C155.844 72.8037 157.082 88.0765 157.082 108.291C157.082 119.071 156.669 128.505 155.679 135.692C154.688 143.328 153.45 149.617 151.882 155.457C154.111 159.949 155.927 167.136 157.247 175.671C158.651 184.655 159.311 195.885 159.311 209.81C159.311 220.591 158.981 230.474 158.32 239.458C157.577 247.992 156.587 255.629 155.266 261.918C153.863 267.757 152.13 272.249 150.066 275.843C147.92 278.987 145.361 280.784 142.555 280.784H122.992V45.8516H141.399ZM141.647 145.125C144.123 145.125 146.104 142.43 147.507 137.04C148.993 131.649 149.736 123.114 149.736 111.884C149.736 105.595 149.488 100.205 149.076 95.7129C148.663 91.6701 148.168 88.0765 147.507 85.3813C146.764 82.6861 146.104 80.8893 145.196 79.5417C144.371 78.6433 143.463 78.1941 142.637 78.1941H130.421V145.125H141.647ZM141.647 248.442C143.628 248.442 145.279 247.543 146.599 245.746C147.92 244.399 148.911 242.153 149.736 238.559C150.479 235.415 151.057 231.821 151.387 226.88C151.717 222.388 151.882 217.447 151.882 211.607C151.882 205.767 151.717 200.826 151.387 196.334C151.057 191.393 150.479 187.799 149.736 184.655C148.911 181.511 147.92 178.815 146.599 177.468C145.279 175.671 143.628 174.772 141.647 174.772H130.421V248.442H141.647Z" fill="white"/>
<path d="M86.8507 159.5L108.642 45.8516H118.382L98.0765 149.617L118.712 280.784H109.137L92.2985 174.323L86.8507 199.029V280.784H79.4219V45.8516H86.8507V159.5Z" fill="white"/>
<rect x="120.248" y="270.764" width="187.84" height="33.7038" transform="rotate(-7.04054 120.248 270.764)" fill="#047FCF"/>
<rect x="120.248" y="270.764" width="187.84" height="33.7038" transform="rotate(-7.04054 120.248 270.764)" stroke="#333333" stroke-width="2"/>
<path d="M138.474 290.027L136.998 290.209L135.545 278.439L144.613 277.319L146.066 289.089L144.591 289.272L143.303 278.844L137.186 279.6L138.474 290.027ZM152.554 288.456C149.951 288.778 147.759 287.113 147.446 284.577C147.133 282.04 148.853 279.892 151.456 279.571C154.042 279.251 156.234 280.916 156.547 283.453C156.86 285.989 155.14 288.137 152.554 288.456ZM152.392 287.147C154.166 286.928 155.357 285.4 155.136 283.61C154.917 281.836 153.392 280.661 151.618 280.88C149.844 281.099 148.634 282.612 148.853 284.386C149.074 286.176 150.618 287.366 152.392 287.147ZM166.606 286.721C163.953 287.049 161.845 285.373 161.531 282.837C161.218 280.301 162.856 278.163 165.508 277.835C166.586 277.702 167.574 277.934 168.385 278.507L168.563 279.949C167.8 279.353 166.897 278.993 165.803 279.128C163.996 279.352 162.771 280.883 162.99 282.657C163.209 284.431 164.772 285.635 166.579 285.411C167.673 285.276 168.459 284.691 169.057 283.944L169.233 285.37C168.587 286.14 167.683 286.588 166.606 286.721ZM173.938 276.794C176.541 276.473 178.579 278.123 178.902 281.146L171.641 282.043C171.947 283.705 173.377 284.656 175.035 284.451C176.444 284.277 177.243 283.388 177.524 282.528L178.819 282.52C178.55 284.017 177.191 285.414 175.168 285.663C172.598 285.981 170.475 284.459 170.143 281.773C169.834 279.27 171.418 277.105 173.938 276.794ZM174.085 277.988C172.511 278.182 171.435 279.426 171.504 280.932L177.256 280.222C177.026 278.769 175.743 277.783 174.085 277.988ZM184.876 275.46C187.479 275.139 189.395 276.888 189.704 279.391C190.017 281.928 188.525 284.014 185.905 284.337C184.413 284.522 183.059 283.915 182.238 282.72L182.941 288.406L181.498 288.584L179.973 276.234L181.2 276.082L181.657 278.012L181.661 278.045C182.032 276.687 183.185 275.669 184.876 275.46ZM185.464 283.079C187.304 282.852 188.468 281.378 188.243 279.555C188.016 277.715 186.528 276.569 184.688 276.796C182.864 277.021 181.741 278.557 181.96 280.331C182.177 282.088 183.64 283.304 185.464 283.079ZM193.068 281.248L197.583 274.059L198.926 273.893L199.98 282.431L198.538 282.609L197.742 276.16L193.217 283.266L191.89 283.43L190.836 274.892L192.262 274.716L193.068 281.248ZM208.585 274.669L208.561 272.703L209.805 272.55L210.859 281.087L209.4 281.267L209.152 279.261C208.784 280.637 207.63 281.654 205.939 281.863C203.353 282.183 201.421 280.435 201.111 277.932C200.798 275.396 202.289 273.293 204.925 272.967C206.4 272.785 207.756 273.409 208.575 274.587L208.585 274.669ZM206.128 280.527C207.951 280.302 209.074 278.766 208.855 276.992C208.638 275.235 207.175 274.019 205.352 274.244C203.512 274.471 202.364 275.943 202.589 277.766C202.816 279.606 204.288 280.754 206.128 280.527ZM212.26 280.948L212.1 279.655C212.792 279.536 213.576 279.069 213.382 277.494L212.726 272.189L219.44 271.36L220.495 279.897L219.069 280.073L218.174 272.829L214.279 273.31L214.778 277.355C215.067 279.692 213.804 280.774 212.26 280.948ZM229.097 272.136L229.073 270.17L230.316 270.016L231.371 278.554L229.912 278.734L229.664 276.728C229.296 278.103 228.142 279.121 226.451 279.33C223.865 279.649 221.932 277.902 221.623 275.399C221.31 272.862 222.801 270.759 225.437 270.434C226.912 270.252 228.268 270.875 229.087 272.053L229.097 272.136ZM226.64 277.994C228.463 277.769 229.586 276.233 229.367 274.459C229.15 272.702 227.687 271.486 225.864 271.711C224.023 271.938 222.876 273.409 223.101 275.233C223.328 277.073 224.799 278.221 226.64 277.994ZM237.376 273.453L239.919 268.83L241.279 268.663L242.333 277.2L240.891 277.378C240.487 274.112 240.316 272.451 240.236 270.441C239.629 271.929 238.968 273.257 237.626 275.476C235.843 273.71 234.898 272.598 233.893 271.275C234.298 273.194 234.519 274.849 234.923 278.115L233.497 278.291L232.443 269.754L233.785 269.588L237.376 273.453ZM254.999 263.686L256.457 263.506L257.911 275.276L256.519 275.448L248.656 266.843C248.841 267.661 249.083 269.483 249.921 276.263L248.462 276.443L247.008 264.673L248.401 264.501L256.271 273.173C256.084 272.338 255.844 270.533 254.999 263.686ZM263.076 265.785C265.679 265.464 267.717 267.114 268.04 270.137L260.779 271.034C261.086 272.696 262.516 273.647 264.174 273.442C265.583 273.268 266.382 272.379 266.663 271.519L267.958 271.511C267.688 273.008 266.329 274.405 264.306 274.655C261.737 274.972 259.613 273.45 259.282 270.765C258.973 268.261 260.557 266.097 263.076 265.785ZM263.224 266.979C261.649 267.173 260.574 268.417 260.642 269.923L266.395 269.213C266.165 267.76 264.882 266.774 263.224 266.979ZM271.005 264.991L272.812 264.768L272.953 265.912L271.146 266.135L272.059 273.529L270.6 273.709L269.687 266.315L268.427 266.471L268.286 265.327L269.546 265.171L269.243 262.718L270.702 262.538L271.005 264.991ZM277.183 261.418C276.337 261.522 275.891 261.998 276.103 263.167L276.248 264.344L278.536 264.061L278.677 265.205L276.389 265.488L277.303 272.881L275.86 273.059L274.947 265.666L273.936 265.791L273.795 264.647L274.806 264.522L274.638 263.162C274.409 261.306 275.423 260.389 276.783 260.221C277.247 260.164 277.723 260.206 278.102 260.277L278.248 261.454C277.887 261.398 277.514 261.377 277.183 261.418ZM279.477 259.99L280.919 259.812L282.455 272.245L281.013 272.423L279.477 259.99ZM284.092 262.079C283.578 262.142 283.129 261.777 283.067 261.28C283.004 260.766 283.35 260.302 283.864 260.239C284.378 260.175 284.844 260.539 284.907 261.053C284.969 261.55 284.606 262.016 284.092 262.079ZM283.52 263.446L284.962 263.267L286.017 271.805L284.574 271.983L283.52 263.446ZM293.066 262.267L294.741 262.06L291.841 266.659L295.795 270.597L294.121 270.804C292.149 268.877 291.47 268.152 291.088 267.51C290.857 268.228 290.392 269.094 288.981 271.439L287.324 271.644L290.192 266.93L286.269 263.106L287.927 262.901C289.909 264.777 290.528 265.425 290.91 266.067C291.131 265.401 291.558 264.641 293.066 262.267Z" fill="white"/>
</svg>
