<svg width="325" height="325" viewBox="0 0 325 325" fill="none" xmlns="http://www.w3.org/2000/svg">
<rect x="1" y="1" width="323" height="323" fill="#EC3396"/>
<rect x="1" y="1" width="323" height="323" stroke="#333333" stroke-width="2"/>
<path d="M227.973 145.133C228.963 145.133 229.954 144.234 231.027 142.887C232.1 141.539 233.09 139.742 233.998 136.598C234.906 133.903 235.567 130.309 236.227 125.817C236.805 121.325 237.053 115.485 237.053 109.197C237.053 104.705 236.887 100.213 236.557 95.7205C236.145 91.6777 235.567 87.6349 234.906 84.4905C234.164 80.8969 233.338 78.6509 232.183 76.4048C231.109 74.608 229.871 73.7096 228.468 73.7096C227.725 73.7096 226.817 74.608 225.827 75.5064C224.754 76.4048 223.763 78.6509 222.855 81.7953C221.782 84.9397 220.957 89.4317 220.214 95.2713C219.471 101.111 218.893 108.747 218.728 117.731H211.795C211.96 107.4 212.372 97.9665 212.95 89.8809C213.528 82.2445 214.271 75.0572 215.179 69.2176C216.087 63.378 217.077 58.4368 218.15 54.8432C219.306 50.8003 220.461 47.6559 221.617 45.4099C222.855 42.7147 224.011 41.3671 225.249 40.0195C226.487 39.1211 227.643 38.6719 228.716 38.6719C230.614 38.6719 232.513 40.0195 234.411 42.7147C236.31 45.4099 238.043 49.4527 239.529 54.8432C241.015 60.2336 242.17 67.4208 243.078 75.5064C243.986 84.0413 244.481 93.4745 244.481 104.705C244.481 112.341 244.234 118.181 243.904 123.571C243.573 129.411 243.078 133.903 242.418 138.395C241.84 142.438 241.18 145.582 240.354 148.726C239.611 151.422 238.868 153.668 238.208 155.914V156.812C238.951 157.71 239.776 159.058 240.684 161.304C241.592 163.55 242.418 166.694 243.243 170.737C243.986 175.229 244.646 180.62 245.224 186.908C245.719 193.647 245.967 201.283 245.967 210.716C245.967 224.192 245.389 235.422 244.399 244.856C243.408 254.738 242.005 262.374 240.354 269.112C238.703 275.401 236.805 280.342 234.741 283.487C232.595 286.631 230.532 287.979 228.386 287.979C225.662 287.979 223.185 286.182 220.957 282.139C218.728 278.546 216.83 273.155 215.179 265.968C213.61 259.23 212.29 250.695 211.382 240.813C210.391 230.93 209.814 220.149 209.648 208.47H217.077C217.325 217.005 217.738 224.192 218.48 230.032C219.223 235.422 220.049 240.364 221.122 243.508C222.112 246.652 223.268 249.348 224.506 250.695C225.744 252.492 226.982 252.941 228.303 252.941C231.687 252.941 234.246 249.348 235.979 241.711C237.713 234.075 238.538 224.192 238.538 211.615C238.538 206.224 238.373 201.283 238.126 197.24C237.795 193.197 237.218 189.154 236.557 186.459C235.814 183.315 234.824 181.069 233.668 179.272C232.43 177.924 230.944 177.475 229.211 177.475H228.055C227.56 177.475 227.147 177.475 226.652 177.924H225.331L224.176 178.823V145.133H227.973Z" fill="white"/>
<path d="M173.991 225.981H174.156L195.37 45.8516H203.872V280.784H196.36V100.654H196.195L175.064 280.784H166.562V45.8516H173.991V225.981Z" fill="white"/>
<path d="M141.399 45.8516C146.682 45.8516 150.561 51.242 153.203 62.0228C155.844 72.8037 157.082 88.0765 157.082 108.291C157.082 119.071 156.669 128.505 155.679 135.692C154.688 143.328 153.45 149.617 151.882 155.457C154.111 159.949 155.927 167.136 157.247 175.671C158.651 184.655 159.311 195.885 159.311 209.81C159.311 220.591 158.981 230.474 158.32 239.458C157.577 247.992 156.587 255.629 155.266 261.918C153.863 267.757 152.13 272.249 150.066 275.843C147.92 278.987 145.361 280.784 142.555 280.784H122.992V45.8516H141.399ZM141.647 145.125C144.123 145.125 146.104 142.43 147.507 137.04C148.993 131.649 149.736 123.114 149.736 111.884C149.736 105.595 149.488 100.205 149.076 95.7129C148.663 91.6701 148.168 88.0765 147.507 85.3813C146.764 82.6861 146.104 80.8893 145.196 79.5417C144.371 78.6433 143.463 78.1941 142.637 78.1941H130.421V145.125H141.647ZM141.647 248.442C143.628 248.442 145.279 247.543 146.599 245.746C147.92 244.399 148.911 242.153 149.736 238.559C150.479 235.415 151.057 231.821 151.387 226.88C151.717 222.388 151.882 217.447 151.882 211.607C151.882 205.767 151.717 200.826 151.387 196.334C151.057 191.393 150.479 187.799 149.736 184.655C148.911 181.511 147.92 178.815 146.599 177.468C145.279 175.671 143.628 174.772 141.647 174.772H130.421V248.442H141.647Z" fill="white"/>
<path d="M86.8507 159.5L108.642 45.8516H118.382L98.0765 149.617L118.712 280.784H109.137L92.2985 174.323L86.8507 199.029V280.784H79.4219V45.8516H86.8507V159.5Z" fill="white"/>
<rect x="120.248" y="271.007" width="189.84" height="33.7038" transform="rotate(-7.04054 120.248 271.007)" fill="#A7D408"/>
<rect x="120.248" y="271.007" width="189.84" height="33.7038" transform="rotate(-7.04054 120.248 271.007)" stroke="#333333" stroke-width="2"/>
<path d="M138.838 290.224L136.899 290.464L135.445 278.693L144.828 277.535L146.282 289.305L144.342 289.544L143.106 279.531L137.602 280.211L138.838 290.224ZM152.65 288.687C149.998 289.014 147.808 287.366 147.489 284.78C147.171 282.21 148.892 280.062 151.545 279.735C154.214 279.405 156.405 281.07 156.723 283.639C157.042 286.226 155.319 288.357 152.65 288.687ZM152.439 286.979C154.031 286.783 155.077 285.442 154.883 283.867C154.686 282.275 153.347 281.246 151.756 281.442C150.181 281.637 149.149 282.959 149.346 284.551C149.54 286.125 150.865 287.174 152.439 286.979ZM166.592 286.982C163.84 287.322 161.765 285.642 161.445 283.056C161.128 280.487 162.733 278.353 165.484 278.013C166.529 277.884 167.496 278.084 168.285 278.61L168.512 280.45C167.788 279.9 166.891 279.59 165.88 279.715C164.239 279.917 163.143 281.264 163.337 282.839C163.532 284.414 164.92 285.438 166.562 285.235C167.573 285.11 168.367 284.591 168.936 283.881L169.163 285.722C168.526 286.423 167.637 286.853 166.592 286.982ZM173.833 276.982C176.452 276.659 178.551 278.251 178.873 281.543L171.96 282.397C172.242 283.726 173.467 284.517 174.893 284.341C176.12 284.189 176.838 283.461 177.11 282.67L178.807 282.646C178.533 284.245 177.093 285.668 175.071 285.918C172.452 286.241 170.31 284.705 169.978 282.019C169.663 279.466 171.263 277.299 173.833 276.982ZM174.023 278.524C172.664 278.692 171.73 279.716 171.782 280.955L176.739 280.343C176.54 279.139 175.432 278.35 174.023 278.524ZM184.887 275.634C187.507 275.31 189.362 277.117 189.669 279.604C189.985 282.157 188.546 284.27 185.893 284.598C184.6 284.758 183.329 284.275 182.543 283.228L183.209 288.615L181.302 288.851L179.769 276.434L181.343 276.24L181.886 277.906L181.892 277.956C182.213 276.738 183.329 275.826 184.887 275.634ZM185.316 282.919C186.94 282.718 187.96 281.431 187.761 279.823C187.56 278.198 186.259 277.198 184.634 277.398C183.026 277.597 182.013 278.934 182.207 280.509C182.4 282.067 183.708 283.117 185.316 282.919ZM193.274 280.825L197.229 274.278L198.953 274.065L200.016 282.669L198.142 282.9L197.417 277.031L193.467 283.477L191.727 283.692L190.664 275.088L192.537 274.857L193.274 280.825ZM208.16 274.594L208.255 272.916L209.88 272.715L210.943 281.319L209.02 281.557L208.803 279.799C208.484 281.034 207.366 281.929 205.807 282.122C203.188 282.445 201.316 280.64 201.009 278.153C200.693 275.6 202.149 273.485 204.801 273.157C206.094 272.998 207.366 273.48 208.152 274.528L208.16 274.594ZM206.061 280.357C207.669 280.158 208.682 278.821 208.487 277.246C208.295 275.688 206.987 274.638 205.379 274.836C203.754 275.037 202.735 276.324 202.934 277.932C203.134 279.557 204.436 280.557 206.061 280.357ZM212.262 281.207L212.07 279.514C212.729 279.399 213.38 278.948 213.21 277.572L212.569 272.383L219.548 271.521L220.611 280.125L218.738 280.356L217.884 273.443L214.618 273.847L215.054 277.378C215.349 279.765 214.073 281.017 212.262 281.207ZM228.736 272.053L228.832 270.375L230.457 270.174L231.519 278.778L229.596 279.015L229.379 277.258C229.06 278.492 227.942 279.388 226.384 279.58C223.765 279.904 221.892 278.099 221.585 275.612C221.27 273.059 222.725 270.944 225.378 270.616C226.671 270.456 227.942 270.939 228.728 271.986L228.736 272.053ZM226.637 277.816C228.245 277.617 229.258 276.28 229.064 274.705C228.872 273.147 227.564 272.096 225.956 272.295C224.331 272.496 223.312 273.783 223.51 275.391C223.711 277.016 225.013 278.016 226.637 277.816ZM237.401 272.952L239.744 269.027L241.501 268.81L242.564 277.414L240.69 277.645C240.258 274.147 240.13 272.834 240.151 271.097C239.722 272.261 239.176 273.288 237.718 275.521C235.871 273.78 235.109 272.932 234.324 271.884C234.742 273.499 234.922 274.823 235.352 278.304L233.479 278.536L232.416 269.932L234.174 269.715L237.401 272.952ZM254.832 263.949L256.722 263.715L258.176 275.486L256.369 275.709L249.113 267.786C249.31 268.704 249.564 270.625 250.285 276.46L248.378 276.696L246.925 264.925L248.748 264.7L256.013 272.69C255.797 271.757 255.559 269.834 254.832 263.949ZM263.246 265.939C265.866 265.616 267.964 267.208 268.287 270.501L261.374 271.354C261.656 272.683 262.881 273.474 264.307 273.298C265.533 273.146 266.251 272.418 266.524 271.627L268.221 271.603C267.947 273.202 266.507 274.625 264.485 274.875C261.865 275.198 259.723 273.662 259.391 270.976C259.076 268.423 260.677 266.257 263.246 265.939ZM263.437 267.481C262.077 267.649 261.143 268.673 261.196 269.912L266.152 269.3C265.953 268.096 264.846 267.307 263.437 267.481ZM271.624 265.09L273.531 264.854L273.715 266.346L271.808 266.582L272.687 273.694L270.797 273.927L269.919 266.815L268.576 266.981L268.392 265.489L269.734 265.323L269.425 262.82L271.315 262.586L271.624 265.09ZM278.303 261.875C277.474 261.977 277.011 262.455 277.277 263.651L277.367 264.38L279.621 264.102L279.806 265.594L277.551 265.872L278.429 272.984L276.539 273.218L275.661 266.106L274.633 266.233L274.449 264.741L275.477 264.614L275.354 263.619C275.088 261.464 276.316 260.504 277.775 260.324C278.289 260.261 278.798 260.299 279.194 260.368L279.384 261.91C279.024 261.853 278.651 261.832 278.303 261.875ZM280.495 260.106L282.402 259.871L283.937 272.304L282.031 272.54L280.495 260.106ZM285.666 262.261C285.036 262.339 284.477 261.903 284.401 261.29C284.323 260.66 284.759 260.101 285.389 260.023C286.003 259.948 286.561 260.384 286.639 261.014C286.715 261.627 286.279 262.186 285.666 262.261ZM284.837 263.458L286.744 263.222L287.806 271.826L285.9 272.062L284.837 263.458ZM294.641 262.247L296.813 261.979L293.964 266.572L297.876 270.583L295.704 270.851C294.03 269.156 293.346 268.382 292.997 267.735C292.832 268.445 292.389 269.358 291.195 271.408L289.023 271.676L291.854 266.934L287.961 263.072L290.132 262.804C291.816 264.447 292.437 265.111 292.765 265.727C292.924 265.101 293.362 264.29 294.641 262.247Z" fill="white"/>
</svg>
