<svg width="343" height="510" viewBox="0 0 343 510" fill="none" xmlns="http://www.w3.org/2000/svg">
<path d="M75.9419 179.069H76.0691L84.0826 5.58621H98.0745V228.414H89.2978V42.2069H89.1706L80.521 228.414H71.2355L62.9039 42.2069H62.7767V228.414H54V5.58621H67.9283L75.9419 179.069Z" fill="#333333"/>
<path d="M114.865 157.345H114.993L133.055 5.58621H142.722V228.414H133.564V77.5862H133.436L115.374 228.414H105.707V5.58621H114.865V157.345Z" fill="#333333"/>
<path d="M167.823 204.207C164.771 203.276 161.972 200.793 159.555 196.138C157.075 191.483 154.976 185.586 153.195 177.828C151.478 170.069 150.143 161.069 149.189 150.828C148.235 140.276 147.79 129.103 147.79 117C147.79 111.414 147.917 105.517 148.171 99C148.426 92.4828 148.807 86.2759 149.443 79.7586C150.016 73.2414 150.842 67.3448 151.796 61.4483C152.814 55.5517 154.022 50.5862 155.549 45.9311C157.011 41.2759 158.792 37.5517 160.827 34.4483C162.863 31.6552 165.152 30.1035 167.823 29.7931V5.58621H176.982V29.7931C179.653 30.1035 182.006 31.6552 184.041 34.4483C186.013 37.5517 187.794 41.2759 189.32 45.9311C190.783 50.5862 191.991 55.5517 193.009 61.4483C193.963 67.3448 194.79 73.2414 195.362 79.7586C195.998 86.2759 196.38 92.4828 196.634 99C196.888 105.517 197.016 111.414 197.016 117C197.016 129.103 196.57 140.276 195.616 150.828C194.662 161.069 193.327 170.069 191.61 177.828C189.829 185.586 187.73 191.483 185.313 196.138C182.833 200.793 180.035 203.276 176.982 204.207V228.414H167.823V204.207ZM167.823 62.069C165.661 62.3793 163.88 64.2414 162.481 67.6552C161.018 71.069 159.937 75.4138 159.11 80.3793C158.283 85.6552 157.711 91.2414 157.393 97.4483C157.075 103.655 156.884 109.552 156.948 115.448C156.948 125.69 157.266 134.379 157.965 141.517C158.601 148.655 159.492 154.552 160.509 158.897C161.591 163.552 162.735 166.655 164.071 168.828C165.343 170.69 166.615 171.931 167.823 171.931V62.069ZM176.982 171.621C178.19 171.621 179.462 170.379 180.798 168.517C182.07 166.345 183.214 163.241 184.296 158.586C185.313 154.241 186.204 148.345 186.903 141.207C187.539 134.069 187.857 125.069 187.857 115.138C187.857 109.241 187.73 103.345 187.412 97.1379C187.03 91.2414 186.522 85.6552 185.631 80.3793C184.804 75.4138 183.723 71.069 182.324 67.6552C180.925 64.2414 179.144 62.3793 176.982 62.069V171.621Z" fill="#333333"/>
<path d="M200.449 117C200.449 100.241 200.894 85.0345 201.785 70.7586C202.739 56.4828 204.074 44.069 205.919 33.5172C207.763 22.9655 209.989 14.8966 212.787 9.00001C215.522 3.10346 218.766 0 222.391 0C225.762 0 228.814 3.10346 231.549 9.00001C234.22 14.8966 236.574 22.9655 238.482 33.5172C240.326 44.069 241.789 56.4828 242.806 70.7586C243.824 85.0345 244.333 100.241 244.333 117C244.333 133.448 243.824 148.966 242.806 163.241C241.789 177.517 240.326 189.931 238.482 200.483C236.574 210.724 234.22 219.103 231.549 225C228.814 230.897 225.762 234 222.391 234C218.766 234 215.522 230.897 212.787 225C209.989 219.103 207.763 210.724 205.919 200.483C204.074 189.931 202.739 177.517 201.785 163.241C200.894 148.966 200.449 133.448 200.449 117ZM222.391 193.655C224.362 193.655 226.08 191.793 227.606 188.069C229.132 184.035 230.468 178.759 231.549 171.931C232.567 165.103 233.394 157.035 233.966 147.724C234.538 138.414 234.793 128.172 234.793 117C234.793 105.828 234.538 95.5862 233.966 86.2759C233.394 76.9655 232.567 68.8966 231.549 62.069C230.468 55.2414 229.132 49.9655 227.606 46.2414C226.08 42.2069 224.362 40.3448 222.391 40.3448C220.419 40.3448 218.702 42.2069 217.176 46.2414C215.649 49.9655 214.377 55.2414 213.296 62.069C212.215 68.8966 211.388 76.9655 210.879 86.2759C210.243 95.5862 209.989 105.828 209.989 117C209.989 128.172 210.243 138.414 210.879 147.724C211.388 157.035 212.215 165.103 213.296 171.931C214.377 178.759 215.649 184.035 217.176 188.069C218.702 191.793 220.419 193.655 222.391 193.655Z" fill="#333333"/>
<path d="M273.482 5.58621C275.326 5.58621 276.98 6.51725 278.442 8.37931C279.842 9.93103 281.05 12.4138 282.068 15.2069C283.085 18 283.976 21.4138 284.675 25.4483C285.438 29.1724 285.947 33.2069 286.392 37.2414C286.774 41.5862 287.092 45.9311 287.283 50.2759C287.41 54.6207 287.537 58.6552 287.537 62.6897C287.537 68.2759 287.41 73.2414 287.219 77.8966C286.965 82.2414 286.71 86.2759 286.265 90C285.756 93.7241 285.248 97.1379 284.484 99.931C283.785 103.034 282.958 105.828 281.94 108.31C283.467 111.103 284.675 114.517 285.629 118.552C286.583 122.897 287.283 127.241 287.792 131.897C288.3 136.862 288.618 141.828 288.746 146.793C288.936 152.069 289 157.035 289 161.69C289 172.552 288.618 182.172 287.792 190.241C286.965 198.621 285.82 205.448 284.357 211.035C282.958 216.621 281.114 221.276 279.015 224.069C276.916 226.862 274.626 228.414 272.019 228.414H251.095V5.58621H273.482ZM272.019 93.4138C272.846 93.4138 273.672 92.7931 274.436 92.1724C275.199 91.2414 275.898 89.6897 276.471 87.5173C277.043 85.6552 277.552 82.8621 277.87 79.7586C278.188 76.3449 278.379 72.6207 278.379 67.9655C278.379 63.3103 278.252 59.2759 277.934 56.1724C277.616 53.069 277.17 50.5862 276.598 48.7241C276.026 47.1724 275.39 45.9311 274.626 45C273.863 44.3793 273.1 44.069 272.273 44.069H260.253V93.4138H272.019ZM272.146 189.931C273.227 189.931 274.181 189.31 275.072 188.069C275.962 186.828 276.725 184.966 277.425 182.483C278.061 180 278.57 176.897 278.951 173.172C279.269 169.448 279.46 164.793 279.46 159.828C279.46 153.31 279.206 148.034 278.824 144.31C278.379 140.276 277.806 137.483 277.107 135.31C276.344 133.138 275.58 131.586 274.69 130.966C273.736 130.345 272.846 130.035 271.892 130.035H260.253V189.931H272.146Z" fill="#333333"/>
<path d="M8.48481 398.988H8.60265L25.3366 258.148H34.2928V464.943H25.808V324.968H25.6901L8.95618 464.943H0V258.148H8.48481V398.988Z" fill="#333333"/>
<path d="M310.519 339.62H317.687C318.238 339.62 318.89 339.62 319.792 339.908C320.594 339.908 321.496 340.774 322.449 341.927C323.401 343.081 324.403 344.811 325.356 347.407C326.308 350.003 327.16 353.464 327.962 358.078C328.764 362.981 329.366 368.749 329.867 375.96C330.368 383.17 330.619 392.111 330.619 402.493C330.619 412.876 330.368 421.817 329.867 429.027C329.366 435.949 328.764 441.717 328.013 446.62C327.261 451.235 326.409 454.695 325.506 457.291C324.554 459.598 323.652 461.617 322.799 462.771C321.897 463.925 321.095 464.79 320.393 464.79C319.692 465.078 319.14 465.078 318.789 465.078H303V258H310.519V339.62ZM343 465.078H335.481V258H343V465.078ZM316.885 429.315C317.586 429.315 318.288 429.027 318.99 428.45C319.742 427.873 320.393 426.72 320.995 424.701C321.647 422.97 322.098 420.086 322.499 416.337C322.9 412.588 323.1 407.685 323.1 401.628C323.1 394.995 322.9 390.092 322.549 386.342C322.148 382.593 321.647 379.709 320.995 377.979C320.393 375.96 319.692 374.806 318.94 374.518C318.138 373.941 317.386 373.652 316.584 373.652H310.519V429.315H316.885Z" fill="#333333"/>
<path d="M266.093 429.661C266.485 423.881 266.829 417.812 267.222 411.743C267.565 405.674 267.909 399.028 268.203 391.803C268.547 384.578 268.842 376.775 269.087 368.395C269.381 359.725 269.578 350.188 269.774 339.206C270.02 328.514 270.167 316.376 270.314 303.083C270.412 289.789 270.511 274.761 270.56 258H294.564V429.661H298V510H291.618V465.495H269.381V510H263V429.661H266.093ZM277.039 293.835C276.99 297.592 276.99 302.505 276.99 308.284C276.941 314.064 276.892 320.422 276.794 327.647C276.745 334.872 276.647 342.674 276.499 351.055C276.303 359.147 276.107 367.817 275.861 376.486C275.616 385.445 275.272 394.404 274.879 403.362C274.487 412.321 273.996 420.991 273.456 429.661H287.201V293.835H277.039Z" fill="#333333"/>
<path d="M247.718 258C249.178 258 250.487 258.865 251.644 260.596C252.752 262.038 253.708 264.345 254.513 266.941C255.319 269.536 256.023 272.709 256.577 276.458C257.181 279.919 257.584 283.668 257.936 287.418C258.238 291.456 258.49 295.493 258.641 299.531C258.742 303.569 258.842 307.318 258.842 311.067C258.842 316.259 258.742 320.873 258.591 325.199C258.389 329.237 258.188 332.987 257.836 336.447C257.433 339.908 257.03 343.081 256.426 345.677C255.872 348.561 255.218 351.156 254.413 353.464C255.621 356.059 256.577 359.232 257.332 362.981C258.087 367.019 258.641 371.057 259.044 375.383C259.446 379.997 259.698 384.612 259.799 389.226C259.95 394.129 260 398.744 260 403.07C260 413.165 259.698 422.105 259.044 429.604C258.389 437.391 257.483 443.736 256.326 448.927C255.218 454.119 253.758 458.445 252.097 461.041C250.436 463.636 248.624 465.078 246.56 465.078H230V258H247.718ZM246.56 339.62C247.215 339.62 247.869 339.043 248.473 338.466C249.077 337.601 249.631 336.159 250.084 334.14C250.537 332.41 250.94 329.814 251.191 326.93C251.443 323.757 251.594 320.297 251.594 315.97C251.594 311.644 251.493 307.895 251.242 305.011C250.99 302.127 250.638 299.819 250.185 298.089C249.732 296.647 249.228 295.493 248.624 294.628C248.02 294.051 247.416 293.763 246.762 293.763H237.248V339.62H246.56ZM246.661 429.315C247.517 429.315 248.272 428.739 248.977 427.585C249.681 426.431 250.285 424.701 250.839 422.394C251.342 420.086 251.745 417.202 252.047 413.741C252.299 410.28 252.45 405.954 252.45 401.34C252.45 395.283 252.248 390.38 251.946 386.919C251.594 383.17 251.141 380.574 250.587 378.555C249.983 376.536 249.379 375.094 248.674 374.518C247.919 373.941 247.215 373.652 246.46 373.652H237.248V429.315H246.661Z" fill="#333333"/>
<path d="M225 465.078H216.874L214.581 422.394H201.37L198.877 465.078H191L203.812 258H212.337L225 465.078ZM208.05 304.722H207.95L203.364 386.631H212.487L208.05 304.722Z" fill="#333333"/>
<path d="M176.975 258C178.837 258 180.454 259.73 181.875 262.615C183.247 265.499 184.374 269.825 185.305 275.593C186.187 281.361 186.873 288.283 187.314 296.647C187.755 304.722 188 313.952 188 324.334C188 334.14 187.706 343.081 187.216 350.868C186.677 359.232 185.893 366.154 184.913 371.922C183.933 377.979 182.708 382.593 181.287 385.766C179.817 388.938 178.2 390.669 176.387 390.669H168.35V465.078H161V258H176.975ZM175.309 354.906C176.975 354.906 178.298 352.598 179.229 347.695C180.16 343.081 180.65 335.294 180.65 324.334C180.65 318.854 180.503 314.24 180.307 310.491C180.013 306.741 179.67 303.28 179.229 300.973C178.788 298.377 178.2 296.647 177.563 295.493C176.877 294.34 176.142 293.763 175.309 293.763H168.35V354.906H175.309Z" fill="#333333"/>
<path d="M153 465.078H145.526V293.763H131.474V465.078H124V258H153V465.078Z" fill="#333333"/>
<path d="M117.156 293.763H98.147V339.62H115.618V375.383H98.147V427.585H118V465.078H91V258H117.156V293.763Z" fill="#333333"/>
<path d="M61.4742 336.736H75.5258V258H83V465.078H75.5258V372.499H61.4742V465.078H54V258H61.4742V336.736Z" fill="#333333"/>
</svg>
