<svg width="350" height="471" viewBox="0 0 350 471" fill="none" xmlns="http://www.w3.org/2000/svg">
<path d="M79.9419 179.069H80.0691L88.0826 5.58621H102.075V228.414H93.2978V42.2069H93.1706L84.521 228.414H75.2355L66.9039 42.2069H66.7767V228.414H58V5.58621H71.9283L79.9419 179.069Z" fill="#333333"/>
<path d="M118.865 157.345H118.993L137.055 5.58621H146.722V228.414H137.564V77.5862H137.436L119.374 228.414H109.707V5.58621H118.865V157.345Z" fill="#333333"/>
<path d="M171.823 204.207C168.771 203.276 165.972 200.793 163.555 196.138C161.075 191.483 158.976 185.586 157.195 177.828C155.478 170.069 154.143 161.069 153.189 150.828C152.235 140.276 151.79 129.103 151.79 117C151.79 111.414 151.917 105.517 152.171 99C152.426 92.4828 152.807 86.2759 153.443 79.7586C154.016 73.2414 154.842 67.3448 155.796 61.4483C156.814 55.5517 158.022 50.5862 159.549 45.9311C161.011 41.2759 162.792 37.5517 164.827 34.4483C166.863 31.6552 169.152 30.1035 171.823 29.7931V5.58621H180.982V29.7931C183.653 30.1035 186.006 31.6552 188.041 34.4483C190.013 37.5517 191.794 41.2759 193.32 45.9311C194.783 50.5862 195.991 55.5517 197.009 61.4483C197.963 67.3448 198.79 73.2414 199.362 79.7586C199.998 86.2759 200.38 92.4828 200.634 99C200.888 105.517 201.016 111.414 201.016 117C201.016 129.103 200.57 140.276 199.616 150.828C198.662 161.069 197.327 170.069 195.61 177.828C193.829 185.586 191.73 191.483 189.313 196.138C186.833 200.793 184.035 203.276 180.982 204.207V228.414H171.823V204.207ZM171.823 62.069C169.661 62.3793 167.88 64.2414 166.481 67.6552C165.018 71.069 163.937 75.4138 163.11 80.3793C162.283 85.6552 161.711 91.2414 161.393 97.4483C161.075 103.655 160.884 109.552 160.948 115.448C160.948 125.69 161.266 134.379 161.965 141.517C162.601 148.655 163.492 154.552 164.509 158.897C165.591 163.552 166.735 166.655 168.071 168.828C169.343 170.69 170.615 171.931 171.823 171.931V62.069ZM180.982 171.621C182.19 171.621 183.462 170.379 184.798 168.517C186.07 166.345 187.214 163.241 188.296 158.586C189.313 154.241 190.204 148.345 190.903 141.207C191.539 134.069 191.857 125.069 191.857 115.138C191.857 109.241 191.73 103.345 191.412 97.1379C191.03 91.2414 190.522 85.6552 189.631 80.3793C188.804 75.4138 187.723 71.069 186.324 67.6552C184.925 64.2414 183.144 62.3793 180.982 62.069V171.621Z" fill="#333333"/>
<path d="M204.449 117C204.449 100.241 204.894 85.0345 205.785 70.7586C206.739 56.4828 208.074 44.069 209.919 33.5172C211.763 22.9655 213.989 14.8966 216.787 9.00001C219.522 3.10346 222.766 0 226.391 0C229.762 0 232.814 3.10346 235.549 9.00001C238.22 14.8966 240.574 22.9655 242.482 33.5172C244.326 44.069 245.789 56.4828 246.806 70.7586C247.824 85.0345 248.333 100.241 248.333 117C248.333 133.448 247.824 148.966 246.806 163.241C245.789 177.517 244.326 189.931 242.482 200.483C240.574 210.724 238.22 219.103 235.549 225C232.814 230.897 229.762 234 226.391 234C222.766 234 219.522 230.897 216.787 225C213.989 219.103 211.763 210.724 209.919 200.483C208.074 189.931 206.739 177.517 205.785 163.241C204.894 148.966 204.449 133.448 204.449 117ZM226.391 193.655C228.362 193.655 230.08 191.793 231.606 188.069C233.132 184.035 234.468 178.759 235.549 171.931C236.567 165.103 237.394 157.035 237.966 147.724C238.538 138.414 238.793 128.172 238.793 117C238.793 105.828 238.538 95.5862 237.966 86.2759C237.394 76.9655 236.567 68.8966 235.549 62.069C234.468 55.2414 233.132 49.9655 231.606 46.2414C230.08 42.2069 228.362 40.3448 226.391 40.3448C224.419 40.3448 222.702 42.2069 221.176 46.2414C219.649 49.9655 218.377 55.2414 217.296 62.069C216.215 68.8966 215.388 76.9655 214.879 86.2759C214.243 95.5862 213.989 105.828 213.989 117C213.989 128.172 214.243 138.414 214.879 147.724C215.388 157.035 216.215 165.103 217.296 171.931C218.377 178.759 219.649 184.035 221.176 188.069C222.702 191.793 224.419 193.655 226.391 193.655Z" fill="#333333"/>
<path d="M277.482 5.58621C279.326 5.58621 280.98 6.51725 282.442 8.37931C283.842 9.93103 285.05 12.4138 286.068 15.2069C287.085 18 287.976 21.4138 288.675 25.4483C289.438 29.1724 289.947 33.2069 290.392 37.2414C290.774 41.5862 291.092 45.9311 291.283 50.2759C291.41 54.6207 291.537 58.6552 291.537 62.6897C291.537 68.2759 291.41 73.2414 291.219 77.8966C290.965 82.2414 290.71 86.2759 290.265 90C289.756 93.7241 289.248 97.1379 288.484 99.931C287.785 103.034 286.958 105.828 285.94 108.31C287.467 111.103 288.675 114.517 289.629 118.552C290.583 122.897 291.283 127.241 291.792 131.897C292.3 136.862 292.618 141.828 292.746 146.793C292.936 152.069 293 157.035 293 161.69C293 172.552 292.618 182.172 291.792 190.241C290.965 198.621 289.82 205.448 288.357 211.035C286.958 216.621 285.114 221.276 283.015 224.069C280.916 226.862 278.626 228.414 276.019 228.414H255.095V5.58621H277.482ZM276.019 93.4138C276.846 93.4138 277.672 92.7931 278.436 92.1724C279.199 91.2414 279.898 89.6897 280.471 87.5173C281.043 85.6552 281.552 82.8621 281.87 79.7586C282.188 76.3449 282.379 72.6207 282.379 67.9655C282.379 63.3103 282.252 59.2759 281.934 56.1724C281.616 53.069 281.17 50.5862 280.598 48.7241C280.026 47.1724 279.39 45.9311 278.626 45C277.863 44.3793 277.1 44.069 276.273 44.069H264.253V93.4138H276.019ZM276.146 189.931C277.227 189.931 278.181 189.31 279.072 188.069C279.962 186.828 280.725 184.966 281.425 182.483C282.061 180 282.57 176.897 282.951 173.172C283.269 169.448 283.46 164.793 283.46 159.828C283.46 153.31 283.206 148.034 282.824 144.31C282.379 140.276 281.806 137.483 281.107 135.31C280.344 133.138 279.58 131.586 278.69 130.966C277.736 130.345 276.846 130.035 275.892 130.035H264.253V189.931H276.146Z" fill="#333333"/>
<path d="M62.6596 398.986H62.7775L79.5114 258.147H88.4676V464.941H79.9828V324.966H79.8649L63.131 464.941H54.1748V258.147H62.6596V398.986Z" fill="#333333"/>
<path d="M109.248 324.966C109.248 343.975 109.189 360.392 109.013 374.793C108.777 389.193 108.541 401.866 108.129 412.234C107.716 422.891 107.245 432.107 106.656 439.308C106.067 446.508 105.301 452.268 104.476 456.589C103.651 460.909 102.708 464.077 101.647 465.805C100.587 467.821 99.4672 468.685 98.1709 468.685C97.1693 468.685 96.2265 468.397 95.4605 467.821C94.6356 467.245 93.8696 466.093 93.0447 464.653V424.907C93.2804 425.771 93.575 426.059 93.8696 426.635C94.1642 426.923 94.4588 427.499 94.7534 427.499C95.048 427.787 95.2837 428.075 95.5783 428.075C95.814 428.363 95.9908 428.363 96.1086 428.363C96.6389 428.363 97.1103 427.787 97.5817 427.211C97.9942 426.347 98.4066 424.907 98.7602 422.603C99.1137 420.299 99.4672 416.843 99.7029 412.522C99.9975 408.202 100.174 402.154 100.41 394.954C100.587 387.465 100.705 378.537 100.822 367.88C100.881 356.936 100.94 344.263 100.94 328.998V258.147H130.46V464.941H121.622V293.861H109.189L109.248 324.966Z" fill="#333333"/>
<path d="M150.535 324.966C150.535 343.975 150.477 360.392 150.3 374.793C150.064 389.193 149.828 401.866 149.416 412.234C149.003 422.891 148.532 432.107 147.943 439.308C147.354 446.508 146.588 452.268 145.763 456.589C144.938 460.909 143.995 464.077 142.934 465.805C141.874 467.821 140.754 468.685 139.458 468.685C138.456 468.685 137.514 468.397 136.748 467.821C135.923 467.245 135.157 466.093 134.332 464.653V424.907C134.567 425.771 134.862 426.059 135.157 426.635C135.451 426.923 135.746 427.499 136.041 427.499C136.335 427.787 136.571 428.075 136.865 428.075C137.101 428.363 137.278 428.363 137.396 428.363C137.926 428.363 138.397 427.787 138.869 427.211C139.281 426.347 139.694 424.907 140.047 422.603C140.401 420.299 140.754 416.843 140.99 412.522C141.285 408.202 141.461 402.154 141.697 394.954C141.874 387.465 141.992 378.537 142.11 367.88C142.168 356.936 142.227 344.263 142.227 328.998V258.147H171.747V464.941H162.909V293.861H150.477L150.535 324.966Z" fill="#333333"/>
<path d="M186.578 344.551H192.058C192.235 336.775 192.471 328.998 192.942 321.51C193.413 314.022 194.003 306.821 194.828 299.909C195.535 292.996 196.477 286.948 197.538 281.188C198.599 275.428 199.777 270.531 201.132 266.211C202.488 262.179 204.019 259.011 205.669 256.419C207.26 254.115 209.028 252.962 210.972 252.962C212.269 252.962 213.624 253.538 215.097 254.979C216.57 256.131 218.043 258.435 219.457 261.315C220.871 264.771 222.227 268.803 223.582 273.988C224.878 279.172 225.998 285.796 226.999 293.861C228.001 301.925 228.826 311.141 229.415 321.798C230.004 332.742 230.299 345.415 230.299 359.816C230.299 376.809 229.827 392.073 228.944 405.61C228.001 419.147 226.705 430.667 224.996 440.46C223.287 449.964 221.284 457.165 218.868 462.349C216.511 467.533 213.86 470.125 210.972 470.125C207.908 470.125 205.257 467.821 203.018 462.925C200.72 458.029 198.834 451.404 197.302 442.764C195.829 434.7 194.592 424.907 193.767 413.675C192.883 402.73 192.353 390.921 192.058 378.537H186.578V464.941H178.094V258.147H186.578V344.551ZM200.543 361.256C200.543 373.641 200.838 384.297 201.309 393.226C201.78 402.154 202.488 409.642 203.43 415.403C204.314 421.451 205.434 425.771 206.73 428.651C208.026 431.243 209.44 432.684 210.972 432.684C212.563 432.684 213.977 431.243 215.274 428.651C216.57 425.771 217.689 421.451 218.573 415.403C219.516 409.642 220.223 402.154 220.695 393.226C221.225 384.297 221.461 373.641 221.461 361.256C221.461 349.159 221.225 338.503 220.695 329.574C220.223 320.934 219.516 313.446 218.573 307.685C217.689 301.925 216.57 297.317 215.274 294.725C213.977 291.844 212.563 290.404 210.972 290.404C209.44 290.404 208.026 291.844 206.73 294.725C205.434 297.317 204.314 301.925 203.43 307.685C202.488 313.446 201.78 320.934 201.309 329.574C200.838 338.503 200.543 349.159 200.543 361.256Z" fill="#333333"/>
<path d="M252.866 342.823C253.691 342.823 254.457 342.247 255.223 341.095C255.93 339.943 256.578 338.503 257.167 335.911C257.698 333.607 258.11 331.014 258.464 327.558C258.758 324.102 258.935 320.358 258.935 315.75C258.935 309.989 258.699 305.381 258.228 301.637C257.757 297.605 257.167 294.725 256.46 292.708C255.753 290.692 254.928 288.964 253.986 288.1C253.102 287.236 252.218 286.948 251.334 286.948C250.097 286.948 249.095 287.524 248.27 288.676C247.386 289.828 246.62 291.268 246.031 293.284C245.383 295.013 244.853 297.029 244.44 299.333C244.028 301.925 243.733 303.941 243.497 306.245C243.262 308.837 243.085 310.853 242.967 312.869C242.908 314.886 242.849 316.326 242.849 317.766H234.718C234.718 314.886 234.777 311.141 234.954 306.821C235.072 302.501 235.366 297.893 235.779 293.284C236.191 288.388 236.78 283.78 237.605 278.884C238.371 273.988 239.373 269.667 240.669 265.923C241.965 262.179 243.497 259.011 245.383 256.419C247.21 254.115 249.449 252.962 251.982 252.962C254.693 252.962 257.05 254.691 258.994 258.147C260.938 261.603 262.529 266.211 263.767 271.683C265.004 277.156 265.947 283.492 266.536 290.116C267.125 297.029 267.42 303.365 267.42 309.989C267.42 313.734 267.302 317.478 267.184 321.51C266.949 325.542 266.654 329.574 266.124 333.318C265.652 337.063 265.004 340.807 264.179 343.975C263.354 347.143 262.235 350.023 260.938 352.039V352.615L262.412 354.632C262.942 355.496 263.531 356.648 264.12 358.088C264.71 359.816 265.24 361.832 265.829 364.136C266.359 366.728 266.89 369.608 267.302 373.353C267.773 377.097 268.127 381.417 268.422 386.601C268.657 391.785 268.834 397.546 268.834 404.458C268.834 413.387 268.422 422.027 267.656 429.803C266.89 437.868 265.711 444.78 264.238 450.828C262.706 456.877 260.88 461.485 258.641 464.941C256.401 468.397 253.868 470.125 251.04 470.125C249.566 470.125 248.093 469.837 246.679 468.973C245.206 468.109 243.91 466.669 242.614 464.941C241.317 462.925 240.08 460.045 238.96 456.877C237.841 453.709 236.898 449.676 236.073 444.78C235.248 440.172 234.6 434.412 234.188 427.787C233.716 421.163 233.481 413.387 233.481 404.746H241.612C241.612 408.202 241.789 411.658 242.142 415.403C242.437 419.147 242.967 422.603 243.733 425.483C244.499 428.651 245.442 431.243 246.679 433.26C247.858 434.988 249.331 436.14 251.098 436.14C252.689 436.14 254.045 434.988 255.164 433.26C256.284 431.531 257.226 428.939 257.933 426.059C258.699 422.891 259.171 419.435 259.524 415.691C259.819 411.658 259.996 407.626 259.996 403.594C259.996 397.258 259.76 392.073 259.348 388.041C258.876 384.297 258.287 381.129 257.58 379.113C256.932 377.097 256.166 375.657 255.341 375.081C254.575 374.505 253.809 374.217 253.102 374.217H245.56V342.823H252.866Z" fill="#333333"/>
<path d="M282.847 398.986H282.965L299.699 258.147H308.655V464.941H300.171V324.966H300.053L283.319 464.941H274.363V258.147H282.847V398.986Z" fill="#333333"/>
<path d="M333.561 247.49C329.908 247.49 327.138 243.746 325.253 236.834C323.367 229.633 322.483 218.977 322.483 204H329.142C329.142 206.88 329.259 209.76 329.436 212.064C329.554 214.369 329.849 216.673 330.143 218.401C330.497 220.129 330.968 221.569 331.498 222.433C332.088 223.585 332.736 224.161 333.561 224.161C334.386 224.161 335.034 223.585 335.623 222.433C336.153 221.569 336.625 220.129 337.037 218.401C337.332 216.673 337.626 214.657 337.803 212.352C337.921 209.76 338.039 206.88 337.98 204H344.697C344.697 218.977 343.754 229.633 341.869 236.834C339.983 243.746 337.273 247.49 333.561 247.49ZM324.192 398.986H324.31L341.044 258.147H350V464.941H341.515V324.966H341.397L324.663 464.941H315.707V258.147H324.192V398.986Z" fill="#333333"/>
<path d="M8.48481 398.988H8.60265L25.3366 258.148H34.2928V464.943H25.808V324.968H25.6901L8.95618 464.943H0V258.148H8.48481V398.988Z" fill="#333333"/>
</svg>
