<svg width="1130" height="256" viewBox="0 0 1130 256" fill="none" xmlns="http://www.w3.org/2000/svg">
<path d="M10.56 19H1.738V3.38H3.696V17.218H10.56V19ZM13.5908 5.976C12.9088 5.976 12.3808 5.426 12.3808 4.766C12.3808 4.084 12.9088 3.534 13.5908 3.534C14.2728 3.534 14.8228 4.084 14.8228 4.766C14.8228 5.426 14.2728 5.976 13.5908 5.976ZM12.6228 7.67H14.5368V19H12.6228V7.67ZM23.2674 7.428C25.6874 7.428 27.8214 8.858 27.8214 12.334V19H25.8854V12.598C25.8854 9.958 24.3454 9.1 22.7174 9.1C20.5834 9.1 19.2854 10.508 19.2854 12.862V19H17.3494V7.67H18.9994L19.2414 9.87C19.9454 8.33 21.3314 7.428 23.2674 7.428ZM35.6029 7.428C39.0569 7.428 41.4549 9.914 41.3889 13.918H31.7529C31.8849 16.14 33.6009 17.614 35.8009 17.614C37.6709 17.614 38.8589 16.58 39.3649 15.502L41.0589 15.7C40.4649 17.614 38.4629 19.22 35.7789 19.22C32.3689 19.22 29.8389 16.888 29.8389 13.324C29.8389 10.002 32.2589 7.428 35.6029 7.428ZM35.6029 9.012C33.5129 9.012 31.9069 10.464 31.7529 12.444H39.3869C39.3209 10.508 37.8029 9.012 35.6029 9.012ZM53.2618 10.244L53.5478 7.67H55.1978V19H53.2618V16.338C52.5578 18.076 50.8858 19.22 48.6418 19.22C45.2098 19.22 42.9658 16.624 42.9658 13.302C42.9658 9.936 45.2538 7.428 48.7518 7.428C50.7098 7.428 52.3818 8.462 53.2618 10.134V10.244ZM49.1038 17.504C51.5238 17.504 53.2398 15.678 53.2398 13.324C53.2398 10.992 51.5238 9.166 49.1038 9.166C46.6618 9.166 44.9238 10.904 44.9238 13.324C44.9238 15.766 46.6618 17.504 49.1038 17.504ZM59.6253 7.67L59.8453 9.54C60.4833 8.198 61.6713 7.362 63.7393 7.626L63.7173 9.32C61.3193 8.99 59.9333 10.002 59.9333 12.004V19H58.0193V7.67H59.6253ZM64.8943 13.918V12.18H73.0123V13.918H64.8943ZM85.5099 10.266L85.8179 7.67H87.4239V17.988C87.4239 22.102 85.2239 24.346 81.5279 24.346C79.7459 24.346 77.8319 23.84 76.5559 22.916V21.178C77.3039 21.684 79.0199 22.674 81.1759 22.674C83.8379 22.674 85.5099 21.288 85.5099 17.988V16.338C84.8059 18.076 83.1339 19.22 80.8899 19.22C77.4579 19.22 75.2139 16.624 75.2139 13.302C75.2139 9.936 77.5019 7.428 80.9999 7.428C82.9579 7.428 84.6299 8.462 85.5099 10.134V10.266ZM81.3519 17.504C83.7719 17.504 85.4879 15.678 85.4879 13.324C85.4879 10.992 83.7719 9.166 81.3519 9.166C78.9099 9.166 77.1719 10.904 77.1719 13.324C77.1719 15.766 78.9099 17.504 81.3519 17.504ZM91.8519 7.67L92.0719 9.54C92.7099 8.198 93.8979 7.362 95.9659 7.626L95.9439 9.32C93.5459 8.99 92.1599 10.002 92.1599 12.004V19H90.2459V7.67H91.8519ZM106.93 10.244L107.216 7.67H108.866V19H106.93V16.338C106.226 18.076 104.554 19.22 102.31 19.22C98.8778 19.22 96.6338 16.624 96.6338 13.302C96.6338 9.936 98.9218 7.428 102.42 7.428C104.378 7.428 106.05 8.462 106.93 10.134V10.244ZM102.772 17.504C105.192 17.504 106.908 15.678 106.908 13.324C106.908 10.992 105.192 9.166 102.772 9.166C100.33 9.166 98.5918 10.904 98.5918 13.324C98.5918 15.766 100.33 17.504 102.772 17.504ZM121.367 10.134V2.5H123.281V19H121.367V16.338C120.663 18.076 118.991 19.22 116.747 19.22C113.315 19.22 111.071 16.624 111.071 13.302C111.071 9.936 113.359 7.428 116.857 7.428C118.815 7.428 120.487 8.462 121.367 10.134ZM117.209 17.504C119.629 17.504 121.345 15.678 121.345 13.324C121.345 10.992 119.629 9.166 117.209 9.166C114.767 9.166 113.029 10.904 113.029 13.324C113.029 15.766 114.767 17.504 117.209 17.504ZM127.071 5.976C126.389 5.976 125.861 5.426 125.861 4.766C125.861 4.084 126.389 3.534 127.071 3.534C127.753 3.534 128.303 4.084 128.303 4.766C128.303 5.426 127.753 5.976 127.071 5.976ZM126.103 7.67H128.017V19H126.103V7.67ZM135.978 7.428C139.432 7.428 141.83 9.914 141.764 13.918H132.128C132.26 16.14 133.976 17.614 136.176 17.614C138.046 17.614 139.234 16.58 139.74 15.502L141.434 15.7C140.84 17.614 138.838 19.22 136.154 19.22C132.744 19.22 130.214 16.888 130.214 13.324C130.214 10.002 132.634 7.428 135.978 7.428ZM135.978 9.012C133.888 9.012 132.282 10.464 132.128 12.444H139.762C139.696 10.508 138.178 9.012 135.978 9.012ZM149.875 7.428C152.295 7.428 154.429 8.858 154.429 12.334V19H152.493V12.598C152.493 9.958 150.953 9.1 149.325 9.1C147.191 9.1 145.893 10.508 145.893 12.862V19H143.957V7.67H145.607L145.849 9.87C146.553 8.33 147.939 7.428 149.875 7.428ZM159.768 7.67H162.166V9.188H159.768V19H157.832V9.188H156.16V7.67H157.832V4.414H159.768V7.67ZM173.603 3.38V5.074C172.481 5.074 170.963 5.668 170.963 7.692V17.988C170.963 20.034 172.481 20.628 173.603 20.628V22.3C170.897 22.3 169.093 21.002 169.093 17.834V7.846C169.093 4.7 170.897 3.38 173.603 3.38ZM183.769 19H174.573V17.262H178.181V5.624L174.837 6.746V4.942L180.161 3.38V17.262H183.769V19ZM193.011 10.64C194.705 11.366 195.651 12.818 195.651 14.534C195.651 17.284 193.363 19.22 190.217 19.22C187.049 19.22 184.783 17.284 184.783 14.534C184.783 12.796 185.729 11.366 187.423 10.64C186.191 9.936 185.465 8.792 185.465 7.318C185.465 4.744 187.643 3.16 190.217 3.16C192.791 3.16 194.969 4.744 194.969 7.318C194.969 8.814 194.243 9.98 193.011 10.64ZM190.217 4.788C188.809 4.788 187.357 5.668 187.357 7.34C187.357 9.012 188.809 9.914 190.217 9.914C191.647 9.914 193.121 9.012 193.121 7.34C193.121 5.668 191.647 4.788 190.217 4.788ZM190.217 17.482C192.197 17.482 193.715 16.272 193.715 14.468C193.715 12.664 192.197 11.454 190.217 11.454C188.259 11.454 186.741 12.664 186.741 14.468C186.741 16.272 188.259 17.482 190.217 17.482ZM203.34 19.22C200.304 19.22 197.598 17.108 197.598 13.676V8.704C197.598 5.272 200.304 3.16 203.34 3.16C206.354 3.16 209.082 5.272 209.082 8.704V13.676C209.082 17.108 206.354 19.22 203.34 19.22ZM203.34 17.394C205.408 17.394 207.124 15.854 207.124 13.676V8.704C207.124 6.526 205.408 4.986 203.34 4.986C201.25 4.986 199.556 6.526 199.556 8.704V13.676C199.556 15.854 201.25 17.394 203.34 17.394ZM221.313 10.134V2.5H223.227V19H221.313V16.338C220.609 18.076 218.937 19.22 216.693 19.22C213.261 19.22 211.017 16.624 211.017 13.302C211.017 9.936 213.305 7.428 216.803 7.428C218.761 7.428 220.433 8.462 221.313 10.134ZM217.155 17.504C219.575 17.504 221.291 15.678 221.291 13.324C221.291 10.992 219.575 9.166 217.155 9.166C214.713 9.166 212.975 10.904 212.975 13.324C212.975 15.766 214.713 17.504 217.155 17.504ZM231.197 7.428C234.651 7.428 237.049 9.914 236.983 13.918H227.347C227.479 16.14 229.195 17.614 231.395 17.614C233.265 17.614 234.453 16.58 234.959 15.502L236.653 15.7C236.059 17.614 234.057 19.22 231.373 19.22C227.963 19.22 225.433 16.888 225.433 13.324C225.433 10.002 227.853 7.428 231.197 7.428ZM231.197 9.012C229.107 9.012 227.501 10.464 227.347 12.444H234.981C234.915 10.508 233.397 9.012 231.197 9.012ZM248.856 10.266L249.164 7.67H250.77V17.988C250.77 22.102 248.57 24.346 244.874 24.346C243.092 24.346 241.178 23.84 239.902 22.916V21.178C240.65 21.684 242.366 22.674 244.522 22.674C247.184 22.674 248.856 21.288 248.856 17.988V16.338C248.152 18.076 246.48 19.22 244.236 19.22C240.804 19.22 238.56 16.624 238.56 13.302C238.56 9.936 240.848 7.428 244.346 7.428C246.304 7.428 247.976 8.462 248.856 10.134V10.266ZM244.698 17.504C247.118 17.504 248.834 15.678 248.834 13.324C248.834 10.992 247.118 9.166 244.698 9.166C242.256 9.166 240.518 10.904 240.518 13.324C240.518 15.766 242.256 17.504 244.698 17.504ZM252.602 22.3V20.606C253.724 20.606 255.242 20.012 255.242 17.988V7.692C255.242 5.646 253.724 5.052 252.602 5.052V3.38C255.308 3.38 257.09 4.678 257.09 7.846V17.834C257.09 20.98 255.308 22.3 252.602 22.3Z" fill="#333333"/>
<rect x="1" y="36" width="361" height="219" fill="url(#paint0_linear_2674_178)"/>
<rect x="1" y="36" width="361" height="219" stroke="#333333" stroke-width="2"/>
<rect x="384" y="36" width="362" height="219" fill="url(#paint1_linear_2674_178)"/>
<rect x="384" y="36" width="362" height="219" stroke="#333333" stroke-width="2"/>
<rect x="768" y="36" width="361" height="219" fill="url(#paint2_linear_2674_178)"/>
<rect x="768" y="36" width="361" height="219" stroke="#333333" stroke-width="2"/>
<defs>
<linearGradient id="paint0_linear_2674_178" x1="181.5" y1="35" x2="181.5" y2="256" gradientUnits="userSpaceOnUse">
<stop stop-color="#EC3396"/>
<stop offset="0.976667" stop-color="white"/>
</linearGradient>
<linearGradient id="paint1_linear_2674_178" x1="565" y1="35" x2="565" y2="256" gradientUnits="userSpaceOnUse">
<stop stop-color="#A7D408"/>
<stop offset="0.976667" stop-color="white"/>
</linearGradient>
<linearGradient id="paint2_linear_2674_178" x1="948.5" y1="35" x2="948.5" y2="256" gradientUnits="userSpaceOnUse">
<stop stop-color="#047FCF"/>
<stop offset="0.976667" stop-color="white"/>
</linearGradient>
</defs>
</svg>
