<svg width="1128" height="259" viewBox="0 0 1128 259" fill="none" xmlns="http://www.w3.org/2000/svg">
<path d="M65.4608 248.379H72.9993V250H63.664V248.828C63.664 244.375 71.183 243.887 71.183 240.196C71.183 238.653 70.0308 237.52 68.3707 237.52C66.6326 237.52 65.4608 238.77 65.4217 240.43H63.664C63.664 237.931 65.5779 235.938 68.3903 235.938C70.9291 235.938 72.9212 237.559 72.9212 240.216C72.9212 244.942 66.0467 245.371 65.4608 248.379ZM79.6366 250.195C76.9414 250.195 74.5393 248.32 74.5393 245.274V240.86C74.5393 237.813 76.9414 235.938 79.6366 235.938C82.3122 235.938 84.7339 237.813 84.7339 240.86V245.274C84.7339 248.32 82.3122 250.195 79.6366 250.195ZM79.6366 248.574C81.4724 248.574 82.9957 247.207 82.9957 245.274V240.86C82.9957 238.927 81.4724 237.559 79.6366 237.559C77.7812 237.559 76.2774 238.927 76.2774 240.86V245.274C76.2774 247.207 77.7812 248.574 79.6366 248.574ZM96.833 239.747C99.8992 239.747 101.872 242.051 101.872 245C101.872 247.988 99.8406 250.195 96.7548 250.195C94.9971 250.195 93.5129 249.297 92.7317 247.793V254.492H91.0326V239.942H92.4778L92.7317 242.247V242.286C93.3566 240.762 94.8409 239.747 96.833 239.747ZM96.4228 248.672C98.5906 248.672 100.153 247.129 100.153 244.981C100.153 242.813 98.5906 241.27 96.4228 241.27C94.2745 241.27 92.7512 242.891 92.7512 244.981C92.7512 247.051 94.2745 248.672 96.4228 248.672ZM109.922 239.942H111.895L107.871 244.864L111.895 250H109.922C107.911 247.481 107.227 246.543 106.875 245.742C106.504 246.543 105.84 247.481 103.868 250H101.915L105.918 244.942L101.915 239.942H103.868C105.899 242.403 106.524 243.243 106.875 244.043C107.227 243.301 107.832 242.481 109.922 239.942Z" fill="#333333"/>
<rect x="97" y="1" width="73" height="227" stroke="#333333" stroke-width="2"/>
<rect x="192" y="1" width="74" height="227" stroke="#333333" stroke-width="2"/>
<rect x="288" y="1" width="74" height="227" stroke="#333333" stroke-width="2"/>
<rect x="384" y="1" width="73" height="227" stroke="#333333" stroke-width="2"/>
<rect x="479" y="1" width="74" height="227" stroke="#333333" stroke-width="2"/>
<rect x="575" y="1" width="74" height="227" stroke="#333333" stroke-width="2"/>
<rect x="671" y="1" width="73" height="227" stroke="#333333" stroke-width="2"/>
<rect x="766" y="1" width="74" height="227" stroke="#333333" stroke-width="2"/>
<rect x="862" y="1" width="74" height="227" stroke="#333333" stroke-width="2"/>
<rect x="958" y="1" width="73" height="227" stroke="#333333" stroke-width="2"/>
<rect x="1053" y="1" width="74" height="227" stroke="#333333" stroke-width="2"/>
<rect x="1" y="1" width="74" height="227" stroke="#333333" stroke-width="2"/>
<path d="M19.1441 106.438C22.0736 106.438 24.0657 108.528 24.0657 111.184C24.0657 112.024 23.8313 113.118 23.0501 114.368L19.2613 120.52L17.3279 120.5L20.4136 115.5C19.9253 115.735 19.359 115.852 18.695 115.852C16.1561 115.852 14.2421 113.938 14.2421 111.262C14.2421 108.528 16.2342 106.438 19.1441 106.438ZM19.1441 114.465C21.019 114.465 22.3275 113.137 22.3275 111.262C22.3275 109.407 20.98 108.059 19.1441 108.059C17.3083 108.059 15.9803 109.407 15.9803 111.262C15.9803 113.118 17.3083 114.465 19.1441 114.465ZM30.4121 120.695C27.3655 120.695 25.5101 118.547 25.5101 116.145H27.2483C27.2873 117.785 28.5177 119.113 30.4121 119.113C32.1308 119.113 33.615 117.805 33.615 115.891C33.615 113.801 32.1698 112.649 30.4512 112.649C29.2599 112.649 27.8342 113.215 27.385 114.563H25.6664L26.8772 106.634H34.3767V108.177H28.2834L27.6194 112.376C28.4006 111.516 29.6309 111.145 30.7832 111.145C33.3611 111.145 35.3532 112.961 35.3532 115.832C35.3532 118.508 33.3026 120.695 30.4121 120.695ZM47.1232 110.247C50.1894 110.247 52.1619 112.551 52.1619 115.5C52.1619 118.488 50.1308 120.695 47.045 120.695C45.2874 120.695 43.8031 119.797 43.0219 118.293V124.992H41.3228V110.442H42.768L43.0219 112.747V112.786C43.6468 111.262 45.1311 110.247 47.1232 110.247ZM46.713 119.172C48.8809 119.172 50.4432 117.629 50.4432 115.481C50.4432 113.313 48.8809 111.77 46.713 111.77C44.5647 111.77 43.0414 113.391 43.0414 115.481C43.0414 117.551 44.5647 119.172 46.713 119.172ZM60.2123 110.442H62.1848L58.1617 115.364L62.1848 120.5H60.2123C58.2007 117.981 57.5172 117.043 57.1657 116.242C56.7946 117.043 56.1306 117.981 54.158 120.5H52.2051L56.2087 115.442L52.2051 110.442H54.158C56.1892 112.903 56.8141 113.743 57.1657 114.543C57.5172 113.801 58.1226 112.981 60.2123 110.442Z" fill="#333333"/>
</svg>
