<svg width="141" height="135" viewBox="0 0 141 135" fill="none" xmlns="http://www.w3.org/2000/svg">
<path d="M49.1981 37.7241C55.5558 34.8873 62.4442 33.3369 69.4633 33.1981L69.4669 33.198L69.5081 33.197L69.5116 33.1969C89.72 32.6524 107.599 42.6086 123.159 65.1852C123.377 65.5018 123.387 65.9187 123.19 66.2403C117.151 76.0968 110.59 83.7051 103.578 89.2505L88.9798 75.4183C90.2105 72.6654 90.8251 69.6465 90.7418 66.5747C90.5957 61.1882 88.3158 56.0803 84.4037 52.3748C80.4915 48.6693 75.2676 46.6696 69.8811 46.8157C66.8117 46.899 63.8329 47.6751 61.1524 49.0512L49.1981 37.7241ZM71.3623 101.077L71.3607 101.077L71.6682 113.573L71.6921 114.573C71.6924 114.573 71.6927 114.573 71.693 114.573C76.2929 114.463 80.8697 113.885 85.3527 112.848C88.9847 112.008 91.248 108.383 90.4079 104.751C89.5679 101.119 85.9425 98.8552 82.3105 99.6953C78.7174 100.526 75.0491 100.989 71.3623 101.077ZM128.46 131.424C131.166 133.988 135.438 133.873 138.002 131.167C140.566 128.461 140.451 124.188 137.745 121.624L113.461 98.6152C122.475 91.1132 130.405 81.1017 137.337 68.8083C138.562 66.6369 138.49 63.9674 137.15 61.8651C119.306 33.8634 96.6487 18.97 69.1724 19.7012C58.5024 19.9161 48.0732 22.7233 38.772 27.8452L12.3927 2.85022C9.68661 0.286129 5.4143 0.401247 2.85022 3.10734C0.286129 5.81343 0.401249 10.0857 3.10734 12.6498L32.6873 40.6775C33.0073 41.0545 33.3626 41.3892 33.7451 41.6798L128.46 131.424ZM75.12 62.1761C75.3746 62.4171 75.6085 62.6759 75.8206 62.9497L74.3116 61.5198C74.5957 61.7164 74.8661 61.9355 75.12 62.1761Z" fill="#EC3396" stroke="#333333" stroke-width="2" stroke-linecap="round" stroke-linejoin="round"/>
</svg>
