<svg width="162" height="182" viewBox="0 0 162 182" fill="none" xmlns="http://www.w3.org/2000/svg">
<mask id="path-1-inside-1_2577_1007" fill="white">
<path fill-rule="evenodd" clip-rule="evenodd" d="M114.095 33.8204C114.598 34.2955 115.115 34.7831 115.65 35.2918C116.063 35.6844 116.061 36.342 115.648 36.7341C115.008 37.3418 114.389 37.927 113.786 38.4965C112.167 40.0276 110.667 41.4449 109.204 42.8803C108.074 44.0526 107.278 44.1782 105.855 43.2571C96.5598 37.2281 86.3857 35.1765 75.4999 36.8931C66.7192 38.2796 58.9814 42.2279 52.9163 47.8414C52.6663 48.0728 52.3176 48.1651 51.9858 48.088C46.7806 46.8787 41.2491 46.6427 35.6219 47.5555C12.8722 51.2446 -2.13036 72.0268 0.247085 93.6288C1.10788 101.622 3.85426 108.836 8.77312 115.19C15.0447 123.347 23.2837 128.512 33.3264 130.725C34.7201 131.012 35.6628 131.422 35.5809 133.185C35.4579 136.956 35.4989 140.686 35.5809 144.457C35.6218 146.056 35.13 146.67 33.4903 146.629C29.3913 146.547 25.2923 146.588 21.1932 146.629C20.4144 146.629 19.5536 146.711 18.8158 146.998C15.5775 148.187 13.733 151.384 14.3068 154.623C14.8807 157.779 17.75 160.197 21.1932 160.238C25.3742 160.32 29.5143 160.32 33.6953 160.238C35.13 160.197 35.6218 160.689 35.5809 162.124C35.5535 164.72 35.5626 167.316 35.5717 169.912C35.5763 171.21 35.5809 172.508 35.5809 173.806C35.5809 178.479 38.3272 181.594 42.4263 181.553C46.4433 181.512 49.1897 178.397 49.1897 173.888C49.2307 169.912 49.2307 165.977 49.1897 162.001C49.1897 160.689 49.6816 160.197 50.9933 160.238C52.4431 160.266 53.9112 160.256 55.3732 160.247C56.1019 160.243 56.8291 160.238 57.5517 160.238C58.5407 160.238 59.54 160.249 60.534 160.259C61.5177 160.269 62.4961 160.279 63.4543 160.279C67.5124 160.238 70.5457 157.246 70.5047 153.352C70.4637 149.499 67.5124 146.711 63.4543 146.67C59.3553 146.629 55.2563 146.588 51.1572 146.67C49.6406 146.67 49.1077 146.138 49.1487 144.621C49.2307 140.85 49.2717 137.12 49.1487 133.349C49.0667 131.668 49.7226 131.094 51.2392 130.766C58.3528 129.29 64.7331 126.029 69.969 121.519C70.2289 121.295 70.5835 121.215 70.9141 121.307C81.0659 124.122 92.3294 123.267 102.631 117.699C117.326 109.744 124.988 97.0162 125.533 80.1851C125.826 71.3508 123.356 63.2702 118.541 55.9014C117.703 54.5616 117.787 53.7661 118.917 52.7194C120.927 50.8772 122.811 48.9094 124.695 46.9416C125.575 46.0205 126.244 46.0205 127.124 46.9416C128.715 48.6163 130.348 50.2492 132.022 51.8402C133.906 53.6824 136.251 54.2685 138.763 53.5149C143.871 51.9658 145.462 45.853 141.736 41.9592C140.284 40.4441 138.808 38.9765 137.398 37.5745C137.182 37.3594 136.967 37.1459 136.754 36.934C136.361 36.5426 136.363 35.9058 136.758 35.5164C139.546 32.7695 142.197 30.1885 144.925 27.5324V27.5324C145.14 27.3236 145.497 27.4927 145.47 27.7909C145.444 28.07 145.417 28.3493 145.391 28.6288C145.253 30.0744 145.115 31.5261 145.085 32.9994C145.002 36.9769 147.765 39.9495 151.7 40.2426C155.008 40.5357 158.316 37.8142 158.902 34.2554C159.068 33.258 159.161 32.2421 159.253 31.2323C159.301 30.7161 159.348 30.2016 159.404 29.6918C159.65 27.5618 159.879 25.4278 160.108 23.2935C160.623 18.5056 161.138 13.7162 161.833 8.9669C162.628 3.56588 158.986 -0.495349 154.171 0.0489398C149.728 0.548075 145.271 1.00258 140.817 1.45679C137.798 1.76459 134.781 2.07225 131.771 2.39357L131.652 2.40582C130.057 2.56931 128.424 2.73669 126.831 3.06346C123.356 3.8171 121.262 7.04096 121.681 10.8091C122.016 13.9492 124.947 16.6288 128.296 16.587C129.617 16.587 131.048 16.4261 132.46 16.2674C133.143 16.1907 133.82 16.1145 134.479 16.0572C134.979 16.0137 135.433 16.484 135.079 16.8382V16.8382C132.315 19.6852 129.552 22.5323 126.705 25.2956C126.412 25.5887 125.282 25.3793 124.863 25.0025C123.877 24.1236 122.943 23.1768 122.005 22.227C121.469 21.6838 120.931 21.1395 120.383 20.6063C117.243 17.5081 113.014 17.3406 110.167 20.2295C107.404 23.0766 107.571 27.4309 110.628 30.4873C111.747 31.6066 112.882 32.6774 114.095 33.8204ZM80.6341 107.544C80.3269 108.189 80.7508 108.953 81.4651 108.976C81.7783 108.986 82.0926 108.991 82.4082 108.991C98.5694 108.991 111.674 95.9276 111.674 79.7664C112.135 65.4055 100.705 50.3748 82.492 50.291C77.0555 50.2651 72.1633 51.6038 68.0009 53.9137C67.3757 54.2606 67.3506 55.1347 67.9206 55.5664C76.1508 61.7994 82.1196 71.0375 84.0725 81.9465C85.6884 91.0051 84.2887 99.8688 80.6341 107.544ZM56.6124 65.5139C56.8745 65.0264 57.4913 64.8645 57.9588 65.161C65.8228 70.1482 71.1717 78.8824 71.1196 89.4887C71.0932 94.7387 69.7551 99.5558 67.4237 103.68C67.1501 104.164 66.5259 104.31 66.0654 103.999C58.2564 98.7194 53.1266 89.7536 53.1003 79.557C53.0731 74.6205 54.3161 69.7861 56.6124 65.5139ZM42.5082 60.6315C42.9196 60.6347 43.1794 61.0677 43.0059 61.4407C39.4162 69.1587 38.07 77.9967 39.6606 86.9678C41.6247 98.0176 47.4863 107.143 55.4222 113.429C55.9923 113.88 55.9341 114.772 55.2811 115.092C51.4197 116.985 47.0557 118.052 42.4263 118.1C26.604 118.223 13.569 105.065 13.61 89.3248C13.692 73.5025 26.6449 60.6315 42.5082 60.6315V60.6315Z"/>
</mask>
<path fill-rule="evenodd" clip-rule="evenodd" d="M114.095 33.8204C114.598 34.2955 115.115 34.7831 115.65 35.2918C116.063 35.6844 116.061 36.342 115.648 36.7341C115.008 37.3418 114.389 37.927 113.786 38.4965C112.167 40.0276 110.667 41.4449 109.204 42.8803C108.074 44.0526 107.278 44.1782 105.855 43.2571C96.5598 37.2281 86.3857 35.1765 75.4999 36.8931C66.7192 38.2796 58.9814 42.2279 52.9163 47.8414C52.6663 48.0728 52.3176 48.1651 51.9858 48.088C46.7806 46.8787 41.2491 46.6427 35.6219 47.5555C12.8722 51.2446 -2.13036 72.0268 0.247085 93.6288C1.10788 101.622 3.85426 108.836 8.77312 115.19C15.0447 123.347 23.2837 128.512 33.3264 130.725C34.7201 131.012 35.6628 131.422 35.5809 133.185C35.4579 136.956 35.4989 140.686 35.5809 144.457C35.6218 146.056 35.13 146.67 33.4903 146.629C29.3913 146.547 25.2923 146.588 21.1932 146.629C20.4144 146.629 19.5536 146.711 18.8158 146.998C15.5775 148.187 13.733 151.384 14.3068 154.623C14.8807 157.779 17.75 160.197 21.1932 160.238C25.3742 160.32 29.5143 160.32 33.6953 160.238C35.13 160.197 35.6218 160.689 35.5809 162.124C35.5535 164.72 35.5626 167.316 35.5717 169.912C35.5763 171.21 35.5809 172.508 35.5809 173.806C35.5809 178.479 38.3272 181.594 42.4263 181.553C46.4433 181.512 49.1897 178.397 49.1897 173.888C49.2307 169.912 49.2307 165.977 49.1897 162.001C49.1897 160.689 49.6816 160.197 50.9933 160.238C52.4431 160.266 53.9112 160.256 55.3732 160.247C56.1019 160.243 56.8291 160.238 57.5517 160.238C58.5407 160.238 59.54 160.249 60.534 160.259C61.5177 160.269 62.4961 160.279 63.4543 160.279C67.5124 160.238 70.5457 157.246 70.5047 153.352C70.4637 149.499 67.5124 146.711 63.4543 146.67C59.3553 146.629 55.2563 146.588 51.1572 146.67C49.6406 146.67 49.1077 146.138 49.1487 144.621C49.2307 140.85 49.2717 137.12 49.1487 133.349C49.0667 131.668 49.7226 131.094 51.2392 130.766C58.3528 129.29 64.7331 126.029 69.969 121.519C70.2289 121.295 70.5835 121.215 70.9141 121.307C81.0659 124.122 92.3294 123.267 102.631 117.699C117.326 109.744 124.988 97.0162 125.533 80.1851C125.826 71.3508 123.356 63.2702 118.541 55.9014C117.703 54.5616 117.787 53.7661 118.917 52.7194C120.927 50.8772 122.811 48.9094 124.695 46.9416C125.575 46.0205 126.244 46.0205 127.124 46.9416C128.715 48.6163 130.348 50.2492 132.022 51.8402C133.906 53.6824 136.251 54.2685 138.763 53.5149C143.871 51.9658 145.462 45.853 141.736 41.9592C140.284 40.4441 138.808 38.9765 137.398 37.5745C137.182 37.3594 136.967 37.1459 136.754 36.934C136.361 36.5426 136.363 35.9058 136.758 35.5164C139.546 32.7695 142.197 30.1885 144.925 27.5324V27.5324C145.14 27.3236 145.497 27.4927 145.47 27.7909C145.444 28.07 145.417 28.3493 145.391 28.6288C145.253 30.0744 145.115 31.5261 145.085 32.9994C145.002 36.9769 147.765 39.9495 151.7 40.2426C155.008 40.5357 158.316 37.8142 158.902 34.2554C159.068 33.258 159.161 32.2421 159.253 31.2323C159.301 30.7161 159.348 30.2016 159.404 29.6918C159.65 27.5618 159.879 25.4278 160.108 23.2935C160.623 18.5056 161.138 13.7162 161.833 8.9669C162.628 3.56588 158.986 -0.495349 154.171 0.0489398C149.728 0.548075 145.271 1.00258 140.817 1.45679C137.798 1.76459 134.781 2.07225 131.771 2.39357L131.652 2.40582C130.057 2.56931 128.424 2.73669 126.831 3.06346C123.356 3.8171 121.262 7.04096 121.681 10.8091C122.016 13.9492 124.947 16.6288 128.296 16.587C129.617 16.587 131.048 16.4261 132.46 16.2674C133.143 16.1907 133.82 16.1145 134.479 16.0572C134.979 16.0137 135.433 16.484 135.079 16.8382V16.8382C132.315 19.6852 129.552 22.5323 126.705 25.2956C126.412 25.5887 125.282 25.3793 124.863 25.0025C123.877 24.1236 122.943 23.1768 122.005 22.227C121.469 21.6838 120.931 21.1395 120.383 20.6063C117.243 17.5081 113.014 17.3406 110.167 20.2295C107.404 23.0766 107.571 27.4309 110.628 30.4873C111.747 31.6066 112.882 32.6774 114.095 33.8204ZM80.6341 107.544C80.3269 108.189 80.7508 108.953 81.4651 108.976C81.7783 108.986 82.0926 108.991 82.4082 108.991C98.5694 108.991 111.674 95.9276 111.674 79.7664C112.135 65.4055 100.705 50.3748 82.492 50.291C77.0555 50.2651 72.1633 51.6038 68.0009 53.9137C67.3757 54.2606 67.3506 55.1347 67.9206 55.5664C76.1508 61.7994 82.1196 71.0375 84.0725 81.9465C85.6884 91.0051 84.2887 99.8688 80.6341 107.544ZM56.6124 65.5139C56.8745 65.0264 57.4913 64.8645 57.9588 65.161C65.8228 70.1482 71.1717 78.8824 71.1196 89.4887C71.0932 94.7387 69.7551 99.5558 67.4237 103.68C67.1501 104.164 66.5259 104.31 66.0654 103.999C58.2564 98.7194 53.1266 89.7536 53.1003 79.557C53.0731 74.6205 54.3161 69.7861 56.6124 65.5139ZM42.5082 60.6315C42.9196 60.6347 43.1794 61.0677 43.0059 61.4407C39.4162 69.1587 38.07 77.9967 39.6606 86.9678C41.6247 98.0176 47.4863 107.143 55.4222 113.429C55.9923 113.88 55.9341 114.772 55.2811 115.092C51.4197 116.985 47.0557 118.052 42.4263 118.1C26.604 118.223 13.569 105.065 13.61 89.3248C13.692 73.5025 26.6449 60.6315 42.5082 60.6315V60.6315Z" fill="#EC3396"/>
<path d="M114.095 33.8204L115.124 32.7291L115.124 32.7291L114.095 33.8204ZM113.786 38.4965L114.817 39.5866L114.817 39.5866L113.786 38.4965ZM109.204 42.8803L108.154 41.8096L108.139 41.8242L108.124 41.8391L109.204 42.8803ZM105.855 43.2571L105.038 44.5156L105.04 44.5165L105.855 43.2571ZM75.4999 36.8931L75.2663 35.4114L75.266 35.4115L75.4999 36.8931ZM35.6219 47.5555L35.862 49.0362L35.862 49.0362L35.6219 47.5555ZM0.247085 93.6288L1.73847 93.4682L1.73808 93.4647L0.247085 93.6288ZM8.77312 115.19L9.96228 114.275L9.9592 114.271L8.77312 115.19ZM33.3264 130.725L33.0035 132.19L33.0137 132.192L33.0239 132.194L33.3264 130.725ZM35.5809 133.185L34.0825 133.115L34.082 133.125L34.0816 133.136L35.5809 133.185ZM35.5809 144.457L34.0812 144.49L34.0813 144.495L35.5809 144.457ZM33.4903 146.629L33.5278 145.13L33.5203 145.13L33.4903 146.629ZM21.1932 146.629V148.129H21.2007L21.2082 148.129L21.1932 146.629ZM18.8158 146.998L19.3327 148.406L19.3461 148.402L19.3594 148.396L18.8158 146.998ZM14.3068 154.623L12.8298 154.884L12.831 154.891L14.3068 154.623ZM21.1932 160.238L21.2226 158.738L21.2111 158.738L21.1932 160.238ZM33.6953 160.238L33.7247 161.738L33.7382 161.738L33.6953 160.238ZM35.5809 162.124L34.0815 162.081L34.0811 162.094L34.0809 162.108L35.5809 162.124ZM35.5717 169.912L37.0717 169.907L35.5717 169.912ZM42.4263 181.553L42.4413 183.053L42.4416 183.053L42.4263 181.553ZM49.1897 173.888L47.6898 173.873L47.6897 173.88V173.888H49.1897ZM49.1897 162.001H47.6897V162.009L47.6898 162.016L49.1897 162.001ZM50.9933 160.238L50.9464 161.738L50.9557 161.738L50.965 161.738L50.9933 160.238ZM55.3732 160.247L55.3638 158.747L55.3638 158.747L55.3732 160.247ZM60.534 160.259L60.5185 161.759L60.5185 161.759L60.534 160.259ZM63.4543 160.279V161.779H63.4619L63.4695 161.779L63.4543 160.279ZM70.5047 153.352L72.0046 153.336L72.0046 153.336L70.5047 153.352ZM63.4543 146.67L63.4695 145.17L63.4694 145.17L63.4543 146.67ZM51.1572 146.67V148.17H51.1722L51.1872 148.17L51.1572 146.67ZM49.1487 144.621L50.6482 144.661L50.6484 144.653L49.1487 144.621ZM49.1487 133.349L50.6479 133.3L50.6475 133.288L50.6469 133.275L49.1487 133.349ZM51.2392 130.766L50.9345 129.297L50.9222 129.3L51.2392 130.766ZM102.631 117.699L103.344 119.019L103.345 119.018L102.631 117.699ZM125.533 80.1851L124.034 80.1353L124.033 80.1366L125.533 80.1851ZM118.541 55.9014L117.269 56.6964L117.277 56.7092L117.285 56.7219L118.541 55.9014ZM118.917 52.7194L117.904 51.6136L117.898 51.6188L118.917 52.7194ZM124.695 46.9416L125.779 47.9789L125.78 47.9773L124.695 46.9416ZM127.124 46.9416L128.211 45.9084L128.209 45.9058L127.124 46.9416ZM132.022 51.8402L133.071 50.7676L133.063 50.7601L133.055 50.7527L132.022 51.8402ZM138.763 53.5149L139.194 54.9516L139.198 54.9503L138.763 53.5149ZM141.736 41.9592L142.819 40.9221L142.819 40.9214L141.736 41.9592ZM137.398 37.5745L136.34 38.6381L136.34 38.6381L137.398 37.5745ZM145.391 28.6288L146.884 28.7707L146.884 28.7707L145.391 28.6288ZM145.085 32.9994L146.585 33.0309L146.585 33.03L145.085 32.9994ZM151.7 40.2426L151.833 38.7485L151.822 38.7475L151.812 38.7468L151.7 40.2426ZM158.902 34.2554L157.422 34.0088L157.422 34.0116L158.902 34.2554ZM159.253 31.2323L157.76 31.0956L157.76 31.0957L159.253 31.2323ZM159.404 29.6918L157.914 29.5202L157.913 29.5261L159.404 29.6918ZM160.108 23.2935L161.6 23.4538L161.6 23.4538L160.108 23.2935ZM161.833 8.9669L160.349 8.74833L160.348 8.7497L161.833 8.9669ZM154.171 0.0489398L154.338 1.53956L154.339 1.53945L154.171 0.0489398ZM140.817 1.45679L140.665 -0.0354675L140.665 -0.0354675L140.817 1.45679ZM131.771 2.39357L131.924 3.88576L131.93 3.88509L131.771 2.39357ZM131.652 2.40582L131.805 3.898L131.805 3.898L131.652 2.40582ZM126.831 3.06346L126.529 1.59406L126.521 1.59575L126.513 1.59754L126.831 3.06346ZM121.681 10.8091L123.172 10.65L123.172 10.6435L121.681 10.8091ZM128.296 16.587V15.087H128.287L128.277 15.0871L128.296 16.587ZM132.46 16.2674L132.628 17.758L132.628 17.758L132.46 16.2674ZM126.705 25.2956L125.66 24.2192L125.652 24.227L125.644 24.2349L126.705 25.2956ZM124.863 25.0025L125.866 23.8876L125.861 23.8831L124.863 25.0025ZM122.005 22.227L123.072 21.1732L123.072 21.1732L122.005 22.227ZM120.383 20.6063L119.329 21.6741L119.337 21.6818L120.383 20.6063ZM110.167 20.2295L109.099 19.1766L109.091 19.1848L110.167 20.2295ZM110.628 30.4873L111.688 29.4266L111.688 29.4266L110.628 30.4873ZM111.674 79.7664L110.175 79.7183L110.174 79.7423V79.7664H111.674ZM82.492 50.291L82.4848 51.791L82.4851 51.791L82.492 50.291ZM84.0725 81.9465L85.5492 81.6831L85.5491 81.6822L84.0725 81.9465ZM71.1196 89.4887L72.6195 89.4963L72.6195 89.4961L71.1196 89.4887ZM53.1003 79.557L54.6003 79.5532L54.6003 79.5487L53.1003 79.557ZM39.6606 86.9678L38.1836 87.2296L38.1837 87.2303L39.6606 86.9678ZM42.4263 118.1L42.4379 119.6L42.4418 119.6L42.4263 118.1ZM13.61 89.3248L12.11 89.317L12.11 89.3209L13.61 89.3248ZM55.4222 113.429L56.3536 112.253L55.4222 113.429ZM55.2811 115.092L54.6209 113.745L55.2811 115.092ZM57.9588 65.161L57.1555 66.4277L57.9588 65.161ZM56.6124 65.5139L55.2912 64.8038L56.6124 65.5139ZM68.0009 53.9137L67.2731 52.6021L68.0009 53.9137ZM67.9206 55.5664L68.8262 54.3706L67.9206 55.5664ZM43.0059 61.4407L41.6458 60.8081L43.0059 61.4407ZM80.6341 107.544L81.9884 108.189L80.6341 107.544ZM69.969 121.519L68.99 120.382L69.969 121.519ZM70.9141 121.307L71.3149 119.862L70.9141 121.307ZM67.4237 103.68L68.7295 104.418L67.4237 103.68ZM66.0654 103.999L66.9055 102.756L66.0654 103.999ZM145.47 27.7909L146.963 27.9286L145.47 27.7909ZM136.754 36.934L135.696 37.997L136.754 36.934ZM136.758 35.5164L137.811 36.5849L136.758 35.5164ZM52.9163 47.8414L53.9352 48.9422L52.9163 47.8414ZM51.9858 48.088L51.6463 49.5491L51.9858 48.088ZM115.65 35.2918L116.684 34.2051L115.65 35.2918ZM115.648 36.7341L114.615 35.6463L115.648 36.7341ZM116.684 34.2051C116.147 33.6937 115.627 33.2039 115.124 32.7291L113.065 34.9117C113.57 35.3871 114.084 35.8724 114.616 36.3784L116.684 34.2051ZM114.817 39.5866C115.419 39.0173 116.039 38.431 116.681 37.8219L114.615 35.6463C113.977 36.2527 113.359 36.8368 112.756 37.4064L114.817 39.5866ZM110.255 43.951C111.706 42.5271 113.195 41.1195 114.817 39.5866L112.756 37.4064C111.138 38.9356 109.628 40.3626 108.154 41.8096L110.255 43.951ZM105.04 44.5165C105.841 45.035 106.77 45.4701 107.82 45.3429C108.866 45.2161 109.653 44.5758 110.284 43.9215L108.124 41.8391C107.887 42.0855 107.718 42.222 107.601 42.2966C107.545 42.3317 107.508 42.3484 107.488 42.3562C107.469 42.3635 107.46 42.3644 107.459 42.3647C107.457 42.3649 107.448 42.3659 107.428 42.3634C107.406 42.3607 107.366 42.3531 107.302 42.3316C107.168 42.286 106.967 42.19 106.669 41.9978L105.04 44.5165ZM75.7336 38.3748C86.264 36.7143 96.0625 38.6934 105.038 44.5156L106.671 41.9987C97.0571 35.7627 86.5074 33.6388 75.2663 35.4114L75.7336 38.3748ZM53.9352 48.9422C59.7899 43.5235 67.257 39.7132 75.7339 38.3748L75.266 35.4115C66.1815 36.8459 58.173 40.9323 51.8974 46.7405L53.9352 48.9422ZM35.862 49.0362C41.2939 48.155 46.6286 48.3833 51.6463 49.5491L52.3252 46.6269C46.9327 45.374 41.2043 45.1304 35.3817 46.0749L35.862 49.0362ZM1.73808 93.4647C-0.553344 72.6443 13.9127 52.5955 35.862 49.0362L35.3818 46.0749C11.8316 49.8938 -3.70738 71.4093 -1.24391 93.7929L1.73808 93.4647ZM9.9592 114.271C5.22235 108.153 2.57174 101.206 1.73846 93.4682L-1.24429 93.7894C-0.355967 102.038 2.48618 109.519 7.58703 116.108L9.9592 114.271ZM33.6492 129.26C23.9447 127.121 16.0148 122.148 9.96228 114.275L7.58396 116.104C14.0745 124.546 22.6227 129.902 33.0035 132.19L33.6492 129.26ZM37.0792 133.254C37.1335 132.088 36.8496 131.04 36.0089 130.285C35.2785 129.63 34.3236 129.399 33.6288 129.256L33.0239 132.194C33.3457 132.261 33.5767 132.321 33.7507 132.387C33.9209 132.451 33.986 132.501 34.0051 132.518C34.0112 132.523 34.0219 132.529 34.0387 132.579C34.0611 132.645 34.0969 132.804 34.0825 133.115L37.0792 133.254ZM37.0805 144.424C36.9987 140.662 36.9584 136.964 37.0801 133.233L34.0816 133.136C33.9573 136.948 33.999 140.71 34.0812 144.49L37.0805 144.424ZM33.4529 148.129C34.3842 148.152 35.4875 148.018 36.2662 147.177C37.0156 146.369 37.1025 145.282 37.0804 144.418L34.0813 144.495C34.0899 144.828 34.0671 145.025 34.0416 145.135C34.0187 145.232 34.0074 145.201 34.0655 145.139C34.1281 145.071 34.1754 145.069 34.1121 145.087C34.031 145.11 33.8548 145.138 33.5278 145.13L33.4529 148.129ZM21.2082 148.129C25.311 148.088 29.3876 148.048 33.4604 148.129L33.5203 145.13C29.3951 145.047 25.2735 145.089 21.1782 145.129L21.2082 148.129ZM19.3594 148.396C19.8459 148.207 20.4926 148.129 21.1932 148.129V145.129C20.3362 145.129 19.2613 145.216 18.2721 145.6L19.3594 148.396ZM15.7838 154.361C15.3409 151.862 16.7544 149.353 19.3327 148.406L18.2989 145.59C14.4007 147.021 12.125 150.907 12.8298 154.884L15.7838 154.361ZM21.2111 158.738C18.4534 158.706 16.2223 156.772 15.7826 154.354L12.831 154.891C13.5391 158.785 17.0467 161.689 21.1754 161.738L21.2111 158.738ZM33.6659 158.739C29.5045 158.82 25.384 158.82 21.2226 158.739L21.1638 161.738C25.3644 161.82 29.5241 161.82 33.7247 161.738L33.6659 158.739ZM37.0802 162.167C37.1033 161.361 37.0104 160.325 36.2521 159.567C35.4939 158.809 34.4581 158.716 33.6525 158.739L33.7382 161.738C34.0212 161.73 34.1691 161.752 34.2318 161.768C34.2798 161.78 34.2141 161.772 34.1308 161.688C34.0475 161.605 34.0392 161.539 34.0514 161.587C34.0673 161.65 34.0896 161.798 34.0815 162.081L37.0802 162.167ZM37.0717 169.907C37.0626 167.309 37.0536 164.723 37.0808 162.14L34.0809 162.108C34.0535 164.716 34.0626 167.323 34.0718 169.917L37.0717 169.907ZM37.0809 173.806C37.0809 172.505 37.0763 171.204 37.0717 169.907L34.0718 169.917C34.0763 171.216 34.0809 172.511 34.0809 173.806H37.0809ZM42.4113 180.053C40.7707 180.07 39.4845 179.467 38.5908 178.455C37.6809 177.424 37.0809 175.855 37.0809 173.806H34.0809C34.0809 176.43 34.8539 178.755 36.342 180.44C37.8463 182.144 39.9828 183.078 42.4413 183.053L42.4113 180.053ZM47.6897 173.888C47.6897 175.841 47.0974 177.375 46.1895 178.404C45.2935 179.42 44.0122 180.037 42.411 180.053L42.4416 183.053C44.8574 183.029 46.9578 182.068 48.4393 180.388C49.9088 178.723 50.6897 176.444 50.6897 173.888H47.6897ZM47.6898 162.016C47.7306 165.982 47.7306 169.907 47.6898 173.873L50.6896 173.904C50.7307 169.917 50.7307 165.972 50.6896 161.985L47.6898 162.016ZM51.0401 158.739C50.257 158.714 49.2811 158.823 48.5485 159.542C47.821 160.257 47.6897 161.226 47.6897 162.001H50.6897C50.6897 161.756 50.7139 161.632 50.7278 161.584C50.7381 161.548 50.7267 161.608 50.6507 161.682C50.5739 161.758 50.5113 161.77 50.5408 161.762C50.584 161.751 50.7046 161.73 50.9464 161.738L51.0401 158.739ZM55.3638 158.747C53.8986 158.756 52.4494 158.765 51.0216 158.739L50.965 161.738C52.4368 161.766 53.9239 161.756 55.3826 161.747L55.3638 158.747ZM57.5517 158.738C56.8236 158.738 56.0917 158.743 55.3638 158.747L55.3826 161.747C56.1121 161.743 56.8346 161.738 57.5517 161.738V158.738ZM60.5496 158.759C59.5569 158.749 58.5498 158.738 57.5517 158.738V161.738C58.5316 161.738 59.5231 161.749 60.5185 161.759L60.5496 158.759ZM63.4543 158.779C62.5052 158.779 61.5346 158.769 60.5496 158.759L60.5185 161.759C61.5007 161.769 62.487 161.779 63.4543 161.779V158.779ZM69.0048 153.368C69.0365 156.381 66.7215 158.746 63.4392 158.779L63.4695 161.779C68.3033 161.73 72.0549 158.111 72.0046 153.336L69.0048 153.368ZM63.4392 148.17C66.7579 148.204 68.9733 150.406 69.0048 153.368L72.0046 153.336C71.9542 148.592 68.2669 145.219 63.4695 145.17L63.4392 148.17ZM51.1872 148.17C55.26 148.089 59.3366 148.129 63.4393 148.17L63.4694 145.17C59.3741 145.13 55.2525 145.088 51.1272 145.171L51.1872 148.17ZM47.6493 144.58C47.626 145.442 47.7363 146.491 48.4997 147.267C49.2588 148.038 50.3027 148.17 51.1572 148.17V145.17C50.8543 145.17 50.6858 145.142 50.6029 145.119C50.5337 145.1 50.5751 145.098 50.638 145.162C50.7015 145.227 50.701 145.271 50.6844 145.206C50.6641 145.127 50.64 144.962 50.6482 144.661L47.6493 144.58ZM47.6495 133.397C47.7711 137.127 47.7309 140.826 47.6491 144.588L50.6484 144.653C50.7305 140.874 50.7722 137.112 50.6479 133.3L47.6495 133.397ZM50.9222 129.3C50.0883 129.48 49.1375 129.79 48.4629 130.565C47.7534 131.381 47.601 132.408 47.6505 133.422L50.6469 133.275C50.631 132.949 50.6557 132.754 50.6829 132.645C50.6957 132.594 50.708 132.566 50.7143 132.553C50.7201 132.542 50.7238 132.537 50.7261 132.535C50.7381 132.521 50.8734 132.38 51.5562 132.232L50.9222 129.3ZM68.99 120.382C63.9402 124.732 57.79 127.875 50.9345 129.297L51.5439 132.235C58.9156 130.705 65.5261 127.325 70.9479 122.655L68.99 120.382ZM101.917 116.38C91.9742 121.753 81.112 122.578 71.3149 119.862L70.5132 122.753C81.0198 125.666 92.6846 124.78 103.344 119.019L101.917 116.38ZM124.033 80.1366C123.506 96.4508 116.129 108.686 101.917 116.38L103.345 119.018C118.524 110.802 126.471 97.5815 127.032 80.2335L124.033 80.1366ZM117.285 56.7219C121.945 63.8534 124.316 71.6333 124.034 80.1353L127.032 80.2348C127.336 71.0684 124.766 62.6871 119.796 55.0809L117.285 56.7219ZM117.898 51.6188C117.238 52.2301 116.62 52.9999 116.501 54.0279C116.384 55.0391 116.794 55.9368 117.269 56.6964L119.813 55.1064C119.64 54.8303 119.553 54.6416 119.512 54.5158C119.492 54.4563 119.485 54.4183 119.483 54.3979C119.481 54.3878 119.481 54.3813 119.481 54.378C119.481 54.3747 119.481 54.3733 119.481 54.373C119.481 54.3728 119.481 54.3722 119.482 54.3707C119.482 54.3692 119.483 54.3653 119.486 54.3587C119.49 54.3456 119.503 54.3174 119.531 54.2724C119.592 54.1765 119.71 54.0294 119.937 53.82L117.898 51.6188ZM123.612 45.9042C121.722 47.8779 119.872 49.81 117.904 51.6137L119.931 53.8251C121.983 51.9444 123.9 49.9408 125.779 47.9789L123.612 45.9042ZM128.209 45.9058C127.687 45.3589 126.927 44.7507 125.91 44.7507C124.892 44.7507 124.132 45.3589 123.61 45.9058L125.78 47.9773C125.858 47.8957 125.922 47.8364 125.973 47.7942C126.024 47.7518 126.056 47.7315 126.07 47.7237C126.083 47.7163 126.073 47.7237 126.042 47.7327C126.01 47.7422 125.964 47.7507 125.91 47.7507C125.855 47.7507 125.809 47.7422 125.777 47.7327C125.746 47.7237 125.736 47.7163 125.749 47.7237C125.763 47.7315 125.795 47.7518 125.846 47.7942C125.897 47.8364 125.961 47.8957 126.039 47.9773L128.209 45.9058ZM133.055 50.7527C131.399 49.1793 129.785 47.5646 128.211 45.9084L126.036 47.9747C127.645 49.668 129.296 51.319 130.989 52.9277L133.055 50.7527ZM138.332 52.0781C136.348 52.6733 134.569 52.2324 133.071 50.7676L130.974 52.9127C133.244 55.1323 136.154 55.8638 139.194 54.9516L138.332 52.0781ZM140.652 42.9963C143.615 46.0921 142.352 50.859 138.328 52.0795L139.198 54.9503C145.39 53.0725 147.309 45.6138 142.819 40.9221L140.652 42.9963ZM136.34 38.6381C137.752 40.042 139.215 41.4971 140.653 42.9971L142.819 40.9214C141.352 39.3911 139.864 37.911 138.456 36.5108L136.34 38.6381ZM135.696 37.997C135.909 38.2093 136.124 38.4231 136.34 38.6381L138.456 36.5109C138.239 36.2958 138.025 36.0826 137.813 35.8711L135.696 37.997ZM143.879 26.4577C141.152 29.1133 138.497 31.6974 135.706 34.4479L137.811 36.5849C140.596 33.8416 143.243 31.2636 145.972 28.6072L143.879 26.4577ZM146.884 28.7707C146.911 28.4916 146.937 28.2102 146.963 27.9286L143.976 27.6531C143.95 27.9298 143.924 28.207 143.898 28.4868L146.884 28.7707ZM146.585 33.03C146.614 31.6216 146.746 30.2252 146.884 28.7707L143.898 28.4868C143.761 29.9236 143.617 31.4305 143.586 32.9688L146.585 33.03ZM151.812 38.7468C148.658 38.5119 146.518 36.1975 146.585 33.0309L143.586 32.9678C143.485 37.7562 146.872 41.3872 151.589 41.7385L151.812 38.7468ZM157.422 34.0116C156.949 36.8847 154.272 38.9646 151.833 38.7485L151.568 41.7368C155.744 42.1068 159.683 38.7438 160.382 34.4992L157.422 34.0116ZM157.76 31.0957C157.666 32.115 157.578 33.0753 157.422 34.0088L160.381 34.502C160.558 33.4406 160.656 32.3693 160.747 31.3689L157.76 31.0957ZM157.913 29.5261C157.855 30.0529 157.807 30.5821 157.76 31.0956L160.747 31.3689C160.795 30.8502 160.84 30.3503 160.895 29.8574L157.913 29.5261ZM158.617 23.1333C158.387 25.2685 158.159 27.3968 157.914 29.5202L160.894 29.8634C161.14 27.7268 161.37 25.5872 161.6 23.4538L158.617 23.1333ZM160.348 8.7497C159.649 13.5322 159.131 18.3502 158.617 23.1333L161.6 23.4538C162.115 18.6611 162.627 13.9003 163.317 9.18411L160.348 8.7497ZM154.339 1.53945C156.262 1.32211 157.889 2.01687 158.974 3.2636C160.069 4.51985 160.69 6.43221 160.349 8.74833L163.317 9.18548C163.771 6.10058 162.969 3.28181 161.237 1.29326C159.496 -0.70481 156.894 -1.76852 154.002 -1.44157L154.339 1.53945ZM140.969 2.94906C145.422 2.49497 149.887 2.0397 154.338 1.53956L154.003 -1.44168C149.57 -0.943549 145.12 -0.489813 140.665 -0.0354675L140.969 2.94906ZM131.93 3.88509C134.936 3.56421 137.95 3.25691 140.969 2.94906L140.665 -0.0354675C137.647 0.272265 134.626 0.58028 131.612 0.90204L131.93 3.88509ZM131.805 3.898L131.924 3.88575L131.618 0.901387L131.499 0.913643L131.805 3.898ZM127.132 4.53287C128.639 4.22373 130.197 4.06279 131.805 3.898L131.499 0.913641C129.916 1.07583 128.208 1.24965 126.529 1.59406L127.132 4.53287ZM123.172 10.6435C122.826 7.53078 124.527 5.09792 127.149 4.52939L126.513 1.59754C122.184 2.53627 119.698 6.55113 120.19 10.9748L123.172 10.6435ZM128.277 15.0871C125.699 15.1193 123.425 13.0178 123.172 10.65L120.189 10.9682C120.607 14.8807 124.194 18.1384 128.315 18.0868L128.277 15.0871ZM132.293 14.7768C130.861 14.9377 129.518 15.087 128.296 15.087V18.087C129.717 18.087 131.235 17.9146 132.628 17.758L132.293 14.7768ZM134.349 14.5628C133.668 14.6221 132.971 14.7005 132.293 14.7768L132.628 17.758C133.314 17.6809 133.972 17.6069 134.61 17.5515L134.349 14.5628ZM127.75 26.372C130.616 23.5904 133.394 20.7273 136.155 17.8829L134.002 15.7935C131.236 18.6432 128.489 21.4741 125.66 24.2192L127.75 26.372ZM123.859 26.1175C124.373 26.5801 125.085 26.7955 125.581 26.8793C125.859 26.9262 126.181 26.9517 126.505 26.9187C126.769 26.8916 127.323 26.7991 127.766 26.3562L125.644 24.2349C125.807 24.0727 125.968 24.0011 126.049 23.9718C126.134 23.9412 126.19 23.9352 126.2 23.9342C126.216 23.9325 126.175 23.9371 126.081 23.9212C125.994 23.9065 125.908 23.8819 125.845 23.8565C125.831 23.8507 125.819 23.8457 125.811 23.8417C125.803 23.8377 125.799 23.8355 125.799 23.8355C125.799 23.8356 125.8 23.8364 125.803 23.8381C125.806 23.8397 125.81 23.8424 125.815 23.8462C125.825 23.8536 125.843 23.867 125.866 23.8876L123.859 26.1175ZM120.938 23.2808C121.869 24.2248 122.837 25.2059 123.864 26.122L125.861 23.8831C124.917 23.0412 124.016 22.1289 123.072 21.1732L120.938 23.2808ZM119.337 21.6818C119.873 22.2025 120.399 22.7358 120.938 23.2808L123.072 21.1732C122.538 20.6317 121.99 20.0765 121.429 19.5308L119.337 21.6818ZM111.235 21.2824C112.374 20.1272 113.739 19.62 115.109 19.6717C116.491 19.7238 117.99 20.3521 119.329 21.6741L121.436 19.5386C119.636 17.7623 117.45 16.7578 115.222 16.6738C112.98 16.5893 110.807 17.4429 109.099 19.1766L111.235 21.2824ZM111.688 29.4266C109.14 26.8781 109.119 23.4629 111.243 21.2742L109.091 19.1848C105.688 22.6902 106.003 27.9836 109.567 31.5479L111.688 29.4266ZM115.124 32.7291C113.909 31.5835 112.789 30.5278 111.688 29.4266L109.567 31.5479C110.704 32.6854 111.856 33.7713 113.065 34.9117L115.124 32.7291ZM81.4177 110.475C81.7466 110.485 82.0768 110.491 82.4082 110.491V107.491C82.1085 107.491 81.8099 107.486 81.5125 107.476L81.4177 110.475ZM82.4082 110.491C99.3951 110.491 113.174 96.7588 113.174 79.7664H110.174C110.174 95.0964 97.7438 107.491 82.4082 107.491V110.491ZM113.173 79.8145C113.659 64.689 101.634 48.879 82.4989 48.791L82.4851 51.791C99.7758 51.8705 110.611 66.122 110.175 79.7183L113.173 79.8145ZM82.4991 48.791C76.8063 48.7639 71.6609 50.1672 67.2731 52.6021L68.7287 55.2253C72.6657 53.0405 77.3048 51.7663 82.4848 51.791L82.4991 48.791ZM67.015 56.7621C74.9547 62.7752 80.7117 71.6854 82.596 82.2108L85.5491 81.6822C83.5274 70.3897 77.3469 60.8237 68.8262 54.3706L67.015 56.7621ZM82.5958 82.2099C84.1547 90.9491 82.8048 99.4959 79.2798 106.899L81.9884 108.189C85.7725 100.242 87.2221 91.0612 85.5492 81.6831L82.5958 82.2099ZM72.6195 89.4961C72.6743 78.3508 67.0426 69.1456 58.7622 63.8942L57.1555 66.4277C64.6029 71.1508 69.6691 79.414 69.6196 89.4814L72.6195 89.4961ZM68.7295 104.418C71.1879 100.069 72.5919 95.0006 72.6195 89.4963L69.6196 89.4812C69.5945 94.4769 68.3224 99.0422 66.1178 102.942L68.7295 104.418ZM51.6003 79.5609C51.6279 90.2698 57.018 99.6927 65.2252 105.242L66.9055 102.756C59.4949 97.7461 54.6252 89.2374 54.6003 79.5532L51.6003 79.5609ZM55.2912 64.8038C52.8791 69.2914 51.5717 74.3721 51.6004 79.5653L54.6003 79.5487C54.5745 74.8689 55.7531 70.2808 57.9337 66.2241L55.2912 64.8038ZM41.1376 86.7059C39.6028 78.0497 40.9009 69.5232 44.366 62.0733L41.6458 60.8081C37.9314 68.7941 36.5372 77.9438 38.1836 87.2296L41.1376 86.7059ZM56.3536 112.253C48.6921 106.185 43.0345 97.3784 41.1374 86.7052L38.1837 87.2303C40.2148 98.6568 46.2805 108.101 54.4909 114.605L56.3536 112.253ZM42.4418 119.6C47.2934 119.55 51.878 118.431 55.9414 116.439L54.6209 113.745C50.9615 115.539 46.8179 116.555 42.4108 116.6L42.4418 119.6ZM12.11 89.3209C12.0669 105.886 25.771 119.73 42.4379 119.6L42.4146 116.6C27.4369 116.717 15.0711 104.245 15.11 89.3287L12.11 89.3209ZM42.5082 59.1315C25.8219 59.1315 12.1963 72.6669 12.11 89.317L15.11 89.3325C15.1877 74.338 27.4679 62.1315 42.5082 62.1315V59.1315ZM54.4909 114.605C54.3663 114.506 54.3028 114.348 54.3149 114.193C54.3278 114.028 54.4324 113.838 54.6209 113.745L55.9414 116.439C57.6821 115.586 57.7017 113.321 56.3536 112.253L54.4909 114.605ZM58.7622 63.8942C57.5586 63.131 55.9653 63.5497 55.2912 64.8038L57.9337 66.2241C57.7837 66.503 57.4241 66.5981 57.1555 66.4277L58.7622 63.8942ZM67.2731 52.6021C65.6076 53.5263 65.6667 55.741 67.015 56.7621L68.8262 54.3706C68.9506 54.4648 69.0177 54.6175 69.0113 54.7707C69.0045 54.934 68.9097 55.1249 68.7287 55.2253L67.2731 52.6021ZM44.366 62.0733C44.9744 60.7652 44.0825 59.144 42.5202 59.1315L42.4963 62.1314C41.7568 62.1255 41.3844 61.3701 41.6458 60.8081L44.366 62.0733ZM81.5125 107.476C81.718 107.483 81.8884 107.608 81.9689 107.749C82.0446 107.881 82.0556 108.048 81.9884 108.189L79.2798 106.899C78.5522 108.427 79.5199 110.415 81.4177 110.475L81.5125 107.476ZM70.9479 122.655C70.8286 122.758 70.6657 122.795 70.5132 122.753L71.3149 119.862C70.5014 119.636 69.6292 119.832 68.99 120.382L70.9479 122.655ZM66.1178 102.942C66.2761 102.662 66.6422 102.578 66.9055 102.756L65.2252 105.242C66.4096 106.042 68.024 105.666 68.7295 104.418L66.1178 102.942ZM145.972 28.6071C145.197 29.3612 143.874 28.7567 143.976 27.6531L146.963 27.9286C147.12 26.2288 145.083 25.2859 143.879 26.4577L145.972 28.6071ZM137.813 35.8711C138.011 36.069 138.009 36.3898 137.811 36.5849L135.706 34.4479C134.717 35.4217 134.711 37.0162 135.696 37.997L137.813 35.8711ZM51.8974 46.7405C52.0128 46.6337 52.173 46.5916 52.3252 46.6269L51.6463 49.5491C52.4622 49.7387 53.3198 49.5118 53.9352 48.9422L51.8974 46.7405ZM134.61 17.5515C134.388 17.5708 134.144 17.4931 133.952 17.2647C133.844 17.1374 133.707 16.9008 133.705 16.57C133.702 16.211 133.861 15.9342 134.018 15.7775L136.139 17.8989C136.473 17.565 136.708 17.0967 136.705 16.5512C136.701 16.0339 136.485 15.6161 136.246 15.3324C135.791 14.7912 135.07 14.5001 134.349 14.5628L134.61 17.5515ZM114.616 36.3784C114.405 36.1775 114.408 35.8433 114.615 35.6463L116.681 37.8219C117.715 36.8407 117.72 35.1913 116.684 34.2051L114.616 36.3784Z" fill="#333333" mask="url(#path-1-inside-1_2577_1007)"/>
</svg>
