<svg width="162" height="182" viewBox="0 0 162 182" fill="none" xmlns="http://www.w3.org/2000/svg">
<mask id="path-1-inside-1_2577_1007" fill="white">
<path fill-rule="evenodd" clip-rule="evenodd" d="M114.095 33.8204C114.598 34.2955 115.115 34.7831 115.65 35.2918C116.063 35.6844 116.061 36.342 115.648 36.7341C115.008 37.3418 114.389 37.927 113.786 38.4965C112.167 40.0276 110.667 41.4449 109.204 42.8803C108.074 44.0526 107.278 44.1782 105.855 43.2571C96.5598 37.2281 86.3857 35.1765 75.4999 36.8931C66.7192 38.2796 58.9814 42.2279 52.9163 47.8414C52.6663 48.0728 52.3176 48.1651 51.9858 48.088C46.7806 46.8787 41.2491 46.6427 35.6219 47.5555C12.8722 51.2446 -2.13036 72.0268 0.247085 93.6288C1.10788 101.622 3.85426 108.836 8.77312 115.19C15.0447 123.347 23.2837 128.512 33.3264 130.725C34.7201 131.012 35.6628 131.422 35.5809 133.185C35.4579 136.956 35.4989 140.686 35.5809 144.457C35.6218 146.056 35.13 146.67 33.4903 146.629C29.3918 146.547 25.2933 146.588 21.1947 146.629H21.1932C20.4144 146.629 19.5536 146.711 18.8158 146.998C15.5775 148.187 13.733 151.384 14.3068 154.623C14.8807 157.779 17.75 160.197 21.1932 160.238C25.3742 160.32 29.5143 160.32 33.6953 160.238C35.13 160.197 35.6218 160.689 35.5809 162.124C35.5535 164.72 35.5626 167.316 35.5717 169.912C35.5763 171.21 35.5809 172.508 35.5809 173.806C35.5809 178.479 38.3272 181.594 42.4263 181.553C46.4433 181.512 49.1897 178.397 49.1897 173.888C49.2307 169.912 49.2307 165.977 49.1897 162.001C49.1897 160.689 49.6816 160.197 50.9933 160.238C52.4431 160.266 53.9112 160.256 55.3732 160.247C56.1019 160.243 56.8291 160.238 57.5517 160.238C58.5407 160.238 59.54 160.249 60.534 160.259C61.5177 160.269 62.4961 160.279 63.4543 160.279C67.5124 160.238 70.5457 157.246 70.5047 153.352C70.4637 149.499 67.5124 146.711 63.4543 146.67C59.3553 146.629 55.2563 146.588 51.1572 146.67C49.6406 146.67 49.1077 146.138 49.1487 144.621C49.2307 140.85 49.2717 137.12 49.1487 133.349C49.0667 131.668 49.7226 131.094 51.2392 130.766C58.3528 129.29 64.7331 126.029 69.969 121.519C70.2289 121.295 70.5835 121.215 70.9141 121.307C81.0659 124.122 92.3294 123.267 102.631 117.699C117.326 109.744 124.988 97.0162 125.533 80.1851C125.826 71.3508 123.356 63.2702 118.541 55.9014C117.703 54.5616 117.787 53.7661 118.917 52.7194C120.927 50.8772 122.811 48.9094 124.695 46.9416C125.575 46.0205 126.244 46.0205 127.124 46.9416C128.715 48.6163 130.348 50.2492 132.022 51.8402C133.906 53.6824 136.251 54.2685 138.763 53.5149C143.871 51.9658 145.462 45.853 141.736 41.9592C140.284 40.4441 138.808 38.9765 137.398 37.5745C137.182 37.3594 136.967 37.1459 136.754 36.934C136.361 36.5426 136.363 35.9058 136.758 35.5164C139.546 32.7695 142.197 30.1885 144.925 27.5324V27.5324C145.14 27.3236 145.497 27.4927 145.47 27.7909C145.444 28.07 145.417 28.3493 145.391 28.6288C145.253 30.0744 145.115 31.5261 145.085 32.9994C145.002 36.9769 147.765 39.9495 151.7 40.2426C155.008 40.5357 158.316 37.8142 158.902 34.2554C159.068 33.258 159.161 32.2423 159.253 31.2325C159.301 30.7163 159.348 30.2016 159.404 29.6918C159.65 27.5618 159.879 25.4278 160.108 23.2936C160.623 18.5057 161.138 13.7163 161.833 8.9669C162.628 3.56588 158.986 -0.495349 154.171 0.0489398C149.728 0.548074 145.271 1.00258 140.817 1.45679C137.799 1.76458 134.781 2.07224 131.771 2.39357L131.652 2.40581C130.057 2.5693 128.424 2.73668 126.831 3.06346C123.356 3.8171 121.262 7.04096 121.681 10.8091C122.016 13.9492 124.947 16.6288 128.296 16.587C129.617 16.587 131.048 16.4261 132.46 16.2674C133.143 16.1907 133.82 16.1145 134.479 16.0572C134.979 16.0137 135.433 16.4839 135.079 16.8382V16.8382C132.315 19.6852 129.552 22.5323 126.705 25.2956C126.412 25.5887 125.282 25.3793 124.863 25.0025C123.877 24.1236 122.943 23.1768 122.005 22.227C121.469 21.6838 120.931 21.1395 120.383 20.6063C117.243 17.5081 113.014 17.3406 110.167 20.2295C107.404 23.0766 107.571 27.4309 110.628 30.4873C111.747 31.6066 112.882 32.6774 114.095 33.8204ZM80.6341 107.544C80.3269 108.189 80.7508 108.953 81.4651 108.976C81.7783 108.986 82.0926 108.991 82.4082 108.991C98.5694 108.991 111.674 95.9276 111.674 79.7664C112.135 65.4055 100.705 50.3748 82.492 50.291C77.0555 50.2651 72.1633 51.6038 68.0009 53.9137C67.3757 54.2606 67.3506 55.1347 67.9206 55.5664C76.1508 61.7994 82.1196 71.0375 84.0725 81.9465C85.6884 91.0051 84.2887 99.8688 80.6341 107.544ZM56.6124 65.5139C56.8745 65.0264 57.4913 64.8645 57.9588 65.161C65.8228 70.1482 71.1717 78.8824 71.1196 89.4887C71.0932 94.7387 69.7551 99.5558 67.4237 103.68C67.1501 104.164 66.5259 104.31 66.0654 103.999C58.2565 98.7194 53.1266 89.7536 53.1003 79.557C53.0731 74.6205 54.3161 69.7861 56.6124 65.5139ZM42.5082 60.6315C42.9196 60.6347 43.1794 61.0677 43.0059 61.4407C39.4162 69.1587 38.07 77.9967 39.6606 86.9678C41.6247 98.0176 47.4863 107.143 55.4222 113.429C55.9923 113.88 55.9341 114.772 55.2811 115.092C51.4197 116.985 47.0557 118.052 42.4263 118.1C26.604 118.223 13.569 105.065 13.61 89.3248C13.692 73.5025 26.6449 60.6315 42.5082 60.6315V60.6315Z"/>
</mask>
<path fill-rule="evenodd" clip-rule="evenodd" d="M114.095 33.8204C114.598 34.2955 115.115 34.7831 115.65 35.2918C116.063 35.6844 116.061 36.342 115.648 36.7341C115.008 37.3418 114.389 37.927 113.786 38.4965C112.167 40.0276 110.667 41.4449 109.204 42.8803C108.074 44.0526 107.278 44.1782 105.855 43.2571C96.5598 37.2281 86.3857 35.1765 75.4999 36.8931C66.7192 38.2796 58.9814 42.2279 52.9163 47.8414C52.6663 48.0728 52.3176 48.1651 51.9858 48.088C46.7806 46.8787 41.2491 46.6427 35.6219 47.5555C12.8722 51.2446 -2.13036 72.0268 0.247085 93.6288C1.10788 101.622 3.85426 108.836 8.77312 115.19C15.0447 123.347 23.2837 128.512 33.3264 130.725C34.7201 131.012 35.6628 131.422 35.5809 133.185C35.4579 136.956 35.4989 140.686 35.5809 144.457C35.6218 146.056 35.13 146.67 33.4903 146.629C29.3918 146.547 25.2933 146.588 21.1947 146.629H21.1932C20.4144 146.629 19.5536 146.711 18.8158 146.998C15.5775 148.187 13.733 151.384 14.3068 154.623C14.8807 157.779 17.75 160.197 21.1932 160.238C25.3742 160.32 29.5143 160.32 33.6953 160.238C35.13 160.197 35.6218 160.689 35.5809 162.124C35.5535 164.72 35.5626 167.316 35.5717 169.912C35.5763 171.21 35.5809 172.508 35.5809 173.806C35.5809 178.479 38.3272 181.594 42.4263 181.553C46.4433 181.512 49.1897 178.397 49.1897 173.888C49.2307 169.912 49.2307 165.977 49.1897 162.001C49.1897 160.689 49.6816 160.197 50.9933 160.238C52.4431 160.266 53.9112 160.256 55.3732 160.247C56.1019 160.243 56.8291 160.238 57.5517 160.238C58.5407 160.238 59.54 160.249 60.534 160.259C61.5177 160.269 62.4961 160.279 63.4543 160.279C67.5124 160.238 70.5457 157.246 70.5047 153.352C70.4637 149.499 67.5124 146.711 63.4543 146.67C59.3553 146.629 55.2563 146.588 51.1572 146.67C49.6406 146.67 49.1077 146.138 49.1487 144.621C49.2307 140.85 49.2717 137.12 49.1487 133.349C49.0667 131.668 49.7226 131.094 51.2392 130.766C58.3528 129.29 64.7331 126.029 69.969 121.519C70.2289 121.295 70.5835 121.215 70.9141 121.307C81.0659 124.122 92.3294 123.267 102.631 117.699C117.326 109.744 124.988 97.0162 125.533 80.1851C125.826 71.3508 123.356 63.2702 118.541 55.9014C117.703 54.5616 117.787 53.7661 118.917 52.7194C120.927 50.8772 122.811 48.9094 124.695 46.9416C125.575 46.0205 126.244 46.0205 127.124 46.9416C128.715 48.6163 130.348 50.2492 132.022 51.8402C133.906 53.6824 136.251 54.2685 138.763 53.5149C143.871 51.9658 145.462 45.853 141.736 41.9592C140.284 40.4441 138.808 38.9765 137.398 37.5745C137.182 37.3594 136.967 37.1459 136.754 36.934C136.361 36.5426 136.363 35.9058 136.758 35.5164C139.546 32.7695 142.197 30.1885 144.925 27.5324V27.5324C145.14 27.3236 145.497 27.4927 145.47 27.7909C145.444 28.07 145.417 28.3493 145.391 28.6288C145.253 30.0744 145.115 31.5261 145.085 32.9994C145.002 36.9769 147.765 39.9495 151.7 40.2426C155.008 40.5357 158.316 37.8142 158.902 34.2554C159.068 33.258 159.161 32.2423 159.253 31.2325C159.301 30.7163 159.348 30.2016 159.404 29.6918C159.65 27.5618 159.879 25.4278 160.108 23.2936C160.623 18.5057 161.138 13.7163 161.833 8.9669C162.628 3.56588 158.986 -0.495349 154.171 0.0489398C149.728 0.548074 145.271 1.00258 140.817 1.45679C137.799 1.76458 134.781 2.07224 131.771 2.39357L131.652 2.40581C130.057 2.5693 128.424 2.73668 126.831 3.06346C123.356 3.8171 121.262 7.04096 121.681 10.8091C122.016 13.9492 124.947 16.6288 128.296 16.587C129.617 16.587 131.048 16.4261 132.46 16.2674C133.143 16.1907 133.82 16.1145 134.479 16.0572C134.979 16.0137 135.433 16.4839 135.079 16.8382V16.8382C132.315 19.6852 129.552 22.5323 126.705 25.2956C126.412 25.5887 125.282 25.3793 124.863 25.0025C123.877 24.1236 122.943 23.1768 122.005 22.227C121.469 21.6838 120.931 21.1395 120.383 20.6063C117.243 17.5081 113.014 17.3406 110.167 20.2295C107.404 23.0766 107.571 27.4309 110.628 30.4873C111.747 31.6066 112.882 32.6774 114.095 33.8204ZM80.6341 107.544C80.3269 108.189 80.7508 108.953 81.4651 108.976C81.7783 108.986 82.0926 108.991 82.4082 108.991C98.5694 108.991 111.674 95.9276 111.674 79.7664C112.135 65.4055 100.705 50.3748 82.492 50.291C77.0555 50.2651 72.1633 51.6038 68.0009 53.9137C67.3757 54.2606 67.3506 55.1347 67.9206 55.5664C76.1508 61.7994 82.1196 71.0375 84.0725 81.9465C85.6884 91.0051 84.2887 99.8688 80.6341 107.544ZM56.6124 65.5139C56.8745 65.0264 57.4913 64.8645 57.9588 65.161C65.8228 70.1482 71.1717 78.8824 71.1196 89.4887C71.0932 94.7387 69.7551 99.5558 67.4237 103.68C67.1501 104.164 66.5259 104.31 66.0654 103.999C58.2565 98.7194 53.1266 89.7536 53.1003 79.557C53.0731 74.6205 54.3161 69.7861 56.6124 65.5139ZM42.5082 60.6315C42.9196 60.6347 43.1794 61.0677 43.0059 61.4407C39.4162 69.1587 38.07 77.9967 39.6606 86.9678C41.6247 98.0176 47.4863 107.143 55.4222 113.429C55.9923 113.88 55.9341 114.772 55.2811 115.092C51.4197 116.985 47.0557 118.052 42.4263 118.1C26.604 118.223 13.569 105.065 13.61 89.3248C13.692 73.5025 26.6449 60.6315 42.5082 60.6315V60.6315Z" fill="#EC3396"/>
<path d="M114.095 33.8204L115.467 32.3653L115.467 32.3653L114.095 33.8204ZM113.786 38.4965L115.16 39.95L115.16 39.95L113.786 38.4965ZM109.204 42.8803L107.803 41.4527L107.784 41.4721L107.764 41.492L109.204 42.8803ZM105.855 43.2571L104.766 44.935L104.768 44.9363L105.855 43.2571ZM75.4999 36.8931L75.1884 34.9175L75.188 34.9176L75.4999 36.8931ZM35.6219 47.5555L35.942 49.5297L35.9421 49.5297L35.6219 47.5555ZM0.247085 93.6288L2.23559 93.4146L2.23508 93.41L0.247085 93.6288ZM8.77312 115.19L10.3587 113.971L10.3546 113.965L8.77312 115.19ZM33.3264 130.725L32.8959 132.678L32.9095 132.681L32.9231 132.684L33.3264 130.725ZM35.5809 133.185L33.583 133.092L33.5824 133.105L33.5819 133.119L35.5809 133.185ZM35.5809 144.457L33.5813 144.5L33.5815 144.508L35.5809 144.457ZM33.4903 146.629L33.5403 144.63L33.5303 144.63L33.4903 146.629ZM21.1947 146.629V148.629H21.2047L21.2147 148.629L21.1947 146.629ZM18.8158 146.998L19.505 148.876L19.5229 148.869L19.5407 148.862L18.8158 146.998ZM14.3068 154.623L12.3375 154.972L12.3391 154.98L14.3068 154.623ZM21.1932 160.238L21.2324 158.239L21.2247 158.238L21.217 158.238L21.1932 160.238ZM33.6953 160.238L33.7345 162.238L33.7435 162.238L33.7524 162.237L33.6953 160.238ZM35.5809 162.124L33.5817 162.067L33.5812 162.085L33.581 162.103L35.5809 162.124ZM35.5717 169.912L37.5717 169.905L37.5717 169.905L35.5717 169.912ZM42.4263 181.553L42.4463 183.553L42.4467 183.553L42.4263 181.553ZM49.1897 173.888L47.1898 173.867L47.1897 173.878V173.888H49.1897ZM49.1897 162.001H47.1897V162.011L47.1898 162.021L49.1897 162.001ZM50.9933 160.238L50.9308 162.237L50.9432 162.238L50.9555 162.238L50.9933 160.238ZM55.3732 160.247L55.3857 162.247L55.3857 162.247L55.3732 160.247ZM60.534 160.259L60.5548 158.259L60.5548 158.259L60.534 160.259ZM63.4543 160.279V162.279H63.4644L63.4745 162.279L63.4543 160.279ZM70.5047 153.352L72.5046 153.331L72.5046 153.331L70.5047 153.352ZM63.4543 146.67L63.4745 144.671L63.4744 144.671L63.4543 146.67ZM51.1572 146.67V148.67H51.1772L51.1972 148.67L51.1572 146.67ZM49.1487 144.621L51.148 144.675L51.1482 144.664L49.1487 144.621ZM49.1487 133.349L51.1476 133.283L51.1471 133.267L51.1463 133.251L49.1487 133.349ZM51.2392 130.766L50.8329 128.808L50.8247 128.81L50.8165 128.811L51.2392 130.766ZM102.631 117.699L103.582 119.459L103.583 119.458L102.631 117.699ZM125.533 80.1851L123.534 80.1188L123.534 80.1204L125.533 80.1851ZM118.541 55.9014L116.845 56.9614L116.855 56.9785L116.866 56.9954L118.541 55.9014ZM118.917 52.7194L117.566 51.2451L117.559 51.2519L118.917 52.7194ZM124.695 46.9416L126.14 48.3247L126.142 48.3225L124.695 46.9416ZM127.124 46.9416L128.574 45.5641L128.57 45.5606L127.124 46.9416ZM132.022 51.8402L133.421 50.4101L133.41 50.4001L133.4 50.3902L132.022 51.8402ZM138.763 53.5149L139.338 55.4305L139.344 55.4288L138.763 53.5149ZM141.736 41.9592L143.181 40.5764L143.18 40.5754L141.736 41.9592ZM137.398 37.5745L135.988 38.9926L135.988 38.9927L137.398 37.5745ZM145.391 28.6288L147.382 28.8181L147.382 28.818L145.391 28.6288ZM145.085 32.9994L147.085 33.0415L147.085 33.0402L145.085 32.9994ZM151.7 40.2426L151.877 38.2504L151.863 38.2492L151.849 38.2481L151.7 40.2426ZM158.902 34.2554L156.929 33.9266L156.928 33.9304L158.902 34.2554ZM159.253 31.2325L157.262 31.0504L157.262 31.0504L159.253 31.2325ZM159.404 29.6918L157.417 29.463L157.416 29.4709L159.404 29.6918ZM160.108 23.2936L162.097 23.5073L162.097 23.5073L160.108 23.2936ZM161.833 8.9669L159.854 8.67547L159.854 8.67731L161.833 8.9669ZM154.171 0.0489398L154.394 2.03643L154.395 2.03628L154.171 0.0489398ZM140.817 1.45679L141.02 3.44647L141.02 3.44647L140.817 1.45679ZM131.771 2.39357L131.975 4.38315L131.983 4.38227L131.771 2.39357ZM131.652 2.40581L131.856 4.39539L131.856 4.39538L131.652 2.40581ZM126.831 3.06346L126.429 1.10426L126.418 1.10652L126.407 1.1089L126.831 3.06346ZM121.681 10.8091L123.67 10.597L123.669 10.5882L121.681 10.8091ZM128.296 16.587V14.587H128.284L128.271 14.5871L128.296 16.587ZM132.46 16.2674L132.237 14.2799L132.237 14.2799L132.46 16.2674ZM126.705 25.2956L125.312 23.8604L125.301 23.8708L125.291 23.8814L126.705 25.2956ZM124.863 25.0025L126.201 23.5159L126.194 23.5099L124.863 25.0025ZM122.005 22.227L123.428 20.8219L123.428 20.8219L122.005 22.227ZM120.383 20.6063L118.978 22.03L118.983 22.0352L118.989 22.0403L120.383 20.6063ZM110.167 20.2295L108.742 18.8256L108.737 18.8311L108.732 18.8366L110.167 20.2295ZM110.628 30.4873L112.042 29.0731L112.042 29.073L110.628 30.4873ZM111.674 79.7664L109.675 79.7023L109.674 79.7343V79.7664H111.674ZM82.492 50.291L82.4825 52.291L82.4828 52.291L82.492 50.291ZM84.0725 81.9465L86.0415 81.5953L86.0412 81.5941L84.0725 81.9465ZM71.1196 89.4887L73.1195 89.4988L73.1195 89.4986L71.1196 89.4887ZM53.1003 79.557L55.1003 79.5519L55.1003 79.546L53.1003 79.557ZM39.6606 86.9678L37.6913 87.3169L37.6915 87.3178L39.6606 86.9678ZM42.4263 118.1L42.4418 120.1L42.4469 120.1L42.4263 118.1ZM13.61 89.3248L11.61 89.3144L11.61 89.3196L13.61 89.3248ZM55.4222 113.429L56.664 111.861L55.4222 113.429ZM55.2811 115.092L54.4008 113.296L55.2811 115.092ZM57.9588 65.161L56.8877 66.85L57.9588 65.161ZM56.6124 65.5139L58.3741 66.4608L56.6124 65.5139ZM68.0009 53.9137L67.0305 52.1649L68.0009 53.9137ZM67.9206 55.5664L69.1281 53.972L67.9206 55.5664ZM52.9163 47.8414L54.2748 49.3092L52.9163 47.8414ZM51.9858 48.088L51.5331 50.0361L51.9858 48.088ZM80.6341 107.544L82.4399 108.404L80.6341 107.544ZM134.479 16.0572L134.306 14.0647L134.479 16.0572ZM136.754 36.934L135.343 38.3514L136.754 36.934ZM136.758 35.5164L138.162 36.9411L136.758 35.5164ZM69.969 121.519L68.6637 120.003L69.969 121.519ZM70.9141 121.307L71.4485 119.38L70.9141 121.307ZM66.0654 103.999L64.9452 105.656L66.0654 103.999ZM145.47 27.7909L147.461 27.9745L145.47 27.7909ZM115.65 35.2918L117.029 33.8429L115.65 35.2918ZM115.648 36.7341L114.271 35.2837L115.648 36.7341ZM117.029 33.8429C116.49 33.3306 115.97 32.84 115.467 32.3653L112.722 35.2755C113.227 35.751 113.74 36.2355 114.271 36.7407L117.029 33.8429ZM115.16 39.95C115.763 39.3807 116.383 38.794 117.025 38.1845L114.271 35.2837C113.633 35.8896 113.015 36.4733 112.413 37.043L115.16 39.95ZM110.605 44.3079C112.052 42.8878 113.538 41.4835 115.16 39.95L112.413 37.043C110.795 38.5716 109.282 40.0019 107.803 41.4527L110.605 44.3079ZM104.768 44.9363C105.599 45.4742 106.653 45.9879 107.88 45.8392C109.102 45.6911 109.991 44.9455 110.644 44.2686L107.764 41.492C107.542 41.7229 107.404 41.829 107.333 41.8744C107.276 41.9105 107.306 41.8795 107.399 41.8683C107.492 41.857 107.528 41.8802 107.463 41.8582C107.382 41.8306 107.219 41.7576 106.941 41.578L104.768 44.9363ZM75.8115 38.8687C86.2234 37.2268 95.8967 39.1819 104.766 44.935L106.943 41.5792C97.2228 35.2743 86.548 33.1262 75.1884 34.9175L75.8115 38.8687ZM54.2748 49.3092C60.0594 43.9554 67.4362 40.1911 75.8119 38.8687L75.188 34.9176C66.0023 36.368 57.9035 40.5004 51.5578 46.3736L54.2748 49.3092ZM35.9421 49.5297C41.3089 48.6592 46.5779 48.8848 51.5331 50.0361L52.4384 46.1399C46.9833 44.8725 41.1893 44.6263 35.3016 45.5813L35.9421 49.5297ZM2.23508 93.41C-0.0276723 72.8501 14.2595 53.0458 35.942 49.5297L35.3017 45.5813C11.4848 49.4435 -4.23305 71.2035 -1.74091 93.8476L2.23508 93.41ZM10.3546 113.965C5.67837 107.925 3.05969 101.067 2.23559 93.4146L-1.74142 93.8429C-0.843918 102.177 2.03015 109.747 7.19167 116.414L10.3546 113.965ZM33.7569 128.772C24.1651 126.658 16.3382 121.748 10.3587 113.971L7.18757 116.409C13.7511 124.946 22.4024 130.365 32.8959 132.678L33.7569 128.772ZM37.5787 133.277C37.6374 132.016 37.3306 130.799 36.3428 129.913C35.5022 129.159 34.4238 128.909 33.7297 128.766L32.9231 132.684C33.236 132.748 33.4372 132.803 33.575 132.855C33.7074 132.905 33.7123 132.927 33.6712 132.89C33.6126 132.837 33.5757 132.77 33.5652 132.739C33.5622 132.731 33.5955 132.824 33.583 133.092L37.5787 133.277ZM37.5804 144.413C37.4986 140.654 37.4586 136.966 37.5798 133.25L33.5819 133.119C33.4572 136.945 33.4991 140.718 33.5813 144.5L37.5804 144.413ZM33.4404 148.629C34.409 148.653 35.7024 148.522 36.633 147.517C37.5245 146.555 37.6029 145.291 37.5802 144.406L33.5815 144.508C33.5853 144.657 33.5823 144.773 33.5756 144.861C33.569 144.95 33.5595 145 33.5547 145.021C33.5501 145.04 33.5527 145.02 33.5743 144.976C33.5973 144.93 33.6369 144.865 33.6987 144.799C33.7611 144.731 33.8278 144.681 33.887 144.647C33.9436 144.615 33.9794 144.605 33.978 144.605C33.9753 144.606 33.9414 144.615 33.8654 144.622C33.7895 144.629 33.6835 144.634 33.5403 144.63L33.4404 148.629ZM21.2147 148.629C25.3183 148.588 29.3868 148.548 33.4504 148.629L33.5303 144.63C29.3968 144.547 25.2683 144.589 21.1747 144.63L21.2147 148.629ZM21.1932 148.629H21.1947V144.629H21.1932V148.629ZM19.5407 148.862C19.9433 148.706 20.5186 148.629 21.1932 148.629V144.629C20.3102 144.629 19.1639 144.717 18.0909 145.134L19.5407 148.862ZM16.2761 154.274C15.8769 152.021 17.1467 149.742 19.505 148.876L18.1266 145.121C14.0084 146.633 11.589 150.748 12.3375 154.972L16.2761 154.274ZM21.217 158.238C18.6878 158.208 16.6695 156.437 16.2746 154.265L12.3391 154.98C13.0919 159.121 16.8122 162.186 21.1694 162.238L21.217 158.238ZM33.6561 158.239C29.5012 158.32 25.3873 158.32 21.2324 158.239L21.154 162.238C25.3612 162.32 29.5273 162.32 33.7345 162.238L33.6561 158.239ZM37.58 162.181C37.6039 161.346 37.5176 160.125 36.6057 159.213C35.6937 158.301 34.4733 158.215 33.6382 158.239L33.7524 162.237C33.8749 162.234 33.9642 162.237 34.0268 162.242C34.0897 162.247 34.1136 162.254 34.1088 162.252C34.1029 162.251 34.0602 162.239 33.9963 162.206C33.9298 162.17 33.8522 162.117 33.7772 162.042C33.7022 161.967 33.6488 161.889 33.6135 161.823C33.5797 161.759 33.5683 161.716 33.5668 161.71C33.5656 161.706 33.572 161.729 33.5771 161.792C33.5822 161.855 33.5852 161.944 33.5817 162.067L37.58 162.181ZM37.5717 169.905C37.5626 167.307 37.5536 164.725 37.5807 162.145L33.581 162.103C33.5535 164.715 33.5627 167.325 33.5718 169.919L37.5717 169.905ZM37.5809 173.806C37.5809 172.504 37.5763 171.202 37.5717 169.905L33.5718 169.919C33.5763 171.218 33.5809 172.512 33.5809 173.806H37.5809ZM42.4063 179.553C40.902 179.568 39.7575 179.02 38.9656 178.124C38.1521 177.202 37.5809 175.759 37.5809 173.806H33.5809C33.5809 176.526 34.3828 178.977 35.9672 180.771C37.5732 182.59 39.8515 183.579 42.4463 183.553L42.4063 179.553ZM47.1897 173.888C47.1897 175.74 46.6288 177.15 45.8145 178.073C45.0161 178.978 43.8713 179.538 42.4059 179.553L42.4467 183.553C44.9983 183.527 47.2352 182.509 48.8142 180.719C50.3774 178.947 51.1897 176.545 51.1897 173.888H47.1897ZM47.1898 162.021C47.2306 165.984 47.2306 169.905 47.1898 173.867L51.1896 173.909C51.2307 169.919 51.2307 165.97 51.1896 161.98L47.1898 162.021ZM51.0557 158.239C50.2301 158.213 49.0793 158.32 48.1982 159.185C47.3238 160.044 47.1897 161.186 47.1897 162.001H51.1897C51.1897 161.784 51.2117 161.71 51.2081 161.723C51.1995 161.752 51.1502 161.893 51.001 162.039C50.9309 162.108 50.8578 162.159 50.7925 162.194C50.7292 162.228 50.6834 162.242 50.6684 162.246C50.6492 162.251 50.7177 162.231 50.9308 162.237L51.0557 158.239ZM55.3607 158.247C53.8943 158.256 52.4515 158.265 51.031 158.239L50.9555 162.238C52.4347 162.266 53.9281 162.256 55.3857 162.247L55.3607 158.247ZM57.5517 158.238C56.8218 158.238 56.0884 158.243 55.3607 158.247L55.3857 162.247C56.1154 162.243 56.8364 162.238 57.5517 162.238V158.238ZM60.5548 158.259C59.5625 158.249 58.5528 158.238 57.5517 158.238V162.238C58.5286 162.238 59.5175 162.248 60.5133 162.259L60.5548 158.259ZM63.4543 158.279C62.5083 158.279 61.5403 158.269 60.5548 158.259L60.5133 162.259C61.4951 162.269 62.484 162.279 63.4543 162.279V158.279ZM68.5048 153.373C68.5335 156.093 66.4578 158.249 63.4342 158.279L63.4745 162.279C68.567 162.228 72.5579 158.399 72.5046 153.331L68.5048 153.373ZM63.4342 148.67C66.5064 148.701 68.4765 150.708 68.5048 153.373L72.5046 153.331C72.451 148.289 68.5184 144.721 63.4745 144.671L63.4342 148.67ZM51.1972 148.67C55.2613 148.589 59.3303 148.629 63.4343 148.67L63.4744 144.671C59.3803 144.63 55.2513 144.588 51.1172 144.671L51.1972 148.67ZM47.1494 144.567C47.1252 145.463 47.2314 146.691 48.1434 147.617C49.0496 148.538 50.2707 148.67 51.1572 148.67V144.67C51.0915 144.67 51.0334 144.669 50.9822 144.666C50.9309 144.664 50.8879 144.66 50.8521 144.657C50.8164 144.653 50.7894 144.648 50.7701 144.645C50.7508 144.641 50.7405 144.639 50.7379 144.638C50.7325 144.636 50.7624 144.644 50.8131 144.672C50.8386 144.686 50.8681 144.705 50.8998 144.729C50.9316 144.753 50.9635 144.78 50.9943 144.812C51.0252 144.843 51.0526 144.875 51.0764 144.908C51.1001 144.941 51.1187 144.971 51.1329 144.998C51.1612 145.051 51.1693 145.084 51.1686 145.081C51.1683 145.08 51.166 145.071 51.1631 145.053C51.1602 145.035 51.1568 145.009 51.1538 144.975C51.1509 144.94 51.1485 144.898 51.1473 144.847C51.1461 144.797 51.1462 144.74 51.148 144.675L47.1494 144.567ZM47.1498 133.414C47.271 137.13 47.2309 140.817 47.1492 144.577L51.1482 144.664C51.2305 140.882 51.2724 137.109 51.1476 133.283L47.1498 133.414ZM50.8165 128.811C49.9575 128.997 48.8707 129.335 48.0857 130.237C47.2541 131.193 47.0988 132.374 47.1511 133.446L51.1463 133.251C51.1319 132.956 51.1563 132.813 51.168 132.766C51.175 132.738 51.1638 132.793 51.1033 132.863C51.0487 132.926 51.0193 132.924 51.0991 132.888C51.1898 132.846 51.3597 132.786 51.6619 132.721L50.8165 128.811ZM68.6637 120.003C63.6759 124.3 57.6024 127.403 50.8329 128.808L51.6455 132.724C59.1031 131.177 65.7904 127.758 71.2742 123.034L68.6637 120.003ZM101.68 115.94C91.8558 121.249 81.1273 122.064 71.4485 119.38L70.3796 123.234C81.0044 126.181 92.803 125.284 103.582 119.459L101.68 115.94ZM123.534 80.1204C123.012 96.2624 115.73 108.334 101.679 115.94L103.583 119.458C118.923 111.154 126.965 97.77 127.532 80.2497L123.534 80.1204ZM116.866 56.9954C121.474 64.0478 123.812 71.7274 123.534 80.1188L127.532 80.2514C127.839 70.9743 125.237 62.4927 120.215 54.8074L116.866 56.9954ZM117.559 51.2519C116.867 51.8926 116.144 52.7654 116.004 53.9704C115.867 55.1529 116.351 56.1719 116.845 56.9614L120.237 54.8414C120.076 54.5849 120.011 54.4336 119.986 54.3591C119.966 54.2985 119.989 54.3361 119.978 54.4305C119.967 54.5282 119.933 54.5721 119.954 54.54C119.983 54.4929 120.069 54.3789 120.276 54.1869L117.559 51.2519ZM123.251 45.5584C121.359 47.5341 119.52 49.4543 117.566 51.2451L120.269 54.1937C122.335 52.3001 124.263 50.2847 126.14 48.3247L123.251 45.5584ZM128.57 45.5606C128.021 44.9848 127.137 44.2507 125.91 44.2507C124.682 44.2507 123.798 44.9848 123.249 45.5606L126.142 48.3225C126.284 48.1736 126.342 48.1441 126.319 48.1571C126.28 48.1794 126.133 48.2507 125.91 48.2507C125.686 48.2507 125.539 48.1794 125.5 48.1571C125.477 48.1441 125.535 48.1736 125.677 48.3225L128.57 45.5606ZM133.4 50.3902C131.75 48.8227 130.141 47.214 128.574 45.5641L125.674 48.3191C127.288 50.0186 128.945 51.6756 130.645 53.2902L133.4 50.3902ZM138.188 51.5992C136.381 52.1415 134.79 51.7491 133.421 50.4101L130.624 53.2702C133.023 55.6156 136.121 56.3955 139.338 55.4305L138.188 51.5992ZM140.291 43.342C142.999 46.1719 141.845 50.4901 138.183 51.601L139.344 55.4288C145.897 53.4414 147.925 45.5341 143.181 40.5764L140.291 43.342ZM135.988 38.9927C137.4 40.3972 138.859 41.8481 140.292 43.343L143.18 40.5754C141.708 39.0401 140.216 37.5558 138.808 36.1563L135.988 38.9927ZM135.343 38.3514C135.556 38.5638 135.772 38.7777 135.988 38.9926L138.808 36.1563C138.592 35.9412 138.378 35.7281 138.165 35.5167L135.343 38.3514ZM143.53 26.0994C140.803 28.7549 138.148 31.34 135.355 34.0917L138.162 36.9411C140.945 34.199 143.592 31.622 146.321 28.9654L143.53 26.0994ZM147.382 28.818C147.408 28.539 147.435 28.257 147.461 27.9745L143.478 27.6072C143.453 27.8831 143.426 28.1595 143.4 28.4395L147.382 28.818ZM147.085 33.0402C147.113 31.6535 147.243 30.2754 147.382 28.8181L143.4 28.4394C143.263 29.8733 143.118 31.3987 143.086 32.9585L147.085 33.0402ZM151.849 38.2481C148.955 38.0326 147.024 35.9378 147.085 33.0415L143.086 32.9573C142.979 38.016 146.574 41.8664 151.552 42.2371L151.849 38.2481ZM156.928 33.9304C156.493 36.5749 154.027 38.4409 151.877 38.2504L151.524 42.2348C155.989 42.6305 160.138 39.0536 160.875 34.5804L156.928 33.9304ZM157.262 31.0504C157.168 32.0729 157.081 33.0145 156.929 33.9266L160.875 34.5842C161.055 33.5016 161.154 32.4118 161.245 31.4147L157.262 31.0504ZM157.416 29.4709C157.357 30.0034 157.309 30.5375 157.262 31.0504L161.245 31.4147C161.293 30.8951 161.338 30.3999 161.392 29.9126L157.416 29.4709ZM158.12 23.0799C157.89 25.2154 157.662 27.3418 157.417 29.463L161.391 29.9206C161.637 27.7818 161.868 25.6403 162.097 23.5073L158.12 23.0799ZM159.854 8.67731C159.152 13.4708 158.634 18.2984 158.12 23.0799L162.097 23.5073C162.612 18.713 163.123 13.9617 163.812 9.2565L159.854 8.67731ZM154.395 2.03628C156.156 1.83721 157.621 2.47049 158.597 3.59199C159.585 4.72619 160.176 6.48748 159.854 8.67547L163.811 9.25833C164.285 6.04531 163.452 3.07547 161.614 0.96487C159.764 -1.15842 157 -2.28362 153.946 -1.9384L154.395 2.03628ZM141.02 3.44647C145.472 2.99244 149.94 2.53691 154.394 2.03643L153.947 -1.93855C149.517 -1.44076 145.07 -0.987279 140.614 -0.532891L141.02 3.44647ZM131.983 4.38227C134.988 4.06153 138.001 3.75435 141.02 3.44647L140.614 -0.532892C137.596 -0.225178 134.575 0.0829569 131.559 0.404864L131.983 4.38227ZM131.856 4.39538L131.975 4.38314L131.567 0.403996L131.448 0.416239L131.856 4.39538ZM127.232 5.02267C128.711 4.7194 130.244 4.5606 131.856 4.39539L131.448 0.416234C129.87 0.577997 128.136 0.753957 126.429 1.10426L127.232 5.02267ZM123.669 10.5882C123.347 7.69406 124.917 5.52487 127.254 5.01803L126.407 1.1089C121.794 2.10932 119.177 6.38786 119.693 11.03L123.669 10.5882ZM128.271 14.5871C125.95 14.6161 123.895 12.7073 123.67 10.597L119.692 11.0212C120.137 15.1912 123.943 18.6415 128.321 18.5868L128.271 14.5871ZM132.237 14.2799C130.799 14.4415 129.484 14.587 128.296 14.587V18.587C129.75 18.587 131.297 18.4108 132.684 18.2549L132.237 14.2799ZM134.306 14.0647C133.618 14.1246 132.914 14.2038 132.237 14.2799L132.684 18.2549C133.371 18.1776 134.023 18.1044 134.653 18.0496L134.306 14.0647ZM128.098 26.7307C130.97 23.9432 133.754 21.0746 136.514 18.2311L133.644 15.4452C130.877 18.2958 128.134 21.1214 125.312 23.8604L128.098 26.7307ZM123.525 26.4891C124.141 27.0432 124.961 27.2815 125.498 27.3723C125.806 27.4244 126.175 27.4549 126.556 27.4161C126.857 27.3853 127.553 27.2759 128.119 26.7098L125.291 23.8814C125.519 23.6529 125.751 23.5478 125.88 23.5015C126.012 23.4535 126.111 23.4407 126.149 23.4368C126.222 23.4293 126.227 23.4389 126.164 23.4282C126.11 23.419 126.059 23.4037 126.031 23.3925C125.984 23.3734 126.068 23.3964 126.201 23.5159L123.525 26.4891ZM120.582 23.6321C121.512 24.5741 122.491 25.5667 123.532 26.4951L126.194 23.5099C125.264 22.6804 124.374 21.7796 123.428 20.8219L120.582 23.6321ZM118.989 22.0403C119.52 22.5568 120.043 23.0865 120.582 23.6321L123.428 20.8219C122.894 20.2811 122.343 19.7222 121.777 19.1723L118.989 22.0403ZM111.591 21.6334C112.635 20.5746 113.865 20.1252 115.09 20.1713C116.331 20.2181 117.715 20.7838 118.978 22.03L121.788 19.1827C119.911 17.3306 117.61 16.2634 115.24 16.1741C112.854 16.0842 110.546 16.9955 108.742 18.8256L111.591 21.6334ZM112.042 29.073C109.663 26.6939 109.691 23.5916 111.602 21.6225L108.732 18.8366C105.116 22.5615 105.48 28.1679 109.213 31.9015L112.042 29.073ZM115.467 32.3653C114.251 31.2188 113.137 30.1681 112.042 29.0731L109.213 31.9015C110.357 33.0451 111.514 34.136 112.722 35.2755L115.467 32.3653ZM81.4019 110.975C81.7361 110.985 82.0716 110.991 82.4082 110.991V106.991C82.1137 106.991 81.8204 106.986 81.5283 106.977L81.4019 110.975ZM82.4082 110.991C99.6703 110.991 113.674 97.0359 113.674 79.7664H109.674C109.674 94.8193 97.4686 106.991 82.4082 106.991V110.991ZM113.673 79.8305C114.166 64.4502 101.943 48.3804 82.5012 48.2911L82.4828 52.291C99.4662 52.3691 110.103 66.3609 109.675 79.7023L113.673 79.8305ZM82.5015 48.2911C76.7232 48.2635 71.4934 49.6883 67.0305 52.1649L68.9714 55.6625C72.8332 53.5194 77.3878 52.2667 82.4825 52.291L82.5015 48.2911ZM66.7131 57.1607C74.556 63.1005 80.2424 71.9013 82.1038 82.2989L86.0412 81.5941C83.9967 70.1737 77.7456 60.4984 69.1281 53.972L66.7131 57.1607ZM82.1036 82.2977C83.6435 90.9304 82.3102 99.3716 78.8284 106.684L82.4399 108.404C86.2671 100.366 87.7333 91.0799 86.0415 81.5953L82.1036 82.2977ZM73.1195 89.4986C73.1752 78.1736 67.4492 68.8114 59.0299 63.472L56.8877 66.85C64.1963 71.485 69.1682 79.5912 69.1196 89.4789L73.1195 89.4986ZM69.1647 104.664C71.6654 100.241 73.0915 95.0879 73.1195 89.4988L69.1196 89.4787C69.0949 94.3896 67.8448 98.8709 65.6826 102.696L69.1647 104.664ZM51.1003 79.5622C51.1283 90.4419 56.6051 100.017 64.9452 105.656L67.1855 102.342C59.9078 97.4216 55.1248 89.0653 55.1003 79.5519L51.1003 79.5622ZM54.8508 64.567C52.4 69.1265 51.0712 74.2893 51.1004 79.5681L55.1003 79.546C55.0749 74.9517 56.2321 70.4458 58.3741 66.4608L54.8508 64.567ZM41.6299 86.6186C40.1137 78.0674 41.3959 69.6447 44.8193 62.2841L41.1924 60.5972C37.4365 68.6726 36.0263 77.9261 37.6913 87.3169L41.6299 86.6186ZM56.664 111.861C49.094 105.865 43.5045 97.1653 41.6297 86.6177L37.6915 87.3178C39.7448 98.8699 45.8786 108.421 54.1804 114.997L56.664 111.861ZM42.4469 120.1C47.3727 120.049 52.0307 118.913 56.1615 116.888L54.4008 113.296C50.8088 115.057 46.7386 116.055 42.4056 116.1L42.4469 120.1ZM11.61 89.3196C11.5661 106.159 25.4934 120.232 42.4418 120.1L42.4107 116.1C27.7145 116.214 15.5718 103.971 15.61 89.33L11.61 89.3196ZM42.5082 58.6315C25.5476 58.6315 11.6977 72.3884 11.61 89.3144L15.61 89.3351C15.6862 74.6165 27.7423 62.6315 42.5082 62.6315V58.6315ZM54.1804 114.997C53.9193 114.79 53.792 114.467 53.8164 114.154C53.8419 113.827 54.0407 113.473 54.4008 113.296L56.1615 116.888C58.2648 115.857 58.2714 113.134 56.664 111.861L54.1804 114.997ZM59.0299 63.472C57.5811 62.5531 55.6622 63.0574 54.8508 64.567L58.3741 66.4608C58.0868 66.9953 57.4016 67.1759 56.8877 66.85L59.0299 63.472ZM67.0305 52.1649C65.0183 53.2815 65.1054 55.9431 66.7131 57.1607L69.1281 53.972C69.3889 54.1695 69.5237 54.482 69.5108 54.7916C69.4974 55.1145 69.3168 55.4707 68.9714 55.6625L67.0305 52.1649ZM44.8193 62.2841C45.5727 60.6644 44.4701 58.647 42.5242 58.6315L42.4923 62.6314C41.3691 62.6224 40.7861 61.471 41.1924 60.5972L44.8193 62.2841ZM51.5578 46.3736C51.795 46.1541 52.1248 46.067 52.4384 46.1399L51.5331 50.0361C52.5104 50.2632 53.5376 49.9915 54.2748 49.3092L51.5578 46.3736ZM81.5283 106.977C82.3921 107.004 82.6932 107.872 82.4399 108.404L78.8284 106.684C77.9606 108.506 79.1096 110.902 81.4019 110.975L81.5283 106.977ZM134.653 18.0496C134.274 18.0826 133.87 17.9435 133.569 17.5867C133.404 17.3909 133.208 17.0453 133.205 16.5731C133.202 16.0634 133.426 15.6625 133.664 15.4241L136.493 18.2523C136.909 17.8367 137.209 17.2442 137.205 16.548C137.201 15.8894 136.926 15.3626 136.629 15.0103C136.065 14.3408 135.184 13.9883 134.306 14.0647L134.653 18.0496ZM138.165 35.5167C138.561 35.9111 138.558 36.5511 138.162 36.9411L135.355 34.0917C134.169 35.2604 134.161 37.1741 135.343 38.3514L138.165 35.5167ZM71.2742 123.034C71.0285 123.246 70.6931 123.321 70.3796 123.234L71.4485 119.38C70.474 119.11 69.4293 119.344 68.6637 120.003L71.2742 123.034ZM65.6826 102.696C65.9848 102.161 66.6809 102.001 67.1855 102.342L64.9452 105.656C66.3709 106.62 68.3154 106.167 69.1647 104.664L65.6826 102.696ZM146.321 28.9654C145.217 30.0404 143.333 29.178 143.478 27.6072L147.461 27.9745C147.661 25.8075 145.063 24.6067 143.53 26.0995L146.321 28.9654ZM114.271 36.7407C113.852 36.3419 113.857 35.677 114.271 35.2837L117.025 38.1845C118.266 37.0069 118.273 35.0269 117.029 33.8429L114.271 36.7407Z" fill="#333333" mask="url(#path-1-inside-1_2577_1007)"/>
</svg>
