<svg width="128" height="153" viewBox="0 0 128 153" fill="none" xmlns="http://www.w3.org/2000/svg">
<path d="M104.615 61.2418C104.616 59.6632 104.619 58.0947 104.622 56.5336C104.631 51.8463 104.64 47.2266 104.593 42.6069M104.615 61.2418L23.1775 41.3655C22.7405 20.8692 37.7802 3.4575 57.8173 0.4616C80.7647 -2.96817 101.052 13.1483 104.114 34.4046C104.504 37.106 104.564 39.8707 104.593 42.6069M104.615 61.2418H104.615V62.2418H105.615L104.615 61.2418ZM104.593 42.6069L103.593 42.6173M104.593 42.6069L103.593 42.6172C103.593 42.6172 103.593 42.6173 103.593 42.6173M103.593 42.6173C103.64 47.2305 103.631 51.8406 103.622 56.5253C103.618 58.417 103.615 60.3207 103.615 62.2418C103.615 62.7941 104.062 63.2418 104.615 63.2418H104.619H104.622H104.626H104.63H104.634H104.637H104.641H104.645H104.649H104.652H104.656H104.66H104.664H104.667H104.671H104.675H104.679H104.682H104.686H104.69H104.694H104.697H104.701H104.705H104.708H104.712H104.716H104.72H104.723H104.727H104.731H104.734H104.738H104.742H104.745H104.749H104.753H104.756H104.76H104.764H104.767H104.771H104.775H104.778H104.782H104.786H104.789H104.793H104.797H104.8H104.804H104.808H104.811H104.815H104.819H104.822H104.826H104.829H104.833H104.837H104.84H104.844H104.847H104.851H104.855H104.858H104.862H104.865H104.869H104.873H104.876H104.88H104.883H104.887H104.891H104.894H104.898H104.901H104.905H104.908H104.912H104.915H104.919H104.923H104.926H104.93H104.933H104.937H104.94H104.944H104.947H104.951H104.954H104.958H104.962H104.965H104.969H104.972H104.976H104.979H104.983H104.986H104.99H104.993H104.997H105H105.004H105.007H105.011H105.014H105.018H105.021H105.025H105.028H105.031H105.035H105.038H105.042H105.045H105.049H105.052H105.056H105.059H105.063H105.066H105.07H105.073H105.076H105.08H105.083H105.087H105.09H105.094H105.097H105.101H105.104H105.107H105.111H105.114H105.118H105.121H105.124H105.128H105.131H105.135H105.138H105.141H105.145H105.148H105.152H105.155H105.158H105.162H105.165H105.169H105.172H105.175H105.179H105.182H105.186H105.189H105.192H105.196H105.199H105.202H105.206H105.209H105.212H105.216H105.219H105.223H105.226H105.229H105.233H105.236H105.239H105.243H105.246H105.249H105.253H105.256H105.259H105.263H105.266H105.269H105.273H105.276H105.279H105.283H105.286H105.289H105.292H105.296H105.299H105.302H105.306H105.309H105.312H105.316H105.319H105.322H105.325H105.329H105.332H105.335H105.339H105.342H105.345H105.348H105.352H105.355H105.358H105.362H105.365H105.368H105.371H105.375H105.378H105.381H105.384H105.388H105.391H105.394H105.397H105.401H105.404H105.407H105.41H105.414H105.417H105.42H105.423H105.427H105.43H105.433H105.436H105.44H105.443H105.446H105.449H105.453H105.456H105.459H105.462H105.465H105.469H105.472H105.475H105.478H105.481H105.485H105.488H105.491H105.494H105.498H105.501H105.504H105.507H105.51H105.514H105.517H105.52H105.523H105.526H105.529H105.533H105.536H105.539H105.542H105.545H105.549H105.552H105.555H105.558H105.561H105.564H105.568H105.571H105.574H105.577H105.58H105.583H105.587H105.59H105.593H105.596H105.599H105.602H105.606H105.609H105.612H105.615H105.618H105.621H105.624H105.628H105.631H105.634H105.637H105.64H105.643H105.646H105.65H105.653H105.656H105.659H105.662H105.665H105.668H105.672H105.675H105.678H105.681H105.684H105.687H105.69H105.693H105.696H105.7H105.703H105.706H105.709H105.712H105.715H105.718H105.721H105.725H105.728H105.731H105.734H105.737H105.74H105.743H105.746H105.749H105.752H105.756H105.759H105.762H105.765H105.768H105.771H105.774H105.777H105.78H105.783H105.786H105.79H105.793H105.796H105.799H105.802H105.805H105.808H105.811H105.814H105.817H105.82H105.823H105.826H105.83H105.833H105.836H105.839H105.842H105.845H105.848H105.851H105.854H105.857H105.86H105.863H105.866H105.869H105.873H105.876H105.879H105.882H105.885H105.888H105.891H105.894H105.897H105.9H105.903H105.906H105.909H105.912H105.915H105.918H105.921H105.924H105.928H105.931H105.934H105.937H105.94H105.943H105.946H105.949H105.952H105.955H105.958H105.961H105.964H105.967H105.97H105.973H105.976H105.979H105.982H105.985H105.988H105.991H105.994H105.997H106H106.004H106.007H106.01H106.013H106.016H106.019H106.022H106.025H106.028H106.031H106.034H106.037H106.04H106.043H106.046H106.049H106.052H106.055H106.058H106.061H106.064H106.067H106.07H106.073H106.076H106.079H106.082H106.085H106.088H106.091H106.094H106.097H106.1H106.103H106.106H106.109H106.112H106.115H106.118H106.121H106.124H106.127H106.13H106.133H106.136H106.139H106.143H106.146H106.149H106.152H106.155H106.158H106.161H106.164H106.167H106.17H106.173H106.176H106.179H106.182H106.185H106.188H106.191H106.194H106.197H106.2H106.203H106.206H106.209H106.212H106.215H106.218H106.221H106.224H106.227H106.23H106.233H106.236H106.239H106.242H106.245H106.248H106.251H106.254H106.257H106.26H106.263H106.266H106.269H106.272H106.275H106.278H106.281H106.284H106.287C107.304 63.2418 108.321 63.241 109.337 63.2402C112.384 63.2378 115.426 63.2355 118.47 63.2545C120.989 63.2704 123.051 64.131 124.481 65.5478C125.909 66.9633 126.772 68.9988 126.774 71.4904M103.593 42.6173C103.564 39.8806 103.504 37.1758 103.125 34.5473L103.125 34.5472C100.14 13.8302 80.355 -1.89582 57.9651 1.45061C38.4169 4.37342 23.7512 21.36 24.1773 41.3442L24.1773 41.3442C24.277 46.0355 24.2509 50.7403 24.2244 55.526C24.2121 57.7449 24.1997 59.9813 24.1997 62.2418C24.1997 62.7056 23.8808 63.1085 23.4294 63.215C23.3145 63.2422 23.1987 63.2483 23.0865 63.2355M126.774 71.4904L23.2005 61.2355C23.5777 61.237 23.9221 61.4506 24.0909 61.7883L24.0941 61.7946L23.1997 62.2418H23.1965V62.2434V63.2355H23.1926H23.1887H23.1848H23.1809H23.177H23.1731H23.1692H23.1653H23.1614H23.1575H23.1537H23.1498H23.1459H23.142H23.1382H23.1343H23.1305H23.1266H23.1228H23.1189H23.1151H23.1112H23.1074H23.1035H23.0997H23.0959H23.0921H23.0882H23.0865M126.774 71.4904C126.79 95.134 126.793 118.774 126.774 142.418V71.4904ZM126.774 71.4904C126.774 71.4902 126.774 71.49 126.774 71.4899L127.774 71.4892L126.774 71.4904ZM23.0865 63.2355H23.0844H23.0806H23.0768H23.073H23.0692H23.0654H23.0616H23.0578H23.054H23.0502H23.0464H23.0426H23.0388H23.0351H23.0313H23.0275H23.0238H23.02H23.0162H23.0125H23.0087H23.005H23.0012H22.9975H22.9937H22.99H22.9863H22.9825H22.9788H22.9751H22.9713H22.9676H22.9639H22.9602H22.9565H22.9528H22.9491H22.9454H22.9417H22.938H22.9343H22.9306H22.9269H22.9232H22.9195H22.9159H22.9122H22.9085H22.9048H22.9012H22.8975H22.8939H22.8902H22.8865H22.8829H22.8792H22.8756H22.872H22.8683H22.8647H22.8611H22.8574H22.8538H22.8502H22.8465H22.8429H22.8393H22.8357H22.8321H22.8285H22.8249H22.8213H22.8177H22.8141H22.8105H22.8069H22.8033H22.7997H22.7961H22.7926H22.789H22.7854H22.7818H22.7783H22.7747H22.7711H22.7676H22.764H22.7605H22.7569H22.7534H22.7498H22.7463H22.7427H22.7392H22.7357H22.7321H22.7286H22.7251H22.7215H22.718H22.7145H22.711H22.7075H22.7039H22.7004H22.6969H22.6934H22.6899H22.6864H22.6829H22.6794H22.6759H22.6724H22.669H22.6655H22.662H22.6585H22.655H22.6516H22.6481H22.6446H22.6412H22.6377H22.6342H22.6308H22.6273H22.6239H22.6204H22.617H22.6135H22.6101H22.6066H22.6032H22.5997H22.5963H22.5929H22.5894H22.586H22.5826H22.5792H22.5757H22.5723H22.5689H22.5655H22.5621H22.5587H22.5553H22.5519H22.5485H22.5451H22.5417H22.5383H22.5349H22.5315H22.5281H22.5247H22.5213H22.5179H22.5146H22.5112H22.5078H22.5044H22.5011H22.4977H22.4943H22.491H22.4876H22.4842H22.4809H22.4775H22.4742H22.4708H22.4675H22.4641H22.4608H22.4574H22.4541H22.4508H22.4474H22.4441H22.4407H22.4374H22.4341H22.4308H22.4274H22.4241H22.4208H22.4175H22.4142H22.4108H22.4075H22.4042H22.4009H22.3976H22.3943H22.391H22.3877H22.3844H22.3811H22.3778H22.3745H22.3712H22.3679H22.3647H22.3614H22.3581H22.3548H22.3515H22.3483H22.345H22.3417H22.3384H22.3352H22.3319H22.3286H22.3254H22.3221H22.3189H22.3156H22.3123H22.3091H22.3058H22.3026H22.2993H22.2961H22.2928H22.2896H22.2864H22.2831H22.2799H22.2766H22.2734H22.2702H22.2669H22.2637H22.2605H22.2573H22.254H22.2508H22.2476H22.2444H22.2412H22.2379H22.2347H22.2315H22.2283H22.2251H22.2219H22.2187H22.2155H22.2123H22.2091H22.2059H22.2027H22.1995H22.1963H22.1931H22.1899H22.1867H22.1835H22.1803H22.1771H22.174H22.1708H22.1676H22.1644H22.1612H22.1581H22.1549H22.1517H22.1485H22.1454H22.1422H22.139H22.1359H22.1327H22.1295H22.1264H22.1232H22.1201H22.1169H22.1137H22.1106H22.1074H22.1043H22.1011H22.098H22.0948H22.0917H22.0886H22.0854H22.0823H22.0791H22.076H22.0728H22.0697H22.0666H22.0634H22.0603H22.0572H22.0541H22.0509H22.0478H22.0447H22.0415H22.0384H22.0353H22.0322H22.0291H22.0259H22.0228H22.0197H22.0166H22.0135H22.0104H22.0072H22.0041H22.001H21.9979H21.9948H21.9917H21.9886H21.9855H21.9824H21.9793H21.9762H21.9731H21.97H21.9669H21.9638H21.9607H21.9576H21.9545H21.9514H21.9483H21.9453H21.9422H21.9391H21.936H21.9329H21.9298H21.9267H21.9237H21.9206H21.9175H21.9144H21.9113H21.9083H21.9052H21.9021H21.899H21.896H21.8929H21.8898H21.8868H21.8837H21.8806H21.8775H21.8745H21.8714H21.8684H21.8653H21.8622H21.8592H21.8561H21.853H21.85H21.8469H21.8439H21.8408H21.8377H21.8347H21.8316H21.8286H21.8255H21.8225H21.8194H21.8164H21.8133H21.8103H21.8072H21.8042H21.8011H21.7981H21.795H21.792H21.789H21.7859H21.7829H21.7798H21.7768H21.7737H21.7707H21.7677H21.7646H21.7616H21.7586H21.7555H21.7525H21.7494H21.7464H21.7434H21.7403H21.7373H21.7343H21.7312H21.7282H21.7252H21.7222H21.7191H21.7161H21.7131H21.71H21.707H21.704H21.701H21.6979H21.6949H21.6919H21.6889H21.6858H21.6828H21.6798H21.6768H21.6737H21.6707H21.6677H21.6647H21.6617H21.6586H21.6556H21.6526H21.6496H21.6466H21.6436H21.6405H21.6375H21.6345H21.6315H21.6285H21.6255H21.6224H21.6194H21.6164H21.6134H21.6104H21.6074H21.6044H21.6013H21.5983H21.5953H21.5923H21.5893H21.5863H21.5833H21.5803H21.5773H21.5742H21.5712H21.5682H21.5652H21.5622H21.5592H21.5562H21.5532H21.5502H21.5472H21.5442H21.5411H21.5381H21.5351H21.5321H21.5291H21.5261H21.5231H21.5201H21.5171H21.5141H21.5111H21.5081H21.5051H21.5021H21.4998M23.0865 63.2355H21.4998M21.4998 63.2355H21.4991V62.2355L21.4998 63.2355ZM35.7217 61.8206L34.7217 61.8115V61.8206H35.7217ZM35.7217 61.8206C35.7217 61.8777 35.7598 61.9349 35.8098 62.0098C35.8374 62.0511 35.8686 62.0979 35.899 62.1531M35.7217 61.8206C35.7432 59.4618 35.7068 57.0967 35.6703 54.7314C35.5887 49.434 35.5071 44.1362 36.0764 38.908L35.899 62.1531M35.899 62.1531L35.0232 62.6357C35.1991 62.9549 35.5346 63.1531 35.899 63.1531V62.1531ZM35.899 62.1531H92.1181M35.899 62.1531L93.1213 60.6552V60.6579V60.6606V60.6634V60.6661V60.6688V60.6715V60.6743V60.677V60.6797V60.6825V60.6852V60.6879V60.6906V60.6934V60.6961V60.6988V60.7015V60.7043V60.707V60.7097V60.7125V60.7152V60.7179V60.7206V60.7234V60.7261V60.7288V60.7316V60.7343V60.737V60.7398V60.7425V60.7452V60.7479V60.7507V60.7534V60.7561V60.7589V60.7616V60.7643V60.7671V60.7698V60.7725V60.7753V60.778V60.7807V60.7835V60.7862V60.7889V60.7917V60.7944V60.7971V60.7999V60.8026V60.8053V60.8081V60.8108V60.8135V60.8163V60.819V60.8217V60.8245V60.8272V60.8299V60.8327V60.8354V60.8382V60.8409V60.8436V60.8464V60.8491V60.8518V60.8546V60.8573V60.8601V60.8628V60.8655V60.8683V60.871V60.8738V60.8765V60.8793V60.882V60.8847V60.8875V60.8902V60.893V60.8957V60.8985V60.9012V60.9039V60.9067V60.9094V60.9122V60.9149V60.9177V60.9204V60.9232V60.9259V60.9287V60.9314V60.9342V60.9369V60.9397V60.9424V60.9452V60.9479V60.9507V60.9534V60.9562V60.959V60.9617V60.9645V60.9672V60.97V60.9727V60.9755V60.9783V60.981V60.9838V60.9865V60.9893V60.9921V60.9948V60.9976V61.0003V61.0031V61.0059V61.0086V61.0114V61.0142V61.0169V61.0197V61.0225V61.0252V61.028V61.0308V61.0335V61.0363V61.0391V61.0418V61.0446V61.0474V61.0502V61.0529V61.0557V61.0585V61.0613V61.064V61.0668V61.0696V61.0724V61.0751V61.0779V61.0807V61.0835V61.0863V61.089V61.0918V61.0946V61.0974V61.1002V61.103V61.1058V61.1085V61.1113V61.1141V61.1169V61.1197V61.1225V61.1253V61.1281V61.1309V61.1337V61.1365V61.1392V61.142V61.1448V61.1476V61.1504V61.1532V61.156V61.1588V61.1616V61.1644V61.1672V61.17V61.1729V61.1757V61.1785V61.1813V61.1841V61.1869V61.1897V61.1925V61.1953V61.1981V61.2009V61.2038V61.2066V61.2094V61.2122V61.215V61.2178V61.2207V61.2235V61.2263V61.2291V61.232V61.2348V61.2376V61.2404V61.2433V61.2461V61.2489V61.2517V61.2546V61.2574V61.2602V61.2631V61.2659V61.2687V61.2716V61.2744V61.2773V61.2801V61.2829V61.2858V61.2886V61.2915V61.2943V61.2971V61.3V61.3028V61.3057V61.3085V61.3114V61.3142V61.3171V61.3199V61.3228V61.3257V61.3285V61.3314V61.3342V61.3371V61.34V61.3428V61.3457V61.3485V61.3514V61.3543V61.3571V61.36V61.3629V61.3658V61.3686V61.3715V61.3744V61.3772V61.3801V61.383V61.3859V61.3888V61.3916V61.3945V61.3974V61.4003V61.4032V61.4061V61.409V61.4118V61.4147V61.4176V61.4205V61.4234V61.4263V61.4292V61.4321V61.435V61.4379V61.4408V61.4437V61.4466V61.4495V61.4524V61.4553V61.4582V61.4612V61.4641V61.467V61.4699V61.4728V61.4757V61.4786V61.4816V61.4845V61.4874V61.4903V61.4933V61.4962V61.4991V61.502V61.505V61.5079V61.5108V61.5138V61.5167V61.5196V61.5226V61.5255V61.5285V61.5314V61.5343V61.5373V61.5402V61.5432V61.5461V61.5491V61.552V61.555V61.5579V61.5609V61.5638V61.5668V61.5698V61.5727V61.5757V61.5787V61.5816V61.5846V61.5876V61.5905V61.5935V61.5965V61.5994V61.6024V61.6054V61.6084V61.6114V61.6143V61.6173V61.6203V61.6233V61.6263V61.6293V61.6323V61.6353V61.6383V61.6413V61.6442V61.6472V61.6502V61.6532V61.6563V61.6593V61.6623V61.6653V61.6683V61.6713V61.6743V61.6773V61.6803V61.6834V61.6864V61.6894V61.6924V61.6954V61.6985V61.7015V61.7045V61.7076V61.7106V61.7136V61.7167V61.7197V61.7227V61.7258V61.7288V61.7319V61.7349V61.7379V61.741V61.744V61.7471V61.7502V61.7532V61.7563V61.7593V61.7624V61.7654V61.7685V61.7716V61.7746V61.7777V61.7808V61.7839V61.7869V61.79V61.7931V61.7962V61.7993V61.8023V61.8054V61.8085V61.8116V61.8147V61.8178V61.8209V61.824V61.8271V61.8302V61.8333V61.8364V61.8395V61.8426V61.8457V61.8488V61.8519V61.855V61.8581V61.8613V61.8644V61.8675V61.8706V61.8737V61.8769V61.88V61.8831V61.8863V61.8894V61.8925V61.8957V61.8988V61.902V61.9051V61.9082V61.9114V61.9145V61.9177V61.9208V61.924V61.9272V61.9303V61.9335V61.9366V61.9398V61.943V61.9461V61.9493V61.9525V61.9557V61.9588V61.962V61.9652V61.9684V61.9716V61.9748V61.9779V61.9811V61.9843V61.9875V61.9907V61.9939V61.9971V62.0003V62.0035V62.0067V62.0099V62.0132V62.0164V62.0196V62.0228V62.026V62.0293V62.0325V62.0357V62.0389V62.0422V62.0454V62.0486V62.0519V62.0551V62.0583V62.0616V62.0648V62.0681V62.0713V62.0746V62.0778V62.0811V62.0843V62.0876V62.0909V62.0941V62.0974V62.1007V62.1039V62.1072V62.1105V62.1138V62.117V62.1203V62.1236V62.1269V62.1302V62.1335V62.1368V62.1401V62.1434V62.1467V62.15C93.1213 62.415 93.0161 62.6691 92.8288 62.8566L92.1213 62.15M92.1181 62.1531V63.1531C92.3836 63.1531 92.6381 63.0476 92.8257 62.8598L92.1181 62.1531ZM92.1181 62.1531L92.1213 62.15M92.1213 62.15V60.6552C92.1213 59.0006 92.123 57.3462 92.1248 55.692C92.1292 51.438 92.1337 47.1848 92.1086 42.93C92.0168 27.4437 80.0332 15.2036 64.5755 14.7856L92.1213 62.15ZM69.196 123.883L70.196 123.884V123.883H69.196ZM69.196 123.883C69.196 123.046 69.1998 122.21 69.2036 121.373C69.2132 119.254 69.2229 117.135 69.1707 115.018L69.196 123.883ZM70.2147 132.882L69.215 132.905L70.2147 132.882L70.2147 132.882Z" fill="#EC3396" stroke="#333333" stroke-width="2" stroke-linejoin="round"/>
</svg>
