<svg width="141" height="135" viewBox="0 0 141 135" fill="none" xmlns="http://www.w3.org/2000/svg">
<mask id="path-1-outside-1_2577_1006" maskUnits="userSpaceOnUse" x="-0.800781" y="0.113281" width="142" height="135" fill="black">
<rect fill="white" x="-0.800781" y="0.113281" width="142" height="135"/>
<path fill-rule="evenodd" clip-rule="evenodd" d="M114.17 100.457C113.641 99.9369 113.116 99.4204 112.594 98.9133C112.652 98.8104 112.7 98.7143 112.743 98.6273C112.864 98.3806 112.95 98.2075 113.129 98.1631C121.77 90.6992 128.667 81.8454 134.662 72.1753C138.219 66.4653 138.43 65.1982 134.542 59.6448C131.981 55.9555 129.334 52.3388 126.472 48.8476C116.671 36.8835 104.698 27.7433 89.7143 23.4054C73.0883 18.5891 56.7716 20.0894 41.2366 27.9437C39.4364 28.8634 38.3728 28.6843 36.9432 27.3192C29.6611 20.2759 22.2942 13.3288 14.9526 6.40552C14.1445 5.64351 13.3367 4.88178 12.5294 4.12024C10.171 1.87347 7.44028 1.53092 5.02568 3.00434C1.36131 5.25073 1.25534 9.60097 4.73367 12.9189C20.4155 27.7807 36.0925 42.654 51.7695 57.5273C67.4462 72.4003 83.1229 87.2733 98.8044 102.135C103.781 106.847 108.753 111.571 113.725 116.294C118.697 121.018 123.669 125.742 128.646 130.454C131.005 132.701 133.696 133.135 136.111 131.662C139.756 129.462 139.947 125.039 136.515 121.74C133.227 118.612 129.946 115.499 126.665 112.387C123.385 109.275 120.104 106.163 116.818 103.035C115.927 102.184 115.044 101.316 114.17 100.457ZM49.3113 38.9926C48.851 38.5565 48.9069 37.8077 49.451 37.482C52.4656 35.6776 56.4873 34.3593 60.025 33.6759C80.8186 29.6764 98.2067 36.2805 112.691 51.1506C115.918 54.4784 118.761 58.193 121.578 61.8747C122.191 62.6746 122.802 63.4729 123.415 64.2654C123.976 64.9913 124.055 66.5983 123.632 67.3415C118.602 75.6296 112.605 83.1281 105.14 89.3535C104.12 90.2239 103.293 90.2537 102.338 89.3065C100.618 87.6497 98.8925 86.0057 97.169 84.3635C94.2586 81.5904 91.3538 78.8227 88.4902 76.0083C87.917 75.4399 87.583 74.0505 87.8222 73.2294C90.0867 65.8322 88.5564 59.324 82.9638 54.0797C77.5622 49.0249 71.062 47.8456 63.9871 50.3297C63.1746 50.5825 61.8171 50.713 61.3164 50.2297C57.8484 47.0904 54.4741 43.8894 51.1099 40.698C50.5102 40.1291 49.9109 39.5605 49.3113 38.9926ZM70.2104 58.8254C75.3254 58.2786 79.3044 62.0799 79.0442 67.1787C78.5953 66.7525 78.1553 66.3348 77.7218 65.9231C75.1659 63.4959 72.8349 61.2823 70.2104 58.8254ZM10.187 80.123C19.3522 92.3063 30.0843 102.712 45.2337 108.964C51.2945 111.694 58.4935 113.658 65.9463 113.612C72.3036 113.592 78.6841 112.875 84.9921 112.074C88.0807 111.7 89.7434 109.311 89.7709 106.556C89.7985 103.8 88.1481 101.419 85.5342 100.8C84.1945 100.504 82.706 100.688 81.3556 100.93C68.1074 103.513 55.4837 101.802 43.6988 95.2919C33.1898 89.4848 25.1684 80.8787 18.1987 71.1988C16.826 69.3152 16.8265 67.9046 18.1704 66.1405C20.2059 63.4865 22.1918 60.8115 24.1776 58.1364C25.5016 56.353 26.8255 54.5696 28.1642 52.7924C30.5581 49.5739 29.5632 45.5171 25.9214 43.8663C23.3839 42.6831 20.8529 43.022 18.9937 45.4903C16.3447 49.007 13.7902 52.6 11.2387 56.1886C9.37293 58.8129 7.5088 61.4348 5.61058 64.0229C2.89077 67.7545 3.50196 71.0519 6.19977 74.4191C6.95074 75.3722 7.63707 76.4053 8.3246 77.4403C8.92952 78.3509 9.53536 79.2629 10.187 80.123Z"/>
</mask>
<path fill-rule="evenodd" clip-rule="evenodd" d="M114.17 100.457C113.641 99.9369 113.116 99.4204 112.594 98.9133C112.652 98.8104 112.7 98.7143 112.743 98.6273C112.864 98.3806 112.95 98.2075 113.129 98.1631C121.77 90.6992 128.667 81.8454 134.662 72.1753C138.219 66.4653 138.43 65.1982 134.542 59.6448C131.981 55.9555 129.334 52.3388 126.472 48.8476C116.671 36.8835 104.698 27.7433 89.7143 23.4054C73.0883 18.5891 56.7716 20.0894 41.2366 27.9437C39.4364 28.8634 38.3728 28.6843 36.9432 27.3192C29.6611 20.2759 22.2942 13.3288 14.9526 6.40552C14.1445 5.64351 13.3367 4.88178 12.5294 4.12024C10.171 1.87347 7.44028 1.53092 5.02568 3.00434C1.36131 5.25073 1.25534 9.60097 4.73367 12.9189C20.4155 27.7807 36.0925 42.654 51.7695 57.5273C67.4462 72.4003 83.1229 87.2733 98.8044 102.135C103.781 106.847 108.753 111.571 113.725 116.294C118.697 121.018 123.669 125.742 128.646 130.454C131.005 132.701 133.696 133.135 136.111 131.662C139.756 129.462 139.947 125.039 136.515 121.74C133.227 118.612 129.946 115.499 126.665 112.387C123.385 109.275 120.104 106.163 116.818 103.035C115.927 102.184 115.044 101.316 114.17 100.457ZM49.3113 38.9926C48.851 38.5565 48.9069 37.8077 49.451 37.482C52.4656 35.6776 56.4873 34.3593 60.025 33.6759C80.8186 29.6764 98.2067 36.2805 112.691 51.1506C115.918 54.4784 118.761 58.193 121.578 61.8747C122.191 62.6746 122.802 63.4729 123.415 64.2654C123.976 64.9913 124.055 66.5983 123.632 67.3415C118.602 75.6296 112.605 83.1281 105.14 89.3535C104.12 90.2239 103.293 90.2537 102.338 89.3065C100.618 87.6497 98.8925 86.0057 97.169 84.3635C94.2586 81.5904 91.3538 78.8227 88.4902 76.0083C87.917 75.4399 87.583 74.0505 87.8222 73.2294C90.0867 65.8322 88.5564 59.324 82.9638 54.0797C77.5622 49.0249 71.062 47.8456 63.9871 50.3297C63.1746 50.5825 61.8171 50.713 61.3164 50.2297C57.8484 47.0904 54.4741 43.8894 51.1099 40.698C50.5102 40.1291 49.9109 39.5605 49.3113 38.9926ZM70.2104 58.8254C75.3254 58.2786 79.3044 62.0799 79.0442 67.1787C78.5953 66.7525 78.1553 66.3348 77.7218 65.9231C75.1659 63.4959 72.8349 61.2823 70.2104 58.8254ZM10.187 80.123C19.3522 92.3063 30.0843 102.712 45.2337 108.964C51.2945 111.694 58.4935 113.658 65.9463 113.612C72.3036 113.592 78.6841 112.875 84.9921 112.074C88.0807 111.7 89.7434 109.311 89.7709 106.556C89.7985 103.8 88.1481 101.419 85.5342 100.8C84.1945 100.504 82.706 100.688 81.3556 100.93C68.1074 103.513 55.4837 101.802 43.6988 95.2919C33.1898 89.4848 25.1684 80.8787 18.1987 71.1988C16.826 69.3152 16.8265 67.9046 18.1704 66.1405C20.2059 63.4865 22.1918 60.8115 24.1776 58.1364C25.5016 56.353 26.8255 54.5696 28.1642 52.7924C30.5581 49.5739 29.5632 45.5171 25.9214 43.8663C23.3839 42.6831 20.8529 43.022 18.9937 45.4903C16.3447 49.007 13.7902 52.6 11.2387 56.1886C9.37293 58.8129 7.5088 61.4348 5.61058 64.0229C2.89077 67.7545 3.50196 71.0519 6.19977 74.4191C6.95074 75.3722 7.63707 76.4053 8.3246 77.4403C8.92952 78.3509 9.53536 79.2629 10.187 80.123Z" fill="#EC3396"/>
<path d="M112.594 98.9133L110.85 97.9347L110.098 99.2753L111.2 100.347L112.594 98.9133ZM114.17 100.457L112.767 101.883L112.767 101.883L114.17 100.457ZM112.743 98.6273L114.536 99.513L114.536 99.513L112.743 98.6273ZM113.129 98.1631L113.61 100.104L114.075 99.9893L114.437 99.6767L113.129 98.1631ZM134.662 72.1753L132.964 71.1177L132.962 71.1216L134.662 72.1753ZM134.542 59.6448L132.899 60.7854L132.904 60.7919L134.542 59.6448ZM126.472 48.8476L124.925 50.115L124.925 50.1157L126.472 48.8476ZM89.7143 23.4054L89.1578 25.3264L89.1581 25.3265L89.7143 23.4054ZM41.2366 27.9437L40.3342 26.1589L40.3268 26.1627L41.2366 27.9437ZM36.9432 27.3192L35.5527 28.7568L35.562 28.7657L36.9432 27.3192ZM14.9526 6.40552L13.5804 7.86059L13.5804 7.86059L14.9526 6.40552ZM12.5294 4.12024L11.1499 5.56833L11.1571 5.57509L12.5294 4.12024ZM5.02568 3.00434L3.9839 1.29709L3.9804 1.29924L5.02568 3.00434ZM4.73367 12.9189L3.35321 14.3661L3.35792 14.3706L4.73367 12.9189ZM51.7695 57.5273L53.146 56.0763L53.146 56.0763L51.7695 57.5273ZM98.8044 102.135L97.4287 103.587L97.4294 103.587L98.8044 102.135ZM113.725 116.294L115.103 114.844L115.103 114.844L113.725 116.294ZM128.646 130.454L130.026 129.006L130.021 129.002L128.646 130.454ZM136.111 131.662L135.077 129.95L135.069 129.955L136.111 131.662ZM136.515 121.74L137.9 120.298L137.893 120.292L136.515 121.74ZM126.665 112.387L128.042 110.936L128.042 110.936L126.665 112.387ZM116.818 103.035L115.436 104.481L115.439 104.484L116.818 103.035ZM49.451 37.482L50.4782 39.1981L50.4782 39.1981L49.451 37.482ZM49.3113 38.9926L47.936 40.4446L47.936 40.4446L49.3113 38.9926ZM60.025 33.6759L59.6472 31.7119L59.6456 31.7122L60.025 33.6759ZM112.691 51.1506L114.127 49.7584L114.124 49.7551L112.691 51.1506ZM121.578 61.8747L123.167 60.6591L123.167 60.6591L121.578 61.8747ZM123.415 64.2654L124.998 63.0427L124.997 63.0411L123.415 64.2654ZM123.632 67.3415L125.342 68.379L125.356 68.3553L125.37 68.3313L123.632 67.3415ZM105.14 89.3535L103.859 87.8175L103.85 87.8248L103.841 87.8323L105.14 89.3535ZM102.338 89.3065L103.746 87.8862L103.736 87.8761L103.726 87.866L102.338 89.3065ZM97.169 84.3635L98.5486 82.9155L98.5486 82.9155L97.169 84.3635ZM88.4902 76.0083L87.0821 77.4286L87.0883 77.4347L88.4902 76.0083ZM87.8222 73.2294L85.9098 72.6439L85.9059 72.6569L85.9021 72.67L87.8222 73.2294ZM82.9638 54.0797L84.3318 52.6208L84.3303 52.6194L82.9638 54.0797ZM63.9871 50.3297L64.5813 52.2394L64.6157 52.2287L64.6497 52.2168L63.9871 50.3297ZM61.3164 50.2297L62.7055 48.7907L62.6824 48.7685L62.6586 48.7469L61.3164 50.2297ZM51.1099 40.698L49.7335 42.1489L49.7335 42.1489L51.1099 40.698ZM79.0442 67.1787L77.6673 68.6292L80.82 71.622L81.0416 67.2806L79.0442 67.1787ZM70.2104 58.8254L69.9978 56.8368L65.6554 57.301L68.8436 60.2855L70.2104 58.8254ZM77.7218 65.9231L79.0991 64.4729L79.0991 64.4728L77.7218 65.9231ZM45.2337 108.964L46.055 107.141L46.0261 107.128L45.9968 107.116L45.2337 108.964ZM10.187 80.123L11.7852 78.9207L11.7811 78.9152L10.187 80.123ZM65.9463 113.612L65.9398 111.612L65.9342 111.612L65.9463 113.612ZM84.9921 112.074L84.7516 110.089L84.7401 110.09L84.9921 112.074ZM89.7709 106.556L91.7708 106.576L91.7708 106.576L89.7709 106.556ZM85.5342 100.8L85.9948 98.8541L85.9803 98.8507L85.9658 98.8475L85.5342 100.8ZM81.3556 100.93L81.0028 98.9612L80.9878 98.9639L80.9729 98.9668L81.3556 100.93ZM43.6988 95.2919L42.7315 97.0424L42.7318 97.0425L43.6988 95.2919ZM18.1987 71.1988L19.8218 70.0301L19.815 70.0208L18.1987 71.1988ZM18.1704 66.1405L16.5834 64.9234L16.5795 64.9285L18.1704 66.1405ZM24.1776 58.1364L25.7835 59.3285L25.7835 59.3285L24.1776 58.1364ZM28.1642 52.7924L29.7617 53.9957L29.7689 53.986L28.1642 52.7924ZM25.9214 43.8663L25.0762 45.6789L25.0859 45.6835L25.0957 45.6879L25.9214 43.8663ZM18.9937 45.4903L17.3961 44.287L17.3961 44.287L18.9937 45.4903ZM11.2387 56.1886L9.6087 55.0297L9.6087 55.0297L11.2387 56.1886ZM5.61058 64.0229L3.99785 62.84L3.99433 62.8449L5.61058 64.0229ZM6.19977 74.4191L7.77069 73.1813L7.76567 73.1749L7.76059 73.1686L6.19977 74.4191ZM8.3246 77.4403L6.65868 78.547L6.65868 78.547L8.3246 77.4403ZM111.2 100.347C111.717 100.85 112.238 101.362 112.767 101.883L115.572 99.0306C115.044 98.5115 114.515 97.9912 113.989 97.4796L111.2 100.347ZM110.949 97.7416C110.905 97.8319 110.879 97.8837 110.85 97.9347L114.339 99.8919C114.425 99.7372 114.494 99.5967 114.536 99.513L110.949 97.7416ZM112.648 96.2218C111.967 96.3905 111.543 96.8107 111.307 97.1288C111.119 97.3836 110.984 97.6717 110.949 97.7417L114.536 99.513C114.57 99.443 114.581 99.4216 114.588 99.4093C114.594 99.3985 114.571 99.4434 114.521 99.5099C114.47 99.5794 114.37 99.7001 114.21 99.8201C114.04 99.9473 113.836 100.048 113.61 100.104L112.648 96.2218ZM132.962 71.1216C127.04 80.6741 120.268 89.3545 111.822 96.6495L114.437 99.6767C123.273 92.0439 130.294 83.0167 136.361 73.2291L132.962 71.1216ZM132.904 60.7919C134.889 63.6278 135.401 64.8371 135.394 65.838C135.387 66.8954 134.815 68.1474 132.964 71.1177L136.359 73.2329C138.066 70.4932 139.378 68.2567 139.394 65.8646C139.41 63.4161 138.083 61.2151 136.18 58.4977L132.904 60.7919ZM124.925 50.1157C127.742 53.5516 130.356 57.1219 132.899 60.7854L136.185 58.5042C133.606 54.7891 130.926 51.1259 128.019 47.5796L124.925 50.1157ZM89.1581 25.3265C103.667 29.5269 115.317 38.3866 124.925 50.115L128.019 47.5802C118.025 35.3805 105.729 25.9598 90.2704 21.4843L89.1581 25.3265ZM42.1391 29.7286C57.2221 22.1027 73.0174 20.6508 89.1578 25.3264L90.2708 21.4844C73.1592 16.5274 56.3211 18.076 40.3342 26.1589L42.1391 29.7286ZM35.562 28.7657C36.3973 29.5633 37.3875 30.2761 38.6542 30.4661C39.9237 30.6565 41.0887 30.2651 42.1465 29.7248L40.3268 26.1627C39.5843 26.542 39.3174 26.5208 39.2476 26.5104C39.175 26.4995 38.9187 26.4402 38.3244 25.8727L35.562 28.7657ZM13.5804 7.86059C20.9236 14.7853 28.2813 21.7238 35.5528 28.7568L38.3337 25.8816C31.0409 18.8281 23.6648 11.8723 16.3247 4.95046L13.5804 7.86059ZM11.1571 5.57509C11.9645 6.33675 12.7724 7.09859 13.5804 7.86059L16.3247 4.95046C15.5166 4.18842 14.709 3.4268 13.9018 2.66539L11.1571 5.57509ZM6.06747 4.71158C6.91466 4.19462 7.73703 4.03614 8.51647 4.14722C9.30942 4.26021 10.213 4.67579 11.1499 5.56831L13.909 2.67217C12.4874 1.31792 10.8465 0.438836 9.08078 0.187222C7.3016 -0.0663173 5.5513 0.340643 3.9839 1.2971L6.06747 4.71158ZM6.11412 11.4717C4.68759 10.111 4.16982 8.71117 4.20039 7.61557C4.22952 6.57139 4.75891 5.51378 6.07097 4.70944L3.9804 1.29924C1.62808 2.74129 0.272304 4.98201 0.201941 7.50402C0.133013 9.97462 1.30142 12.4089 3.35322 14.3661L6.11412 11.4717ZM53.146 56.0763C37.4691 41.2031 21.7917 26.3295 6.10942 11.4672L3.35792 14.3706C19.0393 29.2319 34.7159 44.1048 50.3929 58.9782L53.146 56.0763ZM100.18 100.683C84.4991 85.8221 68.8228 70.9494 53.146 56.0763L50.3929 58.9782C66.0696 73.8511 81.7467 88.7245 97.4287 103.587L100.18 100.683ZM115.103 114.844C110.131 110.121 105.158 105.396 100.18 100.683L97.4294 103.587C102.405 108.298 107.376 113.02 112.348 117.744L115.103 114.844ZM130.021 129.002C125.046 124.291 120.075 119.568 115.103 114.844L112.348 117.744C117.32 122.468 122.293 127.193 127.271 131.906L130.021 129.002ZM135.069 129.955C134.239 130.461 133.442 130.603 132.677 130.479C131.889 130.351 130.98 129.915 130.026 129.006L127.267 131.902C128.671 133.24 130.287 134.144 132.038 134.427C133.812 134.714 135.568 134.336 137.153 133.369L135.069 129.955ZM135.129 123.182C136.516 124.515 137.015 125.917 136.968 127.03C136.924 128.103 136.369 129.17 135.077 129.95L137.145 133.374C139.498 131.954 140.861 129.709 140.965 127.196C141.068 124.723 139.946 122.264 137.9 120.298L135.129 123.182ZM125.289 113.838C128.57 116.95 131.85 120.062 135.136 123.189L137.893 120.292C134.604 117.162 131.322 114.048 128.042 110.936L125.289 113.838ZM115.439 104.484C118.727 107.613 122.009 110.726 125.289 113.838L128.042 110.936C124.761 107.824 121.482 104.713 118.196 101.586L115.439 104.484ZM112.767 101.883C113.64 102.74 114.533 103.619 115.436 104.481L118.199 101.589C117.32 100.75 116.448 99.8916 115.572 99.0306L112.767 101.883ZM48.4239 35.7659C46.6567 36.8237 46.5886 39.1684 47.936 40.4446L50.6867 37.5406C51.1133 37.9446 51.1572 38.7916 50.4782 39.1981L48.4239 35.7659ZM59.6456 31.7122C55.9579 32.4246 51.6971 33.8067 48.4238 35.7659L50.4782 39.1981C53.2341 37.5485 57.0167 36.294 60.4044 35.6396L59.6456 31.7122ZM114.124 49.7551C99.228 34.4627 81.1792 27.5703 59.6472 31.7119L60.4028 35.6399C80.4579 31.7824 97.1854 38.0984 111.258 52.5461L114.124 49.7551ZM123.167 60.6591C120.361 56.9935 117.449 53.1842 114.127 49.7584L111.255 52.5428C114.387 55.7726 117.16 59.3925 119.99 63.0902L123.167 60.6591ZM124.997 63.0411C124.387 62.2537 123.779 61.4598 123.167 60.6591L119.99 63.0902C120.602 63.8894 121.216 64.6921 121.834 65.4897L124.997 63.0411ZM125.37 68.3313C125.855 67.4788 125.937 66.4417 125.889 65.6709C125.84 64.8961 125.625 63.8545 124.998 63.0427L121.833 65.4882C121.78 65.4198 121.797 65.4141 121.83 65.5248C121.86 65.6243 121.886 65.7631 121.896 65.923C121.907 66.0828 121.898 66.225 121.881 66.3283C121.862 66.4464 121.845 66.4377 121.894 66.3517L125.37 68.3313ZM106.421 90.8896C114.091 84.4935 120.224 76.8123 125.342 68.379L121.922 66.304C116.981 74.447 111.12 81.7627 103.859 87.8175L106.421 90.8896ZM100.93 90.7268C101.598 91.3892 102.518 92.006 103.705 92.0116C104.856 92.0171 105.774 91.442 106.438 90.8747L103.841 87.8323C103.762 87.9003 103.697 87.9484 103.648 87.9818C103.599 88.0151 103.569 88.0302 103.558 88.0352C103.548 88.04 103.559 88.0335 103.59 88.0261C103.623 88.0184 103.669 88.0114 103.724 88.0116C103.78 88.0119 103.832 88.0195 103.876 88.0308C103.919 88.0418 103.943 88.0537 103.948 88.0562C103.952 88.0583 103.936 88.0507 103.901 88.0236C103.865 87.9963 103.813 87.9528 103.746 87.8862L100.93 90.7268ZM95.7894 85.8115C97.5135 87.4542 99.2351 89.0946 100.951 90.747L103.726 87.866C102.001 86.2049 100.271 84.5571 98.5486 82.9155L95.7894 85.8115ZM87.0883 77.4347C89.9648 80.2618 92.8808 83.0401 95.7894 85.8115L98.5486 82.9155C95.6363 80.1406 92.7428 77.3836 89.8922 74.5819L87.0883 77.4347ZM85.9021 72.67C85.6502 73.5344 85.7355 74.4676 85.907 75.1811C86.0752 75.881 86.4243 76.7764 87.0821 77.4285L89.8984 74.588C89.9621 74.6512 89.9529 74.6656 89.9098 74.5769C89.8718 74.4984 89.8293 74.3839 89.7962 74.2462C89.7632 74.109 89.7471 73.98 89.7444 73.878C89.7415 73.7674 89.7557 73.7432 89.7424 73.7888L85.9021 72.67ZM81.5957 55.5386C84.1487 57.9326 85.7048 60.5437 86.3987 63.3305C87.0942 66.1238 86.9561 69.2262 85.9098 72.6439L89.7346 73.8148C90.9528 69.8354 91.1818 65.9851 90.2802 62.364C89.3768 58.7362 87.3714 55.4711 84.3318 52.6208L81.5957 55.5386ZM64.6497 52.2168C71.0698 49.9626 76.7761 51.0283 81.5972 55.54L84.3303 52.6194C78.3484 47.0214 71.0543 45.7286 63.3245 48.4427L64.6497 52.2168ZM59.9274 51.6686C60.3986 52.1236 60.9501 52.3277 61.3526 52.4268C61.7721 52.5301 62.1897 52.5584 62.55 52.5557C63.2641 52.5503 64.0016 52.4198 64.5813 52.2394L63.3929 48.42C63.2883 48.4526 63.1439 48.4876 62.9789 48.5142C62.8141 48.5408 62.655 48.5548 62.5197 48.5558C62.4533 48.5563 62.4004 48.5536 62.361 48.5498C62.3207 48.5459 62.3045 48.5417 62.3088 48.5427C62.3117 48.5435 62.3525 48.5535 62.4174 48.5851C62.4828 48.6169 62.59 48.6792 62.7055 48.7907L59.9274 51.6686ZM49.7335 42.1489C53.0948 45.3377 56.486 48.5549 59.9742 51.7124L62.6586 48.7469C59.2107 45.6259 55.8533 42.441 52.4864 39.247L49.7335 42.1489ZM47.936 40.4446C48.5348 41.0119 49.1337 41.58 49.7335 42.1489L52.4864 39.247C51.8868 38.6782 51.2869 38.1091 50.6867 37.5406L47.936 40.4446ZM81.0416 67.2806C81.3642 60.9595 76.3412 56.1586 69.9978 56.8368L70.423 60.8141C74.3096 60.3986 77.2446 63.2003 77.0468 67.0768L81.0416 67.2806ZM76.3446 67.3734C76.7781 67.785 77.2182 68.2029 77.6673 68.6292L80.4211 65.7282C79.9724 65.3022 79.5326 64.8845 79.0991 64.4729L76.3446 67.3734ZM68.8436 60.2855C71.4621 62.7368 73.7881 64.9456 76.3446 67.3734L79.0991 64.4728C76.5436 62.0461 74.2077 59.8278 71.5772 57.3653L68.8436 60.2855ZM45.9968 107.116C31.2949 101.048 20.8258 90.9383 11.7852 78.9207L8.58871 81.3253C17.8786 93.6743 28.8738 104.376 44.4707 110.813L45.9968 107.116ZM65.9342 111.612C58.8306 111.655 51.9169 109.781 46.055 107.141L44.4125 110.788C50.672 113.607 58.1564 115.66 65.9584 115.612L65.9342 111.612ZM84.7401 110.09C78.4389 110.89 72.164 111.592 65.9398 111.612L65.9529 115.612C72.4433 115.591 78.9294 114.86 85.2442 114.058L84.7401 110.09ZM87.771 106.536C87.7518 108.457 86.6841 109.855 84.7516 110.089L85.2326 114.06C89.4772 113.545 91.735 110.166 91.7708 106.576L87.771 106.536ZM85.0736 102.747C86.6553 103.121 87.7905 104.582 87.771 106.536L91.7708 106.576C91.8064 103.018 89.6408 99.717 85.9948 98.8541L85.0736 102.747ZM81.7083 102.899C83.0381 102.66 84.1829 102.55 85.1027 102.753L85.9658 98.8475C84.2062 98.4587 82.374 98.7155 81.0028 98.9612L81.7083 102.899ZM42.7318 97.0425C54.9544 103.795 68.0601 105.56 81.7383 102.893L80.9729 98.9668C68.1546 101.466 56.0129 99.8095 44.6659 93.5412L42.7318 97.0425ZM16.5756 72.3674C23.635 82.1718 31.8626 91.0364 42.7315 97.0424L44.6661 93.5414C34.517 87.9332 26.7019 79.5857 19.8217 70.0301L16.5756 72.3674ZM16.5795 64.9285C15.7616 66.0021 15.1597 67.2188 15.1658 68.6334C15.1718 70.0323 15.7719 71.2646 16.5824 72.3767L19.815 70.0208C19.2528 69.2493 19.1667 68.8345 19.1658 68.6162C19.1649 68.4136 19.2353 68.0431 19.7613 67.3526L16.5795 64.9285ZM22.5718 56.9443C20.5844 59.6214 18.6078 62.2839 16.5834 64.9234L19.7574 67.3577C21.804 64.6892 23.7992 62.0015 25.7835 59.3285L22.5718 56.9443ZM26.5666 51.5891C25.2231 53.3728 23.895 55.1618 22.5718 56.9443L25.7835 59.3285C27.1081 57.5442 28.4279 55.7664 29.7617 53.9957L26.5666 51.5891ZM25.0957 45.6879C26.3978 46.2781 27.1184 47.2342 27.3656 48.2254C27.614 49.2212 27.428 50.431 26.5594 51.5988L29.7689 53.986C31.2943 51.9353 31.8078 49.5074 31.2467 47.2575C30.6845 45.0029 29.0868 43.1053 26.7471 42.0447L25.0957 45.6879ZM20.5912 46.6936C21.2728 45.7887 21.9701 45.4 22.6096 45.2673C23.2736 45.1295 24.0984 45.223 25.0762 45.6789L26.7666 42.0536C25.2069 41.3264 23.4974 40.9978 21.7968 41.3507C20.0716 41.7088 18.5737 42.7236 17.3961 44.287L20.5912 46.6936ZM12.8687 57.3475C15.4228 53.7551 17.9615 50.1847 20.5912 46.6936L17.3961 44.287C14.7279 47.8294 12.1575 51.4448 9.6087 55.0297L12.8687 57.3475ZM7.22331 65.2057C9.13172 62.6037 11.0044 59.9697 12.8687 57.3475L9.6087 55.0297C7.74148 57.656 5.88589 60.2658 3.99785 62.84L7.22331 65.2057ZM7.76059 73.1686C6.55027 71.658 5.96896 70.3584 5.86593 69.183C5.76702 68.0547 6.085 66.7675 7.22684 65.2009L3.99433 62.8449C2.41636 65.0099 1.68002 67.2372 1.88121 69.5323C2.07827 71.7803 3.15146 73.8131 4.63895 75.6697L7.76059 73.1686ZM9.99052 76.3337C9.31125 75.3111 8.58046 74.209 7.77069 73.1813L4.62885 75.6569C5.32102 76.5354 5.96289 77.4996 6.65868 78.547L9.99052 76.3337ZM11.7811 78.9152C11.1733 78.113 10.6015 77.2534 9.99052 76.3337L6.65868 78.547C7.2575 79.4484 7.89739 80.4129 8.59283 81.3308L11.7811 78.9152Z" fill="#333333" mask="url(#path-1-outside-1_2577_1006)"/>
</svg>
