<svg width="204" height="204" viewBox="0 0 204 204" fill="none" xmlns="http://www.w3.org/2000/svg">
<path d="M128.591 60.3463C125.066 56.9589 122.024 54.1937 119.051 51.2211C114.005 46.1746 113.728 38.9851 118.291 34.2843C122.992 29.5143 129.974 29.7908 135.159 34.9064C137.647 37.326 139.998 39.8838 142.555 42.1651C143.247 42.7873 145.113 43.1329 145.597 42.649C150.298 38.0864 154.861 33.3856 159.423 28.6847C159.561 28.5465 159.953 27.9072 159.953 27.285C156.22 27.4924 151.957 28.27 148.224 28.27C142.694 28.3391 137.855 23.9148 137.302 18.73C136.61 12.5083 140.067 7.18531 145.805 5.94097C148.501 5.38793 151.266 5.11141 153.962 4.83489C166.267 3.52142 178.641 2.34622 190.946 0.963618C198.896 0.0649286 204.911 6.77053 203.597 15.6883C201.938 27.0256 200.901 38.5012 199.588 49.9076C199.311 52.3963 199.173 54.9541 198.758 57.4428C197.79 63.3188 192.329 67.8123 186.868 67.3284C180.37 66.8445 175.807 61.9362 175.945 55.3689C176.014 51.9815 176.429 48.6633 176.706 45.3451C171.452 50.4607 166.405 55.3689 161.013 60.6919C163.986 63.6645 167.235 66.8445 170.415 70.1627C176.567 76.5918 173.94 86.6848 165.507 89.2426C161.359 90.4869 157.488 89.5191 154.377 86.4774C151.611 83.8504 148.915 81.1544 146.288 78.3892C144.837 76.8683 143.731 76.8683 142.279 78.3892C139.168 81.6383 136.057 84.8874 132.739 87.9291C130.872 89.6574 130.734 90.9708 132.117 93.183C140.067 105.35 144.145 118.692 143.662 133.278C142.763 161.069 130.112 182.084 105.847 195.219C63.125 218.308 10.3789 192.315 1.87588 144.477C-5.03712 105.488 21.647 68.0197 61.0511 61.798C79.0249 58.9637 95.8235 62.351 111.17 72.3057C113.521 73.8266 114.834 73.6192 116.701 71.6836C120.365 68.0888 124.167 64.5632 128.591 60.3463ZM120.779 132.587C121.54 108.876 102.667 84.0579 72.5959 83.9196C43.5613 83.7813 23.9283 107.216 24.0666 132.241C24.1357 159.133 45.7043 180.84 72.4576 180.84C99.1418 180.84 120.779 159.271 120.779 132.587Z" fill="#047FCF"/>
<path fill-rule="evenodd" clip-rule="evenodd" d="M131.484 60.352L129.971 61.794C128.449 63.2448 127.007 64.6077 125.622 65.9165C122.964 68.4287 120.517 70.7413 118.121 73.0924C117.104 74.1428 115.907 75.0886 114.358 75.2763C112.793 75.4659 111.379 74.8226 110.084 73.9849L110.082 73.9837C95.1605 64.3048 78.8626 61.014 61.3627 63.7736C23.06 69.8214 -2.87168 106.245 3.84516 144.128C12.1145 190.648 63.3952 215.888 104.895 193.46C128.516 180.674 140.786 160.315 141.663 133.214L141.663 133.212C142.132 119.069 138.186 106.127 130.442 94.277L130.431 94.2601L130.421 94.243C129.655 93.0174 129.048 91.6507 129.223 90.1445C129.4 88.6158 130.32 87.4431 131.38 86.4616L131.387 86.4548C134.649 83.4652 137.715 80.2644 140.832 77.0082C141.668 76.1326 142.804 75.2485 144.284 75.2485C145.763 75.2485 146.899 76.1326 147.735 77.0082L147.738 77.0117C150.342 79.7521 153.014 82.424 155.754 85.0274L155.765 85.0373L155.775 85.0474C158.37 87.5849 161.486 88.3593 164.928 87.3281C171.915 85.2077 174.104 76.9112 168.971 71.5466C166.592 69.0641 164.18 66.6654 161.856 64.3545C161.093 63.5955 160.339 62.846 159.599 62.1061L158.176 60.6828L159.608 59.2686C164.654 54.2877 169.397 49.6697 174.284 44.9113L179.143 40.1804L178.699 45.5111C178.617 46.4978 178.525 47.4628 178.434 48.4156C178.21 50.7731 177.993 53.0563 177.945 55.4097L177.945 55.411C177.829 60.8971 181.56 64.9276 187.016 65.3339L187.03 65.335L187.044 65.3362C191.348 65.7175 195.967 62.0795 196.785 57.1178L196.785 57.114C197.048 55.535 197.189 53.9901 197.337 52.3733C197.416 51.504 197.497 50.614 197.6 49.6868L197.601 49.6788C198.002 46.195 198.379 42.6898 198.756 39.1754C199.608 31.251 200.465 23.2795 201.618 15.3987L201.619 15.3969C202.2 11.4505 201.145 8.14893 199.237 5.95835C197.341 3.78046 194.5 2.57469 191.171 2.95096L191.17 2.95111C183.831 3.77574 176.447 4.5287 169.08 5.27995C164.097 5.78806 159.123 6.2954 154.174 6.82359L154.166 6.82447L154.011 6.84038C151.351 7.11311 148.745 7.38024 146.218 7.8978C141.624 8.89953 138.696 13.1654 139.289 18.5091L139.29 18.5179C139.733 22.6728 143.697 26.3264 148.199 26.2701L148.212 26.27H148.224C149.97 26.27 151.871 26.0875 153.869 25.8673C154.196 25.8312 154.527 25.7941 154.859 25.7567C156.518 25.5701 158.228 25.3777 159.842 25.2881L161.953 25.1708V27.285C161.953 27.9833 161.743 28.5904 161.563 28.9895C161.404 29.3412 161.157 29.773 160.852 30.084L160.85 30.0864C156.296 34.7783 151.718 39.4953 146.997 44.0771C146.386 44.6791 145.617 44.8139 145.218 44.8547C144.738 44.9037 144.25 44.8664 143.821 44.7939C143.043 44.6624 141.973 44.3294 141.221 43.6547C139.555 42.1691 137.923 40.5165 136.34 38.9137C135.465 38.0285 134.606 37.1586 133.764 36.3404L133.759 36.3353L133.754 36.3301C131.468 34.0752 128.885 32.9779 126.468 32.8868C124.07 32.7965 121.69 33.6873 119.72 35.6829C116.015 39.5061 116.098 45.4398 120.465 49.8069C122.297 51.6387 124.132 53.3688 126.114 55.2374C127.335 56.3884 128.611 57.5919 129.977 58.9041L131.484 60.352ZM142.555 42.1651C140.928 40.7138 139.385 39.1506 137.837 37.5823C136.951 36.6854 136.064 35.7868 135.159 34.9064C129.974 29.7908 122.992 29.5143 118.291 34.2843C113.728 38.9851 114.005 46.1746 119.051 51.2211C120.899 53.0692 122.774 54.8372 124.776 56.7244C125.544 57.4493 126.332 58.1919 127.143 58.9633C127.617 59.4137 128.1 59.8739 128.591 60.3463C128.1 60.8143 127.617 61.2738 127.14 61.7259C126.155 62.6613 125.199 63.5646 124.267 64.4452C121.592 66.9733 119.117 69.3134 116.701 71.6836C114.834 73.6192 113.521 73.8266 111.17 72.3057C95.8235 62.351 79.0249 58.9637 61.0511 61.798C21.647 68.0197 -5.03712 105.488 1.87588 144.477C10.3789 192.315 63.125 218.308 105.847 195.219C130.112 182.084 142.763 161.069 143.662 133.278C144.145 118.692 140.067 105.35 132.117 93.183C130.734 90.9708 130.872 89.6574 132.739 87.9291C136.057 84.8875 139.168 81.6384 142.279 78.3894C143.73 76.8685 144.837 76.8683 146.288 78.3892C148.915 81.1544 151.611 83.8505 154.377 86.4774C157.488 89.5191 161.359 90.4869 165.507 89.2426C173.94 86.6848 176.567 76.5918 170.415 70.1627C168.017 67.6612 165.581 65.2381 163.253 62.9233C162.977 62.6487 162.702 62.3757 162.429 62.1042C161.951 61.6285 161.479 61.1577 161.013 60.6919C161.49 60.2207 161.965 59.7528 162.437 59.2877C166.551 55.2361 170.489 51.3984 174.503 47.4894C174.893 47.1094 175.284 46.7288 175.676 46.3473L176.706 45.3451C176.628 46.2804 176.539 47.2157 176.45 48.1526C176.442 48.2382 176.433 48.3238 176.425 48.4094C176.207 50.7114 175.993 53.0236 175.945 55.3689C175.807 61.9362 180.37 66.8445 186.868 67.3284C192.329 67.8123 197.79 63.3188 198.758 57.4428C199.033 55.7959 199.186 54.1188 199.338 52.4515C199.416 51.5992 199.494 50.7495 199.588 49.9076C199.993 46.3907 200.371 42.8672 200.75 39.3432C201.6 31.4378 202.45 23.53 203.597 15.6883C204.911 6.77053 198.896 0.0649286 190.946 0.963618C183.612 1.78775 176.252 2.5382 168.898 3.28816C163.914 3.79637 158.932 4.30435 153.962 4.83489L153.765 4.85511C151.131 5.12505 148.435 5.40141 145.805 5.94097C140.067 7.18531 136.61 12.5083 137.302 18.73C137.855 23.9148 142.694 28.3391 148.224 28.27C150.406 28.27 152.768 28.0044 155.1 27.7423C156.021 27.6388 156.936 27.5359 157.834 27.45C157.931 27.4408 158.027 27.4318 158.123 27.423C158.135 27.4219 158.146 27.4208 158.158 27.4197C158.767 27.3642 159.366 27.3176 159.953 27.285C159.953 27.9072 159.561 28.5465 159.423 28.6847C159.2 28.9148 158.976 29.1449 158.753 29.375C154.414 33.8454 150.068 38.3097 145.597 42.649C145.113 43.1329 143.247 42.7873 142.555 42.1651ZM122.779 132.619C122.762 160.397 100.232 182.84 72.4576 182.84C44.5885 182.84 22.1399 160.228 22.0666 132.249C21.9245 106.21 42.3647 81.7756 72.6054 81.9196C103.893 82.0637 123.555 107.898 122.779 132.619ZM72.5959 83.9196C102.667 84.0579 121.54 108.876 120.779 132.587C120.779 159.271 99.1418 180.84 72.4576 180.84C45.7043 180.84 24.1357 159.133 24.0666 132.241C23.9283 107.216 43.5613 83.7813 72.5959 83.9196Z" fill="#333333"/>
</svg>
