<svg width="141" height="135" viewBox="0 0 141 135" fill="none" xmlns="http://www.w3.org/2000/svg">
<mask id="path-1-outside-1_2577_1006" maskUnits="userSpaceOnUse" x="0.199219" y="0.113281" width="141" height="134" fill="black">
<rect fill="white" x="0.199219" y="0.113281" width="141" height="134"/>
<path fill-rule="evenodd" clip-rule="evenodd" d="M114.17 100.457C113.641 99.9369 113.116 99.4205 112.594 98.9133C112.652 98.8104 112.7 98.7143 112.743 98.6273C112.864 98.3806 112.95 98.2075 113.129 98.1631C121.77 90.6992 128.667 81.8454 134.662 72.1753C138.219 66.4653 138.43 65.1982 134.542 59.6448C131.981 55.9555 129.334 52.3388 126.472 48.8476C116.671 36.8835 104.698 27.7433 89.7143 23.4054C73.0883 18.5891 56.7716 20.0894 41.2366 27.9437C39.4364 28.8634 38.3728 28.6843 36.9432 27.3192C29.661 20.2759 22.2941 13.3287 14.9524 6.40537C14.1444 5.6434 13.3367 4.88173 12.5294 4.12024C10.171 1.87347 7.44028 1.53092 5.02568 3.00434C1.36131 5.25073 1.25534 9.60097 4.73367 12.9189C20.4155 27.7807 36.0925 42.654 51.7695 57.5273C67.4462 72.4003 83.1229 87.2733 98.8044 102.135C103.781 106.847 108.753 111.57 113.724 116.294C118.697 121.018 123.669 125.742 128.646 130.454C131.005 132.701 133.696 133.135 136.111 131.662C139.756 129.462 139.947 125.039 136.515 121.74C133.227 118.612 129.947 115.5 126.666 112.388C123.385 109.276 120.105 106.164 116.818 103.035C115.927 102.184 115.044 101.316 114.17 100.457ZM49.3113 38.9926C48.851 38.5565 48.9069 37.8077 49.451 37.482C52.4656 35.6776 56.4873 34.3593 60.025 33.6759C80.8186 29.6764 98.2067 36.2805 112.691 51.1506C115.918 54.4783 118.761 58.193 121.578 61.8746C122.191 62.6745 122.802 63.4729 123.415 64.2654C123.976 64.9913 124.055 66.5983 123.632 67.3415C118.602 75.6296 112.605 83.1281 105.14 89.3535C104.12 90.2239 103.293 90.2537 102.338 89.3065C100.618 87.6497 98.8924 86.0056 97.1688 84.3634C94.2585 81.5903 91.3538 78.8227 88.4902 76.0083C87.917 75.4399 87.583 74.0505 87.8222 73.2294C90.0867 65.8322 88.5564 59.324 82.9638 54.0797C77.5622 49.0249 71.062 47.8456 63.9871 50.3297C63.1746 50.5825 61.8171 50.713 61.3164 50.2297C57.8483 47.0903 54.474 43.8893 51.1098 40.6978C50.5101 40.129 49.9108 39.5604 49.3113 38.9926ZM70.2104 58.8254C75.3254 58.2786 79.3044 62.0799 79.0442 67.1787C78.5953 66.7525 78.1553 66.3348 77.7218 65.9231C75.1659 63.4959 72.8349 61.2823 70.2104 58.8254ZM10.187 80.123C19.3522 92.3063 30.0843 102.712 45.2337 108.964C51.2945 111.694 58.4935 113.658 65.9463 113.612C72.3036 113.592 78.6841 112.875 84.9921 112.074C88.0807 111.7 89.7434 109.311 89.7709 106.556C89.7985 103.8 88.1481 101.419 85.5342 100.8C84.1945 100.504 82.706 100.688 81.3556 100.93C68.1074 103.513 55.4837 101.802 43.6988 95.2919C33.1898 89.4848 25.1684 80.8787 18.1987 71.1988C16.826 69.3152 16.8265 67.9046 18.1704 66.1405C20.206 63.4865 22.1918 60.8114 24.1777 58.1363C25.5016 56.3529 26.8255 54.5696 28.1642 52.7924C30.5581 49.5739 29.5632 45.5171 25.9214 43.8663C23.3839 42.6831 20.8529 43.022 18.9937 45.4903C16.3447 49.007 13.7902 52.6 11.2387 56.1886C9.37293 58.8129 7.5088 61.4348 5.61058 64.0229C2.89077 67.7545 3.50196 71.0519 6.19977 74.4191C6.95074 75.3722 7.63707 76.4053 8.3246 77.4403C8.92952 78.3509 9.53536 79.2629 10.187 80.123Z"/>
</mask>
<path fill-rule="evenodd" clip-rule="evenodd" d="M114.17 100.457C113.641 99.9369 113.116 99.4205 112.594 98.9133C112.652 98.8104 112.7 98.7143 112.743 98.6273C112.864 98.3806 112.95 98.2075 113.129 98.1631C121.77 90.6992 128.667 81.8454 134.662 72.1753C138.219 66.4653 138.43 65.1982 134.542 59.6448C131.981 55.9555 129.334 52.3388 126.472 48.8476C116.671 36.8835 104.698 27.7433 89.7143 23.4054C73.0883 18.5891 56.7716 20.0894 41.2366 27.9437C39.4364 28.8634 38.3728 28.6843 36.9432 27.3192C29.661 20.2759 22.2941 13.3287 14.9524 6.40537C14.1444 5.6434 13.3367 4.88173 12.5294 4.12024C10.171 1.87347 7.44028 1.53092 5.02568 3.00434C1.36131 5.25073 1.25534 9.60097 4.73367 12.9189C20.4155 27.7807 36.0925 42.654 51.7695 57.5273C67.4462 72.4003 83.1229 87.2733 98.8044 102.135C103.781 106.847 108.753 111.57 113.724 116.294C118.697 121.018 123.669 125.742 128.646 130.454C131.005 132.701 133.696 133.135 136.111 131.662C139.756 129.462 139.947 125.039 136.515 121.74C133.227 118.612 129.947 115.5 126.666 112.388C123.385 109.276 120.105 106.164 116.818 103.035C115.927 102.184 115.044 101.316 114.17 100.457ZM49.3113 38.9926C48.851 38.5565 48.9069 37.8077 49.451 37.482C52.4656 35.6776 56.4873 34.3593 60.025 33.6759C80.8186 29.6764 98.2067 36.2805 112.691 51.1506C115.918 54.4783 118.761 58.193 121.578 61.8746C122.191 62.6745 122.802 63.4729 123.415 64.2654C123.976 64.9913 124.055 66.5983 123.632 67.3415C118.602 75.6296 112.605 83.1281 105.14 89.3535C104.12 90.2239 103.293 90.2537 102.338 89.3065C100.618 87.6497 98.8924 86.0056 97.1688 84.3634C94.2585 81.5903 91.3538 78.8227 88.4902 76.0083C87.917 75.4399 87.583 74.0505 87.8222 73.2294C90.0867 65.8322 88.5564 59.324 82.9638 54.0797C77.5622 49.0249 71.062 47.8456 63.9871 50.3297C63.1746 50.5825 61.8171 50.713 61.3164 50.2297C57.8483 47.0903 54.474 43.8893 51.1098 40.6978C50.5101 40.129 49.9108 39.5604 49.3113 38.9926ZM70.2104 58.8254C75.3254 58.2786 79.3044 62.0799 79.0442 67.1787C78.5953 66.7525 78.1553 66.3348 77.7218 65.9231C75.1659 63.4959 72.8349 61.2823 70.2104 58.8254ZM10.187 80.123C19.3522 92.3063 30.0843 102.712 45.2337 108.964C51.2945 111.694 58.4935 113.658 65.9463 113.612C72.3036 113.592 78.6841 112.875 84.9921 112.074C88.0807 111.7 89.7434 109.311 89.7709 106.556C89.7985 103.8 88.1481 101.419 85.5342 100.8C84.1945 100.504 82.706 100.688 81.3556 100.93C68.1074 103.513 55.4837 101.802 43.6988 95.2919C33.1898 89.4848 25.1684 80.8787 18.1987 71.1988C16.826 69.3152 16.8265 67.9046 18.1704 66.1405C20.206 63.4865 22.1918 60.8114 24.1777 58.1363C25.5016 56.3529 26.8255 54.5696 28.1642 52.7924C30.5581 49.5739 29.5632 45.5171 25.9214 43.8663C23.3839 42.6831 20.8529 43.022 18.9937 45.4903C16.3447 49.007 13.7902 52.6 11.2387 56.1886C9.37293 58.8129 7.5088 61.4348 5.61058 64.0229C2.89077 67.7545 3.50196 71.0519 6.19977 74.4191C6.95074 75.3722 7.63707 76.4053 8.3246 77.4403C8.92952 78.3509 9.53536 79.2629 10.187 80.123Z" fill="#EC3396"/>
<path d="M112.594 98.9133L111.286 98.1794L110.722 99.1849L111.549 99.9886L112.594 98.9133ZM114.17 100.457L113.118 101.526L113.118 101.526L114.17 100.457ZM112.743 98.6273L111.398 97.963L111.398 97.963L112.743 98.6273ZM113.129 98.1631L113.49 99.6191L113.838 99.5328L114.11 99.2983L113.129 98.1631ZM134.662 72.1753L133.388 71.3821L133.387 71.385L134.662 72.1753ZM134.542 59.6448L133.31 60.5003L133.313 60.5051L134.542 59.6448ZM126.472 48.8476L125.312 49.7982L125.312 49.7987L126.472 48.8476ZM89.7143 23.4054L89.2969 24.8462L89.2971 24.8463L89.7143 23.4054ZM41.2366 27.9437L40.5598 26.6051L40.5543 26.6079L41.2366 27.9437ZM36.9432 27.3192L35.9004 28.3974L35.9073 28.404L36.9432 27.3192ZM14.9524 6.40537L13.9233 7.49666L13.9233 7.49666L14.9524 6.40537ZM12.5294 4.12024L11.4948 5.2063L11.5002 5.21138L12.5294 4.12024ZM5.02568 3.00434L4.24434 1.7239L4.24172 1.72551L5.02568 3.00434ZM4.73367 12.9189L3.69833 14.0043L3.70186 14.0076L4.73367 12.9189ZM51.7695 57.5273L50.7371 58.6155L50.7371 58.6155L51.7695 57.5273ZM98.8044 102.135L97.7726 103.224L97.7731 103.224L98.8044 102.135ZM113.724 116.294L112.691 117.381L112.691 117.381L113.724 116.294ZM128.646 130.454L129.681 129.368L129.678 129.365L128.646 130.454ZM136.111 131.662L135.336 130.378L135.33 130.382L136.111 131.662ZM136.515 121.74L137.554 120.659L137.549 120.654L136.515 121.74ZM126.666 112.388L125.634 113.476L125.634 113.476L126.666 112.388ZM116.818 103.035L115.782 104.12L115.783 104.122L116.818 103.035ZM49.451 37.482L50.2214 38.7691L50.2214 38.769L49.451 37.482ZM49.3113 38.9926L50.3429 37.9036L50.3429 37.9036L49.3113 38.9926ZM60.025 33.6759L59.7417 32.2029L59.7405 32.2031L60.025 33.6759ZM112.691 51.1506L113.768 50.1064L113.766 50.104L112.691 51.1506ZM121.578 61.8746L122.77 60.9629L122.77 60.9629L121.578 61.8746ZM123.415 64.2654L124.602 63.3483L124.601 63.3472L123.415 64.2654ZM123.632 67.3415L124.914 68.1196L124.925 68.1019L124.935 68.0838L123.632 67.3415ZM105.14 89.3535L104.179 88.2015L104.172 88.207L104.166 88.2126L105.14 89.3535ZM102.338 89.3065L103.394 88.2413L103.386 88.2337L103.379 88.2262L102.338 89.3065ZM97.1688 84.3634L96.1341 85.4493L96.1341 85.4493L97.1688 84.3634ZM88.4902 76.0083L87.4341 77.0735L87.4388 77.0781L88.4902 76.0083ZM87.8222 73.2294L86.3879 72.7903L86.385 72.8L86.3821 72.8098L87.8222 73.2294ZM82.9638 54.0797L83.9898 52.9855L83.9887 52.9845L82.9638 54.0797ZM63.9871 50.3297L64.4327 51.762L64.4585 51.754L64.484 51.745L63.9871 50.3297ZM61.3164 50.2297L62.3582 49.1505L62.3409 49.1338L62.3231 49.1176L61.3164 50.2297ZM51.1098 40.6978L50.0774 41.7861L50.0774 41.7861L51.1098 40.6978ZM79.0442 67.1787L78.0115 68.2666L80.3761 70.5112L80.5423 67.2552L79.0442 67.1787ZM70.2104 58.8254L70.0509 57.3339L66.7941 57.6821L69.1853 59.9205L70.2104 58.8254ZM77.7218 65.9231L78.7548 64.8354L78.7548 64.8354L77.7218 65.9231ZM45.2337 108.964L45.8497 107.597L45.828 107.587L45.806 107.578L45.2337 108.964ZM10.187 80.123L11.3857 79.2213L11.3826 79.2172L10.187 80.123ZM65.9463 113.612L65.9414 112.112L65.9372 112.112L65.9463 113.612ZM84.9921 112.074L84.8118 110.585L84.8031 110.586L84.9921 112.074ZM89.7709 106.556L91.2709 106.571L91.2709 106.571L89.7709 106.556ZM85.5342 100.8L85.8797 99.3407L85.8688 99.3381L85.8579 99.3357L85.5342 100.8ZM81.3556 100.93L81.091 99.4534L81.0797 99.4554L81.0685 99.4576L81.3556 100.93ZM43.6988 95.2919L42.9734 96.6048L42.9735 96.6049L43.6988 95.2919ZM18.1987 71.1988L19.416 70.3223L19.4109 70.3153L18.1987 71.1988ZM18.1704 66.1405L16.9802 65.2277L16.9772 65.2315L18.1704 66.1405ZM24.1777 58.1363L22.9733 57.2422L22.9733 57.2422L24.1777 58.1363ZM28.1642 52.7924L29.3623 53.6949L29.3677 53.6876L28.1642 52.7924ZM25.9214 43.8663L25.2875 45.2258L25.2948 45.2292L25.3021 45.2325L25.9214 43.8663ZM18.9937 45.4903L17.7955 44.5878L17.7955 44.5878L18.9937 45.4903ZM11.2387 56.1886L10.0162 55.3194L10.0162 55.3194L11.2387 56.1886ZM5.61058 64.0229L4.40103 63.1357L4.39839 63.1394L5.61058 64.0229ZM6.19977 74.4191L7.378 73.4907L7.37039 73.4812L6.19977 74.4191ZM8.3246 77.4403L7.07516 78.2703L7.07516 78.2703L8.3246 77.4403ZM111.549 99.9886C112.067 100.492 112.589 101.006 113.118 101.526L115.221 99.3871C114.693 98.8679 114.165 98.3485 113.64 97.838L111.549 99.9886ZM111.398 97.963C111.354 98.0524 111.322 98.1154 111.286 98.1794L113.903 99.6472C113.982 99.5055 114.046 99.3761 114.087 99.2915L111.398 97.963ZM112.768 96.7071C112.235 96.8392 111.901 97.168 111.709 97.4265C111.553 97.6374 111.439 97.8797 111.398 97.963L114.087 99.2915C114.121 99.2237 114.136 99.1933 114.148 99.1712C114.16 99.1502 114.149 99.1723 114.12 99.2122C114.088 99.2544 114.021 99.3366 113.91 99.42C113.791 99.5088 113.648 99.5798 113.49 99.6191L112.768 96.7071ZM133.387 71.385C127.447 80.9669 120.643 89.6907 112.149 97.0279L114.11 99.2983C122.898 91.7077 129.887 82.7239 135.936 72.9656L133.387 71.385ZM133.313 60.5051C135.289 63.3262 135.902 64.6595 135.894 65.8414C135.886 67.0655 135.221 68.4406 133.388 71.3821L135.935 72.9685C137.66 70.2 138.879 68.0865 138.894 65.8613C138.909 63.5937 137.684 61.5167 135.771 58.7845L133.313 60.5051ZM125.312 49.7987C128.14 53.2484 130.762 56.8303 133.31 60.5003L135.774 58.7893C133.199 55.0807 130.528 51.4291 127.632 47.8966L125.312 49.7987ZM89.2971 24.8463C103.924 29.081 115.656 38.0108 125.312 49.7982L127.632 47.8971C117.687 35.7563 105.471 26.4057 90.1314 21.9646L89.2971 24.8463ZM41.9135 29.2824C57.1094 21.5994 73.0351 20.1353 89.2969 24.8462L90.1316 21.9647C73.1415 17.0428 56.4337 18.5794 40.5598 26.6051L41.9135 29.2824ZM35.9073 28.404C36.7125 29.1729 37.611 29.804 38.7284 29.9716C39.8479 30.1396 40.9007 29.7997 41.919 29.2795L40.5543 26.6079C39.7724 27.0074 39.3932 27.0378 39.1735 27.0048C38.9516 26.9716 38.6035 26.8306 37.9791 26.2344L35.9073 28.404ZM13.9233 7.49666C21.2661 14.4211 28.6262 21.3617 35.9004 28.3974L37.9861 26.241C30.6959 19.19 23.3221 12.2363 15.9815 5.31407L13.9233 7.49666ZM11.5002 5.21138C12.3075 5.97296 13.1153 6.73471 13.9233 7.49666L15.9815 5.31407C15.1735 4.55209 14.3659 3.79049 13.5587 3.0291L11.5002 5.21138ZM5.80702 4.28477C6.74424 3.71287 7.6826 3.52334 8.58701 3.65222C9.50155 3.78254 10.4973 4.25605 11.4948 5.20629L13.5641 3.03419C12.2031 1.73765 10.6543 0.916508 9.01025 0.682221C7.35603 0.44649 5.72172 0.82239 4.24435 1.72391L5.80702 4.28477ZM5.76901 11.8335C4.26432 10.3982 3.66522 8.8691 3.70058 7.60163C3.73487 6.37271 4.36756 5.16722 5.80965 4.28317L4.24172 1.72551C2.01943 3.08785 0.766955 5.18068 0.701747 7.51796C0.637614 9.81669 1.72469 12.1217 3.69833 14.0043L5.76901 11.8335ZM52.8019 56.4391C37.1249 41.5658 21.4477 26.6923 5.76548 11.8302L3.70186 14.0076C19.3834 28.8691 35.06 43.7421 50.7371 58.6155L52.8019 56.4391ZM99.8362 101.046C84.155 86.1849 68.4786 71.3122 52.8019 56.4391L50.7371 58.6155C66.4137 73.4884 82.0907 88.3617 97.7726 103.224L99.8362 101.046ZM114.758 115.206C109.786 110.483 104.813 105.759 99.8357 101.046L97.7731 103.224C102.749 107.935 107.719 112.658 112.691 117.381L114.758 115.206ZM129.678 129.365C124.701 124.653 119.73 119.93 114.758 115.206L112.691 117.381C117.663 122.105 122.637 126.83 127.615 131.543L129.678 129.365ZM135.33 130.382C134.405 130.946 133.488 131.116 132.597 130.972C131.689 130.825 130.692 130.331 129.681 129.368L127.612 131.54C128.959 132.824 130.487 133.67 132.118 133.934C133.766 134.2 135.402 133.852 136.892 132.942L135.33 130.382ZM135.475 122.822C136.944 124.234 137.521 125.767 137.468 127.051C137.416 128.304 136.76 129.518 135.336 130.378L136.886 132.946C139.107 131.606 140.369 129.508 140.465 127.175C140.561 124.872 139.517 122.545 137.554 120.659L135.475 122.822ZM125.634 113.476C128.914 116.588 132.194 119.699 135.48 122.827L137.549 120.654C134.26 117.524 130.979 114.411 127.698 111.299L125.634 113.476ZM115.783 104.122C119.072 107.251 122.353 110.364 125.634 113.476L127.698 111.299C124.418 108.187 121.138 105.076 117.852 101.948L115.783 104.122ZM113.118 101.526C113.991 102.384 114.882 103.26 115.782 104.12L117.853 101.95C116.972 101.108 116.097 100.248 115.221 99.3871L113.118 101.526ZM48.6807 36.1949C47.2192 37.0697 47.1542 39.0154 48.2798 40.0816L50.3429 37.9036C50.5477 38.0976 50.5946 38.5457 50.2214 38.7691L48.6807 36.1949ZM59.7405 32.2031C56.0902 32.9083 51.8892 34.2744 48.6806 36.1949L50.2214 38.769C53.0419 37.0808 56.8843 35.8104 60.3095 35.1486L59.7405 32.2031ZM113.766 50.104C98.9727 34.9171 81.0891 28.0968 59.7417 32.2029L60.3083 35.1489C80.548 31.2559 97.4407 37.6439 111.617 52.1972L113.766 50.104ZM122.77 60.9629C119.961 57.2933 117.066 53.5077 113.768 50.1064L111.614 52.1948C114.769 55.449 117.56 59.0926 120.387 62.7862L122.77 60.9629ZM124.601 63.3472C123.991 62.5585 123.382 61.7634 122.77 60.9629L120.387 62.7862C120.999 63.5856 121.613 64.3873 122.229 65.1837L124.601 63.3472ZM124.935 68.0838C125.352 67.3516 125.435 66.4269 125.39 65.7024C125.344 64.975 125.143 64.048 124.602 63.3483L122.228 65.1825C122.224 65.1766 122.264 65.2314 122.309 65.3806C122.351 65.5212 122.383 65.6984 122.395 65.8915C122.408 66.0845 122.398 66.2645 122.375 66.4086C122.35 66.5638 122.318 66.6172 122.328 66.5992L124.935 68.0838ZM106.1 90.5055C113.72 84.1521 119.819 76.5166 124.914 68.1196L122.349 66.5633C117.386 74.7427 111.491 82.1041 104.179 88.2015L106.1 90.5055ZM101.282 90.3717C101.903 90.9869 102.704 91.5068 103.708 91.5116C104.684 91.5162 105.488 91.0287 106.114 90.4944L104.166 88.2126C103.772 88.5488 103.652 88.5113 103.722 88.5116C103.819 88.5121 103.729 88.5733 103.394 88.2413L101.282 90.3717ZM96.1341 85.4493C97.8581 87.092 99.5807 88.7333 101.297 90.3869L103.379 88.2262C101.655 86.566 99.9266 84.9191 98.2036 83.2774L96.1341 85.4493ZM87.4388 77.0781C90.312 79.902 93.2251 82.6776 96.1341 85.4493L98.2036 83.2774C95.2918 80.503 92.3955 77.7434 89.5417 74.9385L87.4388 77.0781ZM86.3821 72.8098C86.1633 73.5608 86.2332 74.3988 86.3931 75.0642C86.5506 75.7194 86.8691 76.5133 87.4342 77.0735L89.5463 74.9431C89.5583 74.9549 89.5193 74.9174 89.46 74.7951C89.4044 74.6805 89.3505 74.5315 89.31 74.363C89.2696 74.195 89.2482 74.0312 89.2446 73.891C89.2408 73.7444 89.2574 73.6661 89.2624 73.6489L86.3821 72.8098ZM81.9377 55.1739C84.5515 57.6249 86.1638 60.3178 86.8839 63.2097C87.6052 66.1065 87.4557 69.3023 86.3879 72.7903L89.2565 73.6685C90.4533 69.7593 90.6709 66.0024 89.795 62.4848C88.9178 58.9622 86.9686 55.7788 83.9898 52.9855L81.9377 55.1739ZM64.484 51.745C71.0678 49.4334 76.9726 50.5275 81.9388 55.1749L83.9887 52.9845C78.1519 47.5223 71.0562 46.2579 63.4902 48.9144L64.484 51.745ZM60.2746 51.3089C60.6594 51.6803 61.1176 51.854 61.4721 51.9413C61.8394 52.0317 62.2131 52.0582 62.5462 52.0557C63.2077 52.0507 63.8964 51.9289 64.4327 51.762L63.5414 48.8975C63.2653 48.9834 62.8691 49.0532 62.5235 49.0558C62.3531 49.0571 62.2428 49.0414 62.1892 49.0282C62.123 49.0119 62.2238 49.0207 62.3582 49.1505L60.2746 51.3089ZM50.0774 41.7861C53.4396 44.9755 56.8265 48.1887 60.3098 51.3417L62.3231 49.1176C58.8701 45.992 55.5084 42.803 52.1421 39.6096L50.0774 41.7861ZM48.2798 40.0816C48.8788 40.649 49.4777 41.2171 50.0774 41.7861L52.1421 39.6096C51.5426 39.0408 50.9428 38.4719 50.3429 37.9036L48.2798 40.0816ZM80.5423 67.2552C80.8493 61.2396 76.0873 56.6886 70.0509 57.3339L70.3698 60.3169C74.5635 59.8686 77.7596 62.9202 77.5462 67.1023L80.5423 67.2552ZM76.6889 67.0108C77.1224 67.4224 77.5624 67.8403 78.0115 68.2666L80.0769 66.0908C79.6281 65.6648 79.1883 65.2471 78.7548 64.8354L76.6889 67.0108ZM69.1853 59.9205C71.8053 62.3732 74.1325 64.5832 76.6889 67.0108L78.7548 64.8354C76.1992 62.4086 73.8645 60.1915 71.2355 57.7304L69.1853 59.9205ZM45.806 107.578C30.9923 101.464 20.4574 91.2803 11.3857 79.2213L8.98828 81.0247C18.247 93.3323 29.1764 103.96 44.6614 110.351L45.806 107.578ZM65.9372 112.112C58.7463 112.156 51.7613 110.259 45.8497 107.597L44.6178 110.332C50.8276 113.129 58.2407 115.159 65.9554 115.112L65.9372 112.112ZM84.8031 110.586C78.5002 111.387 72.1989 112.092 65.9414 112.112L65.9512 115.112C72.4083 115.091 78.8681 114.364 85.1812 113.562L84.8031 110.586ZM88.271 106.541C88.2497 108.67 87.0332 110.316 84.8118 110.585L85.1725 113.563C89.1281 113.084 91.2371 109.952 91.2709 106.571L88.271 106.541ZM85.1888 102.26C87.0285 102.695 88.2925 104.387 88.271 106.541L91.2709 106.571C91.3044 103.213 89.2676 100.143 85.8797 99.3407L85.1888 102.26ZM81.6201 102.406C82.9551 102.167 84.1858 102.039 85.2106 102.265L85.8579 99.3357C84.2033 98.9701 82.457 99.2086 81.091 99.4534L81.6201 102.406ZM42.9735 96.6049C55.0867 103.296 68.0719 105.048 81.6426 102.402L81.0685 99.4576C68.1428 101.978 55.8806 100.308 44.4242 93.9789L42.9735 96.6049ZM16.9814 72.0752C24.0183 81.8486 32.1944 90.6485 42.9734 96.6048L44.4243 93.979C34.1852 88.3211 26.3185 79.9089 19.416 70.3223L16.9814 72.0752ZM16.9772 65.2315C16.1958 66.2572 15.6604 67.3682 15.6658 68.6313C15.6712 69.8826 16.207 71.0127 16.9864 72.0822L19.4109 70.3153C18.8177 69.5013 18.6673 68.9843 18.6658 68.6184C18.6643 68.2643 18.8011 67.7879 19.3636 67.0496L16.9772 65.2315ZM22.9733 57.2422C20.9863 59.9189 19.0074 62.5845 16.9802 65.2277L19.3606 67.0534C21.4045 64.3885 23.3974 61.704 25.3821 59.0304L22.9733 57.2422ZM26.966 51.8899C25.6237 53.6719 24.2967 55.4595 22.9733 57.2422L25.3821 59.0304C26.7065 57.2463 28.0273 55.4672 29.3623 53.6949L26.966 51.8899ZM25.3021 45.2325C26.7339 45.8815 27.5642 46.9553 27.8508 48.1044C28.1382 49.257 27.9113 50.6191 26.9606 51.8972L29.3677 53.6876C30.811 51.7472 31.2836 49.4716 30.7616 47.3785C30.2387 45.2818 28.7507 43.5019 26.5407 42.5001L25.3021 45.2325ZM20.1918 46.3928C20.9354 45.4056 21.7328 44.9386 22.508 44.7777C23.3016 44.613 24.237 44.7359 25.2875 45.2258L26.5553 42.5068C25.0683 41.8135 23.4694 41.5143 21.8984 41.8403C20.3089 42.1702 18.9111 43.1068 17.7955 44.5878L20.1918 46.3928ZM12.4612 57.0578C15.0147 53.4664 17.5573 49.8903 20.1918 46.3928L17.7955 44.5878C15.1321 48.1238 12.5656 51.7336 10.0162 55.3194L12.4612 57.0578ZM6.82013 64.91C8.72599 62.3115 10.5965 59.6805 12.4612 57.0578L10.0162 55.3194C8.14934 57.9452 6.29161 60.5581 4.40104 63.1357L6.82013 64.91ZM7.37039 73.4812C6.12542 71.9274 5.48263 70.5362 5.36784 69.2267C5.25615 67.9525 5.62642 66.5478 6.82277 64.9064L4.39839 63.1394C2.87494 65.2296 2.1909 67.3394 2.3793 69.4886C2.5646 71.6026 3.57631 73.5437 5.02915 75.357L7.37039 73.4812ZM9.57404 76.6103C8.89271 75.5847 8.17303 74.4998 7.37796 73.4908L5.02158 75.3475C5.72845 76.2446 6.38143 77.226 7.07516 78.2703L9.57404 76.6103ZM11.3826 79.2172C10.7638 78.4005 10.1835 77.5278 9.57404 76.6103L7.07516 78.2703C7.6755 79.1741 8.30688 80.1254 8.99136 81.0288L11.3826 79.2172Z" fill="#333333" mask="url(#path-1-outside-1_2577_1006)"/>
</svg>
