<svg width="495" height="321" viewBox="0 0 495 321" fill="none" xmlns="http://www.w3.org/2000/svg">
<g clip-path="url(#clip0_2651_1302)">
<path d="M452.059 320.792C425.654 320.792 409.711 281.119 409.711 223.412C409.711 166.066 425.654 125.672 452.225 125.672C478.464 125.672 494.407 165.706 494.407 223.052C494.407 280.758 478.464 320.792 452.059 320.792ZM452.225 291.578C469.496 291.578 477.468 261.643 477.468 223.412C477.468 184.821 469.496 155.246 452.225 155.246C434.621 155.246 426.65 184.821 426.65 223.412C426.65 261.643 434.621 291.578 452.225 291.578Z" fill="#333333"/>
</g>
<g clip-path="url(#clip1_2651_1302)">
<path d="M452.059 0.508982C425.654 0.508982 409.711 40.1822 409.711 97.8886C409.711 155.234 425.654 195.629 452.225 195.629C478.464 195.629 494.407 155.595 494.407 98.2493C494.407 40.5428 478.464 0.508982 452.059 0.508982ZM452.225 29.7229C469.496 29.7229 477.468 59.6581 477.468 97.8886C477.468 136.48 469.496 166.054 452.225 166.054C434.621 166.054 426.65 136.48 426.65 97.8886C426.65 59.6581 434.621 29.7229 452.225 29.7229Z" fill="#333333"/>
</g>
<g clip-path="url(#clip2_2651_1302)">
<path d="M43.3479 320.792C16.9427 320.792 1 281.119 1 223.412C1 166.066 16.9427 125.672 43.514 125.672C69.7531 125.672 85.6958 165.706 85.6958 223.052C85.6958 280.758 69.7531 320.792 43.3479 320.792ZM43.514 291.578C60.7853 291.578 68.7566 261.643 68.7566 223.412C68.7566 184.821 60.7853 155.246 43.514 155.246C25.9105 155.246 17.9392 184.821 17.9392 223.412C17.9392 261.643 25.9105 291.578 43.514 291.578Z" fill="#333333"/>
</g>
<g clip-path="url(#clip3_2651_1302)">
<path d="M43.3479 0.508982C16.9427 0.508982 1 40.1822 1 97.8886C1 155.234 16.9427 195.629 43.514 195.629C69.7531 195.629 85.6958 155.595 85.6958 98.2493C85.6958 40.5428 69.7531 0.508982 43.3479 0.508982ZM43.514 29.7229C60.7853 29.7229 68.7566 59.6581 68.7566 97.8886C68.7566 136.48 60.7853 166.054 43.514 166.054C25.9105 166.054 17.9392 136.48 17.9392 97.8886C17.9392 59.6581 25.9105 29.7229 43.514 29.7229Z" fill="#333333"/>
</g>
<path d="M101.36 257.133H83.0391L113.896 157.85L85.7712 63.1328H103.771L123.378 132.364H123.7L142.985 63.1328H160.985L132.86 157.85L164.039 257.133H145.557L123.378 182.956H123.057L101.36 257.133Z" fill="#333333"/>
<path d="M205.039 257.133C179.474 257.133 164.039 217.687 164.039 160.312C164.039 103.295 179.474 63.1328 205.2 63.1328C230.604 63.1328 246.039 102.937 246.039 159.954C246.039 217.329 230.604 257.133 205.039 257.133ZM205.2 228.087C221.921 228.087 229.639 198.323 229.639 160.312C229.639 121.942 221.921 92.5376 205.2 92.5376C188.157 92.5376 180.439 121.942 180.439 160.312C180.439 198.323 188.157 228.087 205.2 228.087Z" fill="#333333"/>
<path d="M264.36 257.133H246.039L276.896 157.85L248.771 63.1328H266.771L286.378 132.364H286.7L305.985 63.1328H323.985L295.86 157.85L327.039 257.133H308.557L286.378 182.956H286.057L264.36 257.133Z" fill="#333333"/>
<path d="M368.039 257.133C342.474 257.133 327.039 217.687 327.039 160.312C327.039 103.295 342.474 63.1328 368.2 63.1328C393.604 63.1328 409.039 102.937 409.039 159.954C409.039 217.329 393.604 257.133 368.039 257.133ZM368.2 228.087C384.921 228.087 392.639 198.323 392.639 160.312C392.639 121.942 384.921 92.5376 368.2 92.5376C351.157 92.5376 343.439 121.942 343.439 160.312C343.439 198.323 351.157 228.087 368.2 228.087Z" fill="#333333"/>
<line x1="85" y1="321" x2="85" stroke="#333333" stroke-width="2"/>
<line x1="408" y1="321" x2="408" stroke="#333333" stroke-width="2"/>
<line y1="257" x2="495" y2="257" stroke="#333333" stroke-width="2"/>
<line y1="63" x2="495" y2="63" stroke="#333333" stroke-width="2"/>
<defs>
<clipPath id="clip0_2651_1302">
<rect width="84.6879" height="62.5954" fill="white" transform="translate(409.711 258.223)"/>
</clipPath>
<clipPath id="clip1_2651_1302">
<rect width="84.6879" height="62.5954" fill="white" transform="matrix(1 0 0 -1 409.711 63.0742)"/>
</clipPath>
<clipPath id="clip2_2651_1302">
<rect width="84.6879" height="62.5954" fill="white" transform="translate(1 258.223)"/>
</clipPath>
<clipPath id="clip3_2651_1302">
<rect width="84.6879" height="62.5954" fill="white" transform="matrix(1 0 0 -1 1 63.0742)"/>
</clipPath>
</defs>
</svg>
