<svg width="1140" height="686" viewBox="0 0 1140 686" fill="none" xmlns="http://www.w3.org/2000/svg">
<path d="M990.16 685.893C897.339 685.893 841.297 546.433 841.297 343.581C841.297 141.996 897.339 0 990.744 0C1082.98 0 1139.02 140.729 1139.02 342.313C1139.02 545.165 1082.98 685.893 990.16 685.893ZM990.744 583.199C1051.46 583.199 1079.48 477.97 1079.48 343.581C1079.48 207.923 1051.46 103.962 990.744 103.962C928.863 103.962 900.842 207.923 900.842 343.581C900.842 477.97 928.863 583.199 990.744 583.199Z" fill="#333333"/>
<path d="M628.787 686H562.227L674.329 334.929L572.152 0H637.545L708.777 244.808H709.944L780.008 0H845.401L743.225 334.929L856.495 686H789.35L708.777 423.706H707.609L628.787 686Z" fill="#333333"/>
<path d="M428.558 685.893C335.738 685.893 279.695 546.433 279.695 343.581C279.695 141.996 335.738 0 429.142 0C521.379 0 577.421 140.729 577.421 342.313C577.421 545.165 521.379 685.893 428.558 685.893ZM429.142 583.199C489.855 583.199 517.876 477.97 517.876 343.581C517.876 207.923 489.855 103.962 429.142 103.962C367.262 103.962 339.241 207.923 339.241 343.581C339.241 477.97 367.262 583.199 429.142 583.199Z" fill="#333333"/>
<path d="M66.5607 686H0L112.102 334.929L9.92571 0H75.3187L146.55 244.808H147.718L217.782 0H283.175L180.998 334.929L294.268 686H227.124L146.55 423.706H145.382L66.5607 686Z" fill="#333333"/>
</svg>
