<svg width="363" height="220" viewBox="0 0 363 220" fill="none" xmlns="http://www.w3.org/2000/svg">
<rect x="1" y="1" width="361" height="98" fill="#333333"/>
<rect x="1" y="1" width="361" height="98" stroke="#333333" stroke-width="2"/>
<path d="M145.98 73.1874H141.48L149.059 49.4544L142.151 26.8125H146.572L151.388 43.362H151.466L156.203 26.8125H160.624L153.716 49.4544L161.374 73.1874H156.834L151.388 55.4558H151.309L145.98 73.1874Z" fill="white"/>
<path d="M171.438 73.1841C165.164 73.1841 161.375 63.7563 161.375 50.0431C161.375 36.4156 165.164 26.8164 171.478 26.8164C177.713 26.8164 181.502 36.3299 181.502 49.9574C181.502 63.6706 177.713 73.1841 171.438 73.1841ZM171.478 66.2418C175.582 66.2418 177.476 59.1281 177.476 50.0431C177.476 40.8724 175.582 33.8444 171.478 33.8444C167.295 33.8444 165.4 40.8724 165.4 50.0431C165.4 59.1281 167.295 66.2418 171.478 66.2418Z" fill="white"/>
<path d="M186 73.1874H181.5L189.078 49.4544L182.171 26.8125H186.592L191.407 43.362H191.486L196.222 26.8125H200.643L193.736 49.4544L201.393 73.1874H196.854L191.407 55.4558H191.328L186 73.1874Z" fill="white"/>
<path d="M211.458 73.1841C205.183 73.1841 201.395 63.7563 201.395 50.0431C201.395 36.4156 205.183 26.8164 211.497 26.8164C217.733 26.8164 221.521 36.3299 221.521 49.9574C221.521 63.6706 217.733 73.1841 211.458 73.1841ZM211.497 66.2418C215.602 66.2418 217.496 59.1281 217.496 50.0431C217.496 40.8724 215.602 33.8444 211.497 33.8444C207.314 33.8444 205.42 40.8724 205.42 50.0431C205.42 59.1281 207.314 66.2418 211.497 66.2418Z" fill="white"/>
<rect x="1" y="121" width="361" height="98" fill="#047FCF"/>
<rect x="1" y="121" width="361" height="98" stroke="#333333" stroke-width="2"/>
<path d="M145.98 193.187H141.48L149.059 169.454L142.151 146.812H146.572L151.388 163.362H151.466L156.203 146.812H160.624L153.716 169.454L161.374 193.187H156.834L151.388 175.456H151.309L145.98 193.187Z" fill="white"/>
<path d="M171.438 193.184C165.164 193.184 161.375 183.756 161.375 170.043C161.375 156.416 165.164 146.816 171.478 146.816C177.713 146.816 181.502 156.33 181.502 169.957C181.502 183.671 177.713 193.184 171.438 193.184ZM171.478 186.242C175.582 186.242 177.476 179.128 177.476 170.043C177.476 160.872 175.582 153.844 171.478 153.844C167.295 153.844 165.4 160.872 165.4 170.043C165.4 179.128 167.295 186.242 171.478 186.242Z" fill="white"/>
<path d="M186 193.187H181.5L189.078 169.454L182.171 146.812H186.592L191.407 163.362H191.486L196.222 146.812H200.643L193.736 169.454L201.393 193.187H196.854L191.407 175.456H191.328L186 193.187Z" fill="white"/>
<path d="M211.458 193.184C205.183 193.184 201.395 183.756 201.395 170.043C201.395 156.416 205.183 146.816 211.497 146.816C217.733 146.816 221.521 156.33 221.521 169.957C221.521 183.671 217.733 193.184 211.458 193.184ZM211.497 186.242C215.602 186.242 217.496 179.128 217.496 170.043C217.496 160.872 215.602 153.844 211.497 153.844C207.314 153.844 205.42 160.872 205.42 170.043C205.42 179.128 207.314 186.242 211.497 186.242Z" fill="white"/>
</svg>
