<svg width="555" height="460" viewBox="0 0 555 460" fill="none" xmlns="http://www.w3.org/2000/svg">
<rect x="1" y="1" width="553" height="98" fill="#333333"/>
<rect x="1" y="1" width="553" height="98" stroke="#333333" stroke-width="2"/>
<path d="M241.98 73.1874H237.48L245.059 49.4544L238.151 26.8125H242.572L247.388 43.362H247.466L252.203 26.8125H256.624L249.716 49.4544L257.374 73.1874H252.834L247.388 55.4558H247.309L241.98 73.1874Z" fill="#A7D408"/>
<path d="M267.438 73.1841C261.164 73.1841 257.375 63.7563 257.375 50.0431C257.375 36.4156 261.164 26.8164 267.478 26.8164C273.713 26.8164 277.502 36.3299 277.502 49.9574C277.502 63.6706 273.713 73.1841 267.438 73.1841ZM267.478 66.2418C271.582 66.2418 273.476 59.1281 273.476 50.0431C273.476 40.8724 271.582 33.8444 267.478 33.8444C263.295 33.8444 261.4 40.8724 261.4 50.0431C261.4 59.1281 263.295 66.2418 267.478 66.2418Z" fill="#A7D408"/>
<path d="M282 73.1874H277.5L285.078 49.4544L278.171 26.8125H282.592L287.407 43.362H287.486L292.222 26.8125H296.643L289.736 49.4544L297.393 73.1874H292.854L287.407 55.4558H287.328L282 73.1874Z" fill="#A7D408"/>
<path d="M307.458 73.1841C301.183 73.1841 297.395 63.7563 297.395 50.0431C297.395 36.4156 301.183 26.8164 307.497 26.8164C313.733 26.8164 317.521 36.3299 317.521 49.9574C317.521 63.6706 313.733 73.1841 307.458 73.1841ZM307.497 66.2418C311.602 66.2418 313.496 59.1281 313.496 50.0431C313.496 40.8724 311.602 33.8444 307.497 33.8444C303.314 33.8444 301.42 40.8724 301.42 50.0431C301.42 59.1281 303.314 66.2418 307.497 66.2418Z" fill="#A7D408"/>
<rect x="1" y="121" width="553" height="98" fill="#333333"/>
<rect x="1" y="121" width="553" height="98" stroke="#333333" stroke-width="2"/>
<path d="M241.98 193.187H237.48L245.059 169.454L238.151 146.812H242.572L247.388 163.362H247.466L252.203 146.812H256.624L249.716 169.454L257.374 193.187H252.834L247.388 175.456H247.309L241.98 193.187Z" fill="#047FCF"/>
<path d="M267.438 193.184C261.164 193.184 257.375 183.756 257.375 170.043C257.375 156.416 261.164 146.816 267.478 146.816C273.713 146.816 277.502 156.33 277.502 169.957C277.502 183.671 273.713 193.184 267.438 193.184ZM267.478 186.242C271.582 186.242 273.476 179.128 273.476 170.043C273.476 160.872 271.582 153.844 267.478 153.844C263.295 153.844 261.4 160.872 261.4 170.043C261.4 179.128 263.295 186.242 267.478 186.242Z" fill="#047FCF"/>
<path d="M282 193.187H277.5L285.078 169.454L278.171 146.812H282.592L287.407 163.362H287.486L292.222 146.812H296.643L289.736 169.454L297.393 193.187H292.854L287.407 175.456H287.328L282 193.187Z" fill="#047FCF"/>
<path d="M307.458 193.184C301.183 193.184 297.395 183.756 297.395 170.043C297.395 156.416 301.183 146.816 307.497 146.816C313.733 146.816 317.521 156.33 317.521 169.957C317.521 183.671 313.733 193.184 307.458 193.184ZM307.497 186.242C311.602 186.242 313.496 179.128 313.496 170.043C313.496 160.872 311.602 153.844 307.497 153.844C303.314 153.844 301.42 160.872 301.42 170.043C301.42 179.128 303.314 186.242 307.497 186.242Z" fill="#047FCF"/>
<rect x="1" y="241" width="553" height="98" fill="white"/>
<rect x="1" y="241" width="553" height="98" stroke="#333333" stroke-width="2"/>
<path d="M241.98 313.187H237.48L245.059 289.454L238.151 266.812H242.572L247.388 283.362H247.466L252.203 266.812H256.624L249.716 289.454L257.374 313.187H252.834L247.388 295.456H247.309L241.98 313.187Z" fill="#047FCF"/>
<path d="M267.438 313.184C261.164 313.184 257.375 303.756 257.375 290.043C257.375 276.416 261.164 266.816 267.478 266.816C273.713 266.816 277.502 276.33 277.502 289.957C277.502 303.671 273.713 313.184 267.438 313.184ZM267.478 306.242C271.582 306.242 273.476 299.128 273.476 290.043C273.476 280.872 271.582 273.844 267.478 273.844C263.295 273.844 261.4 280.872 261.4 290.043C261.4 299.128 263.295 306.242 267.478 306.242Z" fill="#047FCF"/>
<path d="M282 313.187H277.5L285.078 289.454L278.171 266.812H282.592L287.407 283.362H287.486L292.222 266.812H296.643L289.736 289.454L297.393 313.187H292.854L287.407 295.456H287.328L282 313.187Z" fill="#047FCF"/>
<path d="M307.458 313.184C301.183 313.184 297.395 303.756 297.395 290.043C297.395 276.416 301.183 266.816 307.497 266.816C313.733 266.816 317.521 276.33 317.521 289.957C317.521 303.671 313.733 313.184 307.458 313.184ZM307.497 306.242C311.602 306.242 313.496 299.128 313.496 290.043C313.496 280.872 311.602 273.844 307.497 273.844C303.314 273.844 301.42 280.872 301.42 290.043C301.42 299.128 303.314 306.242 307.497 306.242Z" fill="#047FCF"/>
<rect x="1" y="361" width="553" height="98" fill="white"/>
<rect x="1" y="361" width="553" height="98" stroke="#333333" stroke-width="2"/>
<path d="M241.98 433.187H237.48L245.059 409.454L238.151 386.812H242.572L247.388 403.362H247.466L252.203 386.812H256.624L249.716 409.454L257.374 433.187H252.834L247.388 415.456H247.309L241.98 433.187Z" fill="#EC3396"/>
<path d="M267.438 433.184C261.164 433.184 257.375 423.756 257.375 410.043C257.375 396.416 261.164 386.816 267.478 386.816C273.713 386.816 277.502 396.33 277.502 409.957C277.502 423.671 273.713 433.184 267.438 433.184ZM267.478 426.242C271.582 426.242 273.476 419.128 273.476 410.043C273.476 400.872 271.582 393.844 267.478 393.844C263.295 393.844 261.4 400.872 261.4 410.043C261.4 419.128 263.295 426.242 267.478 426.242Z" fill="#EC3396"/>
<path d="M282 433.187H277.5L285.078 409.454L278.171 386.812H282.592L287.407 403.362H287.486L292.222 386.812H296.643L289.736 409.454L297.393 433.187H292.854L287.407 415.456H287.328L282 433.187Z" fill="#EC3396"/>
<path d="M307.458 433.184C301.183 433.184 297.395 423.756 297.395 410.043C297.395 396.416 301.183 386.816 307.497 386.816C313.733 386.816 317.521 396.33 317.521 409.957C317.521 423.671 313.733 433.184 307.458 433.184ZM307.497 426.242C311.602 426.242 313.496 419.128 313.496 410.043C313.496 400.872 311.602 393.844 307.497 393.844C303.314 393.844 301.42 400.872 301.42 410.043C301.42 419.128 303.314 426.242 307.497 426.242Z" fill="#EC3396"/>
</svg>
