<svg width="74" height="122" viewBox="0 0 74 122" fill="none" xmlns="http://www.w3.org/2000/svg">
<path d="M52.6039 121.846H48.1121L58.4123 0H63.0203L73.398 121.846H68.7513L66.4666 92.5349H54.8885L52.6039 121.846ZM60.6582 17.3822L56.1664 76.6864H65.2662L60.7357 17.3822H60.6582Z" fill="#A7D408"/>
<path d="M33.3738 121.846H29.1143V0H40.6536C45.8812 0 49.7147 10.7361 49.7147 36.2982C49.7147 61.8604 45.8812 72.426 40.6536 72.426H33.3738V121.846ZM33.3738 56.2367H40.46C43.674 56.2367 45.3003 49.9314 45.3003 36.2982C45.3003 22.4947 43.674 16.1894 40.46 16.1894H33.3738V56.2367Z" fill="#A7D408"/>
<path d="M4.86106 121.846H0.601562V0H4.86106V93.2166H4.9385L19.3046 0H23.6028V121.846H19.3046V28.8H19.2272L4.86106 121.846Z" fill="#A7D408"/>
</svg>
