<svg width="112" height="122" viewBox="0 0 112 122" fill="none" xmlns="http://www.w3.org/2000/svg">
<path d="M72.0026 121.846H67.5107L77.811 0H82.419L92.7967 121.846H88.1499L85.8653 92.5349H74.2872L72.0026 121.846ZM80.0569 17.3822L75.5651 76.6864H84.6649L80.1343 17.3822H80.0569Z" fill="#A7D408"/>
<path d="M52.7722 121.846H48.5127V0H60.0521C65.2796 0 69.1132 10.7361 69.1132 36.2982C69.1132 61.8604 65.2796 72.426 60.0521 72.426H52.7722V121.846ZM52.7722 56.2367H59.8584C63.0724 56.2367 64.6988 49.9314 64.6988 36.2982C64.6988 22.4947 63.0724 16.1894 59.8584 16.1894H52.7722V56.2367Z" fill="#A7D408"/>
<path d="M24.2595 121.846H20V0H24.2595V93.2166H24.3369L38.7031 0H43.0013V121.846H38.7031V28.8H38.6256L24.2595 121.846Z" fill="#A7D408"/>
</svg>
