<svg width="104" height="122" viewBox="0 0 104 122" fill="none" xmlns="http://www.w3.org/2000/svg">
<path d="M82.2575 121.846H77.7656L88.0659 0H92.6739L103.052 121.846H98.4048L96.1202 92.5349H84.5421L82.2575 121.846ZM90.3118 17.3822L85.8199 76.6864H94.9198L90.3892 17.3822H90.3118Z" fill="#047FCF"/>
<path d="M77.3992 0L66.1697 61.1787L78.2124 121.846H72.83L62.7233 70.7219H59.5481V121.846H55.2886V0H59.5481V54.3621H62.8008L72.7525 0H77.3992Z" fill="#047FCF"/>
<path d="M31.0354 121.846H26.7759V0H31.0354V93.2166H31.1128L45.4789 0H49.7772V121.846H45.4789V28.8H45.4015L31.0354 121.846Z" fill="#047FCF"/>
<path d="M13.3008 121.846H0.948242V0H12.6038C18.296 0 21.6262 11.2473 21.6262 30.6746C21.6262 45.671 19.6126 52.658 17.3279 56.0663V56.4071C20.2321 58.6225 22.7104 67.9953 22.7104 86.2296C22.7104 109.576 19.0317 121.846 13.3008 121.846ZM5.20774 50.613H12.4876C15.9726 50.613 17.173 44.3077 17.173 33.4012C17.173 22.6651 15.7016 16.1894 12.7974 16.1894H5.20774V50.613ZM5.20774 105.657H12.991C17.0956 105.657 18.2573 96.9657 18.2573 85.5479C18.2573 72.7669 16.476 65.4391 13.5718 65.4391H5.20774V105.657Z" fill="#047FCF"/>
</svg>
