<svg width="359" height="359" viewBox="0 0 359 359" fill="none" xmlns="http://www.w3.org/2000/svg">
<mask id="path-1-inside-1_2214_2236" fill="white">
<path fill-rule="evenodd" clip-rule="evenodd" d="M0 50.5494V101.099L50.1642 100.714L100.328 100.328L100.714 50.1642L101.099 0H50.5494H0V50.5494ZM114.826 2.05783C114.392 3.18854 114.247 6.31996 114.506 9.01491C114.959 13.7443 115.217 13.9303 121.932 14.3609L128.889 14.8076V22.0503V29.293H121.485H114.081L114.528 36.2501L114.975 43.2071L121.932 43.6538L128.889 44.1006V50.5714V57.0437L150.493 57.4479L172.096 57.8536V79.091V100.328L165.139 100.775L158.182 101.222V86.4948V71.7678H150.859H143.536V86.4143V101.061H150.859H158.182V107.599V114.137L143.902 114.556L129.621 114.975L129.175 121.932L128.728 128.889H136.132H143.536V136.212V143.536H150.859H158.182V129.621V115.707H172.065H185.949L186.346 86.7804L186.743 57.8536L193.7 57.4069L200.657 56.9602V79.0105V101.061H207.98H215.303V108.384V115.707H222.627H229.95V122.298V128.889H222.627H215.303V136.212V143.536H207.98H200.657V136.132V128.728L193.7 129.175L186.743 129.621L186.296 136.578L185.849 143.536H193.253H200.657V158.182V172.829H207.98H215.303V165.505V158.182H229.137H242.971L243.417 165.139L243.864 172.096L250.821 172.543L257.778 172.99V194.146V215.303H243.864H229.95V207.98V200.657H237.354H244.757L244.311 193.7L243.864 186.743L229.584 186.324L215.303 185.905V193.281V200.657H207.98H200.657V193.334V186.01H193.334H186.01V172.096V158.182H179.5H172.99L172.543 165.139L172.096 172.096L165.139 172.543L158.182 172.99V179.5V186.01H150.859H143.536V172.096V158.182H122.298H101.061V150.859V143.536H93.7375H86.4143V136.212V128.889H101.141H115.868L115.422 121.932L114.975 114.975L100.695 114.556L86.4143 114.137V121.513V128.889H65.2574H44.1006L43.6538 121.932L43.2071 114.975L36.2501 114.528L29.293 114.081V121.485V128.889H35.8839H42.4748V136.212V143.536H35.8839H29.293V150.859V158.182H21.9697H14.6465V165.505V172.829H7.32324H0V186.743V200.657H21.2374H42.4748V207.98V215.303H49.7981H57.1213V222.627V229.95H43.2071H29.293V222.627V215.303H14.6465H0V222.627V229.95H14.6465H29.293V237.273V244.596H43.2071H57.1213V237.273V229.95H71.7678H86.4143V237.273V244.596H100.328H114.243V258.51V272.425H121.485H128.728L129.175 265.468L129.621 258.51L143.902 258.092L158.182 257.673V265.049V272.425H165.586H172.99L172.543 265.468L172.096 258.51L165.139 258.064L158.182 257.617V243.783V229.95H172.096H186.01V222.627V215.303H193.334H200.657V222.627V229.95H215.303H229.95V251.187V272.425H222.627H215.303V287.071V301.718H243.783H272.264L272.71 308.675L273.157 315.632L280.114 316.078L287.071 316.525V323.036V329.546H272.425H257.778V322.142V314.738L250.821 315.185L243.864 315.632L243.417 322.589L242.971 329.546H236.541H230.111L229.664 322.589L229.217 315.632L222.26 315.185L215.303 314.738V322.142V329.546H207.98H200.657V336.869V344.192H193.334H186.01V315.632V287.071H172.096H158.182V294.394V301.718H165.505H172.829V315.632V329.546H158.182H143.536V315.632V301.718H136.212H128.889V308.228V314.738L121.932 315.185L114.975 315.632L114.528 322.589L114.081 329.546H121.485H128.889V336.869V344.192H121.485H114.081L114.528 351.15L114.975 358.107L121.932 358.553L128.889 359V351.596V344.192H150.859H172.829V351.516V358.839H194.066H215.303V351.516V344.192H222.627H229.95V351.596V359L236.907 358.553L243.864 358.107L244.311 351.15L244.757 344.192H273.237H301.718V351.596V359L308.675 358.553L315.632 358.107L316.078 351.15L316.525 344.192H309.121H301.718V330.278V316.364H315.632H329.546V322.955V329.546H344.273H359L358.553 322.589L358.107 315.632L351.15 315.185L344.192 314.738V308.228V301.718H351.546H358.9L358.504 272.791L358.107 243.864L351.15 243.417L344.192 242.971V236.46V229.95H336.869H329.546V236.46V242.971L322.589 243.417L315.632 243.864L315.185 250.821L314.738 257.778H308.228H301.718V243.864V229.95H294.394H287.071V222.627V215.303H308.309H329.546V207.98V200.657H336.869H344.192V207.98V215.303H351.516H358.839V194.066V172.829H351.516H344.192V179.419V186.01H336.869H329.546V193.334V200.657H300.985H272.425V193.334V186.01H279.748H287.071V179.472V172.934L301.351 172.515L315.632 172.096L316.078 165.139L316.525 158.182H323.036H329.546V150.859V143.536H336.869H344.192V150.859V158.182H351.555H358.917L358.512 136.578L358.107 114.975L351.15 114.528L344.192 114.081V121.485V128.889H336.869H329.546V121.485V114.081L322.589 114.528L315.632 114.975L315.185 121.932L314.738 128.889H308.228H301.718V143.536V158.182H294.434H287.149L286.744 136.578L286.339 114.975H279.748H273.157L272.713 121.854L272.271 128.735L265.39 129.178L258.51 129.621L258.064 136.578L257.617 143.536H265.021H272.425V158.263V172.99L265.468 172.543L258.51 172.096L258.064 165.139L257.617 158.182H251.129H244.64L244.252 115.341L243.864 72.5001L236.961 72.0563L230.058 71.6111L229.638 85.9705L229.217 100.328L222.26 100.775L215.303 101.222V72.5807V43.9395H222.627H229.95V50.5304V57.1213H237.354H244.757L244.311 50.1642L243.864 43.2071L236.907 42.7604L229.95 42.3137V35.8033V29.293H222.627H215.303V35.8839V42.4748H207.98H200.657V35.8839V29.293H193.334H186.01V35.8839V42.4748H164.773H143.536V28.5606V14.6465H150.859H158.182V22.0503V29.4541L165.139 29.0074L172.096 28.5606L172.543 21.6036L172.99 14.6465H194.146H215.303V7.32324V0H179.419H143.536V7.32324V14.6465H136.212H128.889V7.32324V0H122.253C117.904 0 115.343 0.708888 114.826 2.05783ZM258.125 50.1642L258.51 100.328L308.675 100.714L358.839 101.099V50.5494V0H308.289H257.74L258.125 50.1642ZM86.4143 50.5304V86.4143H50.5304H14.6465V50.5304V14.6465H50.5304H86.4143V50.5304ZM344.192 50.5304V86.4143H308.309H272.425V50.5304V14.6465H308.309H344.192V50.5304ZM29.293 50.5304V71.7678H50.5304H71.7678V50.5304V29.293H50.5304H29.293V50.5304ZM287.071 50.5304V71.7678H308.309H329.546V50.5304V29.293H308.309H287.071V50.5304ZM114.865 73.7216C114.454 74.7952 114.31 81.2221 114.546 88.0019L114.975 100.328L121.932 100.775L128.889 101.222V86.4948V71.7678H122.253C118.073 71.7678 115.338 72.4913 114.865 73.7216ZM1.04576 115.151C0.470153 115.725 0 122.346 0 129.866V143.536H7.37597H14.7519L14.3331 129.255L13.9142 114.975L8.00284 114.54C4.75132 114.301 1.6199 114.575 1.04576 115.151ZM329.546 136.212V143.536H322.955H316.364V136.212V128.889H322.955H329.546V136.212ZM86.4143 150.859V158.182H93.8181H101.222L100.775 165.139L100.328 172.096L93.3713 172.543L86.4143 172.99V179.419V185.849L93.3713 186.296L100.328 186.743L100.775 193.7L101.222 200.657H115.055H128.889V207.98V215.303H136.212H143.536V207.98V200.657H150.859H158.182V193.253V185.849L165.139 186.296L172.096 186.743L172.515 201.023L172.934 215.303H165.558H158.182V222.627V229.95H150.859H143.536V236.541V243.132H136.212H128.889V229.217V215.303H115.055H101.222L100.775 222.26L100.328 229.217L93.3713 229.664L86.4143 230.111V222.707V215.303H93.7375H101.061V207.98V200.657H86.4143H71.7678V193.334V186.01H43.2071H14.6465V179.419V172.829H35.8839H57.1213V165.505V158.182H64.4445H71.7678V150.859V143.536H79.091H86.4143V150.859ZM71.7678 165.505V172.829H79.091H86.4143V165.505V158.182H79.091H71.7678V165.505ZM128.889 179.419V186.01H122.298H115.707V179.419V172.829H122.298H128.889V179.419ZM272.425 222.707V230.111L265.468 229.664L258.51 229.217L258.064 222.26L257.617 215.303H265.021H272.425V222.707ZM186.987 244.109C186.45 244.645 186.01 247.94 186.01 251.432V257.778H193.334H200.657V250.455V243.132H194.311C190.819 243.132 187.523 243.571 186.987 244.109ZM287.071 265.834V287.071H265.834H244.596V265.834V244.596H265.834H287.071V265.834ZM344.192 258.51V272.425H336.869H329.546V279.748V287.071H336.869H344.192V294.394V301.718H330.278H316.364V294.394V287.071H309.041H301.718V279.748V272.425H309.041H316.364V265.101V257.778H322.955H329.546V251.187V244.596H336.869H344.192V258.51ZM0 308.289V358.839H50.5494H101.099L100.714 308.675L100.328 258.51L50.1642 258.125L0 257.74V308.289ZM258.755 258.755C258.218 259.291 257.778 262.587 257.778 266.078V272.425H265.101H272.425V265.101V257.778H266.078C262.587 257.778 259.291 258.218 258.755 258.755ZM86.4143 308.309V344.192H50.5304H14.6465V308.309V272.425H50.5304H86.4143V308.309ZM29.293 308.309V329.546H50.5304H71.7678V308.309V287.071H50.5304H29.293V308.309ZM344.192 351.516V358.839H351.516H358.839V351.516V344.192H351.516H344.192V351.516Z"/>
</mask>
<path fill-rule="evenodd" clip-rule="evenodd" d="M0 50.5494V101.099L50.1642 100.714L100.328 100.328L100.714 50.1642L101.099 0H50.5494H0V50.5494ZM114.826 2.05783C114.392 3.18854 114.247 6.31996 114.506 9.01491C114.959 13.7443 115.217 13.9303 121.932 14.3609L128.889 14.8076V22.0503V29.293H121.485H114.081L114.528 36.2501L114.975 43.2071L121.932 43.6538L128.889 44.1006V50.5714V57.0437L150.493 57.4479L172.096 57.8536V79.091V100.328L165.139 100.775L158.182 101.222V86.4948V71.7678H150.859H143.536V86.4143V101.061H150.859H158.182V107.599V114.137L143.902 114.556L129.621 114.975L129.175 121.932L128.728 128.889H136.132H143.536V136.212V143.536H150.859H158.182V129.621V115.707H172.065H185.949L186.346 86.7804L186.743 57.8536L193.7 57.4069L200.657 56.9602V79.0105V101.061H207.98H215.303V108.384V115.707H222.627H229.95V122.298V128.889H222.627H215.303V136.212V143.536H207.98H200.657V136.132V128.728L193.7 129.175L186.743 129.621L186.296 136.578L185.849 143.536H193.253H200.657V158.182V172.829H207.98H215.303V165.505V158.182H229.137H242.971L243.417 165.139L243.864 172.096L250.821 172.543L257.778 172.99V194.146V215.303H243.864H229.95V207.98V200.657H237.354H244.757L244.311 193.7L243.864 186.743L229.584 186.324L215.303 185.905V193.281V200.657H207.98H200.657V193.334V186.01H193.334H186.01V172.096V158.182H179.5H172.99L172.543 165.139L172.096 172.096L165.139 172.543L158.182 172.99V179.5V186.01H150.859H143.536V172.096V158.182H122.298H101.061V150.859V143.536H93.7375H86.4143V136.212V128.889H101.141H115.868L115.422 121.932L114.975 114.975L100.695 114.556L86.4143 114.137V121.513V128.889H65.2574H44.1006L43.6538 121.932L43.2071 114.975L36.2501 114.528L29.293 114.081V121.485V128.889H35.8839H42.4748V136.212V143.536H35.8839H29.293V150.859V158.182H21.9697H14.6465V165.505V172.829H7.32324H0V186.743V200.657H21.2374H42.4748V207.98V215.303H49.7981H57.1213V222.627V229.95H43.2071H29.293V222.627V215.303H14.6465H0V222.627V229.95H14.6465H29.293V237.273V244.596H43.2071H57.1213V237.273V229.95H71.7678H86.4143V237.273V244.596H100.328H114.243V258.51V272.425H121.485H128.728L129.175 265.468L129.621 258.51L143.902 258.092L158.182 257.673V265.049V272.425H165.586H172.99L172.543 265.468L172.096 258.51L165.139 258.064L158.182 257.617V243.783V229.95H172.096H186.01V222.627V215.303H193.334H200.657V222.627V229.95H215.303H229.95V251.187V272.425H222.627H215.303V287.071V301.718H243.783H272.264L272.71 308.675L273.157 315.632L280.114 316.078L287.071 316.525V323.036V329.546H272.425H257.778V322.142V314.738L250.821 315.185L243.864 315.632L243.417 322.589L242.971 329.546H236.541H230.111L229.664 322.589L229.217 315.632L222.26 315.185L215.303 314.738V322.142V329.546H207.98H200.657V336.869V344.192H193.334H186.01V315.632V287.071H172.096H158.182V294.394V301.718H165.505H172.829V315.632V329.546H158.182H143.536V315.632V301.718H136.212H128.889V308.228V314.738L121.932 315.185L114.975 315.632L114.528 322.589L114.081 329.546H121.485H128.889V336.869V344.192H121.485H114.081L114.528 351.15L114.975 358.107L121.932 358.553L128.889 359V351.596V344.192H150.859H172.829V351.516V358.839H194.066H215.303V351.516V344.192H222.627H229.95V351.596V359L236.907 358.553L243.864 358.107L244.311 351.15L244.757 344.192H273.237H301.718V351.596V359L308.675 358.553L315.632 358.107L316.078 351.15L316.525 344.192H309.121H301.718V330.278V316.364H315.632H329.546V322.955V329.546H344.273H359L358.553 322.589L358.107 315.632L351.15 315.185L344.192 314.738V308.228V301.718H351.546H358.9L358.504 272.791L358.107 243.864L351.15 243.417L344.192 242.971V236.46V229.95H336.869H329.546V236.46V242.971L322.589 243.417L315.632 243.864L315.185 250.821L314.738 257.778H308.228H301.718V243.864V229.95H294.394H287.071V222.627V215.303H308.309H329.546V207.98V200.657H336.869H344.192V207.98V215.303H351.516H358.839V194.066V172.829H351.516H344.192V179.419V186.01H336.869H329.546V193.334V200.657H300.985H272.425V193.334V186.01H279.748H287.071V179.472V172.934L301.351 172.515L315.632 172.096L316.078 165.139L316.525 158.182H323.036H329.546V150.859V143.536H336.869H344.192V150.859V158.182H351.555H358.917L358.512 136.578L358.107 114.975L351.15 114.528L344.192 114.081V121.485V128.889H336.869H329.546V121.485V114.081L322.589 114.528L315.632 114.975L315.185 121.932L314.738 128.889H308.228H301.718V143.536V158.182H294.434H287.149L286.744 136.578L286.339 114.975H279.748H273.157L272.713 121.854L272.271 128.735L265.39 129.178L258.51 129.621L258.064 136.578L257.617 143.536H265.021H272.425V158.263V172.99L265.468 172.543L258.51 172.096L258.064 165.139L257.617 158.182H251.129H244.64L244.252 115.341L243.864 72.5001L236.961 72.0563L230.058 71.6111L229.638 85.9705L229.217 100.328L222.26 100.775L215.303 101.222V72.5807V43.9395H222.627H229.95V50.5304V57.1213H237.354H244.757L244.311 50.1642L243.864 43.2071L236.907 42.7604L229.95 42.3137V35.8033V29.293H222.627H215.303V35.8839V42.4748H207.98H200.657V35.8839V29.293H193.334H186.01V35.8839V42.4748H164.773H143.536V28.5606V14.6465H150.859H158.182V22.0503V29.4541L165.139 29.0074L172.096 28.5606L172.543 21.6036L172.99 14.6465H194.146H215.303V7.32324V0H179.419H143.536V7.32324V14.6465H136.212H128.889V7.32324V0H122.253C117.904 0 115.343 0.708888 114.826 2.05783ZM258.125 50.1642L258.51 100.328L308.675 100.714L358.839 101.099V50.5494V0H308.289H257.74L258.125 50.1642ZM86.4143 50.5304V86.4143H50.5304H14.6465V50.5304V14.6465H50.5304H86.4143V50.5304ZM344.192 50.5304V86.4143H308.309H272.425V50.5304V14.6465H308.309H344.192V50.5304ZM29.293 50.5304V71.7678H50.5304H71.7678V50.5304V29.293H50.5304H29.293V50.5304ZM287.071 50.5304V71.7678H308.309H329.546V50.5304V29.293H308.309H287.071V50.5304ZM114.865 73.7216C114.454 74.7952 114.31 81.2221 114.546 88.0019L114.975 100.328L121.932 100.775L128.889 101.222V86.4948V71.7678H122.253C118.073 71.7678 115.338 72.4913 114.865 73.7216ZM1.04576 115.151C0.470153 115.725 0 122.346 0 129.866V143.536H7.37597H14.7519L14.3331 129.255L13.9142 114.975L8.00284 114.54C4.75132 114.301 1.6199 114.575 1.04576 115.151ZM329.546 136.212V143.536H322.955H316.364V136.212V128.889H322.955H329.546V136.212ZM86.4143 150.859V158.182H93.8181H101.222L100.775 165.139L100.328 172.096L93.3713 172.543L86.4143 172.99V179.419V185.849L93.3713 186.296L100.328 186.743L100.775 193.7L101.222 200.657H115.055H128.889V207.98V215.303H136.212H143.536V207.98V200.657H150.859H158.182V193.253V185.849L165.139 186.296L172.096 186.743L172.515 201.023L172.934 215.303H165.558H158.182V222.627V229.95H150.859H143.536V236.541V243.132H136.212H128.889V229.217V215.303H115.055H101.222L100.775 222.26L100.328 229.217L93.3713 229.664L86.4143 230.111V222.707V215.303H93.7375H101.061V207.98V200.657H86.4143H71.7678V193.334V186.01H43.2071H14.6465V179.419V172.829H35.8839H57.1213V165.505V158.182H64.4445H71.7678V150.859V143.536H79.091H86.4143V150.859ZM71.7678 165.505V172.829H79.091H86.4143V165.505V158.182H79.091H71.7678V165.505ZM128.889 179.419V186.01H122.298H115.707V179.419V172.829H122.298H128.889V179.419ZM272.425 222.707V230.111L265.468 229.664L258.51 229.217L258.064 222.26L257.617 215.303H265.021H272.425V222.707ZM186.987 244.109C186.45 244.645 186.01 247.94 186.01 251.432V257.778H193.334H200.657V250.455V243.132H194.311C190.819 243.132 187.523 243.571 186.987 244.109ZM287.071 265.834V287.071H265.834H244.596V265.834V244.596H265.834H287.071V265.834ZM344.192 258.51V272.425H336.869H329.546V279.748V287.071H336.869H344.192V294.394V301.718H330.278H316.364V294.394V287.071H309.041H301.718V279.748V272.425H309.041H316.364V265.101V257.778H322.955H329.546V251.187V244.596H336.869H344.192V258.51ZM0 308.289V358.839H50.5494H101.099L100.714 308.675L100.328 258.51L50.1642 258.125L0 257.74V308.289ZM258.755 258.755C258.218 259.291 257.778 262.587 257.778 266.078V272.425H265.101H272.425V265.101V257.778H266.078C262.587 257.778 259.291 258.218 258.755 258.755ZM86.4143 308.309V344.192H50.5304H14.6465V308.309V272.425H50.5304H86.4143V308.309ZM29.293 308.309V329.546H50.5304H71.7678V308.309V287.071H50.5304H29.293V308.309ZM344.192 351.516V358.839H351.516H358.839V351.516V344.192H351.516H344.192V351.516Z" fill="#047FCF"/>
<path d="M0 101.099H-2V103.114L0.0153575 103.099L0 101.099ZM50.1642 100.714L50.1489 98.7137L50.1489 98.7137L50.1642 100.714ZM100.328 100.328L100.344 102.328L102.313 102.313L102.328 100.344L100.328 100.328ZM100.714 50.1642L98.7137 50.1489L98.7137 50.1489L100.714 50.1642ZM101.099 0L103.099 0.0153575L103.114 -2H101.099V0ZM0 0V-2H-2V0H0ZM114.826 2.05783L116.693 2.77384L116.693 2.77361L114.826 2.05783ZM114.506 9.01491L116.497 8.82439L116.497 8.8234L114.506 9.01491ZM121.932 14.3609L122.06 12.365L122.06 12.365L121.932 14.3609ZM128.889 14.8076H130.889V12.9319L129.017 12.8117L128.889 14.8076ZM128.889 29.293V31.293H130.889V29.293H128.889ZM114.081 29.293V27.293H111.949L112.086 29.4211L114.081 29.293ZM114.528 36.2501L112.532 36.3782L112.532 36.3782L114.528 36.2501ZM114.975 43.2071L112.979 43.3353L113.092 45.0903L114.847 45.203L114.975 43.2071ZM121.932 43.6538L122.06 41.658L122.06 41.658L121.932 43.6538ZM128.889 44.1006H130.889V42.2249L129.017 42.1047L128.889 44.1006ZM128.889 57.0437H126.889V59.0066L128.852 59.0433L128.889 57.0437ZM150.493 57.4479L150.53 55.4483L150.53 55.4483L150.493 57.4479ZM172.096 57.8536H174.096V55.8908L172.134 55.854L172.096 57.8536ZM172.096 100.328L172.224 102.324L174.096 102.204V100.328H172.096ZM165.139 100.775L165.011 98.7793L165.011 98.7793L165.139 100.775ZM158.182 101.222H156.182V103.354L158.31 103.218L158.182 101.222ZM158.182 71.7678H160.182V69.7678H158.182V71.7678ZM143.536 71.7678V69.7678H141.536V71.7678H143.536ZM143.536 101.061H141.536V103.061H143.536V101.061ZM158.182 101.061H160.182V99.0608H158.182V101.061ZM158.182 114.137L158.241 116.136L160.182 116.079V114.137H158.182ZM143.902 114.556L143.843 112.557L143.843 112.557L143.902 114.556ZM129.621 114.975L129.563 112.976L127.742 113.029L127.626 114.847L129.621 114.975ZM129.175 121.932L131.171 122.06L131.171 122.06L129.175 121.932ZM128.728 128.889L126.732 128.761L126.595 130.889H128.728V128.889ZM143.536 128.889H145.536V126.889H143.536V128.889ZM143.536 143.536H141.536V145.536H143.536V143.536ZM158.182 143.536V145.536H160.182V143.536H158.182ZM158.182 115.707V113.707H156.182V115.707H158.182ZM185.949 115.707V117.707H187.922L187.949 115.735L185.949 115.707ZM186.346 86.7804L188.346 86.8079L188.346 86.8079L186.346 86.7804ZM186.743 57.8536L186.615 55.8577L184.768 55.9763L184.743 57.8262L186.743 57.8536ZM193.7 57.4069L193.828 59.4028L193.828 59.4028L193.7 57.4069ZM200.657 56.9602H202.657V54.8276L200.529 54.9643L200.657 56.9602ZM200.657 101.061H198.657V103.061H200.657V101.061ZM215.303 101.061H217.303V99.0608H215.303V101.061ZM215.303 115.707H213.303V117.707H215.303V115.707ZM229.95 115.707H231.95V113.707H229.95V115.707ZM229.95 128.889V130.889H231.95V128.889H229.95ZM215.303 128.889V126.889H213.303V128.889H215.303ZM215.303 143.536V145.536H217.303V143.536H215.303ZM200.657 128.728H202.657V126.595L200.529 126.732L200.657 128.728ZM193.7 129.175L193.828 131.171L193.828 131.171L193.7 129.175ZM186.743 129.621L186.615 127.626L184.859 127.738L184.747 129.493L186.743 129.621ZM186.296 136.578L188.292 136.707L188.292 136.707L186.296 136.578ZM185.849 143.536L183.853 143.407L183.717 145.536H185.849V143.536ZM200.657 172.829H198.657V174.829H200.657V172.829ZM215.303 172.829V174.829H217.303V172.829H215.303ZM215.303 158.182V156.182H213.303V158.182H215.303ZM242.971 158.182L244.966 158.054L244.846 156.182H242.971V158.182ZM243.417 165.139L245.413 165.011L245.413 165.011L243.417 165.139ZM243.864 172.096L241.868 172.224L241.981 173.979L243.736 174.092L243.864 172.096ZM250.821 172.543L250.949 170.547L250.949 170.547L250.821 172.543ZM257.778 172.99H259.778V171.114L257.906 170.994L257.778 172.99ZM257.778 215.303V217.303H259.778V215.303H257.778ZM229.95 215.303H227.95V217.303H229.95V215.303ZM229.95 200.657V198.657H227.95V200.657H229.95ZM244.757 200.657V202.657H246.89L246.753 200.529L244.757 200.657ZM244.311 193.7L242.315 193.828L242.315 193.828L244.311 193.7ZM243.864 186.743L245.86 186.615L245.743 184.797L243.923 184.744L243.864 186.743ZM229.584 186.324L229.525 188.323L229.525 188.323L229.584 186.324ZM215.303 185.905L215.362 183.906L213.303 183.845V185.905H215.303ZM215.303 200.657V202.657H217.303V200.657H215.303ZM200.657 200.657H198.657V202.657H200.657V200.657ZM200.657 186.01H202.657V184.01H200.657V186.01ZM186.01 186.01H184.01V188.01H186.01V186.01ZM186.01 158.182H188.01V156.182H186.01V158.182ZM172.99 158.182V156.182H171.114L170.994 158.054L172.99 158.182ZM172.543 165.139L170.547 165.011L170.547 165.011L172.543 165.139ZM172.096 172.096L172.224 174.092L173.979 173.979L174.092 172.224L172.096 172.096ZM165.139 172.543L165.011 170.547L165.011 170.547L165.139 172.543ZM158.182 172.99L158.054 170.994L156.182 171.114V172.99H158.182ZM158.182 186.01V188.01H160.182V186.01H158.182ZM143.536 186.01H141.536V188.01H143.536V186.01ZM143.536 158.182H145.536V156.182H143.536V158.182ZM101.061 158.182H99.0608V160.182H101.061V158.182ZM101.061 143.536H103.061V141.536H101.061V143.536ZM115.868 128.889V130.889H118.001L117.864 128.761L115.868 128.889ZM115.422 121.932L113.426 122.06L113.426 122.06L115.422 121.932ZM114.975 114.975L116.971 114.847L116.854 113.029L115.034 112.976L114.975 114.975ZM100.695 114.556L100.753 112.557L100.753 112.557L100.695 114.556ZM86.4143 114.137L86.4729 112.138L84.4143 112.078V114.137H86.4143ZM44.1006 128.889L42.1047 129.017L42.2249 130.889H44.1006V128.889ZM43.6538 121.932L41.658 122.06L41.658 122.06L43.6538 121.932ZM43.2071 114.975L45.203 114.847L45.0903 113.092L43.3353 112.979L43.2071 114.975ZM36.2501 114.528L36.3782 112.532L36.3782 112.532L36.2501 114.528ZM29.293 114.081L29.4211 112.086L27.293 111.949V114.081H29.293ZM29.293 128.889H27.293V130.889H29.293V128.889ZM42.4748 128.889H44.4748V126.889H42.4748V128.889ZM42.4748 143.536V145.536H44.4748V143.536H42.4748ZM29.293 143.536V141.536H27.293V143.536H29.293ZM29.293 158.182V160.182H31.293V158.182H29.293ZM14.6465 158.182V156.182H12.6465V158.182H14.6465ZM0 172.829V170.829H-2V172.829H0ZM0 200.657H-2V202.657H0V200.657ZM42.4748 200.657H44.4748V198.657H42.4748V200.657ZM42.4748 215.303H40.4748V217.303H42.4748V215.303ZM57.1213 215.303H59.1213V213.303H57.1213V215.303ZM29.293 215.303H31.293V213.303H29.293V215.303ZM0 215.303V213.303H-2V215.303H0ZM0 229.95H-2V231.95H0V229.95ZM29.293 244.596H27.293V246.596H29.293V244.596ZM57.1213 244.596V246.596H59.1213V244.596H57.1213ZM86.4143 229.95H88.4143V227.95H86.4143V229.95ZM86.4143 244.596H84.4143V246.596H86.4143V244.596ZM114.243 244.596H116.243V242.596H114.243V244.596ZM114.243 272.425H112.243V274.425H114.243V272.425ZM128.728 272.425V274.425H130.604L130.724 272.553L128.728 272.425ZM129.175 265.468L127.179 265.339L127.179 265.339L129.175 265.468ZM129.621 258.51L129.563 256.511L127.742 256.565L127.626 258.382L129.621 258.51ZM158.182 257.673H160.182V255.613L158.123 255.674L158.182 257.673ZM158.182 272.425H156.182V274.425H158.182V272.425ZM172.99 272.425V274.425H175.122L174.986 272.296L172.99 272.425ZM172.543 265.468L170.547 265.596L170.547 265.596L172.543 265.468ZM172.096 258.51L174.092 258.382L173.979 256.627L172.224 256.515L172.096 258.51ZM165.139 258.064L165.011 260.06L165.011 260.06L165.139 258.064ZM158.182 257.617H156.182V259.493L158.054 259.613L158.182 257.617ZM186.01 229.95V231.95H188.01V229.95H186.01ZM186.01 215.303V213.303H184.01V215.303H186.01ZM200.657 215.303H202.657V213.303H200.657V215.303ZM200.657 229.95H198.657V231.95H200.657V229.95ZM229.95 229.95H231.95V227.95H229.95V229.95ZM229.95 272.425V274.425H231.95V272.425H229.95ZM215.303 272.425V270.425H213.303V272.425H215.303ZM215.303 301.718H213.303V303.718H215.303V301.718ZM272.264 301.718L274.259 301.589L274.139 299.718H272.264V301.718ZM272.71 308.675L274.706 308.547L274.706 308.547L272.71 308.675ZM273.157 315.632L271.161 315.76L271.274 317.515L273.029 317.628L273.157 315.632ZM280.114 316.078L280.242 314.083L280.242 314.083L280.114 316.078ZM287.071 316.525H289.071V314.65L287.199 314.529L287.071 316.525ZM287.071 329.546V331.546H289.071V329.546H287.071ZM257.778 329.546H255.778V331.546H257.778V329.546ZM257.778 314.738H259.778V312.606L257.65 312.742L257.778 314.738ZM250.821 315.185L250.949 317.181L250.949 317.181L250.821 315.185ZM243.864 315.632L243.736 313.636L241.981 313.749L241.868 315.504L243.864 315.632ZM243.417 322.589L245.413 322.717L245.413 322.717L243.417 322.589ZM242.971 329.546V331.546H244.846L244.966 329.674L242.971 329.546ZM230.111 329.546L228.115 329.674L228.235 331.546H230.111V329.546ZM229.664 322.589L227.668 322.717L227.668 322.717L229.664 322.589ZM229.217 315.632L231.213 315.504L231.101 313.749L229.346 313.636L229.217 315.632ZM222.26 315.185L222.132 317.181L222.132 317.181L222.26 315.185ZM215.303 314.738L215.431 312.742L213.303 312.606V314.738H215.303ZM215.303 329.546V331.546H217.303V329.546H215.303ZM200.657 329.546V327.546H198.657V329.546H200.657ZM200.657 344.192V346.192H202.657V344.192H200.657ZM186.01 344.192H184.01V346.192H186.01V344.192ZM186.01 287.071H188.01V285.071H186.01V287.071ZM158.182 287.071V285.071H156.182V287.071H158.182ZM158.182 301.718H156.182V303.718H158.182V301.718ZM172.829 301.718H174.829V299.718H172.829V301.718ZM172.829 329.546V331.546H174.829V329.546H172.829ZM143.536 329.546H141.536V331.546H143.536V329.546ZM143.536 301.718H145.536V299.718H143.536V301.718ZM128.889 301.718V299.718H126.889V301.718H128.889ZM128.889 314.738L129.017 316.734L130.889 316.614V314.738H128.889ZM121.932 315.185L122.06 317.181L122.06 317.181L121.932 315.185ZM114.975 315.632L114.847 313.636L113.092 313.749L112.979 315.504L114.975 315.632ZM114.528 322.589L112.532 322.461L112.532 322.461L114.528 322.589ZM114.081 329.546L112.086 329.418L111.949 331.546H114.081V329.546ZM128.889 329.546H130.889V327.546H128.889V329.546ZM114.081 344.192V342.192H111.949L112.086 344.321L114.081 344.192ZM114.528 351.15L112.532 351.278L112.532 351.278L114.528 351.15ZM114.975 358.107L112.979 358.235L113.092 359.99L114.847 360.102L114.975 358.107ZM121.932 358.553L122.06 356.557L122.06 356.557L121.932 358.553ZM128.889 359L128.761 360.996L130.889 361.133V359H128.889ZM172.829 344.192H174.829V342.192H172.829V344.192ZM172.829 358.839H170.829V360.839H172.829V358.839ZM215.303 358.839V360.839H217.303V358.839H215.303ZM215.303 344.192V342.192H213.303V344.192H215.303ZM229.95 344.192H231.95V342.192H229.95V344.192ZM229.95 359H227.95V361.133L230.078 360.996L229.95 359ZM236.907 358.553L236.779 356.557L236.779 356.557L236.907 358.553ZM243.864 358.107L243.992 360.102L245.747 359.99L245.86 358.235L243.864 358.107ZM244.311 351.15L242.315 351.021L242.315 351.021L244.311 351.15ZM244.757 344.192V342.192H242.882L242.762 344.064L244.757 344.192ZM301.718 359H299.718V361.133L301.846 360.996L301.718 359ZM308.675 358.553L308.547 356.557L308.547 356.557L308.675 358.553ZM315.632 358.107L315.76 360.102L317.515 359.99L317.628 358.235L315.632 358.107ZM316.078 351.15L314.083 351.021L314.083 351.021L316.078 351.15ZM316.525 344.192L318.521 344.321L318.658 342.192H316.525V344.192ZM301.718 316.364V314.364H299.718V316.364H301.718ZM329.546 316.364H331.546V314.364H329.546V316.364ZM329.546 329.546H327.546V331.546H329.546V329.546ZM359 329.546V331.546H361.133L360.996 329.418L359 329.546ZM358.553 322.589L356.557 322.717L356.557 322.717L358.553 322.589ZM358.107 315.632L360.102 315.504L359.99 313.749L358.235 313.636L358.107 315.632ZM351.15 315.185L351.021 317.181L351.021 317.181L351.15 315.185ZM344.192 314.738H342.192V316.614L344.064 316.734L344.192 314.738ZM358.9 301.718V303.718H360.928L360.9 301.69L358.9 301.718ZM358.504 272.791L360.503 272.763L360.503 272.763L358.504 272.791ZM358.107 243.864L360.106 243.837L360.081 241.987L358.235 241.868L358.107 243.864ZM351.15 243.417L351.278 241.421L351.278 241.421L351.15 243.417ZM344.192 242.971H342.192V244.846L344.064 244.966L344.192 242.971ZM344.192 229.95H346.192V227.95H344.192V229.95ZM329.546 229.95V227.95H327.546V229.95H329.546ZM329.546 242.971L329.674 244.966L331.546 244.846V242.971H329.546ZM322.589 243.417L322.717 245.413L322.717 245.413L322.589 243.417ZM315.632 243.864L315.504 241.868L313.749 241.981L313.636 243.736L315.632 243.864ZM315.185 250.821L317.181 250.949L317.181 250.949L315.185 250.821ZM314.738 257.778V259.778H316.614L316.734 257.906L314.738 257.778ZM301.718 257.778H299.718V259.778H301.718V257.778ZM301.718 229.95H303.718V227.95H301.718V229.95ZM287.071 229.95H285.071V231.95H287.071V229.95ZM287.071 215.303V213.303H285.071V215.303H287.071ZM329.546 215.303V217.303H331.546V215.303H329.546ZM344.192 200.657H346.192V198.657H344.192V200.657ZM344.192 215.303H342.192V217.303H344.192V215.303ZM358.839 215.303V217.303H360.839V215.303H358.839ZM358.839 172.829H360.839V170.829H358.839V172.829ZM344.192 172.829V170.829H342.192V172.829H344.192ZM344.192 186.01V188.01H346.192V186.01H344.192ZM329.546 186.01V184.01H327.546V186.01H329.546ZM272.425 200.657H270.425V202.657H272.425V200.657ZM272.425 186.01V184.01H270.425V186.01H272.425ZM287.071 186.01V188.01H289.071V186.01H287.071ZM287.071 172.934L287.012 170.935L285.071 170.992V172.934H287.071ZM301.351 172.515L301.293 170.516L301.293 170.516L301.351 172.515ZM315.632 172.096L315.69 174.095L317.511 174.042L317.628 172.224L315.632 172.096ZM316.078 165.139L314.083 165.011L314.083 165.011L316.078 165.139ZM316.525 158.182V156.182H314.65L314.529 158.054L316.525 158.182ZM329.546 158.182V160.182H331.546V158.182H329.546ZM344.192 143.536H346.192V141.536H344.192V143.536ZM344.192 158.182H342.192V160.182H344.192V158.182ZM358.917 158.182V160.182H360.954L360.916 158.145L358.917 158.182ZM358.512 136.578L360.512 136.541L360.512 136.541L358.512 136.578ZM358.107 114.975L360.106 114.937L360.072 113.097L358.235 112.979L358.107 114.975ZM351.15 114.528L351.278 112.532L351.278 112.532L351.15 114.528ZM344.192 114.081L344.321 112.086L342.192 111.949V114.081H344.192ZM344.192 128.889V130.889H346.192V128.889H344.192ZM329.546 114.081H331.546V111.949L329.418 112.086L329.546 114.081ZM322.589 114.528L322.461 112.532L322.461 112.532L322.589 114.528ZM315.632 114.975L315.504 112.979L313.749 113.092L313.636 114.847L315.632 114.975ZM315.185 121.932L317.181 122.06L317.181 122.06L315.185 121.932ZM314.738 128.889V130.889H316.614L316.734 129.017L314.738 128.889ZM301.718 128.889V126.889H299.718V128.889H301.718ZM301.718 158.182V160.182H303.718V158.182H301.718ZM287.149 158.182L285.149 158.219L285.186 160.182H287.149V158.182ZM286.744 136.578L288.744 136.541L288.744 136.541L286.744 136.578ZM286.339 114.975L288.338 114.937L288.302 112.975H286.339V114.975ZM273.157 114.975V112.975H271.282L271.161 114.846L273.157 114.975ZM272.713 121.854L270.717 121.726L270.717 121.726L272.713 121.854ZM272.271 128.735L272.399 130.731L274.154 130.618L274.267 128.864L272.271 128.735ZM265.39 129.178L265.262 127.182L265.261 127.182L265.39 129.178ZM258.51 129.621L258.382 127.626L256.627 127.739L256.515 129.493L258.51 129.621ZM258.064 136.578L260.06 136.707L260.06 136.707L258.064 136.578ZM257.617 143.536L255.621 143.407L255.484 145.536H257.617V143.536ZM272.425 143.536H274.425V141.536H272.425V143.536ZM272.425 172.99L272.296 174.986L274.425 175.122V172.99H272.425ZM265.468 172.543L265.596 170.547L265.596 170.547L265.468 172.543ZM258.51 172.096L256.515 172.224L256.627 173.979L258.382 174.092L258.51 172.096ZM258.064 165.139L260.06 165.011L260.06 165.011L258.064 165.139ZM257.617 158.182L259.613 158.054L259.493 156.182H257.617V158.182ZM244.64 158.182L242.64 158.2L242.658 160.182H244.64V158.182ZM244.252 115.341L242.252 115.359L242.252 115.359L244.252 115.341ZM243.864 72.5001L245.864 72.482L245.847 70.6235L243.992 70.5042L243.864 72.5001ZM236.961 72.0563L236.832 74.0522L236.833 74.0522L236.961 72.0563ZM230.058 71.6111L230.187 69.6152L228.12 69.4819L228.059 71.5525L230.058 71.6111ZM229.638 85.9705L231.637 86.029L231.637 86.029L229.638 85.9705ZM229.217 100.328L229.346 102.324L231.163 102.208L231.217 100.387L229.217 100.328ZM222.26 100.775L222.389 102.771L222.389 102.771L222.26 100.775ZM215.303 101.222H213.303V103.354L215.431 103.218L215.303 101.222ZM215.303 43.9395V41.9395H213.303V43.9395H215.303ZM229.95 43.9395H231.95V41.9395H229.95V43.9395ZM229.95 57.1213H227.95V59.1213H229.95V57.1213ZM244.757 57.1213V59.1213H246.89L246.753 56.9931L244.757 57.1213ZM244.311 50.1642L242.315 50.2924L242.315 50.2924L244.311 50.1642ZM243.864 43.2071L245.86 43.079L245.747 41.3239L243.992 41.2112L243.864 43.2071ZM236.907 42.7604L236.779 44.7563L236.779 44.7563L236.907 42.7604ZM229.95 42.3137H227.95V44.1894L229.822 44.3096L229.95 42.3137ZM229.95 29.293H231.95V27.293H229.95V29.293ZM215.303 29.293V27.293H213.303V29.293H215.303ZM215.303 42.4748V44.4748H217.303V42.4748H215.303ZM200.657 42.4748H198.657V44.4748H200.657V42.4748ZM200.657 29.293H202.657V27.293H200.657V29.293ZM186.01 29.293V27.293H184.01V29.293H186.01ZM186.01 42.4748V44.4748H188.01V42.4748H186.01ZM143.536 42.4748H141.536V44.4748H143.536V42.4748ZM158.182 14.6465H160.182V12.6465H158.182V14.6465ZM158.182 29.4541H156.182V31.5866L158.31 31.45L158.182 29.4541ZM165.139 29.0074L165.011 27.0115L165.011 27.0115L165.139 29.0074ZM172.096 28.5606L172.224 30.5565L173.979 30.4438L174.092 28.6888L172.096 28.5606ZM172.543 21.6036L170.547 21.4754L170.547 21.4754L172.543 21.6036ZM172.99 14.6465V12.6465H171.114L170.994 14.5183L172.99 14.6465ZM215.303 14.6465V16.6465H217.303V14.6465H215.303ZM215.303 0H217.303V-2H215.303V0ZM143.536 0V-2H141.536V0H143.536ZM128.889 14.6465H126.889V16.6465H128.889V14.6465ZM128.889 0H130.889V-2H128.889V0ZM258.51 100.328L256.511 100.344L256.526 102.313L258.495 102.328L258.51 100.328ZM308.675 100.714L308.69 98.7137L308.69 98.7137L308.675 100.714ZM358.839 101.099L358.824 103.099L360.839 103.114V101.099H358.839ZM358.839 0H360.839V-2H358.839V0ZM257.74 0V-2H255.725L255.74 0.0153575L257.74 0ZM86.4143 86.4143V88.4143H88.4143V86.4143H86.4143ZM14.6465 86.4143H12.6465V88.4143H14.6465V86.4143ZM14.6465 14.6465V12.6465H12.6465V14.6465H14.6465ZM86.4143 14.6465H88.4143V12.6465H86.4143V14.6465ZM344.192 86.4143V88.4143H346.192V86.4143H344.192ZM272.425 86.4143H270.425V88.4143H272.425V86.4143ZM272.425 14.6465V12.6465H270.425V14.6465H272.425ZM344.192 14.6465H346.192V12.6465H344.192V14.6465ZM29.293 71.7678H27.293V73.7678H29.293V71.7678ZM71.7678 71.7678V73.7678H73.7678V71.7678H71.7678ZM71.7678 29.293H73.7678V27.293H71.7678V29.293ZM29.293 29.293V27.293H27.293V29.293H29.293ZM287.071 71.7678H285.071V73.7678H287.071V71.7678ZM329.546 71.7678V73.7678H331.546V71.7678H329.546ZM329.546 29.293H331.546V27.293H329.546V29.293ZM287.071 29.293V27.293H285.071V29.293H287.071ZM114.865 73.7216L112.998 73.0038L112.998 73.0057L114.865 73.7216ZM114.546 88.0019L112.547 88.0715L112.547 88.0715L114.546 88.0019ZM114.975 100.328L112.976 100.398L113.039 102.208L114.847 102.324L114.975 100.328ZM121.932 100.775L122.06 98.7793L122.06 98.7793L121.932 100.775ZM128.889 101.222L128.761 103.218L130.889 103.354V101.222H128.889ZM128.889 71.7678H130.889V69.7678H128.889V71.7678ZM1.04576 115.151L2.45818 116.567L2.46177 116.563L1.04576 115.151ZM0 143.536H-2V145.536H0V143.536ZM14.7519 143.536V145.536H16.8115L16.7511 143.477L14.7519 143.536ZM14.3331 129.255L16.3322 129.197L16.3322 129.197L14.3331 129.255ZM13.9142 114.975L15.9133 114.916L15.8604 113.113L14.0609 112.98L13.9142 114.975ZM8.00284 114.54L8.14962 112.545L8.14929 112.545L8.00284 114.54ZM316.364 143.536H314.364V145.536H316.364V143.536ZM316.364 128.889V126.889H314.364V128.889H316.364ZM101.222 158.182L103.218 158.31L103.354 156.182H101.222V158.182ZM100.775 165.139L98.7793 165.011L98.7793 165.011L100.775 165.139ZM100.328 172.096L100.457 174.092L102.212 173.979L102.324 172.224L100.328 172.096ZM93.3713 172.543L93.2432 170.547L93.2432 170.547L93.3713 172.543ZM86.4143 172.99L86.2861 170.994L84.4143 171.114V172.99H86.4143ZM86.4143 185.849H84.4143V187.725L86.2861 187.845L86.4143 185.849ZM93.3713 186.296L93.2432 188.292L93.2432 188.292L93.3713 186.296ZM100.328 186.743L102.324 186.615L102.212 184.859L100.457 184.747L100.328 186.743ZM100.775 193.7L98.7793 193.828L98.7793 193.828L100.775 193.7ZM101.222 200.657L99.226 200.785L99.3462 202.657H101.222V200.657ZM128.889 200.657H130.889V198.657H128.889V200.657ZM143.536 215.303V217.303H145.536V215.303H143.536ZM143.536 200.657V198.657H141.536V200.657H143.536ZM158.182 200.657V202.657H160.182V200.657H158.182ZM158.182 185.849L158.31 183.853L156.182 183.717V185.849H158.182ZM165.139 186.296L165.011 188.292L165.011 188.292L165.139 186.296ZM172.096 186.743L174.095 186.684L174.042 184.864L172.224 184.747L172.096 186.743ZM172.515 201.023L170.516 201.082L170.516 201.082L172.515 201.023ZM172.934 215.303V217.303H174.994L174.933 215.245L172.934 215.303ZM158.182 215.303V213.303H156.182V215.303H158.182ZM143.536 229.95V227.95H141.536V229.95H143.536ZM143.536 243.132V245.132H145.536V243.132H143.536ZM128.889 243.132H126.889V245.132H128.889V243.132ZM101.222 215.303V213.303H99.3462L99.226 215.175L101.222 215.303ZM100.775 222.26L102.771 222.389L102.771 222.389L100.775 222.26ZM100.328 229.217L100.457 231.213L102.212 231.101L102.324 229.346L100.328 229.217ZM93.3713 229.664L93.4995 231.66L93.4995 231.66L93.3713 229.664ZM86.4143 230.111H84.4143V232.243L86.5424 232.107L86.4143 230.111ZM86.4143 215.303V213.303H84.4143V215.303H86.4143ZM101.061 215.303V217.303H103.061V215.303H101.061ZM101.061 200.657H103.061V198.657H101.061V200.657ZM71.7678 200.657H69.7678V202.657H71.7678V200.657ZM71.7678 186.01H73.7678V184.01H71.7678V186.01ZM14.6465 186.01H12.6465V188.01H14.6465V186.01ZM57.1213 172.829V174.829H59.1213V172.829H57.1213ZM57.1213 158.182V156.182H55.1213V158.182H57.1213ZM71.7678 143.536V141.536H69.7678V143.536H71.7678ZM71.7678 172.829H69.7678V174.829H71.7678V172.829ZM86.4143 172.829V174.829H88.4143V172.829H86.4143ZM128.889 186.01V188.01H130.889V186.01H128.889ZM115.707 186.01H113.707V188.01H115.707V186.01ZM115.707 172.829V170.829H113.707V172.829H115.707ZM128.889 172.829H130.889V170.829H128.889V172.829ZM272.425 230.111L272.296 232.107L274.425 232.243V230.111H272.425ZM265.468 229.664L265.339 231.66L265.339 231.66L265.468 229.664ZM258.51 229.217L256.515 229.346L256.627 231.101L258.382 231.213L258.51 229.217ZM258.064 222.26L260.06 222.132L260.06 222.132L258.064 222.26ZM257.617 215.303V213.303H255.484L255.621 215.432L257.617 215.303ZM272.425 215.303H274.425V213.303H272.425V215.303ZM186.987 244.109L188.4 245.525L188.403 245.521L186.987 244.109ZM186.01 257.778H184.01V259.778H186.01V257.778ZM200.657 257.778V259.778H202.657V257.778H200.657ZM200.657 243.132H202.657V241.132H200.657V243.132ZM287.071 287.071V289.071H289.071V287.071H287.071ZM244.596 287.071H242.596V289.071H244.596V287.071ZM244.596 244.596V242.596H242.596V244.596H244.596ZM287.071 244.596H289.071V242.596H287.071V244.596ZM344.192 272.425V274.425H346.192V272.425H344.192ZM329.546 272.425V270.425H327.546V272.425H329.546ZM329.546 287.071H327.546V289.071H329.546V287.071ZM344.192 287.071H346.192V285.071H344.192V287.071ZM316.364 301.718H314.364V303.718H316.364V301.718ZM316.364 287.071H318.364V285.071H316.364V287.071ZM301.718 287.071H299.718V289.071H301.718V287.071ZM301.718 272.425V270.425H299.718V272.425H301.718ZM316.364 272.425V274.425H318.364V272.425H316.364ZM316.364 257.778V255.778H314.364V257.778H316.364ZM329.546 257.778V259.778H331.546V257.778H329.546ZM329.546 244.596V242.596H327.546V244.596H329.546ZM344.192 244.596H346.192V242.596H344.192V244.596ZM0 358.839H-2V360.839H0V358.839ZM101.099 358.839V360.839H103.114L103.099 358.824L101.099 358.839ZM100.714 308.675L98.7137 308.69L98.7137 308.69L100.714 308.675ZM100.328 258.51L102.328 258.495L102.313 256.526L100.344 256.511L100.328 258.51ZM0 257.74L0.0153575 255.74L-2 255.725V257.74H0ZM258.755 258.755L260.167 260.171L260.171 260.167L258.755 258.755ZM257.778 272.425H255.778V274.425H257.778V272.425ZM272.425 272.425V274.425H274.425V272.425H272.425ZM272.425 257.778H274.425V255.778H272.425V257.778ZM86.4143 344.192V346.192H88.4143V344.192H86.4143ZM14.6465 344.192H12.6465V346.192H14.6465V344.192ZM14.6465 272.425V270.425H12.6465V272.425H14.6465ZM86.4143 272.425H88.4143V270.425H86.4143V272.425ZM29.293 329.546H27.293V331.546H29.293V329.546ZM71.7678 329.546V331.546H73.7678V329.546H71.7678ZM71.7678 287.071H73.7678V285.071H71.7678V287.071ZM29.293 287.071V285.071H27.293V287.071H29.293ZM344.192 358.839H342.192V360.839H344.192V358.839ZM358.839 358.839V360.839H360.839V358.839H358.839ZM358.839 344.192H360.839V342.192H358.839V344.192ZM344.192 344.192V342.192H342.192V344.192H344.192ZM-2 50.5494V101.099H2V50.5494H-2ZM0.0153575 103.099L50.1796 102.714L50.1489 98.7137L-0.0153575 99.0989L0.0153575 103.099ZM50.1796 102.714L100.344 102.328L100.313 98.3285L50.1489 98.7137L50.1796 102.714ZM102.328 100.344L102.714 50.1796L98.7137 50.1489L98.3285 100.313L102.328 100.344ZM102.714 50.1796L103.099 0.0153575L99.0989 -0.0153575L98.7137 50.1489L102.714 50.1796ZM101.099 -2H50.5494V2H101.099V-2ZM50.5494 -2H0V2H50.5494V-2ZM-2 0V50.5494H2V0H-2ZM112.958 1.34182C112.615 2.23693 112.466 3.59172 112.408 4.85783C112.346 6.20897 112.376 7.7604 112.515 9.20642L116.497 8.8234C116.377 7.57447 116.35 6.21271 116.404 5.04172C116.462 3.78572 116.603 3.00943 116.693 2.77384L112.958 1.34182ZM112.515 9.20543C112.625 10.3493 112.738 11.4319 112.987 12.3235C113.259 13.2948 113.741 14.2314 114.702 14.923C115.574 15.5509 116.634 15.82 117.695 15.9852C118.776 16.1536 120.146 16.2505 121.804 16.3568L122.06 12.365C120.36 12.256 119.179 12.1681 118.31 12.0328C117.419 11.8941 117.127 11.7405 117.039 11.6768C117.015 11.6595 117.002 11.6469 116.982 11.6143C116.954 11.5696 116.9 11.4653 116.839 11.2462C116.703 10.7594 116.614 10.0452 116.497 8.82439L112.515 9.20543ZM121.804 16.3568L128.761 16.8035L129.017 12.8117L122.06 12.365L121.804 16.3568ZM126.889 14.8076V22.0503H130.889V14.8076H126.889ZM126.889 22.0503V29.293H130.889V22.0503H126.889ZM128.889 27.293H121.485V31.293H128.889V27.293ZM121.485 27.293H114.081V31.293H121.485V27.293ZM112.086 29.4211L112.532 36.3782L116.524 36.1219L116.077 29.1648L112.086 29.4211ZM112.532 36.3782L112.979 43.3353L116.971 43.079L116.524 36.1219L112.532 36.3782ZM114.847 45.203L121.804 45.6497L122.06 41.658L115.103 41.2112L114.847 45.203ZM121.804 45.6497L128.761 46.0965L129.017 42.1047L122.06 41.658L121.804 45.6497ZM126.889 44.1006V50.5714H130.889V44.1006H126.889ZM126.889 50.5714V57.0437H130.889V50.5714H126.889ZM128.852 59.0433L150.455 59.4476L150.53 55.4483L128.926 55.044L128.852 59.0433ZM150.455 59.4476L172.059 59.8533L172.134 55.854L150.53 55.4483L150.455 59.4476ZM170.096 57.8536V79.091H174.096V57.8536H170.096ZM170.096 79.091V100.328H174.096V79.091H170.096ZM171.968 98.3325L165.011 98.7793L165.267 102.771L172.224 102.324L171.968 98.3325ZM165.011 98.7793L158.054 99.226L158.31 103.218L165.267 102.771L165.011 98.7793ZM160.182 101.222V86.4948H156.182V101.222H160.182ZM160.182 86.4948V71.7678H156.182V86.4948H160.182ZM158.182 69.7678H150.859V73.7678H158.182V69.7678ZM150.859 69.7678H143.536V73.7678H150.859V69.7678ZM141.536 71.7678V86.4143H145.536V71.7678H141.536ZM141.536 86.4143V101.061H145.536V86.4143H141.536ZM143.536 103.061H150.859V99.0608H143.536V103.061ZM150.859 103.061H158.182V99.0608H150.859V103.061ZM156.182 101.061V107.599H160.182V101.061H156.182ZM156.182 107.599V114.137H160.182V107.599H156.182ZM158.123 112.138L143.843 112.557L143.96 116.555L158.241 116.136L158.123 112.138ZM143.843 112.557L129.563 112.976L129.68 116.974L143.96 116.555L143.843 112.557ZM127.626 114.847L127.179 121.804L131.171 122.06L131.617 115.103L127.626 114.847ZM127.179 121.804L126.732 128.761L130.724 129.017L131.171 122.06L127.179 121.804ZM128.728 130.889H136.132V126.889H128.728V130.889ZM136.132 130.889H143.536V126.889H136.132V130.889ZM141.536 128.889V136.212H145.536V128.889H141.536ZM141.536 136.212V143.536H145.536V136.212H141.536ZM143.536 145.536H150.859V141.536H143.536V145.536ZM150.859 145.536H158.182V141.536H150.859V145.536ZM160.182 143.536V129.621H156.182V143.536H160.182ZM160.182 129.621V115.707H156.182V129.621H160.182ZM158.182 117.707H172.065V113.707H158.182V117.707ZM172.065 117.707H185.949V113.707H172.065V117.707ZM187.949 115.735L188.346 86.8079L184.346 86.753L183.949 115.68L187.949 115.735ZM188.346 86.8079L188.743 57.8811L184.743 57.8262L184.346 86.753L188.346 86.8079ZM186.871 59.8495L193.828 59.4028L193.572 55.411L186.615 55.8577L186.871 59.8495ZM193.828 59.4028L200.785 58.9561L200.529 54.9643L193.572 55.411L193.828 59.4028ZM198.657 56.9602V79.0105H202.657V56.9602H198.657ZM198.657 79.0105V101.061H202.657V79.0105H198.657ZM200.657 103.061H207.98V99.0608H200.657V103.061ZM207.98 103.061H215.303V99.0608H207.98V103.061ZM213.303 101.061V108.384H217.303V101.061H213.303ZM213.303 108.384V115.707H217.303V108.384H213.303ZM215.303 117.707H222.627V113.707H215.303V117.707ZM222.627 117.707H229.95V113.707H222.627V117.707ZM227.95 115.707V122.298H231.95V115.707H227.95ZM227.95 122.298V128.889H231.95V122.298H227.95ZM229.95 126.889H222.627V130.889H229.95V126.889ZM222.627 126.889H215.303V130.889H222.627V126.889ZM213.303 128.889V136.212H217.303V128.889H213.303ZM213.303 136.212V143.536H217.303V136.212H213.303ZM215.303 141.536H207.98V145.536H215.303V141.536ZM207.98 141.536H200.657V145.536H207.98V141.536ZM202.657 143.536V136.132H198.657V143.536H202.657ZM202.657 136.132V128.728H198.657V136.132H202.657ZM200.529 126.732L193.572 127.179L193.828 131.171L200.785 130.724L200.529 126.732ZM193.572 127.179L186.615 127.626L186.871 131.617L193.828 131.171L193.572 127.179ZM184.747 129.493L184.3 136.45L188.292 136.707L188.739 129.75L184.747 129.493ZM184.3 136.45L183.853 143.407L187.845 143.664L188.292 136.707L184.3 136.45ZM185.849 145.536H193.253V141.536H185.849V145.536ZM193.253 145.536H200.657V141.536H193.253V145.536ZM198.657 143.536V158.182H202.657V143.536H198.657ZM198.657 158.182V172.829H202.657V158.182H198.657ZM200.657 174.829H207.98V170.829H200.657V174.829ZM207.98 174.829H215.303V170.829H207.98V174.829ZM217.303 172.829V165.505H213.303V172.829H217.303ZM217.303 165.505V158.182H213.303V165.505H217.303ZM215.303 160.182H229.137V156.182H215.303V160.182ZM229.137 160.182H242.971V156.182H229.137V160.182ZM240.975 158.31L241.421 165.267L245.413 165.011L244.966 158.054L240.975 158.31ZM241.421 165.267L241.868 172.224L245.86 171.968L245.413 165.011L241.421 165.267ZM243.736 174.092L250.693 174.539L250.949 170.547L243.992 170.1L243.736 174.092ZM250.693 174.539L257.65 174.986L257.906 170.994L250.949 170.547L250.693 174.539ZM255.778 172.99V194.146H259.778V172.99H255.778ZM255.778 194.146V215.303H259.778V194.146H255.778ZM257.778 213.303H243.864V217.303H257.778V213.303ZM243.864 213.303H229.95V217.303H243.864V213.303ZM231.95 215.303V207.98H227.95V215.303H231.95ZM231.95 207.98V200.657H227.95V207.98H231.95ZM229.95 202.657H237.354V198.657H229.95V202.657ZM237.354 202.657H244.757V198.657H237.354V202.657ZM246.753 200.529L246.307 193.572L242.315 193.828L242.762 200.785L246.753 200.529ZM246.307 193.572L245.86 186.615L241.868 186.871L242.315 193.828L246.307 193.572ZM243.923 184.744L229.642 184.325L229.525 188.323L243.805 188.742L243.923 184.744ZM229.642 184.325L215.362 183.906L215.245 187.904L229.525 188.323L229.642 184.325ZM213.303 185.905V193.281H217.303V185.905H213.303ZM213.303 193.281V200.657H217.303V193.281H213.303ZM215.303 198.657H207.98V202.657H215.303V198.657ZM207.98 198.657H200.657V202.657H207.98V198.657ZM202.657 200.657V193.334H198.657V200.657H202.657ZM202.657 193.334V186.01H198.657V193.334H202.657ZM200.657 184.01H193.334V188.01H200.657V184.01ZM193.334 184.01H186.01V188.01H193.334V184.01ZM188.01 186.01V172.096H184.01V186.01H188.01ZM188.01 172.096V158.182H184.01V172.096H188.01ZM186.01 156.182H179.5V160.182H186.01V156.182ZM179.5 156.182H172.99V160.182H179.5V156.182ZM170.994 158.054L170.547 165.011L174.539 165.267L174.986 158.31L170.994 158.054ZM170.547 165.011L170.1 171.968L174.092 172.224L174.539 165.267L170.547 165.011ZM171.968 170.1L165.011 170.547L165.267 174.539L172.224 174.092L171.968 170.1ZM165.011 170.547L158.054 170.994L158.31 174.986L165.267 174.539L165.011 170.547ZM156.182 172.99V179.5H160.182V172.99H156.182ZM156.182 179.5V186.01H160.182V179.5H156.182ZM158.182 184.01H150.859V188.01H158.182V184.01ZM150.859 184.01H143.536V188.01H150.859V184.01ZM145.536 186.01V172.096H141.536V186.01H145.536ZM145.536 172.096V158.182H141.536V172.096H145.536ZM143.536 156.182H122.298V160.182H143.536V156.182ZM122.298 156.182H101.061V160.182H122.298V156.182ZM103.061 158.182V150.859H99.0608V158.182H103.061ZM103.061 150.859V143.536H99.0608V150.859H103.061ZM101.061 141.536H93.7375V145.536H101.061V141.536ZM93.7375 141.536H86.4143V145.536H93.7375V141.536ZM88.4143 143.536V136.212H84.4143V143.536H88.4143ZM88.4143 136.212V128.889H84.4143V136.212H88.4143ZM86.4143 130.889H101.141V126.889H86.4143V130.889ZM101.141 130.889H115.868V126.889H101.141V130.889ZM117.864 128.761L117.418 121.804L113.426 122.06L113.872 129.017L117.864 128.761ZM117.418 121.804L116.971 114.847L112.979 115.103L113.426 122.06L117.418 121.804ZM115.034 112.976L100.753 112.557L100.636 116.555L114.916 116.974L115.034 112.976ZM100.753 112.557L86.4729 112.138L86.3556 116.136L100.636 116.555L100.753 112.557ZM84.4143 114.137V121.513H88.4143V114.137H84.4143ZM84.4143 121.513V128.889H88.4143V121.513H84.4143ZM86.4143 126.889H65.2574V130.889H86.4143V126.889ZM65.2574 126.889H44.1006V130.889H65.2574V126.889ZM46.0965 128.761L45.6497 121.804L41.658 122.06L42.1047 129.017L46.0965 128.761ZM45.6497 121.804L45.203 114.847L41.2112 115.103L41.658 122.06L45.6497 121.804ZM43.3353 112.979L36.3782 112.532L36.1219 116.524L43.079 116.971L43.3353 112.979ZM36.3782 112.532L29.4211 112.086L29.1648 116.077L36.1219 116.524L36.3782 112.532ZM27.293 114.081V121.485H31.293V114.081H27.293ZM27.293 121.485V128.889H31.293V121.485H27.293ZM29.293 130.889H35.8839V126.889H29.293V130.889ZM35.8839 130.889H42.4748V126.889H35.8839V130.889ZM40.4748 128.889V136.212H44.4748V128.889H40.4748ZM40.4748 136.212V143.536H44.4748V136.212H40.4748ZM42.4748 141.536H35.8839V145.536H42.4748V141.536ZM35.8839 141.536H29.293V145.536H35.8839V141.536ZM27.293 143.536V150.859H31.293V143.536H27.293ZM27.293 150.859V158.182H31.293V150.859H27.293ZM29.293 156.182H21.9697V160.182H29.293V156.182ZM21.9697 156.182H14.6465V160.182H21.9697V156.182ZM12.6465 158.182V165.505H16.6465V158.182H12.6465ZM12.6465 165.505V172.829H16.6465V165.505H12.6465ZM14.6465 170.829H7.32324V174.829H14.6465V170.829ZM7.32324 170.829H0V174.829H7.32324V170.829ZM-2 172.829V186.743H2V172.829H-2ZM-2 186.743V200.657H2V186.743H-2ZM0 202.657H21.2374V198.657H0V202.657ZM21.2374 202.657H42.4748V198.657H21.2374V202.657ZM40.4748 200.657V207.98H44.4748V200.657H40.4748ZM40.4748 207.98V215.303H44.4748V207.98H40.4748ZM42.4748 217.303H49.7981V213.303H42.4748V217.303ZM49.7981 217.303H57.1213V213.303H49.7981V217.303ZM55.1213 215.303V222.627H59.1213V215.303H55.1213ZM55.1213 222.627V229.95H59.1213V222.627H55.1213ZM57.1213 227.95H43.2071V231.95H57.1213V227.95ZM43.2071 227.95H29.293V231.95H43.2071V227.95ZM31.293 229.95V222.627H27.293V229.95H31.293ZM31.293 222.627V215.303H27.293V222.627H31.293ZM29.293 213.303H14.6465V217.303H29.293V213.303ZM14.6465 213.303H0V217.303H14.6465V213.303ZM-2 215.303V222.627H2V215.303H-2ZM-2 222.627V229.95H2V222.627H-2ZM0 231.95H14.6465V227.95H0V231.95ZM14.6465 231.95H29.293V227.95H14.6465V231.95ZM27.293 229.95V237.273H31.293V229.95H27.293ZM27.293 237.273V244.596H31.293V237.273H27.293ZM29.293 246.596H43.2071V242.596H29.293V246.596ZM43.2071 246.596H57.1213V242.596H43.2071V246.596ZM59.1213 244.596V237.273H55.1213V244.596H59.1213ZM59.1213 237.273V229.95H55.1213V237.273H59.1213ZM57.1213 231.95H71.7678V227.95H57.1213V231.95ZM71.7678 231.95H86.4143V227.95H71.7678V231.95ZM84.4143 229.95V237.273H88.4143V229.95H84.4143ZM84.4143 237.273V244.596H88.4143V237.273H84.4143ZM86.4143 246.596H100.328V242.596H86.4143V246.596ZM100.328 246.596H114.243V242.596H100.328V246.596ZM112.243 244.596V258.51H116.243V244.596H112.243ZM112.243 258.51V272.425H116.243V258.51H112.243ZM114.243 274.425H121.485V270.425H114.243V274.425ZM121.485 274.425H128.728V270.425H121.485V274.425ZM130.724 272.553L131.171 265.596L127.179 265.339L126.732 272.296L130.724 272.553ZM131.171 265.596L131.617 258.639L127.626 258.382L127.179 265.339L131.171 265.596ZM129.68 260.51L143.96 260.091L143.843 256.092L129.563 256.511L129.68 260.51ZM143.96 260.091L158.241 259.672L158.123 255.674L143.843 256.092L143.96 260.091ZM156.182 257.673V265.049H160.182V257.673H156.182ZM156.182 265.049V272.425H160.182V265.049H156.182ZM158.182 274.425H165.586V270.425H158.182V274.425ZM165.586 274.425H172.99V270.425H165.586V274.425ZM174.986 272.296L174.539 265.339L170.547 265.596L170.994 272.553L174.986 272.296ZM174.539 265.339L174.092 258.382L170.1 258.639L170.547 265.596L174.539 265.339ZM172.224 256.515L165.267 256.068L165.011 260.06L171.968 260.506L172.224 256.515ZM165.267 256.068L158.31 255.621L158.054 259.613L165.011 260.06L165.267 256.068ZM160.182 257.617V243.783H156.182V257.617H160.182ZM160.182 243.783V229.95H156.182V243.783H160.182ZM158.182 231.95H172.096V227.95H158.182V231.95ZM172.096 231.95H186.01V227.95H172.096V231.95ZM188.01 229.95V222.627H184.01V229.95H188.01ZM188.01 222.627V215.303H184.01V222.627H188.01ZM186.01 217.303H193.334V213.303H186.01V217.303ZM193.334 217.303H200.657V213.303H193.334V217.303ZM198.657 215.303V222.627H202.657V215.303H198.657ZM198.657 222.627V229.95H202.657V222.627H198.657ZM200.657 231.95H215.303V227.95H200.657V231.95ZM215.303 231.95H229.95V227.95H215.303V231.95ZM227.95 229.95V251.187H231.95V229.95H227.95ZM227.95 251.187V272.425H231.95V251.187H227.95ZM229.95 270.425H222.627V274.425H229.95V270.425ZM222.627 270.425H215.303V274.425H222.627V270.425ZM213.303 272.425V287.071H217.303V272.425H213.303ZM213.303 287.071V301.718H217.303V287.071H213.303ZM215.303 303.718H243.783V299.718H215.303V303.718ZM243.783 303.718H272.264V299.718H243.783V303.718ZM270.268 301.846L270.714 308.803L274.706 308.547L274.259 301.589L270.268 301.846ZM270.714 308.803L271.161 315.76L275.153 315.504L274.706 308.547L270.714 308.803ZM273.029 317.628L279.986 318.074L280.242 314.083L273.285 313.636L273.029 317.628ZM279.986 318.074L286.943 318.521L287.199 314.529L280.242 314.083L279.986 318.074ZM285.071 316.525V323.036H289.071V316.525H285.071ZM285.071 323.036V329.546H289.071V323.036H285.071ZM287.071 327.546H272.425V331.546H287.071V327.546ZM272.425 327.546H257.778V331.546H272.425V327.546ZM259.778 329.546V322.142H255.778V329.546H259.778ZM259.778 322.142V314.738H255.778V322.142H259.778ZM257.65 312.742L250.693 313.189L250.949 317.181L257.906 316.734L257.65 312.742ZM250.693 313.189L243.736 313.636L243.992 317.628L250.949 317.181L250.693 313.189ZM241.868 315.504L241.421 322.461L245.413 322.717L245.86 315.76L241.868 315.504ZM241.421 322.461L240.975 329.418L244.966 329.674L245.413 322.717L241.421 322.461ZM242.971 327.546H236.541V331.546H242.971V327.546ZM236.541 327.546H230.111V331.546H236.541V327.546ZM232.107 329.418L231.66 322.461L227.668 322.717L228.115 329.674L232.107 329.418ZM231.66 322.461L231.213 315.504L227.222 315.76L227.668 322.717L231.66 322.461ZM229.346 313.636L222.389 313.189L222.132 317.181L229.089 317.628L229.346 313.636ZM222.389 313.189L215.431 312.742L215.175 316.734L222.132 317.181L222.389 313.189ZM213.303 314.738V322.142H217.303V314.738H213.303ZM213.303 322.142V329.546H217.303V322.142H213.303ZM215.303 327.546H207.98V331.546H215.303V327.546ZM207.98 327.546H200.657V331.546H207.98V327.546ZM198.657 329.546V336.869H202.657V329.546H198.657ZM198.657 336.869V344.192H202.657V336.869H198.657ZM200.657 342.192H193.334V346.192H200.657V342.192ZM193.334 342.192H186.01V346.192H193.334V342.192ZM188.01 344.192V315.632H184.01V344.192H188.01ZM188.01 315.632V287.071H184.01V315.632H188.01ZM186.01 285.071H172.096V289.071H186.01V285.071ZM172.096 285.071H158.182V289.071H172.096V285.071ZM156.182 287.071V294.394H160.182V287.071H156.182ZM156.182 294.394V301.718H160.182V294.394H156.182ZM158.182 303.718H165.505V299.718H158.182V303.718ZM165.505 303.718H172.829V299.718H165.505V303.718ZM170.829 301.718V315.632H174.829V301.718H170.829ZM170.829 315.632V329.546H174.829V315.632H170.829ZM172.829 327.546H158.182V331.546H172.829V327.546ZM158.182 327.546H143.536V331.546H158.182V327.546ZM145.536 329.546V315.632H141.536V329.546H145.536ZM145.536 315.632V301.718H141.536V315.632H145.536ZM143.536 299.718H136.212V303.718H143.536V299.718ZM136.212 299.718H128.889V303.718H136.212V299.718ZM126.889 301.718V308.228H130.889V301.718H126.889ZM126.889 308.228V314.738H130.889V308.228H126.889ZM128.761 312.742L121.804 313.189L122.06 317.181L129.017 316.734L128.761 312.742ZM121.804 313.189L114.847 313.636L115.103 317.628L122.06 317.181L121.804 313.189ZM112.979 315.504L112.532 322.461L116.524 322.717L116.971 315.76L112.979 315.504ZM112.532 322.461L112.086 329.418L116.077 329.674L116.524 322.717L112.532 322.461ZM114.081 331.546H121.485V327.546H114.081V331.546ZM121.485 331.546H128.889V327.546H121.485V331.546ZM126.889 329.546V336.869H130.889V329.546H126.889ZM126.889 336.869V344.192H130.889V336.869H126.889ZM128.889 342.192H121.485V346.192H128.889V342.192ZM121.485 342.192H114.081V346.192H121.485V342.192ZM112.086 344.321L112.532 351.278L116.524 351.021L116.077 344.064L112.086 344.321ZM112.532 351.278L112.979 358.235L116.971 357.978L116.524 351.021L112.532 351.278ZM114.847 360.102L121.804 360.549L122.06 356.557L115.103 356.111L114.847 360.102ZM121.804 360.549L128.761 360.996L129.017 357.004L122.06 356.557L121.804 360.549ZM130.889 359V351.596H126.889V359H130.889ZM130.889 351.596V344.192H126.889V351.596H130.889ZM128.889 346.192H150.859V342.192H128.889V346.192ZM150.859 346.192H172.829V342.192H150.859V346.192ZM170.829 344.192V351.516H174.829V344.192H170.829ZM170.829 351.516V358.839H174.829V351.516H170.829ZM172.829 360.839H194.066V356.839H172.829V360.839ZM194.066 360.839H215.303V356.839H194.066V360.839ZM217.303 358.839V351.516H213.303V358.839H217.303ZM217.303 351.516V344.192H213.303V351.516H217.303ZM215.303 346.192H222.627V342.192H215.303V346.192ZM222.627 346.192H229.95V342.192H222.627V346.192ZM227.95 344.192V351.596H231.95V344.192H227.95ZM227.95 351.596V359H231.95V351.596H227.95ZM230.078 360.996L237.035 360.549L236.779 356.557L229.822 357.004L230.078 360.996ZM237.035 360.549L243.992 360.102L243.736 356.111L236.779 356.557L237.035 360.549ZM245.86 358.235L246.307 351.278L242.315 351.021L241.868 357.978L245.86 358.235ZM246.307 351.278L246.753 344.321L242.762 344.064L242.315 351.021L246.307 351.278ZM244.757 346.192H273.237V342.192H244.757V346.192ZM273.237 346.192H301.718V342.192H273.237V346.192ZM299.718 344.192V351.596H303.718V344.192H299.718ZM299.718 351.596V359H303.718V351.596H299.718ZM301.846 360.996L308.803 360.549L308.547 356.557L301.589 357.004L301.846 360.996ZM308.803 360.549L315.76 360.102L315.504 356.111L308.547 356.557L308.803 360.549ZM317.628 358.235L318.074 351.278L314.083 351.021L313.636 357.978L317.628 358.235ZM318.074 351.278L318.521 344.321L314.529 344.064L314.083 351.021L318.074 351.278ZM316.525 342.192H309.121V346.192H316.525V342.192ZM309.121 342.192H301.718V346.192H309.121V342.192ZM303.718 344.192V330.278H299.718V344.192H303.718ZM303.718 330.278V316.364H299.718V330.278H303.718ZM301.718 318.364H315.632V314.364H301.718V318.364ZM315.632 318.364H329.546V314.364H315.632V318.364ZM327.546 316.364V322.955H331.546V316.364H327.546ZM327.546 322.955V329.546H331.546V322.955H327.546ZM329.546 331.546H344.273V327.546H329.546V331.546ZM344.273 331.546H359V327.546H344.273V331.546ZM360.996 329.418L360.549 322.461L356.557 322.717L357.004 329.674L360.996 329.418ZM360.549 322.461L360.102 315.504L356.111 315.76L356.557 322.717L360.549 322.461ZM358.235 313.636L351.278 313.189L351.021 317.181L357.978 317.628L358.235 313.636ZM351.278 313.189L344.321 312.742L344.064 316.734L351.021 317.181L351.278 313.189ZM346.192 314.738V308.228H342.192V314.738H346.192ZM346.192 308.228V301.718H342.192V308.228H346.192ZM344.192 303.718H351.546V299.718H344.192V303.718ZM351.546 303.718H358.9V299.718H351.546V303.718ZM360.9 301.69L360.503 272.763L356.504 272.818L356.901 301.745L360.9 301.69ZM360.503 272.763L360.106 243.837L356.107 243.891L356.504 272.818L360.503 272.763ZM358.235 241.868L351.278 241.421L351.021 245.413L357.978 245.86L358.235 241.868ZM351.278 241.421L344.321 240.975L344.064 244.966L351.021 245.413L351.278 241.421ZM346.192 242.971V236.46H342.192V242.971H346.192ZM346.192 236.46V229.95H342.192V236.46H346.192ZM344.192 227.95H336.869V231.95H344.192V227.95ZM336.869 227.95H329.546V231.95H336.869V227.95ZM327.546 229.95V236.46H331.546V229.95H327.546ZM327.546 236.46V242.971H331.546V236.46H327.546ZM329.418 240.975L322.461 241.421L322.717 245.413L329.674 244.966L329.418 240.975ZM322.461 241.421L315.504 241.868L315.76 245.86L322.717 245.413L322.461 241.421ZM313.636 243.736L313.189 250.693L317.181 250.949L317.628 243.992L313.636 243.736ZM313.189 250.693L312.742 257.65L316.734 257.906L317.181 250.949L313.189 250.693ZM314.738 255.778H308.228V259.778H314.738V255.778ZM308.228 255.778H301.718V259.778H308.228V255.778ZM303.718 257.778V243.864H299.718V257.778H303.718ZM303.718 243.864V229.95H299.718V243.864H303.718ZM301.718 227.95H294.394V231.95H301.718V227.95ZM294.394 227.95H287.071V231.95H294.394V227.95ZM289.071 229.95V222.627H285.071V229.95H289.071ZM289.071 222.627V215.303H285.071V222.627H289.071ZM287.071 217.303H308.309V213.303H287.071V217.303ZM308.309 217.303H329.546V213.303H308.309V217.303ZM331.546 215.303V207.98H327.546V215.303H331.546ZM331.546 207.98V200.657H327.546V207.98H331.546ZM329.546 202.657H336.869V198.657H329.546V202.657ZM336.869 202.657H344.192V198.657H336.869V202.657ZM342.192 200.657V207.98H346.192V200.657H342.192ZM342.192 207.98V215.303H346.192V207.98H342.192ZM344.192 217.303H351.516V213.303H344.192V217.303ZM351.516 217.303H358.839V213.303H351.516V217.303ZM360.839 215.303V194.066H356.839V215.303H360.839ZM360.839 194.066V172.829H356.839V194.066H360.839ZM358.839 170.829H351.516V174.829H358.839V170.829ZM351.516 170.829H344.192V174.829H351.516V170.829ZM342.192 172.829V179.419H346.192V172.829H342.192ZM342.192 179.419V186.01H346.192V179.419H342.192ZM344.192 184.01H336.869V188.01H344.192V184.01ZM336.869 184.01H329.546V188.01H336.869V184.01ZM327.546 186.01V193.334H331.546V186.01H327.546ZM327.546 193.334V200.657H331.546V193.334H327.546ZM329.546 198.657H300.985V202.657H329.546V198.657ZM300.985 198.657H272.425V202.657H300.985V198.657ZM274.425 200.657V193.334H270.425V200.657H274.425ZM274.425 193.334V186.01H270.425V193.334H274.425ZM272.425 188.01H279.748V184.01H272.425V188.01ZM279.748 188.01H287.071V184.01H279.748V188.01ZM289.071 186.01V179.472H285.071V186.01H289.071ZM289.071 179.472V172.934H285.071V179.472H289.071ZM287.13 174.933L301.41 174.514L301.293 170.516L287.012 170.935L287.13 174.933ZM301.41 174.514L315.69 174.095L315.573 170.097L301.293 170.516L301.41 174.514ZM317.628 172.224L318.074 165.267L314.083 165.011L313.636 171.968L317.628 172.224ZM318.074 165.267L318.521 158.31L314.529 158.054L314.083 165.011L318.074 165.267ZM316.525 160.182H323.036V156.182H316.525V160.182ZM323.036 160.182H329.546V156.182H323.036V160.182ZM331.546 158.182V150.859H327.546V158.182H331.546ZM331.546 150.859V143.536H327.546V150.859H331.546ZM329.546 145.536H336.869V141.536H329.546V145.536ZM336.869 145.536H344.192V141.536H336.869V145.536ZM342.192 143.536V150.859H346.192V143.536H342.192ZM342.192 150.859V158.182H346.192V150.859H342.192ZM344.192 160.182H351.555V156.182H344.192V160.182ZM351.555 160.182H358.917V156.182H351.555V160.182ZM360.916 158.145L360.512 136.541L356.513 136.616L356.917 158.219L360.916 158.145ZM360.512 136.541L360.106 114.937L356.107 115.012L356.513 136.616L360.512 136.541ZM358.235 112.979L351.278 112.532L351.021 116.524L357.978 116.971L358.235 112.979ZM351.278 112.532L344.321 112.086L344.064 116.077L351.021 116.524L351.278 112.532ZM342.192 114.081V121.485H346.192V114.081H342.192ZM342.192 121.485V128.889H346.192V121.485H342.192ZM344.192 126.889H336.869V130.889H344.192V126.889ZM336.869 126.889H329.546V130.889H336.869V126.889ZM331.546 128.889V121.485H327.546V128.889H331.546ZM331.546 121.485V114.081H327.546V121.485H331.546ZM329.418 112.086L322.461 112.532L322.717 116.524L329.674 116.077L329.418 112.086ZM322.461 112.532L315.504 112.979L315.76 116.971L322.717 116.524L322.461 112.532ZM313.636 114.847L313.189 121.804L317.181 122.06L317.628 115.103L313.636 114.847ZM313.189 121.804L312.742 128.761L316.734 129.017L317.181 122.06L313.189 121.804ZM314.738 126.889H308.228V130.889H314.738V126.889ZM308.228 126.889H301.718V130.889H308.228V126.889ZM299.718 128.889V143.536H303.718V128.889H299.718ZM299.718 143.536V158.182H303.718V143.536H299.718ZM301.718 156.182H294.434V160.182H301.718V156.182ZM294.434 156.182H287.149V160.182H294.434V156.182ZM289.148 158.145L288.744 136.541L284.745 136.616L285.149 158.219L289.148 158.145ZM288.744 136.541L288.338 114.937L284.339 115.012L284.745 136.616L288.744 136.541ZM286.339 112.975H279.748V116.975H286.339V112.975ZM279.748 112.975H273.157V116.975H279.748V112.975ZM271.161 114.846L270.717 121.726L274.709 121.983L275.153 115.104L271.161 114.846ZM270.717 121.726L270.275 128.607L274.267 128.864L274.709 121.983L270.717 121.726ZM272.143 126.739L265.262 127.182L265.518 131.173L272.399 130.731L272.143 126.739ZM265.261 127.182L258.382 127.626L258.639 131.617L265.519 131.173L265.261 127.182ZM256.515 129.493L256.068 136.45L260.06 136.707L260.506 129.75L256.515 129.493ZM256.068 136.45L255.621 143.407L259.613 143.664L260.06 136.707L256.068 136.45ZM257.617 145.536H265.021V141.536H257.617V145.536ZM265.021 145.536H272.425V141.536H265.021V145.536ZM270.425 143.536V158.263H274.425V143.536H270.425ZM270.425 158.263V172.99H274.425V158.263H270.425ZM272.553 170.994L265.596 170.547L265.339 174.539L272.296 174.986L272.553 170.994ZM265.596 170.547L258.639 170.1L258.382 174.092L265.339 174.539L265.596 170.547ZM260.506 171.968L260.06 165.011L256.068 165.267L256.515 172.224L260.506 171.968ZM260.06 165.011L259.613 158.054L255.621 158.31L256.068 165.267L260.06 165.011ZM257.617 156.182H251.129V160.182H257.617V156.182ZM251.129 156.182H244.64V160.182H251.129V156.182ZM246.64 158.164L246.252 115.323L242.252 115.359L242.64 158.2L246.64 158.164ZM246.252 115.323L245.864 72.482L241.864 72.5182L242.252 115.359L246.252 115.323ZM243.992 70.5042L237.089 70.0604L236.833 74.0522L243.736 74.496L243.992 70.5042ZM237.09 70.0605L230.187 69.6152L229.929 73.6069L236.832 74.0522L237.09 70.0605ZM228.059 71.5525L227.639 85.912L231.637 86.029L232.057 71.6696L228.059 71.5525ZM227.639 85.9119L227.218 100.27L231.217 100.387L231.637 86.029L227.639 85.9119ZM229.089 98.3325L222.132 98.7793L222.389 102.771L229.346 102.324L229.089 98.3325ZM222.132 98.7793L215.175 99.226L215.431 103.218L222.389 102.771L222.132 98.7793ZM217.303 101.222V72.5807H213.303V101.222H217.303ZM217.303 72.5807V43.9395H213.303V72.5807H217.303ZM215.303 45.9395H222.627V41.9395H215.303V45.9395ZM222.627 45.9395H229.95V41.9395H222.627V45.9395ZM227.95 43.9395V50.5304H231.95V43.9395H227.95ZM227.95 50.5304V57.1213H231.95V50.5304H227.95ZM229.95 59.1213H237.354V55.1213H229.95V59.1213ZM237.354 59.1213H244.757V55.1213H237.354V59.1213ZM246.753 56.9931L246.307 50.0361L242.315 50.2924L242.762 57.2495L246.753 56.9931ZM246.307 50.0361L245.86 43.079L241.868 43.3353L242.315 50.2924L246.307 50.0361ZM243.992 41.2112L237.035 40.7645L236.779 44.7563L243.736 45.203L243.992 41.2112ZM237.035 40.7645L230.078 40.3178L229.822 44.3096L236.779 44.7563L237.035 40.7645ZM231.95 42.3137V35.8033H227.95V42.3137H231.95ZM231.95 35.8033V29.293H227.95V35.8033H231.95ZM229.95 27.293H222.627V31.293H229.95V27.293ZM222.627 27.293H215.303V31.293H222.627V27.293ZM213.303 29.293V35.8839H217.303V29.293H213.303ZM213.303 35.8839V42.4748H217.303V35.8839H213.303ZM215.303 40.4748H207.98V44.4748H215.303V40.4748ZM207.98 40.4748H200.657V44.4748H207.98V40.4748ZM202.657 42.4748V35.8839H198.657V42.4748H202.657ZM202.657 35.8839V29.293H198.657V35.8839H202.657ZM200.657 27.293H193.334V31.293H200.657V27.293ZM193.334 27.293H186.01V31.293H193.334V27.293ZM184.01 29.293V35.8839H188.01V29.293H184.01ZM184.01 35.8839V42.4748H188.01V35.8839H184.01ZM186.01 40.4748H164.773V44.4748H186.01V40.4748ZM164.773 40.4748H143.536V44.4748H164.773V40.4748ZM145.536 42.4748V28.5606H141.536V42.4748H145.536ZM145.536 28.5606V14.6465H141.536V28.5606H145.536ZM143.536 16.6465H150.859V12.6465H143.536V16.6465ZM150.859 16.6465H158.182V12.6465H150.859V16.6465ZM156.182 14.6465V22.0503H160.182V14.6465H156.182ZM156.182 22.0503V29.4541H160.182V22.0503H156.182ZM158.31 31.45L165.267 31.0033L165.011 27.0115L158.054 27.4582L158.31 31.45ZM165.267 31.0033L172.224 30.5565L171.968 26.5648L165.011 27.0115L165.267 31.0033ZM174.092 28.6888L174.539 21.7317L170.547 21.4754L170.1 28.4325L174.092 28.6888ZM174.539 21.7317L174.986 14.7746L170.994 14.5183L170.547 21.4754L174.539 21.7317ZM172.99 16.6465H194.146V12.6465H172.99V16.6465ZM194.146 16.6465H215.303V12.6465H194.146V16.6465ZM217.303 14.6465V7.32324H213.303V14.6465H217.303ZM217.303 7.32324V0H213.303V7.32324H217.303ZM215.303 -2H179.419V2H215.303V-2ZM179.419 -2H143.536V2H179.419V-2ZM141.536 0V7.32324H145.536V0H141.536ZM141.536 7.32324V14.6465H145.536V7.32324H141.536ZM143.536 12.6465H136.212V16.6465H143.536V12.6465ZM136.212 12.6465H128.889V16.6465H136.212V12.6465ZM130.889 14.6465V7.32324H126.889V14.6465H130.889ZM130.889 7.32324V0H126.889V7.32324H130.889ZM128.889 -2H122.253V2H128.889V-2ZM122.253 -2C120 -2 118.067 -1.81954 116.568 -1.40437C115.185 -1.02128 113.576 -0.270726 112.958 1.34205L116.693 2.77361C116.592 3.03744 116.522 2.75908 117.636 2.45049C118.634 2.17398 120.157 2 122.253 2V-2ZM256.125 50.1796L256.511 100.344L260.51 100.313L260.125 50.1489L256.125 50.1796ZM258.495 102.328L308.659 102.714L308.69 98.7137L258.526 98.3285L258.495 102.328ZM308.659 102.714L358.824 103.099L358.854 99.0989L308.69 98.7137L308.659 102.714ZM360.839 101.099V50.5494H356.839V101.099H360.839ZM360.839 50.5494V0H356.839V50.5494H360.839ZM358.839 -2H308.289V2H358.839V-2ZM308.289 -2H257.74V2H308.289V-2ZM255.74 0.0153575L256.125 50.1796L260.125 50.1489L259.74 -0.0153575L255.74 0.0153575ZM84.4143 50.5304V86.4143H88.4143V50.5304H84.4143ZM86.4143 84.4143H50.5304V88.4143H86.4143V84.4143ZM50.5304 84.4143H14.6465V88.4143H50.5304V84.4143ZM16.6465 86.4143V50.5304H12.6465V86.4143H16.6465ZM16.6465 50.5304V14.6465H12.6465V50.5304H16.6465ZM14.6465 16.6465H50.5304V12.6465H14.6465V16.6465ZM50.5304 16.6465H86.4143V12.6465H50.5304V16.6465ZM84.4143 14.6465V50.5304H88.4143V14.6465H84.4143ZM342.192 50.5304V86.4143H346.192V50.5304H342.192ZM344.192 84.4143H308.309V88.4143H344.192V84.4143ZM308.309 84.4143H272.425V88.4143H308.309V84.4143ZM274.425 86.4143V50.5304H270.425V86.4143H274.425ZM274.425 50.5304V14.6465H270.425V50.5304H274.425ZM272.425 16.6465H308.309V12.6465H272.425V16.6465ZM308.309 16.6465H344.192V12.6465H308.309V16.6465ZM342.192 14.6465V50.5304H346.192V14.6465H342.192ZM27.293 50.5304V71.7678H31.293V50.5304H27.293ZM29.293 73.7678H50.5304V69.7678H29.293V73.7678ZM50.5304 73.7678H71.7678V69.7678H50.5304V73.7678ZM73.7678 71.7678V50.5304H69.7678V71.7678H73.7678ZM73.7678 50.5304V29.293H69.7678V50.5304H73.7678ZM71.7678 27.293H50.5304V31.293H71.7678V27.293ZM50.5304 27.293H29.293V31.293H50.5304V27.293ZM27.293 29.293V50.5304H31.293V29.293H27.293ZM285.071 50.5304V71.7678H289.071V50.5304H285.071ZM287.071 73.7678H308.309V69.7678H287.071V73.7678ZM308.309 73.7678H329.546V69.7678H308.309V73.7678ZM331.546 71.7678V50.5304H327.546V71.7678H331.546ZM331.546 50.5304V29.293H327.546V50.5304H331.546ZM329.546 27.293H308.309V31.293H329.546V27.293ZM308.309 27.293H287.071V31.293H308.309V27.293ZM285.071 29.293V50.5304H289.071V29.293H285.071ZM112.998 73.0057C112.862 73.3596 112.79 73.7638 112.745 74.0747C112.693 74.4271 112.65 74.8412 112.615 75.2955C112.543 76.2066 112.493 77.3634 112.463 78.6772C112.404 81.3094 112.428 84.6497 112.547 88.0715L116.545 87.9324C116.428 84.5744 116.405 81.3112 116.462 78.7666C116.491 77.4921 116.539 76.4171 116.602 75.6094C116.634 75.2042 116.668 74.8871 116.702 74.6561C116.742 74.3835 116.765 74.3521 116.733 74.4375L112.998 73.0057ZM112.547 88.0715L112.976 100.398L116.974 100.259L116.545 87.9324L112.547 88.0715ZM114.847 102.324L121.804 102.771L122.06 98.7793L115.103 98.3325L114.847 102.324ZM121.804 102.771L128.761 103.218L129.017 99.226L122.06 98.7793L121.804 102.771ZM130.889 101.222V86.4948H126.889V101.222H130.889ZM130.889 86.4948V71.7678H126.889V86.4948H130.889ZM128.889 69.7678H122.253V73.7678H128.889V69.7678ZM122.253 69.7678C120.072 69.7678 118.153 69.9542 116.657 70.3498C115.911 70.5473 115.19 70.8173 114.577 71.1978C113.971 71.5733 113.327 72.1478 112.998 73.0038L116.732 74.4394C116.639 74.6802 116.514 74.703 116.686 74.5968C116.849 74.4957 117.162 74.354 117.68 74.2168C118.715 73.9432 120.254 73.7678 122.253 73.7678V69.7678ZM-0.366651 113.735C-0.674057 114.041 -0.830723 114.38 -0.899342 114.541C-0.984227 114.739 -1.04699 114.94 -1.0948 115.116C-1.19101 115.471 -1.26997 115.89 -1.33757 116.333C-1.47423 117.228 -1.59153 118.405 -1.68794 119.762C-1.8815 122.486 -2 126.07 -2 129.866H2C2 126.142 2.11658 122.655 2.302 120.046C2.39507 118.736 2.50324 117.679 2.61662 116.937C2.67404 116.56 2.72625 116.309 2.76593 116.163C2.78606 116.088 2.79242 116.081 2.77766 116.115C2.76957 116.134 2.74732 116.184 2.70678 116.252C2.66916 116.314 2.5906 116.435 2.45817 116.567L-0.366651 113.735ZM-2 129.866V143.536H2V129.866H-2ZM0 145.536H7.37597V141.536H0V145.536ZM7.37597 145.536H14.7519V141.536H7.37597V145.536ZM16.7511 143.477L16.3322 129.197L12.3339 129.314L12.7528 143.594L16.7511 143.477ZM16.3322 129.197L15.9133 114.916L11.915 115.034L12.3339 129.314L16.3322 129.197ZM14.0609 112.98L8.14962 112.545L7.85606 116.535L13.7674 116.97L14.0609 112.98ZM8.14929 112.545C6.43217 112.419 4.72796 112.426 3.34558 112.548C2.65877 112.608 2.00438 112.7 1.44729 112.835C1.16927 112.902 0.875938 112.989 0.597419 113.107C0.345573 113.214 -0.0357754 113.403 -0.370254 113.738L2.46177 116.563C2.27083 116.755 2.11293 116.809 2.15493 116.792C2.17026 116.785 2.24117 116.758 2.38826 116.723C2.6814 116.652 3.12074 116.583 3.69499 116.532C4.83473 116.432 6.32199 116.422 7.85639 116.535L8.14929 112.545ZM327.546 136.212V143.536H331.546V136.212H327.546ZM329.546 141.536H322.955V145.536H329.546V141.536ZM322.955 141.536H316.364V145.536H322.955V141.536ZM318.364 143.536V136.212H314.364V143.536H318.364ZM318.364 136.212V128.889H314.364V136.212H318.364ZM316.364 130.889H322.955V126.889H316.364V130.889ZM322.955 130.889H329.546V126.889H322.955V130.889ZM327.546 128.889V136.212H331.546V128.889H327.546ZM84.4143 150.859V158.182H88.4143V150.859H84.4143ZM86.4143 160.182H93.8181V156.182H86.4143V160.182ZM93.8181 160.182H101.222V156.182H93.8181V160.182ZM99.226 158.054L98.7793 165.011L102.771 165.267L103.218 158.31L99.226 158.054ZM98.7793 165.011L98.3325 171.968L102.324 172.224L102.771 165.267L98.7793 165.011ZM100.2 170.1L93.2432 170.547L93.4995 174.539L100.457 174.092L100.2 170.1ZM93.2432 170.547L86.2861 170.994L86.5424 174.986L93.4995 174.539L93.2432 170.547ZM84.4143 172.99V179.419H88.4143V172.99H84.4143ZM84.4143 179.419V185.849H88.4143V179.419H84.4143ZM86.2861 187.845L93.2432 188.292L93.4995 184.3L86.5424 183.853L86.2861 187.845ZM93.2432 188.292L100.2 188.739L100.457 184.747L93.4995 184.3L93.2432 188.292ZM98.3325 186.871L98.7793 193.828L102.771 193.572L102.324 186.615L98.3325 186.871ZM98.7793 193.828L99.226 200.785L103.218 200.529L102.771 193.572L98.7793 193.828ZM101.222 202.657H115.055V198.657H101.222V202.657ZM115.055 202.657H128.889V198.657H115.055V202.657ZM126.889 200.657V207.98H130.889V200.657H126.889ZM126.889 207.98V215.303H130.889V207.98H126.889ZM128.889 217.303H136.212V213.303H128.889V217.303ZM136.212 217.303H143.536V213.303H136.212V217.303ZM145.536 215.303V207.98H141.536V215.303H145.536ZM145.536 207.98V200.657H141.536V207.98H145.536ZM143.536 202.657H150.859V198.657H143.536V202.657ZM150.859 202.657H158.182V198.657H150.859V202.657ZM160.182 200.657V193.253H156.182V200.657H160.182ZM160.182 193.253V185.849H156.182V193.253H160.182ZM158.054 187.845L165.011 188.292L165.267 184.3L158.31 183.853L158.054 187.845ZM165.011 188.292L171.968 188.739L172.224 184.747L165.267 184.3L165.011 188.292ZM170.097 186.801L170.516 201.082L174.514 200.964L174.095 186.684L170.097 186.801ZM170.516 201.082L170.935 215.362L174.933 215.245L174.514 200.964L170.516 201.082ZM172.934 213.303H165.558V217.303H172.934V213.303ZM165.558 213.303H158.182V217.303H165.558V213.303ZM156.182 215.303V222.627H160.182V215.303H156.182ZM156.182 222.627V229.95H160.182V222.627H156.182ZM158.182 227.95H150.859V231.95H158.182V227.95ZM150.859 227.95H143.536V231.95H150.859V227.95ZM141.536 229.95V236.541H145.536V229.95H141.536ZM141.536 236.541V243.132H145.536V236.541H141.536ZM143.536 241.132H136.212V245.132H143.536V241.132ZM136.212 241.132H128.889V245.132H136.212V241.132ZM130.889 243.132V229.217H126.889V243.132H130.889ZM130.889 229.217V215.303H126.889V229.217H130.889ZM128.889 213.303H115.055V217.303H128.889V213.303ZM115.055 213.303H101.222V217.303H115.055V213.303ZM99.226 215.175L98.7793 222.132L102.771 222.389L103.218 215.431L99.226 215.175ZM98.7793 222.132L98.3325 229.089L102.324 229.346L102.771 222.389L98.7793 222.132ZM100.2 227.222L93.2432 227.668L93.4995 231.66L100.457 231.213L100.2 227.222ZM93.2432 227.668L86.2861 228.115L86.5424 232.107L93.4995 231.66L93.2432 227.668ZM88.4143 230.111V222.707H84.4143V230.111H88.4143ZM88.4143 222.707V215.303H84.4143V222.707H88.4143ZM86.4143 217.303H93.7375V213.303H86.4143V217.303ZM93.7375 217.303H101.061V213.303H93.7375V217.303ZM103.061 215.303V207.98H99.0608V215.303H103.061ZM103.061 207.98V200.657H99.0608V207.98H103.061ZM101.061 198.657H86.4143V202.657H101.061V198.657ZM86.4143 198.657H71.7678V202.657H86.4143V198.657ZM73.7678 200.657V193.334H69.7678V200.657H73.7678ZM73.7678 193.334V186.01H69.7678V193.334H73.7678ZM71.7678 184.01H43.2071V188.01H71.7678V184.01ZM43.2071 184.01H14.6465V188.01H43.2071V184.01ZM16.6465 186.01V179.419H12.6465V186.01H16.6465ZM16.6465 179.419V172.829H12.6465V179.419H16.6465ZM14.6465 174.829H35.8839V170.829H14.6465V174.829ZM35.8839 174.829H57.1213V170.829H35.8839V174.829ZM59.1213 172.829V165.505H55.1213V172.829H59.1213ZM59.1213 165.505V158.182H55.1213V165.505H59.1213ZM57.1213 160.182H64.4445V156.182H57.1213V160.182ZM64.4445 160.182H71.7678V156.182H64.4445V160.182ZM73.7678 158.182V150.859H69.7678V158.182H73.7678ZM73.7678 150.859V143.536H69.7678V150.859H73.7678ZM71.7678 145.536H79.091V141.536H71.7678V145.536ZM79.091 145.536H86.4143V141.536H79.091V145.536ZM84.4143 143.536V150.859H88.4143V143.536H84.4143ZM69.7678 165.505V172.829H73.7678V165.505H69.7678ZM71.7678 174.829H79.091V170.829H71.7678V174.829ZM79.091 174.829H86.4143V170.829H79.091V174.829ZM88.4143 172.829V165.505H84.4143V172.829H88.4143ZM88.4143 165.505V158.182H84.4143V165.505H88.4143ZM86.4143 156.182H79.091V160.182H86.4143V156.182ZM79.091 156.182H71.7678V160.182H79.091V156.182ZM69.7678 158.182V165.505H73.7678V158.182H69.7678ZM126.889 179.419V186.01H130.889V179.419H126.889ZM128.889 184.01H122.298V188.01H128.889V184.01ZM122.298 184.01H115.707V188.01H122.298V184.01ZM117.707 186.01V179.419H113.707V186.01H117.707ZM117.707 179.419V172.829H113.707V179.419H117.707ZM115.707 174.829H122.298V170.829H115.707V174.829ZM122.298 174.829H128.889V170.829H122.298V174.829ZM126.889 172.829V179.419H130.889V172.829H126.889ZM270.425 222.707V230.111H274.425V222.707H270.425ZM272.553 228.115L265.596 227.668L265.339 231.66L272.296 232.107L272.553 228.115ZM265.596 227.668L258.639 227.222L258.382 231.213L265.339 231.66L265.596 227.668ZM260.506 229.089L260.06 222.132L256.068 222.389L256.515 229.346L260.506 229.089ZM260.06 222.132L259.613 215.175L255.621 215.432L256.068 222.389L260.06 222.132ZM257.617 217.303H265.021V213.303H257.617V217.303ZM265.021 217.303H272.425V213.303H265.021V217.303ZM270.425 215.303V222.707H274.425V215.303H270.425ZM185.575 242.692C185.237 243.029 185.051 243.417 184.952 243.647C184.838 243.914 184.748 244.199 184.675 244.474C184.528 245.025 184.409 245.688 184.315 246.397C184.124 247.825 184.01 249.611 184.01 251.432H188.01C188.01 249.76 188.116 248.153 188.28 246.926C188.362 246.308 188.454 245.829 188.541 245.502C188.584 245.338 188.617 245.251 188.63 245.221C188.658 245.154 188.603 245.322 188.4 245.525L185.575 242.692ZM184.01 251.432V257.778H188.01V251.432H184.01ZM186.01 259.778H193.334V255.778H186.01V259.778ZM193.334 259.778H200.657V255.778H193.334V259.778ZM202.657 257.778V250.455H198.657V257.778H202.657ZM202.657 250.455V243.132H198.657V250.455H202.657ZM200.657 241.132H194.311V245.132H200.657V241.132ZM194.311 241.132C192.49 241.132 190.704 241.246 189.276 241.436C188.567 241.531 187.904 241.65 187.352 241.796C187.078 241.869 186.792 241.959 186.526 242.074C186.296 242.172 185.908 242.359 185.571 242.696L188.403 245.521C188.201 245.724 188.033 245.78 188.1 245.751C188.129 245.738 188.217 245.706 188.381 245.662C188.707 245.575 189.187 245.483 189.805 245.401C191.032 245.237 192.639 245.132 194.311 245.132V241.132ZM285.071 265.834V287.071H289.071V265.834H285.071ZM287.071 285.071H265.834V289.071H287.071V285.071ZM265.834 285.071H244.596V289.071H265.834V285.071ZM246.596 287.071V265.834H242.596V287.071H246.596ZM246.596 265.834V244.596H242.596V265.834H246.596ZM244.596 246.596H265.834V242.596H244.596V246.596ZM265.834 246.596H287.071V242.596H265.834V246.596ZM285.071 244.596V265.834H289.071V244.596H285.071ZM342.192 258.51V272.425H346.192V258.51H342.192ZM344.192 270.425H336.869V274.425H344.192V270.425ZM336.869 270.425H329.546V274.425H336.869V270.425ZM327.546 272.425V279.748H331.546V272.425H327.546ZM327.546 279.748V287.071H331.546V279.748H327.546ZM329.546 289.071H336.869V285.071H329.546V289.071ZM336.869 289.071H344.192V285.071H336.869V289.071ZM342.192 287.071V294.394H346.192V287.071H342.192ZM342.192 294.394V301.718H346.192V294.394H342.192ZM344.192 299.718H330.278V303.718H344.192V299.718ZM330.278 299.718H316.364V303.718H330.278V299.718ZM318.364 301.718V294.394H314.364V301.718H318.364ZM318.364 294.394V287.071H314.364V294.394H318.364ZM316.364 285.071H309.041V289.071H316.364V285.071ZM309.041 285.071H301.718V289.071H309.041V285.071ZM303.718 287.071V279.748H299.718V287.071H303.718ZM303.718 279.748V272.425H299.718V279.748H303.718ZM301.718 274.425H309.041V270.425H301.718V274.425ZM309.041 274.425H316.364V270.425H309.041V274.425ZM318.364 272.425V265.101H314.364V272.425H318.364ZM318.364 265.101V257.778H314.364V265.101H318.364ZM316.364 259.778H322.955V255.778H316.364V259.778ZM322.955 259.778H329.546V255.778H322.955V259.778ZM331.546 257.778V251.187H327.546V257.778H331.546ZM331.546 251.187V244.596H327.546V251.187H331.546ZM329.546 246.596H336.869V242.596H329.546V246.596ZM336.869 246.596H344.192V242.596H336.869V246.596ZM342.192 244.596V258.51H346.192V244.596H342.192ZM-2 308.289V358.839H2V308.289H-2ZM0 360.839H50.5494V356.839H0V360.839ZM50.5494 360.839H101.099V356.839H50.5494V360.839ZM103.099 358.824L102.714 308.659L98.7137 308.69L99.0989 358.854L103.099 358.824ZM102.714 308.659L102.328 258.495L98.3285 258.526L98.7137 308.69L102.714 308.659ZM100.344 256.511L50.1796 256.125L50.1489 260.125L100.313 260.51L100.344 256.511ZM50.1796 256.125L0.0153575 255.74L-0.0153575 259.74L50.1489 260.125L50.1796 256.125ZM-2 257.74V308.289H2V257.74H-2ZM257.343 257.339C257.005 257.676 256.818 258.064 256.72 258.293C256.606 258.56 256.516 258.846 256.443 259.12C256.296 259.672 256.177 260.334 256.083 261.044C255.892 262.472 255.778 264.258 255.778 266.078H259.778C259.778 264.407 259.884 262.8 260.047 261.573C260.13 260.955 260.222 260.475 260.308 260.149C260.352 259.984 260.385 259.897 260.397 259.868C260.426 259.801 260.371 259.969 260.167 260.171L257.343 257.339ZM255.778 266.078V272.425H259.778V266.078H255.778ZM257.778 274.425H265.101V270.425H257.778V274.425ZM265.101 274.425H272.425V270.425H265.101V274.425ZM274.425 272.425V265.101H270.425V272.425H274.425ZM274.425 265.101V257.778H270.425V265.101H274.425ZM272.425 255.778H266.078V259.778H272.425V255.778ZM266.078 255.778C264.258 255.778 262.472 255.892 261.044 256.083C260.334 256.177 259.672 256.296 259.12 256.443C258.846 256.516 258.56 256.606 258.293 256.72C258.064 256.818 257.676 257.005 257.339 257.343L260.171 260.167C259.969 260.371 259.801 260.426 259.868 260.397C259.897 260.385 259.984 260.352 260.149 260.308C260.475 260.222 260.955 260.13 261.573 260.047C262.8 259.884 264.407 259.778 266.078 259.778V255.778ZM84.4143 308.309V344.192H88.4143V308.309H84.4143ZM86.4143 342.192H50.5304V346.192H86.4143V342.192ZM50.5304 342.192H14.6465V346.192H50.5304V342.192ZM16.6465 344.192V308.309H12.6465V344.192H16.6465ZM16.6465 308.309V272.425H12.6465V308.309H16.6465ZM14.6465 274.425H50.5304V270.425H14.6465V274.425ZM50.5304 274.425H86.4143V270.425H50.5304V274.425ZM84.4143 272.425V308.309H88.4143V272.425H84.4143ZM27.293 308.309V329.546H31.293V308.309H27.293ZM29.293 331.546H50.5304V327.546H29.293V331.546ZM50.5304 331.546H71.7678V327.546H50.5304V331.546ZM73.7678 329.546V308.309H69.7678V329.546H73.7678ZM73.7678 308.309V287.071H69.7678V308.309H73.7678ZM71.7678 285.071H50.5304V289.071H71.7678V285.071ZM50.5304 285.071H29.293V289.071H50.5304V285.071ZM27.293 287.071V308.309H31.293V287.071H27.293ZM342.192 351.516V358.839H346.192V351.516H342.192ZM344.192 360.839H351.516V356.839H344.192V360.839ZM351.516 360.839H358.839V356.839H351.516V360.839ZM360.839 358.839V351.516H356.839V358.839H360.839ZM360.839 351.516V344.192H356.839V351.516H360.839ZM358.839 342.192H351.516V346.192H358.839V342.192ZM351.516 342.192H344.192V346.192H351.516V342.192ZM342.192 344.192V351.516H346.192V344.192H342.192Z" fill="#333333" mask="url(#path-1-inside-1_2214_2236)"/>
</svg>
