<svg width="251" height="281" viewBox="0 0 251 281" fill="none" xmlns="http://www.w3.org/2000/svg">
<mask id="path-1-inside-1_2405_20" fill="white">
<path fill-rule="evenodd" clip-rule="evenodd" d="M176.59 52.3455C176.995 52.7278 177.406 53.1154 177.824 53.5101C179.105 54.7212 179.101 56.7559 177.821 57.968C177.241 58.5167 176.673 59.0543 176.113 59.5831C173.606 61.9528 171.285 64.1464 169.021 66.3681C167.271 68.1825 166.04 68.3769 163.837 66.9513C149.451 57.6198 133.704 54.4445 116.855 57.1014C103.564 59.2 91.8175 65.0908 82.5259 73.4757C81.743 74.1823 80.6658 74.4675 79.6356 74.2422C71.821 72.5338 63.5465 72.2395 55.1338 73.6042C19.9229 79.314 -3.29727 111.48 0.382427 144.914C1.71473 157.286 5.96544 168.452 13.5786 178.285C23.2854 190.91 36.0374 198.904 51.581 202.33C53.738 202.774 55.1972 203.409 55.0703 206.137C54.88 211.973 54.9434 217.747 55.0703 223.584C55.1338 226.058 54.3725 227.009 51.8348 226.946C45.4904 226.819 39.1461 226.883 32.8018 226.946C31.5964 226.946 30.2641 227.073 29.1222 227.517C24.1102 229.357 21.2552 234.305 22.1434 239.317C23.0316 244.202 27.4726 247.946 32.8018 248.009C39.273 248.136 45.6808 248.136 52.152 248.009C54.3725 247.946 55.1338 248.707 55.0703 250.927C55.028 254.945 55.0421 258.964 55.0562 262.982C55.0633 264.991 55.0703 267 55.0703 269.009C55.0703 276.241 59.321 281.063 65.6653 280.999C71.8827 280.936 76.1334 276.114 76.1334 269.136C76.1969 262.982 76.1969 256.891 76.1334 250.737C76.1334 248.707 76.8948 247.946 78.9249 248.009C81.1689 248.051 83.4412 248.037 85.704 248.023C86.8318 248.016 87.9573 248.009 89.0758 248.009C90.6065 248.009 92.1531 248.025 93.6917 248.041C95.2141 248.057 96.7285 248.073 98.2116 248.073C104.492 248.009 109.187 243.378 109.124 237.351C109.06 231.387 104.492 227.073 98.2116 227.009C91.8673 226.946 85.523 226.883 79.1787 227.009C76.8313 227.009 76.0066 226.185 76.07 223.837C76.1969 218.001 76.2603 212.227 76.07 206.39C75.9431 203.789 76.9582 202.901 79.3056 202.394C90.0231 200.17 99.6652 195.328 107.645 188.633C108.458 187.951 109.554 187.705 110.581 187.976C126.077 192.062 143.181 190.636 158.847 182.169C181.592 169.857 193.451 150.157 194.293 124.107C194.747 110.433 190.924 97.9266 183.472 86.5215C182.176 84.4478 182.305 83.2166 184.055 81.5965C187.165 78.7454 190.081 75.6998 192.997 72.6543L192.997 72.6539C194.358 71.2282 195.395 71.2282 196.756 72.6539C199.218 75.246 201.746 77.7732 204.338 80.2357C207.254 83.087 210.883 83.9942 214.771 82.8278C222.677 80.4301 225.139 70.969 219.372 64.9425C217.125 62.5976 214.841 60.3264 212.659 58.1567V58.1567C211.5 57.0045 211.505 55.1298 212.67 53.984C216.622 50.0976 220.414 46.4048 224.309 42.6134V42.6134C224.641 42.2901 225.194 42.5519 225.151 43.0134C225.111 43.4454 225.07 43.8776 225.029 44.3102C224.816 46.5476 224.603 48.7945 224.556 51.0748C224.426 57.231 228.703 61.832 234.795 62.2856C239.914 62.7392 245.033 58.5271 245.941 53.0189C246.198 51.4751 246.342 49.903 246.485 48.34C246.558 47.5411 246.631 46.7446 246.718 45.9555C247.098 42.6587 247.453 39.3558 247.808 36.0524C248.604 28.642 249.401 21.2293 250.477 13.8785C251.708 5.5191 246.07 -0.766678 238.618 0.0757467C231.742 0.848282 224.844 1.55174 217.95 2.25475C213.278 2.73114 208.608 3.20732 203.949 3.70465L203.764 3.7236C201.295 3.97664 198.768 4.2357 196.302 4.74148C190.924 5.90792 187.684 10.8977 188.332 16.7298C188.85 21.59 193.386 25.7373 198.57 25.6725C200.615 25.6725 202.83 25.4236 205.016 25.1779C206.072 25.0592 207.121 24.9413 208.141 24.8525C208.913 24.7853 209.617 25.5131 209.068 26.0613V26.0613C204.791 30.4678 200.514 34.8744 196.108 39.1513C195.654 39.6049 193.905 39.2809 193.257 38.6977C191.731 37.3373 190.285 35.8719 188.833 34.4018C188.003 33.561 187.172 32.7187 186.323 31.8935C181.463 27.0981 174.918 26.8389 170.511 31.3103C166.234 35.7168 166.493 42.4562 171.224 47.1867C172.956 48.9192 174.714 50.5764 176.59 52.3455ZM125.415 165.126C124.677 166.768 125.748 168.69 127.548 168.69V168.69C152.561 168.69 172.844 148.472 172.844 123.459C173.557 101.232 155.866 77.9676 127.677 77.838C120.146 77.8022 113.29 79.4581 107.315 82.3692C105.325 83.3386 105.24 86.0444 106.956 87.4423C118.746 97.0462 127.248 110.769 130.123 126.833C132.532 140.335 130.612 153.557 125.415 165.126ZM86.9102 102.779C87.6698 101.243 89.5883 100.74 91.0025 101.707C102.461 109.547 110.153 122.68 110.075 138.506C110.038 146.056 108.247 153.027 105.099 159.098C104.307 160.625 102.365 161.08 100.974 160.067C89.6095 151.799 82.2253 138.353 82.1862 123.135C82.1469 116.021 83.8119 109.044 86.9102 102.779ZM65.7922 93.8425C66.429 93.8476 66.831 94.5176 66.5624 95.095C61.0065 107.04 58.9229 120.72 61.3848 134.605C64.2693 150.833 72.5857 164.38 83.9227 174.034C85.6366 175.494 85.4477 178.252 83.3761 179.133C77.9573 181.438 71.9703 182.724 65.6653 182.79C41.1763 182.98 21.0014 162.615 21.0649 138.253C21.1918 113.764 41.2398 93.8425 65.7922 93.8425V93.8425Z"/>
</mask>
<path fill-rule="evenodd" clip-rule="evenodd" d="M176.59 52.3455C176.995 52.7278 177.406 53.1154 177.824 53.5101C179.105 54.7212 179.101 56.7559 177.821 57.968C177.241 58.5167 176.673 59.0543 176.113 59.5831C173.606 61.9528 171.285 64.1464 169.021 66.3681C167.271 68.1825 166.04 68.3769 163.837 66.9513C149.451 57.6198 133.704 54.4445 116.855 57.1014C103.564 59.2 91.8175 65.0908 82.5259 73.4757C81.743 74.1823 80.6658 74.4675 79.6356 74.2422C71.821 72.5338 63.5465 72.2395 55.1338 73.6042C19.9229 79.314 -3.29727 111.48 0.382427 144.914C1.71473 157.286 5.96544 168.452 13.5786 178.285C23.2854 190.91 36.0374 198.904 51.581 202.33C53.738 202.774 55.1972 203.409 55.0703 206.137C54.88 211.973 54.9434 217.747 55.0703 223.584C55.1338 226.058 54.3725 227.009 51.8348 226.946C45.4904 226.819 39.1461 226.883 32.8018 226.946C31.5964 226.946 30.2641 227.073 29.1222 227.517C24.1102 229.357 21.2552 234.305 22.1434 239.317C23.0316 244.202 27.4726 247.946 32.8018 248.009C39.273 248.136 45.6808 248.136 52.152 248.009C54.3725 247.946 55.1338 248.707 55.0703 250.927C55.028 254.945 55.0421 258.964 55.0562 262.982C55.0633 264.991 55.0703 267 55.0703 269.009C55.0703 276.241 59.321 281.063 65.6653 280.999C71.8827 280.936 76.1334 276.114 76.1334 269.136C76.1969 262.982 76.1969 256.891 76.1334 250.737C76.1334 248.707 76.8948 247.946 78.9249 248.009C81.1689 248.051 83.4412 248.037 85.704 248.023C86.8318 248.016 87.9573 248.009 89.0758 248.009C90.6065 248.009 92.1531 248.025 93.6917 248.041C95.2141 248.057 96.7285 248.073 98.2116 248.073C104.492 248.009 109.187 243.378 109.124 237.351C109.06 231.387 104.492 227.073 98.2116 227.009C91.8673 226.946 85.523 226.883 79.1787 227.009C76.8313 227.009 76.0066 226.185 76.07 223.837C76.1969 218.001 76.2603 212.227 76.07 206.39C75.9431 203.789 76.9582 202.901 79.3056 202.394C90.0231 200.17 99.6652 195.328 107.645 188.633C108.458 187.951 109.554 187.705 110.581 187.976C126.077 192.062 143.181 190.636 158.847 182.169C181.592 169.857 193.451 150.157 194.293 124.107C194.747 110.433 190.924 97.9266 183.472 86.5215C182.176 84.4478 182.305 83.2166 184.055 81.5965C187.165 78.7454 190.081 75.6998 192.997 72.6543L192.997 72.6539C194.358 71.2282 195.395 71.2282 196.756 72.6539C199.218 75.246 201.746 77.7732 204.338 80.2357C207.254 83.087 210.883 83.9942 214.771 82.8278C222.677 80.4301 225.139 70.969 219.372 64.9425C217.125 62.5976 214.841 60.3264 212.659 58.1567V58.1567C211.5 57.0045 211.505 55.1298 212.67 53.984C216.622 50.0976 220.414 46.4048 224.309 42.6134V42.6134C224.641 42.2901 225.194 42.5519 225.151 43.0134C225.111 43.4454 225.07 43.8776 225.029 44.3102C224.816 46.5476 224.603 48.7945 224.556 51.0748C224.426 57.231 228.703 61.832 234.795 62.2856C239.914 62.7392 245.033 58.5271 245.941 53.0189C246.198 51.4751 246.342 49.903 246.485 48.34C246.558 47.5411 246.631 46.7446 246.718 45.9555C247.098 42.6587 247.453 39.3558 247.808 36.0524C248.604 28.642 249.401 21.2293 250.477 13.8785C251.708 5.5191 246.07 -0.766678 238.618 0.0757467C231.742 0.848282 224.844 1.55174 217.95 2.25475C213.278 2.73114 208.608 3.20732 203.949 3.70465L203.764 3.7236C201.295 3.97664 198.768 4.2357 196.302 4.74148C190.924 5.90792 187.684 10.8977 188.332 16.7298C188.85 21.59 193.386 25.7373 198.57 25.6725C200.615 25.6725 202.83 25.4236 205.016 25.1779C206.072 25.0592 207.121 24.9413 208.141 24.8525C208.913 24.7853 209.617 25.5131 209.068 26.0613V26.0613C204.791 30.4678 200.514 34.8744 196.108 39.1513C195.654 39.6049 193.905 39.2809 193.257 38.6977C191.731 37.3373 190.285 35.8719 188.833 34.4018C188.003 33.561 187.172 32.7187 186.323 31.8935C181.463 27.0981 174.918 26.8389 170.511 31.3103C166.234 35.7168 166.493 42.4562 171.224 47.1867C172.956 48.9192 174.714 50.5764 176.59 52.3455ZM125.415 165.126C124.677 166.768 125.748 168.69 127.548 168.69V168.69C152.561 168.69 172.844 148.472 172.844 123.459C173.557 101.232 155.866 77.9676 127.677 77.838C120.146 77.8022 113.29 79.4581 107.315 82.3692C105.325 83.3386 105.24 86.0444 106.956 87.4423C118.746 97.0462 127.248 110.769 130.123 126.833C132.532 140.335 130.612 153.557 125.415 165.126ZM86.9102 102.779C87.6698 101.243 89.5883 100.74 91.0025 101.707C102.461 109.547 110.153 122.68 110.075 138.506C110.038 146.056 108.247 153.027 105.099 159.098C104.307 160.625 102.365 161.08 100.974 160.067C89.6095 151.799 82.2253 138.353 82.1862 123.135C82.1469 116.021 83.8119 109.044 86.9102 102.779ZM65.7922 93.8425C66.429 93.8476 66.831 94.5176 66.5624 95.095C61.0065 107.04 58.9229 120.72 61.3848 134.605C64.2693 150.833 72.5857 164.38 83.9227 174.034C85.6366 175.494 85.4477 178.252 83.3761 179.133C77.9573 181.438 71.9703 182.724 65.6653 182.79C41.1763 182.98 21.0014 162.615 21.0649 138.253C21.1918 113.764 41.2398 93.8425 65.7922 93.8425V93.8425Z" fill="#EC3396"/>
<path d="M176.59 52.3455L175.218 53.8006L175.218 53.8006L176.59 52.3455ZM176.113 59.5831L177.487 61.0366L177.487 61.0366L176.113 59.5831ZM169.021 66.3681L167.62 64.9405L167.6 64.9599L167.581 64.9798L169.021 66.3681ZM163.837 66.9513L162.748 68.6292L162.75 68.6304L163.837 66.9513ZM116.855 57.1014L116.544 55.1258L116.543 55.1259L116.855 57.1014ZM55.1338 73.6042L55.4539 75.5784L55.454 75.5784L55.1338 73.6042ZM0.382427 144.914L2.37093 144.7L2.37042 144.695L0.382427 144.914ZM13.5786 178.285L15.1642 177.066L15.1601 177.061L13.5786 178.285ZM51.581 202.33L51.1505 204.283L51.164 204.286L51.1777 204.289L51.581 202.33ZM55.0703 206.137L53.0725 206.044L53.0718 206.058L53.0714 206.071L55.0703 206.137ZM55.0703 223.584L53.0708 223.627L53.071 223.635L55.0703 223.584ZM51.8348 226.946L51.8847 224.947L51.8747 224.946L51.8348 226.946ZM32.8018 226.946V228.946H32.8118L32.8218 228.946L32.8018 226.946ZM29.1222 227.517L29.8114 229.394L29.8293 229.388L29.8471 229.381L29.1222 227.517ZM22.1434 239.317L20.1741 239.666L20.1757 239.675L22.1434 239.317ZM32.8018 248.009L32.8411 246.009L32.8334 246.009L32.8257 246.009L32.8018 248.009ZM52.152 248.009L52.1912 250.009L52.2001 250.009L52.2091 250.008L52.152 248.009ZM55.0703 250.927L53.0711 250.87L53.0706 250.888L53.0704 250.906L55.0703 250.927ZM55.0562 262.982L57.0562 262.975L57.0562 262.975L55.0562 262.982ZM65.6653 280.999L65.6853 282.999L65.6857 282.999L65.6653 280.999ZM76.1334 269.136L74.1335 269.115L74.1334 269.125V269.136H76.1334ZM76.1334 250.737H74.1334V250.747L74.1335 250.758L76.1334 250.737ZM78.9249 248.009L78.8625 250.008L78.8748 250.008L78.8872 250.009L78.9249 248.009ZM85.704 248.023L85.6915 246.023L85.6915 246.023L85.704 248.023ZM93.6917 248.041L93.6709 250.041L93.6709 250.041L93.6917 248.041ZM98.2116 248.073V250.073H98.2217L98.2318 250.072L98.2116 248.073ZM109.124 237.351L111.124 237.33L111.124 237.329L109.124 237.351ZM98.2116 227.009L98.2318 225.01L98.2316 225.01L98.2116 227.009ZM79.1787 227.009V229.009H79.1987L79.2187 229.009L79.1787 227.009ZM76.07 223.837L78.0693 223.891L78.0695 223.881L76.07 223.837ZM76.07 206.39L78.0689 206.325L78.0684 206.309L78.0676 206.293L76.07 206.39ZM79.3056 202.394L78.8993 200.435L78.8911 200.437L78.8829 200.439L79.3056 202.394ZM158.847 182.169L159.798 183.929L159.799 183.928L158.847 182.169ZM194.293 124.107L192.295 124.04L192.295 124.042L194.293 124.107ZM183.472 86.5215L181.776 87.5815L181.786 87.5986L181.797 87.6155L183.472 86.5215ZM184.055 81.5965L182.703 80.1222L182.696 80.129L184.055 81.5965ZM192.997 72.6543L191.583 71.24L191.568 71.2554L191.552 71.2711L192.997 72.6543ZM192.997 72.6539L194.412 74.0681L194.428 74.0517L194.444 74.0348L192.997 72.6539ZM196.756 72.6539L198.206 71.2764L198.203 71.2729L196.756 72.6539ZM204.338 80.2357L205.736 78.8057L205.726 78.7956L205.715 78.7857L204.338 80.2357ZM214.771 82.8278L215.346 84.7434L215.351 84.7417L214.771 82.8278ZM219.372 64.9425L220.817 63.5597L220.816 63.5587L219.372 64.9425ZM225.029 44.3102L223.038 44.1208L223.038 44.1208L225.029 44.3102ZM224.556 51.0748L226.556 51.1169L226.556 51.1156L224.556 51.0748ZM234.795 62.2856L234.971 60.2934L234.957 60.2921L234.943 60.2911L234.795 62.2856ZM245.941 53.0189L243.968 52.6901L243.967 52.6939L245.941 53.0189ZM246.485 48.34L248.476 48.5221L248.476 48.5221L246.485 48.34ZM246.718 45.9555L244.731 45.7267L244.73 45.7346L246.718 45.9555ZM247.808 36.0524L249.796 36.2661L249.796 36.2661L247.808 36.0524ZM250.477 13.8785L248.498 13.5871L248.498 13.5889L250.477 13.8785ZM238.618 0.0757467L238.841 2.06324L238.843 2.06309L238.618 0.0757467ZM217.95 2.25475L218.153 4.24443L218.153 4.24443L217.95 2.25475ZM203.949 3.70465L204.153 5.69424L204.161 5.69335L203.949 3.70465ZM203.764 3.7236L203.968 5.71318L203.968 5.71317L203.764 3.7236ZM196.302 4.74148L195.9 2.78228L195.889 2.78453L195.878 2.78692L196.302 4.74148ZM188.332 16.7298L190.32 16.5177L190.319 16.509L188.332 16.7298ZM198.57 25.6725V23.6725H198.558L198.545 23.6727L198.57 25.6725ZM205.016 25.1779L205.239 27.1653L205.239 27.1653L205.016 25.1779ZM196.108 39.1513L194.715 37.7161L194.704 37.7265L194.694 37.7371L196.108 39.1513ZM193.257 38.6977L194.595 37.2111L194.588 37.2051L193.257 38.6977ZM188.833 34.4018L190.257 32.9967L190.257 32.9967L188.833 34.4018ZM186.323 31.8935L184.918 33.3172L184.923 33.3223L184.929 33.3275L186.323 31.8935ZM170.511 31.3103L169.087 29.9064L169.081 29.9118L169.076 29.9173L170.511 31.3103ZM171.224 47.1867L169.81 48.6009L169.81 48.6009L171.224 47.1867ZM172.844 123.459L170.845 123.394L170.844 123.427V123.459H172.844ZM127.677 77.838L127.668 79.838L127.668 79.838L127.677 77.838ZM130.123 126.833L132.092 126.482L132.092 126.48L130.123 126.833ZM110.075 138.506L112.075 138.516L112.075 138.516L110.075 138.506ZM82.1862 123.135L84.1862 123.129L84.1861 123.124L82.1862 123.135ZM61.3848 134.605L59.4155 134.954L59.4156 134.955L61.3848 134.605ZM65.6653 182.79L65.6809 184.79L65.686 184.79L65.6653 182.79ZM21.0649 138.253L19.0649 138.242L19.0649 138.247L21.0649 138.253ZM83.9227 174.034L82.626 175.557L83.9227 174.034ZM83.3761 179.133L82.5934 177.293L83.3761 179.133ZM107.645 188.633L106.359 187.101L107.645 188.633ZM110.581 187.976L111.091 186.042L110.581 187.976ZM91.0025 101.707L92.1318 100.057L91.0025 101.707ZM86.9102 102.779L88.7029 103.666L86.9102 102.779ZM107.315 82.3692L108.191 84.1672L107.315 82.3692ZM106.956 87.4423L105.693 88.993L106.956 87.4423ZM66.5624 95.095L64.749 94.2515L66.5624 95.095ZM82.5259 73.4757L81.186 71.9909L82.5259 73.4757ZM79.6356 74.2422L80.0627 72.2884L79.6356 74.2422ZM125.415 165.126L127.239 165.946L125.415 165.126ZM208.141 24.8525L208.314 26.845L208.141 24.8525ZM212.67 53.984L214.073 55.4099L212.67 53.984ZM105.099 159.098L103.324 158.177L105.099 159.098ZM100.974 160.067L99.7973 161.685L100.974 160.067ZM225.151 43.0134L227.142 43.1971L225.151 43.0134ZM177.824 53.5101L176.45 54.9634L177.824 53.5101ZM177.821 57.968L176.446 56.5157L177.821 57.968ZM179.198 52.0567C178.779 51.661 178.367 51.2726 177.962 50.8904L175.218 53.8006C175.623 54.183 176.033 54.5697 176.45 54.9634L179.198 52.0567ZM177.487 61.0366C178.046 60.5079 178.616 59.9697 179.196 59.4204L176.446 56.5157C175.867 57.0637 175.299 57.6007 174.739 58.1296L177.487 61.0366ZM170.421 67.7957C172.67 65.5893 174.977 63.4088 177.487 61.0366L174.739 58.1296C172.235 60.4969 169.9 62.7034 167.62 64.9405L170.421 67.7957ZM162.75 68.6304C163.971 69.4206 165.329 70.0433 166.839 69.8602C168.345 69.6777 169.498 68.7544 170.46 67.7564L167.581 64.9798C166.794 65.7963 166.456 65.8774 166.358 65.8893C166.265 65.9006 165.905 65.9076 164.923 65.2722L162.75 68.6304ZM117.167 59.077C133.541 56.4948 148.787 59.5736 162.748 68.6292L164.925 65.2734C150.114 55.666 133.866 52.3942 116.544 55.1258L117.167 59.077ZM83.8659 74.9605C92.8794 66.8264 104.272 61.113 117.167 59.0769L116.543 55.1259C102.857 57.287 90.7555 63.3552 81.186 71.9909L83.8659 74.9605ZM55.454 75.5784C63.6153 74.2545 71.6363 74.5406 79.2084 76.1961L80.0627 72.2884C72.0058 70.5269 63.4778 70.2246 54.8136 71.63L55.454 75.5784ZM2.37042 144.695C-1.19458 112.303 21.3103 81.1152 55.4539 75.5784L54.8137 71.63C18.5355 77.5129 -5.39996 110.656 -1.60557 145.133L2.37042 144.695ZM15.1601 177.061C7.78955 167.541 3.66653 156.731 2.37093 144.7L-1.60608 145.128C-0.237072 157.84 4.14134 169.362 11.9972 179.51L15.1601 177.061ZM52.0115 200.377C36.9188 197.05 24.579 189.312 15.1642 177.066L11.9931 179.504C21.9918 192.509 35.1561 200.758 51.1505 204.283L52.0115 200.377ZM57.0682 206.23C57.1493 204.485 56.7246 202.971 55.518 201.888C54.4584 200.938 53.0601 200.593 51.9843 200.371L51.1777 204.289C52.2589 204.512 52.6687 204.706 52.8463 204.865C52.8768 204.893 53.1182 205.06 53.0725 206.044L57.0682 206.23ZM57.0699 223.54C56.9432 217.714 56.8807 211.984 57.0693 206.202L53.0714 206.071C52.8793 211.963 52.9437 217.779 53.0708 223.627L57.0699 223.54ZM51.7848 228.945C53.2024 228.981 54.7877 228.771 55.8951 227.576C56.9635 226.422 57.1036 224.855 57.0697 223.532L53.071 223.635C53.0846 224.164 53.0493 224.5 53.001 224.706C52.9564 224.896 52.9181 224.903 52.9609 224.857C53.069 224.74 53.0048 224.975 51.8847 224.947L51.7848 228.945ZM32.8218 228.946C39.1711 228.882 45.4854 228.819 51.7948 228.946L51.8747 224.946C45.4954 224.819 39.1211 224.883 32.7818 224.946L32.8218 228.946ZM29.8471 229.381C30.6538 229.067 31.7006 228.946 32.8018 228.946V224.946C31.4922 224.946 29.8744 225.078 28.3973 225.653L29.8471 229.381ZM24.1127 238.968C23.3991 234.942 25.6793 230.911 29.8114 229.394L28.4329 225.639C22.541 227.802 19.1113 233.669 20.1741 239.666L24.1127 238.968ZM32.8257 246.009C28.4104 245.957 24.8204 242.86 24.1112 238.96L20.1757 239.675C21.2429 245.545 26.5348 249.935 32.778 250.009L32.8257 246.009ZM52.1128 246.009C45.6677 246.136 39.2861 246.136 32.8411 246.009L32.7626 250.009C39.26 250.136 45.6939 250.136 52.1912 250.009L52.1128 246.009ZM57.0695 250.985C57.1046 249.757 56.9566 248.272 55.8819 247.198C54.8071 246.123 53.3228 245.975 52.0948 246.01L52.2091 250.008C52.6634 249.995 52.9248 250.03 53.0615 250.065C53.1786 250.094 53.1326 250.105 53.0534 250.026C52.9742 249.947 52.9851 249.901 53.0149 250.018C53.0496 250.155 53.0841 250.416 53.0711 250.87L57.0695 250.985ZM57.0562 262.975C57.0421 258.954 57.0281 254.95 57.0702 250.948L53.0704 250.906C53.028 254.941 53.0422 258.973 53.0562 262.989L57.0562 262.975ZM57.0703 269.009C57.0703 266.996 57.0633 264.983 57.0562 262.975L53.0562 262.989C53.0633 264.998 53.0703 267.004 53.0703 269.009H57.0703ZM65.6453 279C63.0184 279.026 60.9366 278.057 59.4879 276.416C58.0177 274.751 57.0703 272.241 57.0703 269.009H53.0703C53.0703 273.009 54.2483 276.526 56.4895 279.064C58.7523 281.626 61.968 283.036 65.6853 282.999L65.6453 279ZM74.1334 269.136C74.1334 272.223 73.1965 274.676 71.7311 276.338C70.2816 277.981 68.2105 278.973 65.6449 279L65.6857 282.999C69.3376 282.962 72.5006 281.512 74.7307 278.984C76.945 276.474 78.1334 273.027 78.1334 269.136H74.1334ZM74.1335 250.758C74.1968 256.898 74.1968 262.975 74.1335 269.115L78.1333 269.156C78.1969 262.989 78.1969 256.884 78.1333 250.716L74.1335 250.758ZM78.9874 246.01C77.8025 245.973 76.4048 246.141 75.3665 247.161C74.3349 248.174 74.1334 249.564 74.1334 250.737H78.1334C78.1334 250.341 78.1723 250.115 78.2051 250.002C78.2331 249.905 78.2399 249.946 78.1693 250.015C78.0977 250.085 78.0539 250.08 78.1426 250.057C78.2497 250.029 78.4697 249.996 78.8625 250.008L78.9874 246.01ZM85.6915 246.023C83.4243 246.037 81.1773 246.051 78.9627 246.009L78.8872 250.009C81.1606 250.052 83.458 250.037 85.7164 250.023L85.6915 246.023ZM89.0758 246.009C87.95 246.009 86.8183 246.016 85.6915 246.023L85.7164 250.023C86.8454 250.016 87.9646 250.009 89.0758 250.009V246.009ZM93.7124 246.041C92.1756 246.025 90.6186 246.009 89.0758 246.009V250.009C90.5944 250.009 92.1306 250.025 93.6709 250.041L93.7124 246.041ZM98.2116 246.073C96.7407 246.073 95.2367 246.057 93.7124 246.041L93.6709 250.041C95.1914 250.057 96.7164 250.073 98.2116 250.073V246.073ZM107.124 237.372C107.175 242.225 103.438 246.02 98.1914 246.073L98.2318 250.072C105.547 249.999 111.199 244.531 111.124 237.33L107.124 237.372ZM98.1914 229.009C103.486 229.063 107.073 232.596 107.124 237.372L111.124 237.329C111.048 230.178 105.498 225.083 98.2318 225.01L98.1914 229.009ZM79.2187 229.009C85.528 228.883 91.8423 228.946 98.1916 229.009L98.2316 225.01C91.8923 224.946 85.518 224.882 79.1387 225.01L79.2187 229.009ZM74.0707 223.783C74.0353 225.094 74.2088 226.603 75.2948 227.706C76.375 228.804 77.8768 229.009 79.1787 229.009V225.009C78.6935 225.009 78.4007 224.965 78.2339 224.918C78.0853 224.877 78.0961 224.85 78.1458 224.901C78.2484 225.005 78.0413 224.928 78.0693 223.891L74.0707 223.783ZM74.0711 206.456C74.2596 212.238 74.1971 217.968 74.0705 223.794L78.0695 223.881C78.1967 218.033 78.2611 212.217 78.0689 206.325L74.0711 206.456ZM78.8829 200.439C77.6085 200.714 76.2242 201.176 75.2511 202.294C74.2316 203.466 73.9976 204.956 74.0724 206.488L78.0676 206.293C78.0155 205.224 78.2256 204.969 78.2687 204.92C78.3583 204.817 78.6553 204.58 79.7282 204.348L78.8829 200.439ZM106.359 187.101C98.6244 193.59 89.282 198.281 78.8993 200.435L79.7119 204.352C90.7642 202.059 100.706 197.065 108.93 190.166L106.359 187.101ZM157.896 180.41C142.699 188.623 126.12 190.005 111.091 186.042L110.071 189.91C126.035 194.119 143.663 192.649 159.798 183.929L157.896 180.41ZM192.295 124.042C191.474 149.403 179.996 168.447 157.895 180.41L159.799 183.928C183.188 171.267 195.428 150.911 196.292 124.171L192.295 124.042ZM181.797 87.6155C189.043 98.7042 192.734 110.81 192.295 124.04L196.292 124.173C196.761 110.057 192.805 97.1491 185.146 85.4275L181.797 87.6155ZM182.696 80.129C181.694 81.0564 180.805 82.1815 180.634 83.6588C180.466 85.1136 181.053 86.4251 181.776 87.5815L185.168 85.4615C184.594 84.5442 184.598 84.2032 184.608 84.119C184.615 84.0573 184.666 83.7567 185.414 83.0641L182.696 80.129ZM191.552 71.2711C188.629 74.3245 185.758 77.3225 182.703 80.1222L185.406 83.0708C188.573 80.1683 191.533 77.0751 194.442 74.0374L191.552 71.2711ZM191.583 71.2397L191.583 71.24L194.411 74.0685L194.412 74.0681L191.583 71.2397ZM198.203 71.2729C197.412 70.4449 196.316 69.5847 194.877 69.5847C193.437 69.5847 192.341 70.4449 191.551 71.2729L194.444 74.0348C194.707 73.7598 194.878 73.6357 194.965 73.5856C195.036 73.5448 194.994 73.5847 194.877 73.5847C194.759 73.5847 194.718 73.5448 194.789 73.5856C194.876 73.6357 195.047 73.7598 195.309 74.0348L198.203 71.2729ZM205.715 78.7857C203.148 76.3468 200.645 73.8437 198.206 71.2764L195.306 74.0314C197.792 76.6482 200.343 79.1997 202.96 81.6857L205.715 78.7857ZM214.196 80.9121C211.013 81.8672 208.137 81.1537 205.736 78.8057L202.94 81.6657C206.37 85.0202 210.753 86.1212 215.346 84.7434L214.196 80.9121ZM217.927 66.3253C222.676 71.2879 220.651 78.9545 214.19 80.9139L215.351 84.7417C224.702 81.9057 227.602 70.6502 220.817 63.5597L217.927 66.3253ZM211.248 59.5748C213.433 61.7471 215.7 64.0016 217.928 66.3263L220.816 63.5587C218.549 61.1936 216.248 58.9057 214.069 56.7385L211.248 59.5748ZM222.913 41.1804C219.02 44.9714 215.223 48.6676 211.268 52.5581L214.073 55.4099C218.02 51.5276 221.809 47.8383 225.704 44.0464L222.913 41.1804ZM227.02 44.4995C227.061 44.0674 227.102 43.6324 227.142 43.1971L223.159 42.8298C223.12 43.2585 223.079 43.6878 223.038 44.1208L227.02 44.4995ZM226.556 51.1156C226.6 48.9219 226.806 46.7487 227.02 44.4995L223.038 44.1208C222.826 46.3466 222.605 48.6671 222.556 51.034L226.556 51.1156ZM234.943 60.2911C229.894 59.9151 226.449 56.1919 226.556 51.1169L222.556 51.0327C222.404 58.2701 227.513 63.7489 234.646 64.2801L234.943 60.2911ZM243.967 52.6939C243.211 57.2877 238.933 60.6444 234.971 60.2934L234.618 64.2778C240.895 64.834 246.856 59.7664 247.914 53.3439L243.967 52.6939ZM244.493 48.1578C244.349 49.7335 244.211 51.2316 243.968 52.6901L247.913 53.3477C248.185 51.7187 248.335 50.0724 248.476 48.5221L244.493 48.1578ZM244.73 45.7346C244.64 46.5463 244.566 47.3623 244.493 48.1579L248.476 48.5221C248.55 47.7199 248.621 46.9428 248.706 46.1764L244.73 45.7346ZM245.819 35.8387C245.464 39.1433 245.11 42.4387 244.731 45.7267L248.705 46.1843C249.086 42.8787 249.442 39.5682 249.796 36.2661L245.819 35.8387ZM248.498 13.5889C247.416 20.9839 246.615 28.4347 245.819 35.8387L249.796 36.2661C250.594 28.8493 251.386 21.4747 252.456 14.1681L248.498 13.5889ZM238.843 2.06309C241.922 1.71495 244.545 2.82983 246.296 4.84C248.057 6.86288 249.038 9.91991 248.498 13.5871L252.455 14.17C253.146 9.47774 251.924 5.21215 249.312 2.21288C246.689 -0.799083 242.766 -2.40588 238.393 -1.9116L238.843 2.06309ZM218.153 4.24443C225.045 3.5416 231.954 2.83711 238.841 2.06324L238.395 -1.91175C231.531 -1.14055 224.643 -0.438115 217.747 0.265068L218.153 4.24443ZM204.161 5.69335C208.815 5.19661 213.48 4.7209 218.153 4.24443L217.747 0.265068C213.076 0.741376 208.401 1.21803 203.737 1.71594L204.161 5.69335ZM203.968 5.71317L204.153 5.69422L203.745 1.71508L203.56 1.73403L203.968 5.71317ZM196.704 6.70069C199.055 6.21842 201.482 5.96795 203.968 5.71318L203.56 1.73403C201.108 1.98534 198.481 2.25298 195.9 2.78228L196.704 6.70069ZM190.319 16.509C189.769 11.5507 192.486 7.61569 196.726 6.69605L195.878 2.78692C189.362 4.20014 185.599 10.2446 186.344 16.9507L190.319 16.509ZM198.545 23.6727C194.39 23.7246 190.729 20.348 190.32 16.5177L186.343 16.942C186.971 22.8319 192.383 27.75 198.595 27.6723L198.545 23.6727ZM204.792 23.1904C202.581 23.439 200.482 23.6725 198.57 23.6725V27.6725C200.748 27.6725 203.079 27.4082 205.239 27.1653L204.792 23.1904ZM207.968 22.86C206.918 22.9513 205.843 23.0722 204.792 23.1904L205.239 27.1653C206.3 27.0461 207.324 26.9312 208.314 26.845L207.968 22.86ZM197.501 40.5864C201.932 36.2853 206.23 31.8572 210.503 27.4543L207.633 24.6684C203.353 29.0785 199.097 33.4635 194.715 37.7161L197.501 40.5864ZM191.919 40.1843C192.649 40.8416 193.681 41.1602 194.422 41.2853C194.832 41.3547 195.301 41.3909 195.765 41.3434C196.151 41.304 196.916 41.1717 197.522 40.5655L194.694 37.7371C194.902 37.5286 195.107 37.4394 195.202 37.4049C195.255 37.3857 195.296 37.3758 195.319 37.3708C195.344 37.3658 195.357 37.3643 195.359 37.3641C195.36 37.364 195.335 37.3664 195.281 37.3636C195.229 37.3609 195.164 37.354 195.088 37.3413C194.932 37.3149 194.778 37.2708 194.657 37.2224C194.599 37.199 194.562 37.1799 194.545 37.1702C194.525 37.1589 194.548 37.1693 194.595 37.2111L191.919 40.1843ZM187.41 35.8069C188.854 37.2692 190.345 38.7804 191.925 40.1903L194.588 37.2051C193.118 35.8941 191.716 34.4747 190.257 32.9967L187.41 35.8069ZM184.929 33.3275C185.76 34.136 186.578 34.9637 187.41 35.8069L190.257 32.9967C189.429 32.1583 188.583 31.3014 187.717 30.4595L184.929 33.3275ZM171.936 32.7141C173.759 30.8642 175.958 30.042 178.172 30.1254C180.402 30.2095 182.795 31.2224 184.918 33.3172L187.728 30.4698C184.99 27.7692 181.681 26.2548 178.322 26.1283C174.947 26.0011 171.67 27.285 169.087 29.9064L171.936 32.7141ZM172.638 45.7725C168.585 41.7192 168.521 36.2319 171.946 32.7032L169.076 29.9173C163.947 35.2017 164.402 43.1932 169.81 48.6009L172.638 45.7725ZM177.962 50.8904C176.082 49.1179 174.346 47.4807 172.638 45.7725L169.81 48.6009C171.566 50.3576 173.345 52.035 175.218 53.8006L177.962 50.8904ZM127.548 170.69C153.662 170.69 174.844 149.58 174.844 123.459H170.844C170.844 147.364 151.46 166.69 127.548 166.69V170.69ZM174.843 123.523C175.589 100.276 157.105 75.9733 127.686 75.8381L127.668 79.838C154.627 79.962 171.525 102.187 170.845 123.394L174.843 123.523ZM127.687 75.8381C119.851 75.8007 112.692 77.5248 106.439 80.5713L108.191 84.1672C113.889 81.3913 120.441 79.8036 127.668 79.838L127.687 75.8381ZM105.693 88.993C117.124 98.3046 125.366 111.608 128.155 127.185L132.092 126.48C129.129 109.931 120.368 95.7878 108.22 85.8917L105.693 88.993ZM128.155 127.184C130.49 140.276 128.628 153.091 123.59 164.306L127.239 165.946C132.595 154.023 134.574 140.394 132.092 126.482L128.155 127.184ZM112.075 138.516C112.157 121.999 104.116 108.256 92.1318 100.057L89.8732 103.358C100.807 110.839 108.15 123.361 108.075 138.497L112.075 138.516ZM106.875 160.018C110.17 153.664 112.036 146.381 112.075 138.516L108.075 138.496C108.039 145.732 106.324 152.39 103.324 158.177L106.875 160.018ZM80.1862 123.14C80.227 139.016 87.9339 153.054 99.7973 161.685L102.15 158.45C91.2851 150.545 84.2236 137.689 84.1862 123.129L80.1862 123.14ZM85.1174 101.893C81.8845 108.43 80.1451 115.713 80.1862 123.146L84.1861 123.124C84.1486 116.329 85.7393 109.659 88.7029 103.666L85.1174 101.893ZM63.3541 134.255C60.9666 120.79 62.9862 107.527 68.3759 95.9384L64.749 94.2515C59.0268 106.554 56.8792 120.649 59.4155 134.954L63.3541 134.255ZM85.2194 172.512C74.2212 163.146 66.1539 150.007 63.3539 134.255L59.4156 134.955C62.3848 151.659 70.9502 165.614 82.626 175.557L85.2194 172.512ZM65.686 184.79C72.2514 184.722 78.4975 183.381 84.1588 180.974L82.5934 177.293C77.4172 179.494 71.6892 180.727 65.6447 180.79L65.686 184.79ZM19.0649 138.247C18.9986 163.709 40.0657 184.989 65.6809 184.79L65.6498 180.79C42.2869 180.971 23.0043 161.521 23.0649 138.258L19.0649 138.247ZM65.7922 91.8425C40.1424 91.8425 19.1975 112.65 19.0649 138.242L23.0649 138.263C23.186 114.878 42.3371 95.8425 65.7922 95.8425V91.8425ZM82.626 175.557C82.9738 175.853 83.1105 176.264 83.0777 176.614C83.0475 176.937 82.8895 177.167 82.5934 177.293L84.1588 180.974C87.8654 179.398 87.8359 174.74 85.2194 172.512L82.626 175.557ZM108.93 190.166C109.247 189.9 109.673 189.805 110.071 189.91L111.091 186.042C109.435 185.606 107.67 186.002 106.359 187.101L108.93 190.166ZM92.1318 100.057C89.7119 98.4011 86.4151 99.2687 85.1174 101.893L88.7029 103.666C88.9244 103.218 89.4646 103.079 89.8732 103.358L92.1318 100.057ZM106.439 80.5713C102.882 82.3043 103.072 86.8578 105.693 88.993L108.22 85.8917C107.871 85.6075 107.723 85.2064 107.743 84.8589C107.761 84.5389 107.908 84.305 108.191 84.1672L106.439 80.5713ZM68.3759 95.9384C69.2243 94.1143 67.9795 91.8599 65.8082 91.8426L65.7763 95.8424C64.8785 95.8353 64.4376 94.9209 64.749 94.2515L68.3759 95.9384ZM81.186 71.9909C80.8828 72.2646 80.4638 72.3761 80.0627 72.2884L79.2084 76.1961C80.8679 76.5589 82.6032 76.0999 83.8659 74.9605L81.186 71.9909ZM127.548 166.69C127.464 166.69 127.416 166.67 127.383 166.651C127.345 166.628 127.298 166.586 127.257 166.515C127.171 166.369 127.144 166.158 127.239 165.946L123.59 164.306C122.352 167.063 124.075 170.69 127.548 170.69V166.69ZM208.314 26.845C208.072 26.866 207.798 26.7853 207.57 26.5143C207.441 26.3613 207.266 26.0653 207.263 25.6442C207.26 25.1855 207.464 24.837 207.654 24.6471L210.483 27.4755C210.947 27.0115 211.268 26.3664 211.263 25.6192C211.259 24.9095 210.962 24.333 210.63 23.9379C209.994 23.1827 208.982 22.7717 207.968 22.86L208.314 26.845ZM214.069 56.7385C213.7 56.3714 213.701 55.7752 214.073 55.4099L211.268 52.5581C209.309 54.4844 209.3 57.6376 211.248 59.5748L214.069 56.7385ZM103.324 158.177C103.097 158.614 102.556 158.745 102.15 158.45L99.7973 161.685C102.175 163.414 105.517 162.637 106.875 160.018L103.324 158.177ZM225.704 44.0464C224.717 45.0069 223.03 44.2372 223.159 42.8298L227.142 43.1971C227.357 40.8667 224.564 39.5733 222.913 41.1804L225.704 44.0464ZM176.45 54.9634C176.893 55.3822 176.896 56.0892 176.446 56.5157L179.196 59.4204C181.306 57.4227 181.317 54.0603 179.198 52.0567L176.45 54.9634Z" fill="#333333" mask="url(#path-1-inside-1_2405_20)"/>
</svg>
