<svg width="325" height="160" viewBox="0 0 325 160" fill="none" xmlns="http://www.w3.org/2000/svg">
<path d="M78.9372 4.61943V62.3622H95.7919V4.61943H104.789V155.801H95.7919V88.399H78.9372V155.801H70V4.61943H78.9372Z" fill="#333333"/>
<path d="M110.828 4.61943H119.825V155.801H110.828V4.61943Z" fill="#333333"/>
<path d="M144.917 31.4961V155.801H135.799V31.4961H122.843V4.61943H157.813V31.4961H144.917Z" fill="#333333"/>
<path d="M209.435 142.362C206.196 154.121 201.518 160 195.34 160C189.162 160 184.423 154.121 181.184 142.362C176.806 127.874 174.586 107.297 174.586 80C174.586 52.2835 176.806 31.4961 181.184 17.6378C184.423 5.87926 189.162 0 195.34 0C201.518 0 206.196 5.87926 209.435 17.6378C213.814 31.4961 215.973 52.2835 215.973 80C215.973 107.297 213.814 127.874 209.435 142.362ZM203.857 119.475C205.896 110.236 206.976 97.0079 206.976 80C206.976 63.2021 205.896 49.9738 203.857 40.7349C201.698 31.4961 198.879 26.8766 195.34 26.8766C191.741 26.8766 188.922 31.4961 186.762 40.7349C184.603 49.9738 183.583 62.9921 183.583 80C183.583 97.0079 184.603 110.236 186.762 119.475C188.922 128.714 191.741 133.333 195.34 133.333C198.879 133.333 201.698 128.714 203.857 119.475Z" fill="#333333"/>
<path d="M247.603 110.236V4.61943H256V155.801H247.003L229.368 48.5039V155.801H220.971V4.61943H230.388L247.603 110.236Z" fill="#333333"/>
</svg>
