<svg width="284" height="163" viewBox="0 0 284 163" fill="none" xmlns="http://www.w3.org/2000/svg">
<path d="M7.61238 111.312C7.82532 118.389 8.35765 123.537 9.04969 127.183C10.3273 133.403 12.5631 136.62 15.7039 136.62C17.6203 136.62 19.164 135.762 20.3352 134.046C22.571 130.829 23.6889 124.824 23.6889 116.245C23.6889 111.097 23.1565 107.237 22.0386 104.449C20.9207 101.661 19.164 99.3013 16.7685 97.1566L12.7228 93.5105C8.78352 89.8645 6.01538 86.004 4.47161 81.7145C1.9164 74.4224 0.585568 63.4842 0.585568 48.2566C0.585568 34.3158 1.86317 22.9487 4.36514 13.7263C6.81388 4.71842 10.487 0 15.3312 0C19.377 0 22.8371 4.28948 25.6585 12.8684C28.5331 21.6618 30.0237 34.1013 30.1301 50.6158H22.4645C22.3048 41.179 21.2934 34.5303 19.4302 30.6697C18.2058 28.0961 16.6088 26.8092 14.7989 26.8092C12.7228 26.8092 11.0726 28.525 9.84819 31.9566C8.62382 35.1737 7.98502 39.8921 7.98502 45.8974C7.98502 51.4737 8.62382 55.5487 9.84819 58.3368C10.5935 60.0526 12.2437 62.1974 14.7989 64.7711L21.3998 70.9908C24.3277 73.9934 26.5103 77.6395 27.9476 82.3579C30.2366 89.4355 31.4077 100.159 31.4077 113.886C31.4077 127.826 30.0769 139.622 27.4152 148.845C24.7003 158.282 20.9207 163 16.0233 163C11.0726 163 7.13328 158.282 4.25868 149.059C1.38407 140.051 0 127.397 0 111.312H7.61238Z" fill="#333333"/>
<path d="M45.1948 4.50395V63.4842H60.1534V4.50395H68.1384V158.925H60.1534V90.0789H45.1948V158.925H37.263V4.50395H45.1948Z" fill="#333333"/>
<path d="M109.324 158.925H100.647L98.1982 127.183H84.0381L81.4297 158.925H73.0188L86.6998 4.50395H95.7495L109.324 158.925ZM91.1714 39.8921L86.2207 100.588H95.9624L91.1714 39.8921Z" fill="#333333"/>
<path d="M139.916 52.7605C139.331 42.2513 137.84 34.7447 135.498 30.6697C134.167 28.3105 132.676 27.2382 131.079 27.2382C127.992 27.2382 125.49 31.9566 123.467 41.179C121.497 50.6158 120.486 64.7711 120.486 83.6447C120.486 102.518 121.551 116.03 123.733 123.966C125.863 131.901 128.311 135.762 131.079 135.762C133.741 135.762 135.924 132.545 137.68 126.325C139.384 120.105 140.449 111.955 140.821 101.875H131.984V76.1382H147.901V158.925H142.631L141.833 139.622C140.289 146.914 138.905 152.062 137.68 155.064C135.551 160.426 132.943 163 129.855 163C124.798 163 120.646 155.922 117.398 141.767C113.992 127.612 112.341 108.095 112.341 83.2158C112.341 58.3368 114.045 38.3908 117.452 23.1632C120.859 8.15001 125.383 0.643425 130.973 0.643425C135.817 0.643425 139.757 5.57632 142.738 15.4421C145.665 25.3079 147.369 37.9618 147.795 52.7605H139.916Z" fill="#333333"/>
<path d="M181.349 52.7605C180.763 42.2513 179.273 34.7447 176.93 30.6697C175.6 28.3105 174.109 27.2382 172.512 27.2382C169.425 27.2382 166.923 31.9566 164.9 41.179C162.93 50.6158 161.919 64.7711 161.919 83.6447C161.919 102.518 162.983 116.03 165.166 123.966C167.295 131.901 169.744 135.762 172.512 135.762C175.174 135.762 177.356 132.545 179.113 126.325C180.817 120.105 181.881 111.955 182.254 101.875H173.417V76.1382H189.334V158.925H184.064L183.265 139.622C181.721 146.914 180.337 152.062 179.113 155.064C176.984 160.426 174.375 163 171.288 163C166.231 163 162.078 155.922 158.831 141.767C155.424 127.612 153.774 108.095 153.774 83.2158C153.774 58.3368 155.477 38.3908 158.884 23.1632C162.291 8.15001 166.816 0.643425 172.406 0.643425C177.25 0.643425 181.189 5.57632 184.17 15.4421C187.098 25.3079 188.802 37.9618 189.227 52.7605H181.349Z" fill="#333333"/>
<path d="M196.378 4.50395H204.363V158.925H196.378V4.50395Z" fill="#333333"/>
<path d="M235.362 112.384V4.50395H242.814V158.925H234.829L219.179 49.3289V158.925H211.726V4.50395H220.084L235.362 112.384Z" fill="#333333"/>
<path d="M276.015 52.7605C275.429 42.2513 273.939 34.7447 271.597 30.6697C270.266 28.3105 268.775 27.2382 267.178 27.2382C264.091 27.2382 261.589 31.9566 259.566 41.179C257.596 50.6158 256.585 64.7711 256.585 83.6447C256.585 102.518 257.649 116.03 259.832 123.966C261.961 131.901 264.41 135.762 267.178 135.762C269.84 135.762 272.022 132.545 273.779 126.325C275.483 120.105 276.547 111.955 276.92 101.875H268.083V76.1382H284V158.925H278.73L277.931 139.622C276.388 146.914 275.004 152.062 273.779 155.064C271.65 160.426 269.041 163 265.954 163C260.897 163 256.744 155.922 253.497 141.767C250.09 127.612 248.44 108.095 248.44 83.2158C248.44 58.3368 250.144 38.3908 253.55 23.1632C256.957 8.15001 261.482 0.643425 267.072 0.643425C271.916 0.643425 275.855 5.57632 278.836 15.4421C281.764 25.3079 283.468 37.9618 283.894 52.7605H276.015Z" fill="#333333"/>
</svg>
