<svg width="325" height="160" viewBox="0 0 325 160" fill="none" xmlns="http://www.w3.org/2000/svg">
<path d="M60.1067 155.801H52.1842V53.5433C52.1842 50.6037 52.1842 46.4042 52.2404 41.1549V28.9764L44.5989 155.801H36.3955L28.8101 28.9764V41.1549C28.8663 46.4042 28.8663 50.6037 28.8663 53.5433V155.801H21V4.61943H33.2489L40.6095 123.465L47.914 4.61943H60.1067V155.801Z" fill="#333333"/>
<path d="M101.686 155.801H92.5275L89.9429 124.724H74.9969L72.2437 155.801H63.366L77.8063 4.61943H87.3582L101.686 155.801ZM82.5261 39.2651L77.3006 98.6877H87.583L82.5261 39.2651Z" fill="#333333"/>
<path d="M113.58 66.9816L129.144 4.61943H140.101L123.525 66.9816L140.943 155.801H130.099L117.569 89.8688L113.58 105.197V155.801H105.264V4.61943H113.58V66.9816Z" fill="#333333"/>
<path d="M152.5 63.6221H172.11V89.8688H152.5V128.714H174.863V155.801H144.24V4.61943H173.851V31.4961H152.5V63.6221Z" fill="#333333"/>
<path d="M224.831 142.362C221.797 154.121 217.415 160 211.627 160C205.84 160 201.401 154.121 198.367 142.362C194.265 127.874 192.186 107.297 192.186 80C192.186 52.2835 194.265 31.4961 198.367 17.6378C201.401 5.87926 205.84 0 211.627 0C217.415 0 221.797 5.87926 224.831 17.6378C228.933 31.4961 230.956 52.2835 230.956 80C230.956 107.297 228.933 127.874 224.831 142.362ZM219.606 119.475C221.516 110.236 222.528 97.0079 222.528 80C222.528 63.2021 221.516 49.9738 219.606 40.7349C217.583 31.4961 214.942 26.8766 211.627 26.8766C208.256 26.8766 205.615 31.4961 203.592 40.7349C201.57 49.9738 200.614 62.9921 200.614 80C200.614 97.0079 201.57 110.236 203.592 119.475C205.615 128.714 208.256 133.333 211.627 133.333C214.942 133.333 217.583 128.714 219.606 119.475Z" fill="#333333"/>
<path d="M244.347 97.6378C244.347 107.927 244.684 115.486 245.358 120.315C246.369 128.924 248.617 133.123 252.044 133.123C255.472 133.123 257.663 128.924 258.674 120.315C259.349 115.486 259.686 107.927 259.686 97.6378V4.61943H268.283V97.6378C268.283 113.596 267.608 126.194 266.26 135.013C263.788 151.391 259.012 159.79 252.044 159.79C245.021 159.79 240.245 151.391 237.773 135.013C236.424 126.194 235.75 113.596 235.75 97.6378V4.61943H244.347V97.6378Z" fill="#333333"/>
<path d="M291.92 31.4961V155.801H283.379V31.4961H271.242V4.61943H304V31.4961H291.92Z" fill="#333333"/>
</svg>
