<svg width="380" height="340" viewBox="0 0 380 340" fill="none" xmlns="http://www.w3.org/2000/svg">
<path d="M94.7543 109.263C95.0271 116.211 95.7092 121.263 96.596 124.842C98.2331 130.947 101.098 134.105 105.122 134.105C107.578 134.105 109.556 133.263 111.057 131.579C113.922 128.421 115.354 122.526 115.354 114.105C115.354 109.053 114.672 105.263 113.24 102.526C111.807 99.7895 109.556 97.4737 106.487 95.3684L101.303 91.7895C96.2549 88.2105 92.7079 84.4211 90.7298 80.2105C87.4556 73.0526 85.7503 62.3158 85.7503 47.3684C85.7503 33.6842 87.3874 22.5263 90.5934 13.4737C93.7311 4.63158 98.4377 0 104.645 0C109.829 0 114.263 4.21054 117.878 12.6316C121.561 21.2632 123.471 33.4737 123.608 49.6842H113.785C113.581 40.4211 112.285 33.8947 109.897 30.1053C108.328 27.579 106.282 26.3158 103.963 26.3158C101.303 26.3158 99.188 28 97.6192 31.3684C96.0503 34.5263 95.2318 39.1579 95.2318 45.0526C95.2318 50.5263 96.0503 54.5263 97.6192 57.2632C98.5741 58.9474 100.689 61.0526 103.963 63.579L112.421 69.6842C116.173 72.6316 118.969 76.2105 120.811 80.8421C123.744 87.7895 125.245 98.3158 125.245 111.789C125.245 125.474 123.54 137.053 120.129 146.105C116.65 155.368 111.807 160 105.532 160C99.188 160 94.1404 155.368 90.4569 146.316C86.7735 137.474 85 125.053 85 109.263H94.7543Z" fill="#333333"/>
<path d="M151.779 31.3684V156H141.411V31.3684H126.677V4.42106H166.444V31.3684H151.779Z" fill="#333333"/>
<path d="M203.139 156H192.021L188.883 124.842H170.739L167.397 156H156.619L174.149 4.42106H185.745L203.139 156ZM179.879 39.1579L173.536 98.7368H186.018L179.879 39.1579Z" fill="#333333"/>
<path d="M237.428 110.316V4.42106H246.978V156H236.746L216.692 48.4211V156H207.142V4.42106H217.851L237.428 110.316Z" fill="#333333"/>
<path d="M283.244 7.78947C286.655 11.3684 289.452 17.6842 291.566 26.9474C293.272 34.5263 294.431 42.7368 295.045 51.3684C295.727 60.2105 296 68.6316 296 76.6316C296 96.6316 294.704 113.684 292.044 127.789C288.497 146.526 283.04 156 275.605 156H254.459V4.42106H275.605C278.674 4.63158 281.198 5.68421 283.244 7.78947ZM273.899 129.684C278.742 129.684 282.085 122.316 283.995 107.579C285.018 99.3684 285.564 89.8947 285.564 78.7368C285.564 63.3684 284.813 51.3684 283.244 43.1579C281.676 34.9474 278.538 30.7368 273.899 30.7368H264.418V129.684H273.899Z" fill="#333333"/>
<path d="M65.4881 322.362C62.1897 334.121 57.4254 340 51.134 340C44.8427 340 40.0173 334.121 36.7189 322.362C32.26 307.874 30 287.297 30 260C30 232.283 32.26 211.496 36.7189 197.638C40.0173 185.879 44.8427 180 51.134 180C57.4254 180 62.1897 185.879 65.4881 197.638C69.947 211.496 72.1459 232.283 72.1459 260C72.1459 287.297 69.947 307.874 65.4881 322.362ZM59.8075 299.475C61.8843 290.236 62.9838 277.008 62.9838 260C62.9838 243.202 61.8843 229.974 59.8075 220.735C57.6086 211.496 54.7378 206.877 51.134 206.877C47.4692 206.877 44.5984 211.496 42.3995 220.735C40.2005 229.974 39.1622 242.992 39.1622 260C39.1622 277.008 40.2005 290.236 42.3995 299.475C44.5984 308.714 47.4692 313.333 51.134 313.333C54.7378 313.333 57.6086 308.714 59.8075 299.475Z" fill="#333333"/>
<path d="M104.355 290.236V184.619H112.907V335.801H103.744L85.7866 228.504V335.801H77.2352V184.619H86.8249L104.355 290.236Z" fill="#333333"/>
<path d="M128.89 243.622H150.207V269.869H128.89V308.714H153.2V335.801H119.911V184.619H152.101V211.496H128.89V243.622Z" fill="#333333"/>
<path d="M200.68 290.236V184.619H209.231V335.801H200.069L182.111 228.504V335.801H173.56V184.619H183.149L200.68 290.236Z" fill="#333333"/>
<path d="M215.197 184.619H224.359V335.801H215.197V184.619Z" fill="#333333"/>
<path d="M260.661 231.864C259.989 221.575 258.279 214.226 255.591 210.236C254.064 207.927 252.354 206.877 250.522 206.877C246.979 206.877 244.108 211.496 241.787 220.525C239.527 229.764 238.367 243.622 238.367 262.1C238.367 280.577 239.588 293.806 242.092 301.575C244.536 309.344 247.345 313.123 250.522 313.123C253.576 313.123 256.08 309.974 258.096 303.885C260.05 297.795 261.272 289.816 261.699 279.948H251.56V254.751H269.823V335.801H263.776L262.86 316.903C261.089 324.042 259.501 329.081 258.096 332.021C255.652 337.27 252.659 339.79 249.117 339.79C243.314 339.79 238.55 332.861 234.824 319.003C230.915 305.144 229.021 286.037 229.021 261.68C229.021 237.323 230.976 217.795 234.885 202.887C238.794 188.189 243.986 180.84 250.399 180.84C255.958 180.84 260.478 185.669 263.898 195.328C267.258 204.987 269.212 217.375 269.701 231.864H260.661Z" fill="#333333"/>
<path d="M285.846 184.619V242.362H303.01V184.619H312.172V335.801H303.01V268.399H285.846V335.801H276.745V184.619H285.846Z" fill="#333333"/>
<path d="M337.868 211.496V335.801H328.583V211.496H315.39V184.619H351V211.496H337.868Z" fill="#333333"/>
</svg>
