<svg width="250" height="162" viewBox="0 0 250 162" fill="none" xmlns="http://www.w3.org/2000/svg">
<path d="M8.17783 4.67717V63.1417H23.6004V4.67717H31.8331V157.748H23.6004V89.5039H8.17783V157.748H0V4.67717H8.17783Z" fill="#333333"/>
<path d="M70.0702 144.142C67.1065 156.047 62.8254 162 57.1723 162C51.5192 162 47.1833 156.047 44.2195 144.142C40.2129 129.472 38.1822 108.638 38.1822 81C38.1822 52.937 40.2129 31.8898 44.2195 17.8583C47.1833 5.95275 51.5192 0 57.1723 0C62.8254 0 67.1065 5.95275 70.0702 17.8583C74.0768 31.8898 76.0527 52.937 76.0527 81C76.0527 108.638 74.0768 129.472 70.0702 144.142ZM64.9659 120.968C66.832 111.614 67.82 98.2205 67.82 81C67.82 63.9921 66.832 50.5984 64.9659 41.2441C62.9901 31.8898 60.4105 27.2126 57.1723 27.2126C53.8792 27.2126 51.2997 31.8898 49.3238 41.2441C47.3479 50.5984 46.4149 63.7795 46.4149 81C46.4149 98.2205 47.3479 111.614 49.3238 120.968C51.2997 130.323 53.8792 135 57.1723 135C60.4105 135 62.9901 130.323 64.9659 120.968Z" fill="#333333"/>
<path d="M112.788 144.142C109.824 156.047 105.543 162 99.8902 162C94.2371 162 89.9012 156.047 86.9374 144.142C82.9308 129.472 80.9001 108.638 80.9001 81C80.9001 52.937 82.9308 31.8898 86.9374 17.8583C89.9012 5.95275 94.2371 0 99.8902 0C105.543 0 109.824 5.95275 112.788 17.8583C116.795 31.8898 118.771 52.937 118.771 81C118.771 108.638 116.795 129.472 112.788 144.142ZM107.684 120.968C109.55 111.614 110.538 98.2205 110.538 81C110.538 63.9921 109.55 50.5984 107.684 41.2441C105.708 31.8898 103.128 27.2126 99.8902 27.2126C96.5971 27.2126 94.0176 31.8898 92.0417 41.2441C90.0659 50.5984 89.1328 63.7795 89.1328 81C89.1328 98.2205 90.0659 111.614 92.0417 120.968C94.0176 130.323 96.5971 135 99.8902 135C103.128 135 105.708 130.323 107.684 120.968Z" fill="#333333"/>
<path d="M133.387 67.8189L148.591 4.67717H159.293L143.102 67.8189L160.116 157.748H149.524L137.284 90.9921L133.387 106.512V157.748H125.265V4.67717H133.387V67.8189Z" fill="#333333"/>
<path d="M188.382 98.8583C188.382 109.276 188.711 116.929 189.37 121.819C190.358 130.535 192.553 134.787 195.901 134.787C199.249 134.787 201.39 130.535 202.378 121.819C203.036 116.929 203.366 109.276 203.366 98.8583V4.67717H211.763V98.8583C211.763 115.016 211.104 127.772 209.787 136.701C207.372 153.283 202.707 161.787 195.901 161.787C189.041 161.787 184.375 153.283 181.96 136.701C180.643 127.772 179.985 115.016 179.985 98.8583V4.67717H188.382V98.8583Z" fill="#333333"/>
<path d="M246.487 91.4173C244.127 99.0709 240.724 102.685 236.389 102.685H227.991V157.748H219.813V4.67717H236.992C240.944 4.67717 244.127 8.71653 246.487 16.5827C248.847 24.4488 250 36.7795 250 53.1496C250 71.2205 248.847 83.9764 246.487 91.4173ZM240.23 36.3543C239.133 32.9528 237.651 31.252 235.675 31.252H227.991V76.3228H235.675C237.651 76.3228 239.133 74.4094 240.23 70.7953C241.328 67.1811 241.822 61.4409 241.822 53.3622C241.822 45.4961 241.328 39.7559 240.23 36.3543Z" fill="#333333"/>
</svg>
