<svg width="325" height="160" viewBox="0 0 325 160" fill="none" xmlns="http://www.w3.org/2000/svg">
<path d="M8.86319 109.263C9.08314 116.211 9.63301 121.263 10.3478 124.842C11.6675 130.947 13.977 134.105 17.2213 134.105C19.2008 134.105 20.7954 133.263 22.0052 131.579C24.3146 128.421 25.4694 122.526 25.4694 114.105C25.4694 109.053 24.9195 105.263 23.7648 102.526C22.61 99.7895 20.7954 97.4737 18.321 95.3684L14.142 91.7895C10.0729 88.2105 7.21357 84.4211 5.61894 80.2105C2.97954 73.0526 1.60486 62.3158 1.60486 47.3684C1.60486 33.6842 2.92456 22.5263 5.50896 13.4737C8.03838 4.63158 11.8325 0 16.8364 0C21.0154 0 24.5896 4.21054 27.5039 12.6316C30.4732 21.2632 32.0129 33.4737 32.1228 49.6842H24.2047C24.0397 40.4211 22.9949 33.8947 21.0704 30.1053C19.8057 27.579 18.156 26.3158 16.2865 26.3158C14.142 26.3158 12.4374 28 11.1727 31.3684C9.90795 34.5263 9.2481 39.1579 9.2481 45.0526C9.2481 50.5263 9.90795 54.5263 11.1727 57.2632C11.9425 58.9474 13.6471 61.0526 16.2865 63.579L23.1049 69.6842C26.1292 72.6316 28.3837 76.2105 29.8684 80.8421C32.2328 87.7895 33.4425 98.3158 33.4425 111.789C33.4425 125.474 32.0678 137.053 29.3185 146.105C26.5141 155.368 22.61 160 17.5512 160C12.4374 160 8.3683 155.368 5.39899 146.316C2.42967 137.474 1 125.053 1 109.263H8.86319Z" fill="#333333"/>
<path d="M46.1992 128.842H65.7747V156H37.8961V4.42106H46.1992V128.842Z" fill="#333333"/>
<path d="M78.2748 97.6842C78.2748 108 78.6047 115.579 79.2646 120.421C80.2544 129.053 82.4539 133.263 85.8081 133.263C89.1623 133.263 91.3068 129.053 92.2966 120.421C92.9564 115.579 93.2864 108 93.2864 97.6842V4.42106H101.699V97.6842C101.699 113.684 101.04 126.316 99.7199 135.158C97.3004 151.579 92.6265 160 85.8081 160C78.9347 160 74.2607 151.579 71.8413 135.158C70.5216 126.316 69.8618 113.684 69.8618 97.6842V4.42106H78.2748V97.6842Z" fill="#333333"/>
<path d="M124.831 31.3684V156H116.473V31.3684H104.596V4.42106H136.654V31.3684H124.831Z" fill="#333333"/>
<path d="M180.459 90.3158C178.095 97.8947 174.686 101.474 170.342 101.474H161.929V156H153.735V4.42106H170.947C174.906 4.42106 178.095 8.42106 180.459 16.2105C182.824 24 183.979 36.2105 183.979 52.4211C183.979 70.3158 182.824 82.9474 180.459 90.3158ZM174.191 35.7895C173.091 32.4211 171.606 30.7368 169.627 30.7368H161.929V75.3684H169.627C171.606 75.3684 173.091 73.4737 174.191 69.8947C175.291 66.3158 175.785 60.6316 175.785 52.6316C175.785 44.8421 175.291 39.1579 174.191 35.7895Z" fill="#333333"/>
<path d="M214.916 156H205.953L203.423 124.842H188.797L186.102 156H177.414L191.546 4.42106H200.894L214.916 156ZM196.165 39.1579L191.051 98.7368H201.114L196.165 39.1579Z" fill="#333333"/>
<path d="M244.866 51.7895C244.261 41.4737 242.722 34.1053 240.302 30.1053C238.928 27.7895 237.388 26.7368 235.738 26.7368C232.549 26.7368 229.965 31.3684 227.875 40.4211C225.841 49.6842 224.796 63.579 224.796 82.1053C224.796 100.632 225.896 113.895 228.15 121.684C230.35 129.474 232.879 133.263 235.738 133.263C238.488 133.263 240.742 130.105 242.557 124C244.316 117.895 245.416 109.895 245.801 100H236.673V74.7368H253.114V156H247.671L246.846 137.053C245.251 144.211 243.821 149.263 242.557 152.211C240.357 157.474 237.663 160 234.474 160C229.25 160 224.961 153.053 221.607 139.158C218.087 125.263 216.383 106.105 216.383 81.6842C216.383 57.2632 218.142 37.6842 221.662 22.7368C225.181 8.00001 229.855 0.631583 235.628 0.631583C240.632 0.631583 244.701 5.47369 247.781 15.1579C250.805 24.8421 252.564 37.2632 253.004 51.7895H244.866Z" fill="#333333"/>
<path d="M267.759 63.579H286.949V89.8947H267.759V128.842H289.644V156H259.675V4.42106H288.654V31.3684H267.759V63.579Z" fill="#333333"/>
<path d="M300.421 109.263C300.641 116.211 301.19 121.263 301.905 124.842C303.225 130.947 305.534 134.105 308.779 134.105C310.758 134.105 312.353 133.263 313.563 131.579C315.872 128.421 317.027 122.526 317.027 114.105C317.027 109.053 316.477 105.263 315.322 102.526C314.167 99.7895 312.353 97.4737 309.878 95.3684L305.699 91.7895C301.63 88.2105 298.771 84.4211 297.176 80.2105C294.537 73.0526 293.162 62.3158 293.162 47.3684C293.162 33.6842 294.482 22.5263 297.066 13.4737C299.596 4.63158 303.39 0 308.394 0C312.573 0 316.147 4.21054 319.061 12.6316C322.031 21.2632 323.57 33.4737 323.68 49.6842H315.762C315.597 40.4211 314.552 33.8947 312.628 30.1053C311.363 27.579 309.714 26.3158 307.844 26.3158C305.699 26.3158 303.995 28 302.73 31.3684C301.465 34.5263 300.806 39.1579 300.806 45.0526C300.806 50.5263 301.465 54.5263 302.73 57.2632C303.5 58.9474 305.205 61.0526 307.844 63.579L314.662 69.6842C317.687 72.6316 319.941 76.2105 321.426 80.8421C323.79 87.7895 325 98.3158 325 111.789C325 125.474 323.625 137.053 320.876 146.105C318.072 155.368 314.167 160 309.109 160C303.995 160 299.926 155.368 296.956 146.316C293.987 137.474 292.557 125.053 292.557 109.263H300.421Z" fill="#333333"/>
</svg>
