<svg width="324" height="160" viewBox="0 0 324 160" fill="none" xmlns="http://www.w3.org/2000/svg">
<path d="M27.6124 109.263C27.8253 116.211 28.3577 121.263 29.0497 124.842C30.3273 130.947 32.5631 134.105 35.7039 134.105C37.6203 134.105 39.164 133.263 40.3352 131.579C42.571 128.421 43.6889 122.526 43.6889 114.105C43.6889 109.053 43.1565 105.263 42.0386 102.526C40.9207 99.7895 39.164 97.4737 36.7685 95.3684L32.7228 91.7895C28.7835 88.2105 26.0154 84.4211 24.4716 80.2105C21.9164 73.0526 20.5856 62.3158 20.5856 47.3684C20.5856 33.6842 21.8632 22.5263 24.3651 13.4737C26.8139 4.63158 30.487 0 35.3312 0C39.377 0 42.8371 4.21053 45.6585 12.6316C48.5331 21.2632 50.0237 33.4737 50.1301 49.6842H42.4645C42.3048 40.4211 41.2934 33.8947 39.4302 30.1053C38.2058 27.579 36.6088 26.3158 34.7989 26.3158C32.7228 26.3158 31.0726 28 29.8482 31.3684C28.6238 34.5263 27.985 39.1579 27.985 45.0526C27.985 50.5263 28.6238 54.5263 29.8482 57.2632C30.5935 58.9474 32.2437 61.0526 34.7989 63.579L41.3998 69.6842C44.3277 72.6316 46.5103 76.2105 47.9476 80.8421C50.2366 87.7895 51.4077 98.3158 51.4077 111.789C51.4077 125.474 50.0769 137.053 47.4152 146.105C44.7003 155.368 40.9207 160 36.0233 160C31.0726 160 27.1333 155.368 24.2587 146.316C21.3841 137.474 20 125.053 20 109.263H27.6124Z" fill="#333333"/>
<path d="M65.1948 4.42106V62.3158H80.1534V4.42106H88.1384V156H80.1534V88.4211H65.1948V156H57.263V4.42106H65.1948Z" fill="#333333"/>
<path d="M129.324 156H120.647L118.198 124.842H104.038L101.43 156H93.0188L106.7 4.42106H115.749L129.324 156ZM111.171 39.1579L106.221 98.7368H115.962L111.171 39.1579Z" fill="#333333"/>
<path d="M159.916 51.7895C159.331 41.4737 157.84 34.1053 155.498 30.1053C154.167 27.7895 152.676 26.7368 151.079 26.7368C147.992 26.7368 145.49 31.3684 143.467 40.4211C141.497 49.6842 140.486 63.579 140.486 82.1053C140.486 100.632 141.551 113.895 143.733 121.684C145.863 129.474 148.311 133.263 151.079 133.263C153.741 133.263 155.924 130.105 157.68 124C159.384 117.895 160.449 109.895 160.821 100H151.984V74.7368H167.901V156H162.631L161.833 137.053C160.289 144.211 158.905 149.263 157.68 152.211C155.551 157.474 152.943 160 149.855 160C144.798 160 140.646 153.053 137.398 139.158C133.992 125.263 132.341 106.105 132.341 81.6842C132.341 57.2632 134.045 37.6842 137.452 22.7368C140.859 8.00001 145.383 0.631583 150.973 0.631583C155.817 0.631583 159.757 5.47369 162.738 15.1579C165.665 24.8421 167.369 37.2632 167.795 51.7895H159.916Z" fill="#333333"/>
<path d="M201.349 51.7895C200.763 41.4737 199.273 34.1053 196.93 30.1053C195.6 27.7895 194.109 26.7368 192.512 26.7368C189.425 26.7368 186.923 31.3684 184.9 40.4211C182.93 49.6842 181.919 63.579 181.919 82.1053C181.919 100.632 182.983 113.895 185.166 121.684C187.295 129.474 189.744 133.263 192.512 133.263C195.174 133.263 197.356 130.105 199.113 124C200.817 117.895 201.881 109.895 202.254 100H193.417V74.7368H209.334V156H204.064L203.265 137.053C201.721 144.211 200.337 149.263 199.113 152.211C196.984 157.474 194.375 160 191.288 160C186.231 160 182.078 153.053 178.831 139.158C175.424 125.263 173.774 106.105 173.774 81.6842C173.774 57.2632 175.477 37.6842 178.884 22.7368C182.291 8.00001 186.816 0.631583 192.406 0.631583C197.25 0.631583 201.189 5.47369 204.17 15.1579C207.098 24.8421 208.802 37.2632 209.227 51.7895H201.349Z" fill="#333333"/>
<path d="M216.378 4.42106H224.363V156H216.378V4.42106Z" fill="#333333"/>
<path d="M255.362 110.316V4.42106H262.814V156H254.829L239.179 48.4211V156H231.726V4.42106H240.084L255.362 110.316Z" fill="#333333"/>
<path d="M296.015 51.7895C295.429 41.4737 293.939 34.1053 291.597 30.1053C290.266 27.7895 288.775 26.7368 287.178 26.7368C284.091 26.7368 281.589 31.3684 279.566 40.4211C277.596 49.6842 276.585 63.579 276.585 82.1053C276.585 100.632 277.649 113.895 279.832 121.684C281.961 129.474 284.41 133.263 287.178 133.263C289.84 133.263 292.022 130.105 293.779 124C295.483 117.895 296.547 109.895 296.92 100H288.083V74.7368H304V156H298.73L297.931 137.053C296.388 144.211 295.004 149.263 293.779 152.211C291.65 157.474 289.041 160 285.954 160C280.897 160 276.744 153.053 273.497 139.158C270.09 125.263 268.44 106.105 268.44 81.6842C268.44 57.2632 270.144 37.6842 273.55 22.7368C276.957 8.00001 281.482 0.631583 287.072 0.631583C291.916 0.631583 295.855 5.47369 298.836 15.1579C301.764 24.8421 303.468 37.2632 303.894 51.7895H296.015Z" fill="#333333"/>
</svg>
