<svg width="412" height="327" viewBox="0 0 412 327" fill="none" xmlns="http://www.w3.org/2000/svg">
<path d="M370.906 163.5C370.906 140.081 371.32 118.83 372.147 98.8807C373.034 78.9311 374.275 61.5836 375.989 46.8382C377.703 32.0928 379.772 20.817 382.373 12.5769C384.914 4.33689 387.929 0 391.298 0C394.43 0 397.267 4.33689 399.809 12.5769C402.291 20.817 404.478 32.0928 406.251 46.8382C407.965 61.5836 409.325 78.9311 410.27 98.8807C411.216 118.83 411.689 140.081 411.689 163.5C411.689 186.485 411.216 208.17 410.27 228.119C409.325 248.069 407.965 265.416 406.251 280.162C404.478 294.473 402.291 306.183 399.809 314.423C397.267 322.663 394.43 327 391.298 327C387.929 327 384.914 322.663 382.373 314.423C379.772 306.183 377.703 294.473 375.989 280.162C374.275 265.416 373.034 248.069 372.147 228.119C371.32 208.17 370.906 186.485 370.906 163.5ZM391.298 270.621C393.13 270.621 394.726 268.019 396.144 262.814C397.563 257.176 398.804 249.804 399.809 240.263C400.754 230.721 401.523 219.446 402.055 206.435C402.587 193.424 402.823 179.113 402.823 163.5C402.823 147.887 402.587 133.576 402.055 120.565C401.523 107.554 400.754 96.2785 399.809 86.7374C398.804 77.1963 397.563 69.8236 396.144 64.6194C394.726 58.9814 393.13 56.3793 391.298 56.3793C389.465 56.3793 387.869 58.9814 386.451 64.6194C385.032 69.8236 383.85 77.1963 382.845 86.7374C381.841 96.2785 381.072 107.554 380.6 120.565C380.008 133.576 379.772 147.887 379.772 163.5C379.772 179.113 380.008 193.424 380.6 206.435C381.072 219.446 381.841 230.721 382.845 240.263C383.85 249.804 385.032 257.176 386.451 262.814C387.869 268.019 389.465 270.621 391.298 270.621Z" fill="#333333"/>
<path d="M338.655 126.19H355.322V7.79297H364.188V319.18H355.322V179.967H338.655V319.18H329.789V7.79297H338.655V126.19Z" fill="#333333"/>
<path d="M295.644 219.866H295.762L312.548 7.79297H321.532V319.18H313.021V108.408H312.903L296.117 319.18H287.133V7.79297H295.644V219.866Z" fill="#333333"/>
<path d="M254.35 134.43L270.545 7.79297H282.011L264.694 135.297L283.016 319.18H271.786L258.665 181.268L254.35 213.794V319.18H245.484V7.79297H254.35V134.43Z" fill="#333333"/>
<path d="M206.891 7.79297C208.605 7.79297 210.142 9.09403 211.501 11.6961C212.801 13.8646 213.924 17.3341 214.87 21.2373C215.816 25.1405 216.643 29.911 217.293 35.5489C218.003 40.7532 218.476 46.3911 218.889 52.029C219.244 58.1007 219.539 64.1723 219.717 70.2439C219.835 76.3155 219.953 81.9534 219.953 87.5914C219.953 95.3978 219.835 102.337 219.658 108.842C219.421 114.914 219.185 120.552 218.771 125.756C218.298 130.96 217.825 135.731 217.116 139.634C216.466 143.971 215.698 147.874 214.752 151.343C216.17 155.247 217.293 160.017 218.18 165.655C219.067 171.727 219.717 177.798 220.19 184.304C220.662 191.243 220.958 198.182 221.076 205.121C221.254 212.493 221.313 219.432 221.313 225.938C221.313 241.117 220.958 254.561 220.19 265.837C219.421 277.546 218.357 287.087 216.998 294.894C215.698 302.7 213.984 309.205 212.033 313.109C210.083 317.012 207.955 319.18 205.532 319.18H186.086V7.79297H206.891ZM205.532 130.526C206.3 130.526 207.068 129.659 207.778 128.792C208.487 127.491 209.137 125.322 209.669 122.286C210.201 119.684 210.674 115.781 210.969 111.444C211.265 106.674 211.442 101.469 211.442 94.9641C211.442 88.4588 211.324 82.8208 211.028 78.484C210.733 74.1471 210.319 70.6776 209.787 68.0755C209.255 65.907 208.664 64.1723 207.955 62.8712C207.246 62.0038 206.536 61.5701 205.768 61.5701H194.597V130.526H205.532ZM205.65 265.403C206.655 265.403 207.541 264.536 208.369 262.801C209.196 261.066 209.905 258.464 210.555 254.995C211.147 251.525 211.619 247.188 211.974 241.984C212.27 236.78 212.447 230.274 212.447 223.335C212.447 214.228 212.21 206.855 211.856 201.651C211.442 196.013 210.91 192.11 210.26 189.074C209.551 186.038 208.841 183.87 208.014 183.002C207.127 182.135 206.3 181.701 205.413 181.701H194.597V265.403H205.65Z" fill="#333333"/>
<path d="M153.282 99.748C153.105 95.8448 152.868 92.3754 152.573 88.0385C152.277 84.1353 151.864 80.2321 151.45 76.3289C150.977 72.8594 150.445 69.3899 149.736 66.3541C149.086 63.3183 148.258 61.1499 147.313 58.9814C146.367 57.2467 145.303 56.3793 144.003 56.3793C143.471 56.3793 142.821 56.813 142.111 57.6804C141.402 58.9814 140.634 60.7162 139.865 63.3183C139.097 66.3541 138.329 70.2573 137.56 75.0279C136.851 79.7984 136.142 86.3037 135.61 94.1101C134.96 102.35 134.487 111.891 134.132 123.167C133.777 134.443 133.6 147.887 133.6 163.5C133.6 180.414 133.837 195.159 134.309 208.603C134.782 222.048 135.492 233.324 136.378 242.431C137.265 251.538 138.388 258.477 139.688 263.248C140.929 268.019 142.407 270.621 144.003 270.621C145.894 270.621 147.372 268.452 148.554 264.549C149.736 260.212 150.682 255.008 151.391 248.936C152.1 242.865 152.632 236.359 152.928 229.854C153.282 223.349 153.578 217.277 153.755 212.507H162.562C162.089 232.023 161.32 248.936 160.197 263.248C159.074 277.56 157.715 289.269 156.119 298.81C154.523 308.351 152.75 315.29 150.741 320.061C148.731 324.832 146.603 327 144.357 327C141.225 327 138.388 323.097 135.964 315.29C133.541 307.918 131.472 296.642 129.817 282.764C128.162 268.452 126.921 251.105 126.035 230.721C125.148 210.772 124.734 188.22 124.734 163.5C124.734 144.418 124.971 127.07 125.503 111.458C125.976 95.8448 126.685 81.9668 127.571 69.8236C128.458 57.6804 129.522 47.7056 130.763 38.5982C131.945 29.9244 133.246 22.5517 134.723 16.9138C136.142 11.2759 137.619 6.93901 139.215 3.90319C140.811 1.30108 142.407 0 144.003 0C146.308 0 148.376 1.73476 150.15 5.20426C151.923 9.10744 153.519 13.4443 154.878 19.5159C156.237 25.5875 157.36 32.0928 158.306 39.8992C159.252 47.7056 160.079 55.5119 160.67 63.3183C161.261 71.5584 161.675 79.7984 162.03 87.6048C162.325 95.8448 162.503 103.218 162.562 110.157H153.696L153.282 99.748Z" fill="#333333"/>
<path d="M93.483 134.43L109.678 7.79297H121.144L103.826 135.297L122.149 319.18H110.919L97.7976 181.268L93.483 213.794V319.18H84.6172V7.79297H93.483V134.43Z" fill="#333333"/>
<path d="M76.0469 61.5701H53.4096V130.526H74.2146V184.304H53.4096V262.801H77.0517V319.18H44.8984V7.79297H76.0469V61.5701Z" fill="#333333"/>
<path d="M28.5478 99.748C28.3705 95.8448 28.1341 92.3754 27.8385 88.0385C27.543 84.1353 27.1293 80.2321 26.7155 76.3289C26.2427 72.8594 25.7107 69.3899 25.0015 66.3541C24.3513 63.3183 23.5239 61.1499 22.5782 58.9814C21.6325 57.2467 20.5686 56.3793 19.2683 56.3793C18.7363 56.3793 18.0862 56.813 17.3769 57.6804C16.6677 58.9814 15.8993 60.7162 15.1309 63.3183C14.3626 66.3541 13.5942 70.2573 12.8258 75.0279C12.1166 79.7984 11.4073 86.3037 10.8754 94.1101C10.2252 102.35 9.75235 111.891 9.39772 123.167C9.04309 134.443 8.86578 147.887 8.86578 163.5C8.86578 180.414 9.1022 195.159 9.57504 208.603C10.0479 222.048 10.7571 233.324 11.6437 242.431C12.5303 251.538 13.6533 258.477 14.9536 263.248C16.1948 268.019 17.6724 270.621 19.2683 270.621C21.1597 270.621 22.6373 268.452 23.8194 264.549C25.0015 260.212 25.9472 255.008 26.6564 248.936C27.3657 242.865 27.8976 236.359 28.1932 229.854C28.5478 223.349 28.8433 217.277 29.0206 212.507H37.8273C37.3545 232.023 36.5861 248.936 35.4631 263.248C34.3401 277.56 32.9807 289.269 31.3848 298.81C29.789 308.351 28.0158 315.29 26.0063 320.061C23.9967 324.832 21.8689 327 19.6229 327C16.4903 327 13.6533 323.097 11.23 315.29C8.80667 307.918 6.73799 296.642 5.08304 282.764C3.4281 268.452 2.18689 251.105 1.30031 230.721C0.413736 210.772 0 188.22 0 163.5C0 144.418 0.236421 127.07 0.768367 111.458C1.24121 95.8448 1.95047 81.9668 2.83705 69.8236C3.72363 57.6804 4.78752 47.7056 6.02873 38.5982C7.21083 29.9244 8.51114 22.5517 9.98877 16.9138C11.4073 11.2759 12.8849 6.93901 14.4808 3.90319C16.0766 1.30108 17.6724 0 19.2683 0C21.5734 0 23.6421 1.73476 25.4152 5.20426C27.1884 9.10744 28.7842 13.4443 30.1436 19.5159C31.5031 25.5875 32.6261 32.0928 33.5717 39.8992C34.5174 47.7056 35.3449 55.5119 35.9359 63.3183C36.527 71.5584 36.9407 79.7984 37.2954 87.6048C37.5909 95.8448 37.7682 103.218 37.8273 110.157H28.9615L28.5478 99.748Z" fill="#333333"/>
</svg>
