<svg width="412" height="171" viewBox="0 0 412 171" fill="none" xmlns="http://www.w3.org/2000/svg">
<path d="M411.225 32.1846H393.772V68.2344H409.813V96.3487H393.772V137.387H412V166.861H387.21V4.07031H411.225V32.1846Z" fill="#333333"/>
<path d="M374.602 52.1475C374.465 50.1069 374.283 48.2931 374.055 46.0258C373.827 43.9853 373.508 41.9447 373.189 39.9042C372.824 38.0904 372.414 36.2765 371.867 34.6894C371.366 33.1023 370.728 31.9687 369.999 30.8351C369.27 29.9281 368.45 29.4747 367.447 29.4747C367.037 29.4747 366.536 29.7014 365.989 30.1549C365.442 30.8351 364.85 31.742 364.257 33.1023C363.665 34.6894 363.072 36.73 362.48 39.224C361.933 41.718 361.386 45.1189 360.976 49.2C360.475 53.5079 360.11 58.4959 359.837 64.3908C359.563 70.2858 359.427 77.3143 359.427 85.4766C359.427 94.319 359.609 102.028 359.974 109.056C360.338 116.085 360.885 121.98 361.569 126.741C362.252 131.502 363.118 135.13 364.12 137.624C365.077 140.118 366.217 141.478 367.447 141.478C368.905 141.478 370.045 140.345 370.956 138.304C371.867 136.037 372.596 133.316 373.143 130.142C373.69 126.968 374.1 123.567 374.328 120.166C374.602 116.765 374.829 113.591 374.966 111.097H381.756C381.391 121.3 380.799 130.142 379.933 137.624C379.067 145.106 378.019 151.228 376.789 156.216C375.558 161.204 374.191 164.831 372.642 167.325C371.093 169.819 369.452 170.953 367.72 170.953C365.305 170.953 363.118 168.913 361.25 164.831C359.381 160.977 357.786 155.082 356.51 147.827C355.234 140.345 354.277 131.276 353.594 120.619C352.91 110.19 352.591 98.4001 352.591 85.4766C352.591 75.5005 352.774 66.4314 353.184 58.2692C353.548 50.1069 354.095 42.8516 354.779 36.5033C355.462 30.1549 356.282 24.9401 357.239 20.1788C358.151 15.6442 359.153 11.7899 360.293 8.84241C361.386 5.89494 362.526 3.62766 363.756 2.04056C364.986 0.680192 366.217 0 367.447 0C369.224 0 370.819 0.906918 372.186 2.72075C373.553 4.7613 374.784 7.02858 375.832 10.2028C376.88 13.377 377.746 16.7779 378.475 20.859C379.204 24.9401 379.842 29.0212 380.298 33.1023C380.753 37.4102 381.072 41.718 381.346 45.7991C381.574 50.107 381.71 53.9613 381.756 57.589H374.921L374.602 52.1475Z" fill="#333333"/>
<path d="M337.477 4.07031C338.799 4.07031 339.983 4.7505 341.032 6.11086C342.034 7.24451 342.9 9.05834 343.629 11.0989C344.358 13.1394 344.996 15.6335 345.497 18.5809C346.044 21.3017 346.409 24.2491 346.728 27.1966C347.001 30.3708 347.229 33.545 347.366 36.7192C347.457 39.8934 347.548 42.8409 347.548 45.7883C347.548 49.8694 347.457 53.4971 347.32 56.898C347.138 60.0722 346.956 63.0197 346.637 65.7404C346.272 68.4612 345.908 70.9552 345.361 72.9957C344.859 75.263 344.267 77.3036 343.538 79.1174C344.632 81.1579 345.497 83.6519 346.181 86.5994C346.864 89.7736 347.366 92.9478 347.73 96.3487C348.095 99.9764 348.323 103.604 348.414 107.232C348.551 111.086 348.596 114.714 348.596 118.115C348.596 126.05 348.323 133.079 347.73 138.974C347.138 145.095 346.318 150.083 345.27 154.164C344.267 158.246 342.945 161.646 341.442 163.687C339.938 165.728 338.297 166.861 336.429 166.861H321.437V4.07031H337.477ZM336.429 68.2344C337.021 68.2344 337.614 67.781 338.161 67.3275C338.707 66.6473 339.209 65.5137 339.619 63.9266C340.029 62.5662 340.394 60.5257 340.621 58.2584C340.849 55.7644 340.986 53.0436 340.986 49.6427C340.986 46.2418 340.895 43.2943 340.667 41.027C340.439 38.7597 340.12 36.9459 339.71 35.5855C339.3 34.4519 338.844 33.545 338.297 32.8648C337.751 32.4113 337.204 32.1846 336.611 32.1846H327.999V68.2344H336.429ZM336.52 138.747C337.295 138.747 337.978 138.293 338.616 137.387C339.254 136.48 339.801 135.119 340.302 133.305C340.758 131.492 341.123 129.224 341.396 126.504C341.624 123.783 341.761 120.382 341.761 116.754C341.761 111.993 341.578 108.139 341.305 105.418C340.986 102.47 340.576 100.43 340.075 98.8427C339.528 97.2556 338.981 96.122 338.343 95.6685C337.659 95.2151 337.021 94.9884 336.338 94.9884H327.999V138.747H336.52Z" fill="#333333"/>
<path d="M285.968 130.811H286.059L291.801 4.07031H301.826V166.861H295.538V30.8243H295.446L289.249 166.861H282.596L276.626 30.8243H276.535V166.861H270.246V4.07031H280.226L285.968 130.811Z" fill="#333333"/>
<path d="M264.414 32.1846H246.96V68.2344H263.001V96.3487H246.96V137.387H265.188V166.861H240.398V4.07031H264.414V32.1846Z" fill="#333333"/>
<path d="M228.323 4.07031H236.115L224.312 78.4372L236.115 166.861H227.958L218.571 96.5755H217.249V166.861H210.642V96.5755H209.274L199.796 166.861H191.639L203.624 78.4372L191.912 4.07031H199.522L209.274 69.3681H210.642V4.07031H217.249V69.3681H218.571L228.323 4.07031Z" fill="#333333"/>
<path d="M190.195 166.861H182.767L180.671 133.305H168.595L166.317 166.861H159.117L170.828 4.07031H178.621L190.195 166.861ZM174.702 40.8003H174.61L170.418 105.191H178.757L174.702 40.8003Z" fill="#333333"/>
<path d="M136.118 70.275L148.605 4.07031H157.445L144.093 70.7284L158.22 166.861H149.562L139.445 94.7616L136.118 111.766V166.861H129.283V4.07031H136.118V70.275Z" fill="#333333"/>
<path d="M116.447 52.1475C116.31 50.1069 116.128 48.2931 115.9 46.0258C115.672 43.9853 115.353 41.9447 115.034 39.9042C114.67 38.0904 114.26 36.2765 113.713 34.6894C113.212 33.1023 112.574 31.9687 111.844 30.8351C111.115 29.9281 110.295 29.4747 109.293 29.4747C108.882 29.4747 108.381 29.7014 107.834 30.1549C107.287 30.8351 106.695 31.742 106.103 33.1023C105.51 34.6894 104.918 36.73 104.325 39.224C103.779 41.718 103.232 45.1189 102.822 49.2C102.32 53.5079 101.956 58.4959 101.682 64.3908C101.409 70.2858 101.272 77.3143 101.272 85.4766C101.272 94.319 101.455 102.028 101.819 109.056C102.184 116.085 102.73 121.98 103.414 126.741C104.098 131.502 104.963 135.13 105.966 137.624C106.923 140.118 108.062 141.478 109.293 141.478C110.751 141.478 111.89 140.345 112.801 138.304C113.713 136.037 114.442 133.316 114.989 130.142C115.536 126.968 115.946 123.567 116.174 120.166C116.447 116.765 116.675 113.591 116.812 111.097H123.601C123.237 121.3 122.644 130.142 121.779 137.624C120.913 145.106 119.865 151.228 118.634 156.216C117.404 161.204 116.037 164.831 114.487 167.325C112.938 169.819 111.298 170.953 109.566 170.953C107.151 170.953 104.963 168.913 103.095 164.831C101.227 160.977 99.6317 155.082 98.3558 147.827C97.0798 140.345 96.1228 131.276 95.4393 120.619C94.7558 110.19 94.4368 98.4001 94.4368 85.4766C94.4368 75.5005 94.619 66.4314 95.0292 58.2692C95.3937 50.1069 95.9406 42.8516 96.6241 36.5033C97.3077 30.1549 98.1279 24.9401 99.0849 20.1788C99.9963 15.6442 100.999 11.7899 102.138 8.84241C103.232 5.89494 104.371 3.62766 105.601 2.04056C106.832 0.680192 108.062 0 109.293 0C111.07 0 112.665 0.906918 114.032 2.72075C115.399 4.7613 116.629 7.02858 117.677 10.2028C118.725 13.377 119.591 16.7779 120.32 20.859C121.05 24.9401 121.688 29.0212 122.143 33.1023C122.599 37.4102 122.918 41.718 123.191 45.7991C123.419 50.107 123.556 53.9613 123.601 57.589H116.766L116.447 52.1475Z" fill="#333333"/>
<path d="M83.56 52.1475C83.4233 50.1069 83.241 48.2931 83.0132 46.0258C82.7853 43.9853 82.4664 41.9447 82.1474 39.9042C81.7828 38.0904 81.3727 36.2765 80.8258 34.6894C80.3246 33.1023 79.6866 31.9687 78.9575 30.8351C78.2284 29.9281 77.4081 29.4747 76.4056 29.4747C75.9954 29.4747 75.4942 29.7014 74.9473 30.1549C74.4005 30.8351 73.8081 31.742 73.2157 33.1023C72.6233 34.6894 72.0309 36.73 71.4385 39.224C70.8916 41.718 70.3448 45.1189 69.9347 49.2C69.4334 53.5079 69.0688 58.4959 68.7954 64.3908C68.522 70.2858 68.3853 77.3143 68.3853 85.4766C68.3853 94.319 68.5676 102.028 68.9321 109.056C69.2967 116.085 69.8435 121.98 70.5271 126.741C71.2106 131.502 72.0764 135.13 73.079 137.624C74.0359 140.118 75.1752 141.478 76.4056 141.478C77.8638 141.478 79.0031 140.345 79.9144 138.304C80.8258 136.037 81.555 133.316 82.1018 130.142C82.6486 126.968 83.0588 123.567 83.2866 120.166C83.56 116.765 83.7879 113.591 83.9246 111.097H90.7145C90.3499 121.3 89.7575 130.142 88.8917 137.624C88.0259 145.106 86.9778 151.228 85.7474 156.216C84.517 161.204 83.1499 164.831 81.6005 167.325C80.0512 169.819 78.4106 170.953 76.679 170.953C74.2638 170.953 72.0764 168.913 70.2081 164.831C68.3397 160.977 66.7448 155.082 65.4688 147.827C64.1929 140.345 63.2359 131.276 62.5523 120.619C61.8688 110.19 61.5498 98.4001 61.5498 85.4766C61.5498 75.5005 61.7321 66.4314 62.1422 58.2692C62.5068 50.1069 63.0536 42.8516 63.7372 36.5033C64.4207 30.1549 65.241 24.9401 66.1979 20.1788C67.1093 15.6442 68.1119 11.7899 69.2511 8.84241C70.3448 5.89494 71.484 3.62766 72.7144 2.04056C73.9448 0.680192 75.1752 0 76.4056 0C78.1828 0 79.7777 0.906918 81.1448 2.72075C82.5119 4.7613 83.7423 7.02858 84.7904 10.2028C85.8385 13.377 86.7043 16.7779 87.4335 20.859C88.1626 24.9401 88.8006 29.0212 89.2563 33.1023C89.712 37.4102 90.0309 41.718 90.3044 45.7991C90.5322 50.107 90.6689 53.9613 90.7145 57.589H83.879L83.56 52.1475Z" fill="#333333"/>
<path d="M58.648 166.861H51.2201L49.1239 133.305H37.0479L34.7694 166.861H27.5693L39.2808 4.07031H47.0732L58.648 166.861ZM43.1542 40.8003H43.0631L38.8707 105.191H47.2099L43.1542 40.8003Z" fill="#333333"/>
<path d="M14.8558 4.07031C16.5874 4.07031 18.0912 5.43069 19.4127 7.69797C20.6887 9.96525 21.7368 13.3662 22.6026 17.9007C23.4229 22.4353 24.0609 27.8768 24.471 34.4519C24.8811 40.8003 25.109 48.0556 25.109 56.2178C25.109 63.9266 24.8356 70.9552 24.3799 77.0768C23.8786 83.6519 23.1495 89.0934 22.2381 93.628C21.3267 98.3893 20.1874 102.017 18.8659 104.511C17.4988 107.005 15.995 108.365 14.3089 108.365H6.83547V166.861H0V4.07031H14.8558ZM13.3064 80.251C14.8558 80.251 16.0861 78.4372 16.952 74.5828C17.8178 70.9552 18.2735 64.8335 18.2735 56.2178C18.2735 51.91 18.1368 48.2823 17.9545 45.3349C17.6811 42.3874 17.3621 39.6667 16.952 37.8528C16.5418 35.8123 15.995 34.4519 15.4026 33.545C14.7646 32.6381 14.0811 32.1846 13.3064 32.1846H6.83547V80.251H13.3064Z" fill="#333333"/>
</svg>
