<svg width="47" height="47" viewBox="0 0 47 47" fill="none" xmlns="http://www.w3.org/2000/svg">
<path d="M23.5 0C10.5211 0 0 10.5211 0 23.5C0 36.4789 10.5211 47 23.5 47C36.4789 47 47 36.4789 47 23.5C47 10.5211 36.4789 0 23.5 0ZM32.5377 26.5134C32.5377 26.5134 34.616 28.5647 35.1276 29.517C35.1423 29.5366 35.1496 29.5561 35.1545 29.5659C35.3626 29.916 35.4116 30.1877 35.3088 30.3909C35.1374 30.7287 34.5499 30.8952 34.3492 30.9098H30.6773C30.4227 30.9098 29.8891 30.8437 29.2428 30.3982C28.7459 30.0506 28.2563 29.4803 27.779 28.9246C27.0666 28.0972 26.4497 27.3824 25.828 27.3824C25.749 27.3823 25.6705 27.3947 25.5954 27.4191C25.1254 27.5709 24.5232 28.2416 24.5232 30.0286C24.5232 30.5867 24.0826 30.9074 23.7717 30.9074H22.09C21.5172 30.9074 18.5332 30.7067 15.8894 27.9185C12.6533 24.5036 9.74026 17.6544 9.71578 17.5907C9.53219 17.1477 9.91161 16.9102 10.3253 16.9102H14.0339C14.5284 16.9102 14.6899 17.2113 14.8026 17.4781C14.9347 17.789 15.4194 19.0252 16.215 20.4156C17.5051 22.6824 18.2957 23.6028 18.9297 23.6028C19.0486 23.6014 19.1654 23.5712 19.27 23.5147C20.0974 23.0545 19.9432 20.1047 19.9065 19.4928C19.9065 19.3777 19.904 18.1733 19.4805 17.5956C19.177 17.177 18.6605 17.0179 18.3471 16.9592C18.474 16.7842 18.641 16.6423 18.8343 16.5455C19.4022 16.2615 20.4254 16.2199 21.4413 16.2199H22.0068C23.1083 16.2346 23.3923 16.3056 23.7913 16.4059C24.5991 16.5993 24.6162 17.1207 24.5453 18.9053C24.5232 19.412 24.5012 19.9848 24.5012 20.6604C24.5012 20.8073 24.4939 20.964 24.4939 21.1304C24.4694 22.0386 24.44 23.0692 25.0814 23.4927C25.165 23.5451 25.2617 23.5731 25.3604 23.5734C25.5832 23.5734 26.2539 23.5734 28.0703 20.4572C28.6304 19.4542 29.1172 18.4119 29.5268 17.3386C29.5635 17.2749 29.6712 17.0791 29.7985 17.0032C29.8924 16.9553 29.9966 16.931 30.102 16.9322H34.4618C34.9367 16.9322 35.2622 17.0032 35.3234 17.1868C35.4311 17.4781 35.3039 18.3667 33.3137 21.0619L32.4251 22.2344C30.621 24.5991 30.621 24.7191 32.5377 26.5134Z" fill="white"/>
</svg>
