<svg width="88" height="53" viewBox="0 0 88 53" fill="none" xmlns="http://www.w3.org/2000/svg">
<path d="M76.4991 52.9918C69.3279 52.9918 64.998 42.2171 64.998 26.5449C64.998 10.9706 69.3279 0 76.5442 0C83.6704 0 88.0002 10.8726 88.0002 26.4469C88.0002 42.1191 83.6704 52.9918 76.4991 52.9918ZM76.5442 45.0577C81.2349 45.0577 83.3998 36.9277 83.3998 26.5449C83.3998 16.064 81.2349 8.03202 76.5442 8.03202C71.7634 8.03202 69.5985 16.064 69.5985 26.5449C69.5985 36.9277 71.7634 45.0577 76.5442 45.0577Z" fill="#333333"/>
<path d="M48.5792 53H43.4368L52.0977 25.8765L44.2036 0H49.2558L54.7592 18.9137H54.8494L60.2625 0H65.3147L57.4206 25.8765L66.1718 53H60.9842L54.7592 32.7353H54.6689L48.5792 53Z" fill="#333333"/>
<path d="M33.1097 52.9918C25.9385 52.9918 21.6086 42.2171 21.6086 26.5449C21.6086 10.9706 25.9385 0 33.1548 0C40.281 0 44.6108 10.8726 44.6108 26.4469C44.6108 42.1191 40.281 52.9918 33.1097 52.9918ZM33.1548 45.0577C37.8455 45.0577 40.0104 36.9277 40.0104 26.5449C40.0104 16.064 37.8455 8.03202 33.1548 8.03202C28.374 8.03202 26.2091 16.064 26.2091 26.5449C26.2091 36.9277 28.374 45.0577 33.1548 45.0577Z" fill="#333333"/>
<path d="M5.14244 53H0L8.66096 25.8765L0.766855 0H5.81908L11.3224 18.9137H11.4126L16.8257 0H21.8779L13.9838 25.8765L22.735 53H17.5475L11.3224 32.7353H11.2322L5.14244 53Z" fill="#333333"/>
</svg>
