<svg width="325" height="160" viewBox="0 0 325 160" fill="none" xmlns="http://www.w3.org/2000/svg">
<path d="M46.1778 4.61943V62.3622H61.6004V4.61943H69.8331V155.801H61.6004V88.399H46.1778V155.801H38V4.61943H46.1778Z" fill="#333333"/>
<path d="M108.07 142.362C105.106 154.121 100.825 160 95.1723 160C89.5192 160 85.1833 154.121 82.2195 142.362C78.2129 127.874 76.1822 107.297 76.1822 80C76.1822 52.2835 78.2129 31.4961 82.2195 17.6378C85.1833 5.87926 89.5192 0 95.1723 0C100.825 0 105.106 5.87926 108.07 17.6378C112.077 31.4961 114.053 52.2835 114.053 80C114.053 107.297 112.077 127.874 108.07 142.362ZM102.966 119.475C104.832 110.236 105.82 97.0079 105.82 80C105.82 63.2021 104.832 49.9738 102.966 40.7349C100.99 31.4961 98.4105 26.8766 95.1723 26.8766C91.8792 26.8766 89.2997 31.4961 87.3238 40.7349C85.3479 49.9738 84.4149 62.9921 84.4149 80C84.4149 97.0079 85.3479 110.236 87.3238 119.475C89.2997 128.714 91.8792 133.333 95.1723 133.333C98.4105 133.333 100.99 128.714 102.966 119.475Z" fill="#333333"/>
<path d="M150.788 142.362C147.824 154.121 143.543 160 137.89 160C132.237 160 127.901 154.121 124.937 142.362C120.931 127.874 118.9 107.297 118.9 80C118.9 52.2835 120.931 31.4961 124.937 17.6378C127.901 5.87926 132.237 0 137.89 0C143.543 0 147.824 5.87926 150.788 17.6378C154.795 31.4961 156.771 52.2835 156.771 80C156.771 107.297 154.795 127.874 150.788 142.362ZM145.684 119.475C147.55 110.236 148.538 97.0079 148.538 80C148.538 63.2021 147.55 49.9738 145.684 40.7349C143.708 31.4961 141.128 26.8766 137.89 26.8766C134.597 26.8766 132.018 31.4961 130.042 40.7349C128.066 49.9738 127.133 62.9921 127.133 80C127.133 97.0079 128.066 110.236 130.042 119.475C132.018 128.714 134.597 133.333 137.89 133.333C141.128 133.333 143.708 128.714 145.684 119.475Z" fill="#333333"/>
<path d="M171.387 66.9816L186.591 4.61943H197.293L181.102 66.9816L198.116 155.801H187.524L175.284 89.8688L171.387 105.197V155.801H163.265V4.61943H171.387V66.9816Z" fill="#333333"/>
<path d="M226.382 97.6378C226.382 107.927 226.711 115.486 227.37 120.315C228.358 128.924 230.553 133.123 233.901 133.123C237.249 133.123 239.39 128.924 240.378 120.315C241.036 115.486 241.366 107.927 241.366 97.6378V4.61943H249.763V97.6378C249.763 113.596 249.104 126.194 247.787 135.013C245.372 151.391 240.707 159.79 233.901 159.79C227.041 159.79 222.375 151.391 219.96 135.013C218.643 126.194 217.985 113.596 217.985 97.6378V4.61943H226.382V97.6378Z" fill="#333333"/>
<path d="M284.487 90.2887C282.127 97.8478 278.724 101.417 274.389 101.417H265.991V155.801H257.813V4.61943H274.992C278.944 4.61943 282.127 8.60892 284.487 16.378C286.847 24.147 288 36.3255 288 52.4934C288 70.3412 286.847 82.9396 284.487 90.2887ZM278.23 35.9055C277.133 32.5459 275.651 30.8661 273.675 30.8661H265.991V75.3806H273.675C275.651 75.3806 277.133 73.4908 278.23 69.9213C279.328 66.3517 279.822 60.6824 279.822 52.7034C279.822 44.9344 279.328 39.2651 278.23 35.9055Z" fill="#333333"/>
</svg>
