<svg width="112" height="122" viewBox="0 0 112 122" fill="none" xmlns="http://www.w3.org/2000/svg">
<path d="M86.3092 121.846H81.8174L92.1176 0H96.7256L107.103 121.846H102.457L100.172 92.5349H88.5939L86.3092 121.846ZM94.3635 17.3822L89.8717 76.6864H98.9715L94.441 17.3822H94.3635Z" fill="#047FCF"/>
<path d="M81.451 0L70.2214 61.1787L82.2642 121.846H76.8817L66.7751 70.7219H63.5998V121.846H59.3403V0H63.5998V54.3621H66.8525L76.8043 0H81.451Z" fill="#047FCF"/>
<path d="M35.0871 121.846H30.8276V0H35.0871V93.2166H35.1646L49.5307 0H53.8289V121.846H49.5307V28.8H49.4533L35.0871 121.846Z" fill="#047FCF"/>
<path d="M17.3525 121.846H5V0H16.6555C22.3478 0 25.6779 11.2473 25.6779 30.6746C25.6779 45.671 23.6643 52.658 21.3797 56.0663V56.4071C24.2839 58.6225 26.7622 67.9953 26.7622 86.2296C26.7622 109.576 23.0835 121.846 17.3525 121.846ZM9.2595 50.613H16.5394C20.0244 50.613 21.2248 44.3077 21.2248 33.4012C21.2248 22.6651 19.7533 16.1894 16.8491 16.1894H9.2595V50.613ZM9.2595 105.657H17.0428C21.1474 105.657 22.309 96.9657 22.309 85.5479C22.309 72.7669 20.5278 65.4391 17.6236 65.4391H9.2595V105.657Z" fill="#047FCF"/>
</svg>
