<svg width="350" height="738" viewBox="0 0 350 738" fill="none" xmlns="http://www.w3.org/2000/svg">
<path d="M3.8 16H1.46V1.8H10.04V3.94H3.8V7.94H9.22V10H3.8V16ZM19.8358 7.6L20.1958 5.62H22.1558V16H19.8358V13.88C19.2758 15.3 17.8158 16.2 15.9358 16.2C12.7758 16.2 10.8158 13.78 10.8158 10.78C10.8158 7.7 12.8558 5.4 16.0558 5.4C17.6158 5.4 19.0558 6.16 19.8358 7.52V7.6ZM16.4958 14.14C18.4358 14.14 19.8358 12.7 19.8358 10.8C19.8358 8.92 18.4358 7.48 16.4958 7.48C14.5358 7.48 13.1358 8.86 13.1358 10.8C13.1358 12.76 14.5358 14.14 16.4958 14.14ZM25.6798 4.32C24.9198 4.32 24.3198 3.72 24.3198 2.98C24.3198 2.22 24.9198 1.62 25.6798 1.62C26.4198 1.62 27.0198 2.22 27.0198 2.98C27.0198 3.72 26.4198 4.32 25.6798 4.32ZM24.5198 5.62H26.8198V16H24.5198V5.62ZM31.0678 5.62L31.3878 7.18C31.9478 6.08 32.9678 5.36 34.7478 5.6L34.7278 7.58C32.7278 7.32 31.5478 8.02 31.4678 9.62L31.4878 16H29.1878V5.62H31.0678ZM41.0498 1.8H46.3698C49.3298 1.8 51.5298 3.44 51.5298 6.48C51.5298 9.5 49.3298 11.28 46.2498 11.28H43.3898V16H41.0498V1.8ZM43.3898 9.16H46.3698C47.9898 9.16 49.1898 8.28 49.1898 6.54C49.1898 4.82 47.9898 3.94 46.3698 3.94H43.3898V9.16ZM54.5275 4.32C53.7675 4.32 53.1675 3.72 53.1675 2.98C53.1675 2.22 53.7675 1.62 54.5275 1.62C55.2675 1.62 55.8675 2.22 55.8675 2.98C55.8675 3.72 55.2675 4.32 54.5275 4.32ZM53.3675 5.62H55.6675V16H53.3675V5.62ZM63.7755 5.4C65.9755 5.4 67.9555 6.74 67.9555 9.92V16H65.6355V10.26C65.6355 8.04 64.3755 7.38 63.0755 7.38C61.4355 7.38 60.3555 8.44 60.3555 10.42V16H58.0355V5.62H59.9955L60.3155 7.36C60.9555 6.12 62.1155 5.4 63.7755 5.4ZM74.5439 10.46L79.7039 16H76.9839L72.3439 10.94C72.4439 12.2 72.4839 13.74 72.4839 16H70.1839V0.999999H72.4839C72.4839 5.9 72.4839 8.14 72.3239 9.98L76.9639 5.62H79.6839L74.5439 10.46Z" fill="#333333"/>
<g clip-path="url(#clip0_2693_169)">
<rect x="1" y="31" width="348" height="98" fill="#EC3396" stroke="#333333" stroke-width="2"/>
<path d="M146.048 74.23V76.364H143.232L142.814 80.346H145.388V82.48H142.572L142.198 86H139.756L140.13 82.48H136.808L136.434 86H133.992L134.366 82.48H131.748V80.346H134.608L135.026 76.364H132.408V74.23H135.246L135.664 70.38H138.106L137.688 74.23H141.01L141.428 70.38H143.87L143.452 74.23H146.048ZM137.05 80.346H140.372L140.79 76.364H137.468L137.05 80.346ZM157.461 70.38V72.712H150.311V76.958H156.119V79.224H150.311V83.668H157.461V86H147.737V70.38H157.461ZM166.106 86.22C161.728 86.22 158.296 82.7 158.296 78.19C158.296 73.68 161.728 70.16 166.106 70.16C168.438 70.16 169.956 70.93 170.682 71.524V74.054C170.066 73.438 168.68 72.514 166.414 72.514C163.334 72.514 160.87 74.912 160.87 78.19C160.87 81.468 163.356 83.866 166.414 83.866C168.68 83.866 170.066 82.92 170.682 82.326V84.856C169.956 85.45 168.438 86.22 166.106 86.22ZM180.657 77.75C181.933 78.344 182.923 79.532 182.923 81.512C182.923 83.866 181.009 86.22 177.467 86.22C173.925 86.22 171.659 83.976 171.659 80.962H174.167C174.167 82.942 175.685 83.866 177.335 83.866C179.249 83.866 180.349 82.81 180.349 81.38C180.349 79.686 178.919 79.07 177.137 79.07H175.905V76.87H177.203C178.985 76.782 179.755 75.726 179.755 74.67C179.755 73.372 178.743 72.514 177.203 72.514C175.575 72.514 174.343 73.592 174.343 75.286H171.857C171.857 72.47 173.859 70.16 177.313 70.16C180.305 70.16 182.329 71.964 182.329 74.45C182.329 75.902 181.669 77.024 180.657 77.75ZM192.565 77.75C193.841 78.344 194.831 79.532 194.831 81.512C194.831 83.866 192.917 86.22 189.375 86.22C185.833 86.22 183.567 83.976 183.567 80.962H186.075C186.075 82.942 187.593 83.866 189.243 83.866C191.157 83.866 192.257 82.81 192.257 81.38C192.257 79.686 190.827 79.07 189.045 79.07H187.813V76.87H189.111C190.893 76.782 191.663 75.726 191.663 74.67C191.663 73.372 190.651 72.514 189.111 72.514C187.483 72.514 186.251 73.592 186.251 75.286H183.765C183.765 72.47 185.767 70.16 189.221 70.16C192.213 70.16 194.237 71.964 194.237 74.45C194.237 75.902 193.577 77.024 192.565 77.75ZM201.262 70.16C204.672 70.16 206.96 72.602 206.96 75.528C206.96 76.496 206.696 77.662 205.86 79.07L201.746 86.022L198.908 86L202.164 80.566C201.702 80.742 201.174 80.83 200.58 80.83C197.808 80.83 195.63 78.674 195.63 75.682C195.63 72.602 197.918 70.16 201.262 70.16ZM201.262 78.784C203.066 78.784 204.386 77.464 204.386 75.682C204.386 73.9 203.044 72.58 201.262 72.58C199.524 72.58 198.204 73.9 198.204 75.682C198.204 77.464 199.524 78.784 201.262 78.784ZM213.532 75.55C216.304 75.55 218.46 77.706 218.46 80.698C218.46 83.778 216.194 86.22 212.828 86.22C209.44 86.22 207.152 83.778 207.152 80.852C207.152 79.884 207.394 78.718 208.23 77.31L212.366 70.358L215.182 70.38L211.948 75.814C212.41 75.638 212.938 75.55 213.532 75.55ZM212.828 83.8C214.588 83.8 215.908 82.48 215.908 80.698C215.908 78.916 214.588 77.596 212.828 77.596C211.024 77.596 209.726 78.916 209.726 80.698C209.726 82.48 211.046 83.8 212.828 83.8Z" fill="white"/>
</g>
<g clip-path="url(#clip1_2693_169)">
<rect x="1" y="183" width="198" height="98" fill="#333333" stroke="#333333" stroke-width="2"/>
<path d="M71.048 226.23V228.364H68.232L67.814 232.346H70.388V234.48H67.572L67.198 238H64.756L65.13 234.48H61.808L61.434 238H58.992L59.366 234.48H56.748V232.346H59.608L60.026 228.364H57.408V226.23H60.246L60.664 222.38H63.106L62.688 226.23H66.01L66.428 222.38H68.87L68.452 226.23H71.048ZM62.05 232.346H65.372L65.79 228.364H62.468L62.05 232.346ZM80.723 229.75C81.999 230.344 82.989 231.532 82.989 233.512C82.989 235.866 81.075 238.22 77.533 238.22C73.991 238.22 71.725 235.976 71.725 232.962H74.233C74.233 234.942 75.751 235.866 77.401 235.866C79.315 235.866 80.415 234.81 80.415 233.38C80.415 231.686 78.985 231.07 77.203 231.07H75.971V228.87H77.269C79.051 228.782 79.821 227.726 79.821 226.67C79.821 225.372 78.809 224.514 77.269 224.514C75.641 224.514 74.409 225.592 74.409 227.286H71.923C71.923 224.47 73.925 222.16 77.379 222.16C80.371 222.16 82.395 223.964 82.395 226.45C82.395 227.902 81.735 229.024 80.723 229.75ZM92.6314 229.75C93.9074 230.344 94.8974 231.532 94.8974 233.512C94.8974 235.866 92.9834 238.22 89.4414 238.22C85.8994 238.22 83.6334 235.976 83.6334 232.962H86.1414C86.1414 234.942 87.6594 235.866 89.3094 235.866C91.2234 235.866 92.3234 234.81 92.3234 233.38C92.3234 231.686 90.8934 231.07 89.1114 231.07H87.8794V228.87H89.1774C90.9594 228.782 91.7294 227.726 91.7294 226.67C91.7294 225.372 90.7174 224.514 89.1774 224.514C87.5494 224.514 86.3174 225.592 86.3174 227.286H83.8314C83.8314 224.47 85.8334 222.16 89.2874 222.16C92.2794 222.16 94.3034 223.964 94.3034 226.45C94.3034 227.902 93.6434 229.024 92.6314 229.75ZM104.54 229.75C105.816 230.344 106.806 231.532 106.806 233.512C106.806 235.866 104.892 238.22 101.35 238.22C97.8077 238.22 95.5417 235.976 95.5417 232.962H98.0497C98.0497 234.942 99.5677 235.866 101.218 235.866C103.132 235.866 104.232 234.81 104.232 233.38C104.232 231.686 102.802 231.07 101.02 231.07H99.7877V228.87H101.086C102.868 228.782 103.638 227.726 103.638 226.67C103.638 225.372 102.626 224.514 101.086 224.514C99.4577 224.514 98.2257 225.592 98.2257 227.286H95.7397C95.7397 224.47 97.7417 222.16 101.196 222.16C104.188 222.16 106.212 223.964 106.212 226.45C106.212 227.902 105.552 229.024 104.54 229.75ZM116.448 229.75C117.724 230.344 118.714 231.532 118.714 233.512C118.714 235.866 116.8 238.22 113.258 238.22C109.716 238.22 107.45 235.976 107.45 232.962H109.958C109.958 234.942 111.476 235.866 113.126 235.866C115.04 235.866 116.14 234.81 116.14 233.38C116.14 231.686 114.71 231.07 112.928 231.07H111.696V228.87H112.994C114.776 228.782 115.546 227.726 115.546 226.67C115.546 225.372 114.534 224.514 112.994 224.514C111.366 224.514 110.134 225.592 110.134 227.286H107.648C107.648 224.47 109.65 222.16 113.104 222.16C116.096 222.16 118.12 223.964 118.12 226.45C118.12 227.902 117.46 229.024 116.448 229.75ZM128.356 229.75C129.632 230.344 130.622 231.532 130.622 233.512C130.622 235.866 128.708 238.22 125.166 238.22C121.624 238.22 119.358 235.976 119.358 232.962H121.866C121.866 234.942 123.384 235.866 125.034 235.866C126.948 235.866 128.048 234.81 128.048 233.38C128.048 231.686 126.618 231.07 124.836 231.07H123.604V228.87H124.902C126.684 228.782 127.454 227.726 127.454 226.67C127.454 225.372 126.442 224.514 124.902 224.514C123.274 224.514 122.042 225.592 122.042 227.286H119.556C119.556 224.47 121.558 222.16 125.012 222.16C128.004 222.16 130.028 223.964 130.028 226.45C130.028 227.902 129.368 229.024 128.356 229.75ZM140.265 229.75C141.541 230.344 142.531 231.532 142.531 233.512C142.531 235.866 140.617 238.22 137.075 238.22C133.533 238.22 131.267 235.976 131.267 232.962H133.775C133.775 234.942 135.293 235.866 136.943 235.866C138.857 235.866 139.957 234.81 139.957 233.38C139.957 231.686 138.527 231.07 136.745 231.07H135.513V228.87H136.811C138.593 228.782 139.363 227.726 139.363 226.67C139.363 225.372 138.351 224.514 136.811 224.514C135.183 224.514 133.951 225.592 133.951 227.286H131.465C131.465 224.47 133.467 222.16 136.921 222.16C139.913 222.16 141.937 223.964 141.937 226.45C141.937 227.902 141.277 229.024 140.265 229.75Z" fill="white"/>
</g>
<path d="M7.502 167H4.928V153.712H0.682V151.38H11.726V153.712H7.502V167ZM16.7181 155.34C20.1941 155.34 22.6801 157.76 22.5701 162.116H13.3961C13.5501 163.898 15.0241 165.13 16.9161 165.13C18.5441 165.13 19.6001 164.294 20.0841 163.304L22.3061 163.546C21.6901 165.592 19.5781 167.22 16.8941 167.22C13.4181 167.22 10.8661 164.866 10.8661 161.302C10.8661 157.914 13.3081 155.34 16.7181 155.34ZM16.7181 157.386C14.9141 157.386 13.5281 158.574 13.3961 160.202H19.9741C19.9081 158.596 18.5881 157.386 16.7181 157.386ZM29.8236 155.34C33.2996 155.34 35.7856 157.76 35.6756 162.116H26.5016C26.6556 163.898 28.1296 165.13 30.0216 165.13C31.6496 165.13 32.7056 164.294 33.1896 163.304L35.4116 163.546C34.7956 165.592 32.6836 167.22 29.9996 167.22C26.5236 167.22 23.9716 164.866 23.9716 161.302C23.9716 157.914 26.4136 155.34 29.8236 155.34ZM29.8236 157.386C28.0196 157.386 26.6336 158.574 26.5016 160.202H33.0796C33.0136 158.596 31.6936 157.386 29.8236 157.386ZM43.985 155.34C46.405 155.34 48.583 156.814 48.583 160.312V167H46.031V160.686C46.031 158.244 44.645 157.518 43.215 157.518C41.411 157.518 40.223 158.684 40.223 160.862V167H37.671V155.582H39.827L40.179 157.496C40.883 156.132 42.159 155.34 43.985 155.34ZM61.6553 160.642V158.376H71.0713C71.0713 163.986 67.7493 167.22 63.3053 167.22C58.6633 167.22 55.4073 163.678 55.4073 159.168C55.4073 154.724 58.6193 151.16 63.3273 151.16C66.1433 151.16 68.6073 152.458 69.7733 154.218L67.9253 155.846C67.1333 154.592 65.5053 153.536 63.4153 153.536C60.2033 153.536 57.9813 155.934 57.9813 159.212C57.9813 162.446 60.0713 164.844 63.2613 164.844C65.9453 164.844 67.8593 163.128 68.3653 160.642H61.6553ZM75.2312 155.582L75.5832 157.298C76.1992 156.088 77.3212 155.296 79.2792 155.56L79.2572 157.738C77.0572 157.452 75.7592 158.222 75.6712 159.982L75.6932 167H73.1632V155.582H75.2312ZM85.8333 155.34C89.3093 155.34 91.7953 157.76 91.6853 162.116H82.5113C82.6653 163.898 84.1393 165.13 86.0313 165.13C87.6593 165.13 88.7153 164.294 89.1993 163.304L91.4213 163.546C90.8053 165.592 88.6933 167.22 86.0093 167.22C82.5333 167.22 79.9813 164.866 79.9813 161.302C79.9813 157.914 82.4233 155.34 85.8333 155.34ZM85.8333 157.386C84.0293 157.386 82.6433 158.574 82.5113 160.202H89.0893C89.0233 158.596 87.7033 157.386 85.8333 157.386ZM101.422 155.582H104.106L97.4399 172.06H94.8219L96.8019 167.066L91.9399 155.582H94.6899C97.0659 161.302 97.8139 163.26 98.1219 164.712C98.4079 163.282 99.0899 161.346 101.422 155.582Z" fill="#333333"/>
<path d="M2.606 303.38H8.458C11.714 303.38 14.134 305.184 14.134 308.528C14.134 311.85 11.714 313.808 8.326 313.808H5.18V319H2.606V303.38ZM5.18 311.476H8.458C10.24 311.476 11.56 310.508 11.56 308.594C11.56 306.702 10.24 305.734 8.458 305.734H5.18V311.476ZM24.3394 313.72V307.582H26.8914V319H24.7354L24.4274 316.976C23.7234 318.406 22.4254 319.242 20.5774 319.242C18.1794 319.242 16.0014 317.768 16.0014 314.27V307.582H18.5094V313.896C18.5094 316.338 19.9174 317.086 21.3474 317.086C23.1514 317.086 24.3394 315.898 24.3394 313.72ZM31.5652 307.582L31.9172 309.298C32.5332 308.088 33.6552 307.296 35.6132 307.56L35.5912 309.738C33.3912 309.452 32.0932 310.222 32.0052 311.982L32.0272 319H29.4972V307.582H31.5652ZM42.1673 307.34C45.6433 307.34 48.1293 309.76 48.0193 314.116H38.8453C38.9993 315.898 40.4733 317.13 42.3653 317.13C43.9933 317.13 45.0493 316.294 45.5333 315.304L47.7553 315.546C47.1393 317.592 45.0273 319.22 42.3433 319.22C38.8673 319.22 36.3153 316.866 36.3153 313.302C36.3153 309.914 38.7573 307.34 42.1673 307.34ZM42.1673 309.386C40.3633 309.386 38.9773 310.574 38.8453 312.202H45.4233C45.3573 310.596 44.0373 309.386 42.1673 309.386ZM71.8118 303.38H74.4078L70.0958 319H67.1478C64.9478 310.64 64.3538 308.088 64.1558 306.372C63.9578 308.132 63.3198 310.64 61.0318 319H58.1498L53.8598 303.38H56.5658C58.7658 311.74 59.4698 314.578 59.7338 316.36C59.9758 314.402 60.6358 311.762 62.8138 303.38H65.6078C67.7418 311.388 68.4458 314.336 68.7318 316.118C68.9958 314.248 69.6778 311.454 71.8118 303.38ZM82.3239 307.34C84.7439 307.34 86.9439 308.814 86.9439 312.312V319H84.3919V312.686C84.3919 310.244 83.0059 309.518 81.5759 309.518C79.7499 309.518 78.5839 310.684 78.5839 312.862V319H76.0539V302.5H78.5839V309.408C79.3099 308.088 80.5639 307.34 82.3239 307.34ZM90.6717 306.152C89.8357 306.152 89.1757 305.492 89.1757 304.678C89.1757 303.842 89.8357 303.182 90.6717 303.182C91.4857 303.182 92.1457 303.842 92.1457 304.678C92.1457 305.492 91.4857 306.152 90.6717 306.152ZM89.3957 307.582H91.9257V319H89.3957V307.582ZM98.0504 307.582H100.58V309.562H98.0504V319H95.5424V309.562H93.7604V307.582H95.5424V304.26H98.0504V307.582ZM107.072 307.34C110.548 307.34 113.034 309.76 112.924 314.116H103.75C103.904 315.898 105.378 317.13 107.27 317.13C108.898 317.13 109.954 316.294 110.438 315.304L112.66 315.546C112.044 317.592 109.932 319.22 107.248 319.22C103.772 319.22 101.22 316.866 101.22 313.302C101.22 309.914 103.662 307.34 107.072 307.34ZM107.072 309.386C105.268 309.386 103.882 310.574 103.75 312.202H110.328C110.262 310.596 108.942 309.386 107.072 309.386Z" fill="#333333"/>
<rect x="2" y="335" width="198" height="98" stroke="#333333" stroke-width="2"/>
<path d="M75.048 378.23V380.364H72.232L71.814 384.346H74.388V386.48H71.572L71.198 390H68.756L69.13 386.48H65.808L65.434 390H62.992L63.366 386.48H60.748V384.346H63.608L64.026 380.364H61.408V378.23H64.246L64.664 374.38H67.106L66.688 378.23H70.01L70.428 374.38H72.87L72.452 378.23H75.048ZM66.05 384.346H69.372L69.79 380.364H66.468L66.05 384.346ZM79.311 390H76.737V374.38H86.175V376.734H79.311V381.134H85.273V383.4H79.311V390ZM90.317 390H87.743V374.38H97.181V376.734H90.317V381.134H96.279V383.4H90.317V390ZM101.323 390H98.749V374.38H108.187V376.734H101.323V381.134H107.285V383.4H101.323V390ZM112.329 390H109.755V374.38H119.193V376.734H112.329V381.134H118.291V383.4H112.329V390ZM123.335 390H120.761V374.38H130.199V376.734H123.335V381.134H129.297V383.4H123.335V390ZM134.341 390H131.767V374.38H141.205V376.734H134.341V381.134H140.303V383.4H134.341V390Z" fill="#333333"/>
<path d="M8.7 471H2.606V455.38H8.348C11.648 455.38 13.43 456.81 13.43 459.252C13.43 461.144 12.484 462.2 11.23 462.574C13.122 462.904 14.31 464.488 14.31 466.468C14.31 469.13 12.396 471 8.7 471ZM5.18 457.58V461.914H8.348C9.91 461.914 10.834 461.21 10.834 459.736C10.834 458.35 9.91 457.58 8.348 457.58H5.18ZM5.18 463.872V468.8H8.7C10.614 468.8 11.714 467.898 11.714 466.402C11.714 464.862 10.614 463.872 8.788 463.872H5.18ZM18.4812 459.582L18.8332 461.298C19.4492 460.088 20.5712 459.296 22.5292 459.56L22.5072 461.738C20.3072 461.452 19.0092 462.222 18.9212 463.982L18.9432 471H16.4132V459.582H18.4812ZM33.1533 461.76L33.5493 459.582H35.7053V471H33.1533V468.668C32.5373 470.23 30.9313 471.22 28.8633 471.22C25.3873 471.22 23.2313 468.558 23.2313 465.258C23.2313 461.87 25.4753 459.34 28.9953 459.34C30.7113 459.34 32.2953 460.176 33.1533 461.672V461.76ZM29.4793 468.954C31.6133 468.954 33.1533 467.37 33.1533 465.28C33.1533 463.212 31.6133 461.628 29.4793 461.628C27.3233 461.628 25.7833 463.146 25.7833 465.28C25.7833 467.436 27.3233 468.954 29.4793 468.954ZM41.8258 459.582H44.3558V461.562H41.8258V471H39.3178V461.562H37.5358V459.582H39.3178V456.26H41.8258V459.582ZM56.8116 464.642V462.376H66.2276C66.2276 467.986 62.9056 471.22 58.4616 471.22C53.8196 471.22 50.5636 467.678 50.5636 463.168C50.5636 458.724 53.7756 455.16 58.4836 455.16C61.2996 455.16 63.7636 456.458 64.9296 458.218L63.0816 459.846C62.2896 458.592 60.6616 457.536 58.5716 457.536C55.3596 457.536 53.1376 459.934 53.1376 463.212C53.1376 466.446 55.2276 468.844 58.4176 468.844C61.1016 468.844 63.0156 467.128 63.5216 464.642H56.8116ZM70.3875 459.582L70.7395 461.298C71.3555 460.088 72.4775 459.296 74.4355 459.56L74.4135 461.738C72.2135 461.452 70.9155 462.222 70.8275 463.982L70.8495 471H68.3195V459.582H70.3875ZM80.9896 459.34C84.4656 459.34 86.9516 461.76 86.8416 466.116H77.6676C77.8216 467.898 79.2956 469.13 81.1876 469.13C82.8156 469.13 83.8716 468.294 84.3556 467.304L86.5776 467.546C85.9616 469.592 83.8496 471.22 81.1656 471.22C77.6896 471.22 75.1376 468.866 75.1376 465.302C75.1376 461.914 77.5796 459.34 80.9896 459.34ZM80.9896 461.386C79.1856 461.386 77.7996 462.574 77.6676 464.202H84.2456C84.1796 462.596 82.8596 461.386 80.9896 461.386ZM94.0951 459.34C97.5711 459.34 100.057 461.76 99.9471 466.116H90.7731C90.9271 467.898 92.4011 469.13 94.2931 469.13C95.9211 469.13 96.9771 468.294 97.4611 467.304L99.6831 467.546C99.0671 469.592 96.9551 471.22 94.2711 471.22C90.7951 471.22 88.2431 468.866 88.2431 465.302C88.2431 461.914 90.6851 459.34 94.0951 459.34ZM94.0951 461.386C92.2911 461.386 90.9051 462.574 90.7731 464.202H97.3511C97.2851 462.596 95.9651 461.386 94.0951 461.386ZM108.257 459.34C110.677 459.34 112.855 460.814 112.855 464.312V471H110.303V464.686C110.303 462.244 108.917 461.518 107.487 461.518C105.683 461.518 104.495 462.684 104.495 464.862V471H101.943V459.582H104.099L104.451 461.496C105.155 460.132 106.431 459.34 108.257 459.34Z" fill="#333333"/>
<rect x="2" y="487" width="115" height="98" fill="#A7D408" stroke="#333333" stroke-width="2"/>
<path d="M28.048 530.23V532.364H25.232L24.814 536.346H27.388V538.48H24.572L24.198 542H21.756L22.13 538.48H18.808L18.434 542H15.992L16.366 538.48H13.748V536.346H16.608L17.026 532.364H14.408V530.23H17.246L17.664 526.38H20.106L19.688 530.23H23.01L23.428 526.38H25.87L25.452 530.23H28.048ZM19.05 536.346H22.372L22.79 532.364H19.468L19.05 536.346ZM42.827 542H40.055C39.571 540.592 39.131 539.36 38.757 538.238H32.575L31.299 542H28.637L34.247 526.38H37.173L42.827 542ZM33.279 536.104H38.031C36.139 530.56 35.743 529.196 35.611 528.096C35.479 529.218 35.127 530.604 33.279 536.104ZM42.6672 528.646V526.38H53.2052V528.338L47.5952 542H44.8672L50.4772 528.646H42.6672ZM59.691 542H54.499V526.38H59.691C64.553 526.38 67.457 529.812 67.457 534.19C67.457 538.568 64.553 542 59.691 542ZM57.073 528.712V539.668H59.691C62.793 539.668 64.905 537.666 64.905 534.19C64.905 530.714 62.793 528.712 59.691 528.712H57.073ZM78.0643 536.786H80.3743V538.854H78.0643V542H75.5563V538.854H68.2523V537.072L75.6883 526.38H78.0643V536.786ZM75.7763 529.592L70.9583 536.786H75.5783V532.298C75.5783 531.132 75.6443 530.23 75.7763 529.592ZM87.1427 542.22C84.0847 542.22 81.2027 540.196 81.2027 536.566V531.814C81.2027 528.184 84.0847 526.16 87.1427 526.16C90.2227 526.16 93.1047 528.184 93.1047 531.814V536.566C93.1047 540.196 90.2227 542.22 87.1427 542.22ZM87.1427 539.8C88.9907 539.8 90.5307 538.524 90.5307 536.566V531.814C90.5307 529.856 88.9907 528.58 87.1427 528.58C85.3167 528.58 83.7767 529.856 83.7767 531.814V536.566C83.7767 538.524 85.3167 539.8 87.1427 539.8ZM102.868 533.684C104.342 534.454 105.156 535.818 105.156 537.446C105.156 540.24 102.846 542.22 99.6341 542.22C96.4441 542.22 94.1341 540.24 94.1341 537.446C94.1341 535.818 94.9261 534.454 96.4221 533.662C95.3441 532.936 94.7501 531.814 94.7501 530.472C94.7501 527.854 96.9061 526.16 99.6561 526.16C102.384 526.16 104.54 527.854 104.54 530.472C104.54 531.814 103.968 532.958 102.868 533.684ZM99.6561 528.272C98.3801 528.272 97.2141 529.064 97.2141 530.494C97.2141 531.902 98.3801 532.738 99.6561 532.738C100.932 532.738 102.142 531.902 102.142 530.494C102.142 529.064 100.932 528.272 99.6561 528.272ZM99.6561 539.932C101.35 539.932 102.626 538.876 102.626 537.336C102.626 535.774 101.35 534.718 99.6561 534.718C97.9621 534.718 96.6861 535.774 96.6861 537.336C96.6861 538.876 97.9621 539.932 99.6561 539.932Z" fill="white"/>
<path d="M18.304 607.38H20.9L16.588 623H13.64C11.44 614.64 10.846 612.088 10.648 610.372C10.45 612.132 9.812 614.64 7.524 623H4.642L0.352 607.38H3.058C5.258 615.74 5.962 618.578 6.226 620.36C6.468 618.402 7.128 615.762 9.306 607.38H12.1C14.234 615.388 14.938 618.336 15.224 620.118C15.488 618.248 16.17 615.454 18.304 607.38ZM23.6931 610.152C22.8571 610.152 22.1971 609.492 22.1971 608.678C22.1971 607.842 22.8571 607.182 23.6931 607.182C24.5071 607.182 25.1671 607.842 25.1671 608.678C25.1671 609.492 24.5071 610.152 23.6931 610.152ZM22.4171 611.582H24.9471V623H22.4171V611.582ZM31.9079 623.22C29.2679 623.22 26.9579 622.076 26.8259 619.458L29.2899 619.37C29.4219 620.558 30.5219 621.24 31.9959 621.24C33.2499 621.24 34.1079 620.734 34.1079 619.876C34.1079 617.588 27.3319 618.886 27.3319 614.728C27.3319 612.638 29.2679 611.362 31.6879 611.362C34.3059 611.362 36.1539 612.88 36.2419 614.86L33.8439 614.926C33.7119 613.958 32.9199 613.276 31.6659 613.276C30.6099 613.276 29.7739 613.76 29.7739 614.552C29.7739 616.796 36.6379 615.432 36.6379 619.766C36.6379 621.988 34.6799 623.22 31.9079 623.22ZM43.8099 611.34C47.2859 611.34 49.7719 613.76 49.6619 618.116H40.4879C40.6419 619.898 42.1159 621.13 44.0079 621.13C45.6359 621.13 46.6919 620.294 47.1759 619.304L49.3979 619.546C48.7819 621.592 46.6699 623.22 43.9859 623.22C40.5099 623.22 37.9579 620.866 37.9579 617.302C37.9579 613.914 40.3999 611.34 43.8099 611.34ZM43.8099 613.386C42.0059 613.386 40.6199 614.574 40.4879 616.202H47.0659C46.9999 614.596 45.6799 613.386 43.8099 613.386ZM62.8504 623H56.7564V607.38H62.4984C65.7984 607.38 67.5804 608.81 67.5804 611.252C67.5804 613.144 66.6344 614.2 65.3804 614.574C67.2724 614.904 68.4604 616.488 68.4604 618.468C68.4604 621.13 66.5464 623 62.8504 623ZM59.3304 609.58V613.914H62.4984C64.0604 613.914 64.9844 613.21 64.9844 611.736C64.9844 610.35 64.0604 609.58 62.4984 609.58H59.3304ZM59.3304 615.872V620.8H62.8504C64.7644 620.8 65.8644 619.898 65.8644 618.402C65.8644 616.862 64.7644 615.872 62.9384 615.872H59.3304ZM70.5636 606.5H73.0936V623H70.5636V606.5ZM83.8824 617.72V611.582H86.4344V623H84.2784L83.9704 620.976C83.2664 622.406 81.9684 623.242 80.1204 623.242C77.7224 623.242 75.5444 621.768 75.5444 618.27V611.582H78.0524V617.896C78.0524 620.338 79.4604 621.086 80.8904 621.086C82.6944 621.086 83.8824 619.898 83.8824 617.72ZM94.2982 611.34C97.7742 611.34 100.26 613.76 100.15 618.116H90.9762C91.1302 619.898 92.6042 621.13 94.4962 621.13C96.1242 621.13 97.1802 620.294 97.6642 619.304L99.8862 619.546C99.2702 621.592 97.1582 623.22 94.4742 623.22C90.9982 623.22 88.4462 620.866 88.4462 617.302C88.4462 613.914 90.8882 611.34 94.2982 611.34ZM94.2982 613.386C92.4942 613.386 91.1082 614.574 90.9762 616.202H97.5542C97.4882 614.596 96.1682 613.386 94.2982 613.386Z" fill="#333333"/>
<rect x="1" y="639" width="115" height="98" fill="#047FCF" stroke="#333333" stroke-width="2"/>
<path d="M33.048 682.23V684.364H30.232L29.814 688.346H32.388V690.48H29.572L29.198 694H26.756L27.13 690.48H23.808L23.434 694H20.992L21.366 690.48H18.748V688.346H21.608L22.026 684.364H19.408V682.23H22.246L22.664 678.38H25.106L24.688 682.23H28.01L28.428 678.38H30.87L30.452 682.23H33.048ZM24.05 688.346H27.372L27.79 684.364H24.468L24.05 688.346ZM40.105 694.22C37.047 694.22 34.165 692.196 34.165 688.566V683.814C34.165 680.184 37.047 678.16 40.105 678.16C43.185 678.16 46.067 680.184 46.067 683.814V688.566C46.067 692.196 43.185 694.22 40.105 694.22ZM40.105 691.8C41.953 691.8 43.493 690.524 43.493 688.566V683.814C43.493 681.856 41.953 680.58 40.105 680.58C38.279 680.58 36.739 681.856 36.739 683.814V688.566C36.739 690.524 38.279 691.8 40.105 691.8ZM56.7984 688.786H59.1084V690.854H56.7984V694H54.2904V690.854H46.9864V689.072L54.4224 678.38H56.7984V688.786ZM54.5104 681.592L49.6924 688.786H54.3124V684.298C54.3124 683.132 54.3784 682.23 54.5104 681.592ZM58.6517 680.646V678.38H69.1897V680.338L63.5797 694H60.8517L66.4617 680.646H58.6517ZM73.0576 694H70.4836V678.38H79.9216V680.734H73.0576V685.134H79.0196V687.4H73.0576V694ZM88.5736 694.22C84.1956 694.22 80.7636 690.7 80.7636 686.19C80.7636 681.68 84.1956 678.16 88.5736 678.16C90.9056 678.16 92.4236 678.93 93.1496 679.524V682.054C92.5336 681.438 91.1476 680.514 88.8816 680.514C85.8016 680.514 83.3376 682.912 83.3376 686.19C83.3376 689.468 85.8236 691.866 88.8816 691.866C91.1476 691.866 92.5336 690.92 93.1496 690.326V692.856C92.4236 693.45 90.9056 694.22 88.5736 694.22ZM97.7122 694H95.1382V678.38H104.576V680.734H97.7122V685.134H103.674V687.4H97.7122V694Z" fill="white"/>
<defs>
<clipPath id="clip0_2693_169">
<rect width="350" height="100" fill="white" transform="translate(0 30)"/>
</clipPath>
<clipPath id="clip1_2693_169">
<rect width="200" height="100" fill="white" transform="translate(0 182)"/>
</clipPath>
</defs>
</svg>
