<svg width="51" height="50" viewBox="0 0 51 50" fill="none" xmlns="http://www.w3.org/2000/svg">
<path d="M25.374 8.61347e-08C20.4295 8.61347e-08 15.596 1.46622 11.4848 4.21326C7.37355 6.96029 4.16924 10.8648 2.27705 15.4329C0.384856 20.0011 -0.110228 25.0277 0.854403 29.8773C1.81903 34.7268 4.20005 39.1814 7.69637 42.6777C11.1927 46.174 15.6473 48.555 20.4968 49.5196C25.3463 50.4843 30.373 49.9892 34.9411 48.097C39.5093 46.2048 43.4137 43.0005 46.1608 38.8893C48.9078 34.778 50.374 29.9445 50.374 25C50.3743 21.7169 49.7278 18.4659 48.4716 15.4326C47.2153 12.3993 45.3738 9.64324 43.0523 7.32172C40.7308 5.0002 37.9747 3.15873 34.9414 1.90246C31.9082 0.646186 28.6572 -0.000272447 25.374 8.61347e-08ZM33.3228 37.8812C33.2292 38.1145 33.0869 38.3251 32.9052 38.4989C32.7236 38.6727 32.5069 38.8057 32.2697 38.8889C32.0325 38.9721 31.7802 39.0037 31.5298 38.9814C31.2794 38.9592 31.0366 38.8837 30.8178 38.7599L24.0311 33.4865L19.6753 37.505C19.5743 37.5797 19.456 37.6277 19.3315 37.6447C19.207 37.6618 19.0802 37.6472 18.9628 37.6023L19.7978 30.1312L19.8246 30.1524L19.8416 30.0049C19.8416 30.0049 32.0541 18.8861 32.5516 18.4124C33.0553 17.9399 32.8891 17.8374 32.8891 17.8374C32.9178 17.2611 31.9853 17.8374 31.9853 17.8374L15.804 28.2475L9.06531 25.9525C9.06531 25.9525 8.03031 25.5812 7.93281 24.765C7.83031 23.955 9.09904 23.515 9.09904 23.515L35.8915 12.8712C35.8915 12.8712 38.094 11.8899 38.094 13.515L33.3228 37.8812Z" fill="#333333"/>
</svg>
