<svg width="16" height="16" viewBox="0 0 16 16" fill="none" xmlns="http://www.w3.org/2000/svg">
<path d="M2.42416 12.2116H0L2.87263 7.91174L0.242416 3.78858H2.54536L4.13319 6.35672H4.15743L5.75737 3.78858H8.06032L5.43011 7.88818L8.30274 12.2116H5.87858L4.15743 9.47854H4.13319L2.42416 12.2116Z" fill="#EC3396"/>
<path d="M11.7092 12.4001C8.95783 12.4001 7.41849 10.5388 7.41849 7.99421C7.41849 5.46141 8.95783 3.6001 11.7092 3.6001C14.4364 3.6001 16 5.46141 16 7.99421C16 10.5388 14.4364 12.4001 11.7092 12.4001ZM11.7092 10.6684C13.2849 10.6684 13.7698 9.46676 13.7698 7.99421C13.7698 6.53343 13.2849 5.33182 11.7092 5.33182C10.1214 5.33182 9.64871 6.53343 9.64871 7.99421C9.64871 9.46676 10.1214 10.6684 11.7092 10.6684Z" fill="#EC3396"/>
</svg>
