<svg width="720" height="572" viewBox="0 0 720 572" fill="none" xmlns="http://www.w3.org/2000/svg">
<path d="M648.676 285.943C648.676 244.986 649.399 207.821 650.847 172.931C652.397 138.042 654.568 107.703 657.566 81.9148C660.563 56.1268 664.181 36.4066 668.729 21.9957C673.174 7.58474 678.446 0 684.338 0C689.816 0 694.778 7.58474 699.223 21.9957C703.564 36.4066 707.389 56.1268 710.49 81.9148C713.488 107.703 715.865 138.042 717.519 172.931C719.173 207.821 720 244.986 720 285.943C720 326.142 719.173 364.066 717.519 398.955C715.865 433.845 713.488 464.184 710.49 489.972C707.389 515.001 703.564 535.48 699.223 549.891C694.778 564.302 689.816 571.886 684.338 571.886C678.446 571.886 673.174 564.302 668.729 549.891C664.181 535.48 660.563 515.001 657.566 489.972C654.568 464.184 652.397 433.845 650.847 398.955C649.399 364.066 648.676 326.142 648.676 285.943ZM684.338 473.285C687.542 473.285 690.333 468.734 692.814 459.633C695.295 449.773 697.466 436.879 699.223 420.192C700.877 403.506 702.221 383.786 703.151 361.032C704.081 338.278 704.495 313.248 704.495 285.943C704.495 258.638 704.081 233.609 703.151 210.855C702.221 188.101 700.877 168.38 699.223 151.694C697.466 135.008 695.295 122.114 692.814 113.012C690.333 103.152 687.542 98.6012 684.338 98.6012C681.133 98.6012 678.343 103.152 675.862 113.012C673.381 122.114 671.313 135.008 669.556 151.694C667.799 168.38 666.455 188.101 665.628 210.855C664.595 233.609 664.181 258.638 664.181 285.943C664.181 313.248 664.595 338.278 665.628 361.032C666.455 383.786 667.799 403.506 669.556 420.192C671.313 436.879 673.381 449.773 675.862 459.633C678.343 468.734 681.133 473.285 684.338 473.285Z" fill="#333333"/>
<path d="M592.271 220.687H621.421V13.625H636.926V558.206H621.421V314.738H592.271V558.206H576.766V13.625H592.271V220.687Z" fill="#333333"/>
<path d="M517.051 384.517H517.258L546.614 13.625H562.326V558.206H547.441V189.59H547.235L517.878 558.206H502.166V13.625H517.051V384.517Z" fill="#333333"/>
<path d="M444.829 235.098L473.152 13.625H493.206L462.919 236.615L494.963 558.206H475.323L452.375 317.013L444.829 373.898V558.206H429.324V13.625H444.829V235.098Z" fill="#333333"/>
<path d="M361.823 13.625C364.821 13.625 367.508 15.9004 369.886 20.4512C372.16 24.2436 374.124 30.3114 375.778 37.1376C377.432 43.9638 378.879 52.307 380.016 62.1671C381.256 71.2687 382.083 81.1289 382.807 90.9889C383.427 101.608 383.944 112.226 384.254 122.845C384.461 133.463 384.668 143.323 384.668 153.184C384.668 166.836 384.461 178.971 384.151 190.349C383.737 200.967 383.324 210.827 382.6 219.929C381.773 229.031 380.946 237.374 379.706 244.2C378.569 251.785 377.225 258.611 375.571 264.679C378.052 271.505 380.016 279.848 381.567 289.708C383.117 300.327 384.254 310.945 385.081 322.322C385.908 334.458 386.425 346.593 386.632 358.729C386.942 371.623 387.045 383.758 387.045 395.135C387.045 421.682 386.425 445.194 385.081 464.915C383.737 485.393 381.877 502.08 379.499 515.732C377.225 529.385 374.227 540.762 370.816 547.588C367.405 554.414 363.684 558.206 359.446 558.206H325.438V13.625H361.823ZM359.446 228.272C360.789 228.272 362.133 226.755 363.374 225.238C364.614 222.963 365.751 219.17 366.681 213.861C367.612 209.31 368.439 202.484 368.956 194.899C369.472 186.556 369.783 177.455 369.783 166.078C369.783 154.7 369.576 144.84 369.059 137.256C368.542 129.671 367.819 123.603 366.888 119.052C365.958 115.26 364.924 112.226 363.684 109.951C362.443 108.434 361.203 107.675 359.859 107.675H340.323V228.272H359.446ZM359.652 464.156C361.41 464.156 362.96 462.639 364.407 459.605C365.855 456.571 367.095 452.021 368.232 445.953C369.266 439.885 370.093 432.3 370.713 423.199C371.23 414.097 371.54 402.72 371.54 390.585C371.54 374.657 371.126 361.763 370.506 352.661C369.783 342.801 368.852 335.975 367.715 330.665C366.475 325.356 365.234 321.564 363.787 320.047C362.237 318.53 360.789 317.771 359.239 317.771H340.323V464.156H359.652Z" fill="#333333"/>
<path d="M268.071 174.448C267.761 167.622 267.348 161.554 266.831 153.969C266.314 147.143 265.591 140.317 264.867 133.491C264.04 127.423 263.11 121.355 261.869 116.046C260.732 110.737 259.285 106.944 257.631 103.152C255.977 100.118 254.117 98.6012 251.843 98.6012C250.912 98.6012 249.775 99.3596 248.535 100.877C247.294 103.152 245.951 106.186 244.607 110.737C243.263 116.046 241.919 122.872 240.575 131.215C239.335 139.559 238.095 150.936 237.164 164.588C236.027 178.999 235.2 195.685 234.58 215.405C233.96 235.126 233.65 258.638 233.65 285.943C233.65 315.524 234.063 341.312 234.89 364.824C235.717 388.337 236.958 408.057 238.508 423.985C240.059 439.913 242.023 452.048 244.297 460.391C246.467 468.735 249.052 473.285 251.843 473.285C255.15 473.285 257.735 469.493 259.802 462.667C261.869 455.082 263.523 445.98 264.764 435.362C266.004 424.743 266.934 413.366 267.451 401.989C268.071 390.612 268.588 379.994 268.898 371.65H284.3C283.473 405.781 282.13 435.362 280.166 460.391C278.202 485.421 275.824 505.9 273.033 522.586C270.242 539.272 267.141 551.408 263.627 559.751C260.112 568.094 256.391 571.886 252.463 571.886C246.984 571.886 242.023 565.06 237.785 551.408C233.546 538.514 229.929 518.794 227.034 494.522C224.14 469.493 221.969 439.154 220.419 403.506C218.868 368.616 218.145 329.176 218.145 285.943C218.145 252.571 218.558 222.232 219.488 194.927C220.315 167.622 221.556 143.351 223.106 122.114C224.657 100.877 226.517 83.4317 228.688 67.5039C230.755 52.3344 233.03 39.4405 235.614 29.5804C238.095 19.7202 240.679 12.1356 243.47 6.82624C246.261 2.27543 249.052 0 251.843 0C255.874 0 259.492 3.0339 262.593 9.10167C265.694 15.9279 268.485 23.5126 270.862 34.1312C273.24 44.7498 275.204 56.1268 276.858 69.7792C278.512 83.4317 279.959 97.0842 280.992 110.737C282.026 125.148 282.75 139.559 283.37 153.211C283.887 167.622 284.197 180.516 284.3 192.651H268.795L268.071 174.448Z" fill="#333333"/>
<path d="M163.495 235.098L191.818 13.625H211.872L181.585 236.615L213.629 558.206H193.989L171.041 317.013L163.495 373.898V558.206H147.99V13.625H163.495V235.098Z" fill="#333333"/>
<path d="M133.002 107.675H93.4124V228.272H129.798V322.322H93.4124V459.605H134.76V558.206H78.5273V13.625H133.002V107.675Z" fill="#333333"/>
<path d="M49.9269 174.448C49.6168 167.622 49.2033 161.554 48.6865 153.969C48.1696 147.143 47.4461 140.317 46.7225 133.491C45.8955 127.423 44.9652 121.355 43.7248 116.046C42.5878 110.737 41.1406 106.944 39.4867 103.152C37.8328 100.118 35.9722 98.6012 33.6981 98.6012C32.7678 98.6012 31.6307 99.3596 30.3903 100.877C29.1499 103.152 27.8061 106.186 26.4623 110.737C25.1185 116.046 23.7747 122.872 22.4309 131.215C21.1905 139.559 19.9501 150.936 19.0198 164.588C17.8827 178.999 17.0558 195.685 16.4356 215.405C15.8154 235.126 15.5052 258.638 15.5052 285.943C15.5052 315.524 15.9187 341.312 16.7457 364.824C17.5726 388.337 18.813 408.057 20.3636 423.985C21.9141 439.913 23.8781 452.048 26.1522 460.391C28.3229 468.735 30.9071 473.285 33.6981 473.285C37.0059 473.285 39.5901 469.493 41.6574 462.667C43.7248 455.082 45.3787 445.98 46.6191 435.362C47.8595 424.743 48.7899 413.366 49.3067 401.989C49.9269 390.612 50.4437 379.994 50.7539 371.65H66.1557C65.3288 405.781 63.985 435.362 62.021 460.391C60.057 485.421 57.6795 505.9 54.8886 522.586C52.0976 539.272 48.9966 551.408 45.4821 559.751C41.9675 568.094 38.2463 571.886 34.3183 571.886C28.8398 571.886 23.8781 565.06 19.64 551.408C15.4019 538.514 11.784 518.794 8.88968 494.522C5.99536 469.493 3.82463 439.154 2.2741 403.506C0.723578 368.616 0 329.176 0 285.943C0 252.571 0.413473 222.232 1.34379 194.927C2.17074 167.622 3.41116 143.351 4.96168 122.114C6.51221 100.877 8.37283 83.4317 10.5436 67.5039C12.6109 52.3344 14.885 39.4405 17.4692 29.5804C19.9501 19.7202 22.5343 12.1356 25.3252 6.82624C28.1162 2.27543 30.9071 0 33.6981 0C37.7294 0 41.3473 3.0339 44.4484 9.10167C47.5494 15.9279 50.3404 23.5126 52.7178 34.1312C55.0953 44.7498 57.0593 56.1268 58.7132 69.7792C60.3671 83.4317 61.8143 97.0842 62.8479 110.737C63.8816 125.148 64.6052 139.559 65.2254 153.211C65.7423 167.622 66.0524 180.516 66.1557 192.651H50.6505L49.9269 174.448Z" fill="#333333"/>
</svg>
