<svg width="325" height="325" viewBox="0 0 325 325" fill="none" xmlns="http://www.w3.org/2000/svg">
<rect x="1" y="1" width="323" height="323" fill="white"/>
<rect x="1" y="1" width="323" height="323" stroke="#333333" stroke-width="2"/>
<path d="M227.973 145.133C228.963 145.133 229.954 144.234 231.027 142.887C232.1 141.539 233.09 139.742 233.998 136.598C234.906 133.903 235.567 130.309 236.227 125.817C236.805 121.325 237.053 115.485 237.053 109.197C237.053 104.705 236.887 100.213 236.557 95.7205C236.145 91.6777 235.567 87.6349 234.906 84.4905C234.164 80.8969 233.338 78.6509 232.183 76.4048C231.109 74.608 229.871 73.7096 228.468 73.7096C227.725 73.7096 226.817 74.608 225.827 75.5064C224.754 76.4048 223.763 78.6509 222.855 81.7953C221.782 84.9397 220.957 89.4317 220.214 95.2713C219.471 101.111 218.893 108.747 218.728 117.731H211.795C211.96 107.4 212.372 97.9665 212.95 89.8809C213.528 82.2445 214.271 75.0572 215.179 69.2176C216.087 63.378 217.077 58.4368 218.15 54.8432C219.306 50.8003 220.461 47.6559 221.617 45.4099C222.855 42.7147 224.011 41.3671 225.249 40.0195C226.487 39.1211 227.643 38.6719 228.716 38.6719C230.614 38.6719 232.513 40.0195 234.411 42.7147C236.31 45.4099 238.043 49.4527 239.529 54.8432C241.015 60.2336 242.17 67.4208 243.078 75.5064C243.986 84.0413 244.481 93.4745 244.481 104.705C244.481 112.341 244.234 118.181 243.904 123.571C243.573 129.411 243.078 133.903 242.418 138.395C241.84 142.438 241.18 145.582 240.354 148.726C239.611 151.422 238.868 153.668 238.208 155.914V156.812C238.951 157.71 239.776 159.058 240.684 161.304C241.592 163.55 242.418 166.694 243.243 170.737C243.986 175.229 244.646 180.62 245.224 186.908C245.719 193.647 245.967 201.283 245.967 210.716C245.967 224.192 245.389 235.422 244.399 244.856C243.408 254.738 242.005 262.374 240.354 269.112C238.703 275.401 236.805 280.342 234.741 283.487C232.595 286.631 230.532 287.979 228.386 287.979C225.662 287.979 223.185 286.182 220.957 282.139C218.728 278.546 216.83 273.155 215.179 265.968C213.61 259.23 212.29 250.695 211.382 240.813C210.391 230.93 209.814 220.149 209.648 208.47H217.077C217.325 217.005 217.738 224.192 218.48 230.032C219.223 235.422 220.049 240.364 221.122 243.508C222.112 246.652 223.268 249.348 224.506 250.695C225.744 252.492 226.982 252.941 228.303 252.941C231.687 252.941 234.246 249.348 235.979 241.711C237.713 234.075 238.538 224.192 238.538 211.615C238.538 206.224 238.373 201.283 238.126 197.24C237.795 193.197 237.218 189.154 236.557 186.459C235.814 183.315 234.824 181.069 233.668 179.272C232.43 177.924 230.944 177.475 229.211 177.475H228.055C227.56 177.475 227.147 177.475 226.652 177.924H225.331L224.176 178.823V145.133H227.973Z" fill="#333333"/>
<path d="M173.991 225.981H174.156L195.37 45.8516H203.872V280.784H196.36V100.654H196.195L175.064 280.784H166.562V45.8516H173.991V225.981Z" fill="#333333"/>
<path d="M141.399 45.8516C146.682 45.8516 150.561 51.242 153.203 62.0228C155.844 72.8037 157.082 88.0765 157.082 108.291C157.082 119.071 156.669 128.505 155.679 135.692C154.688 143.328 153.45 149.617 151.882 155.457C154.111 159.949 155.927 167.136 157.247 175.671C158.651 184.655 159.311 195.885 159.311 209.81C159.311 220.591 158.981 230.474 158.32 239.458C157.577 247.992 156.587 255.629 155.266 261.918C153.863 267.757 152.13 272.249 150.066 275.843C147.92 278.987 145.361 280.784 142.555 280.784H122.992V45.8516H141.399ZM141.647 145.125C144.123 145.125 146.104 142.43 147.507 137.04C148.993 131.649 149.736 123.114 149.736 111.884C149.736 105.595 149.488 100.205 149.076 95.7129C148.663 91.6701 148.168 88.0765 147.507 85.3813C146.764 82.6861 146.104 80.8893 145.196 79.5417C144.371 78.6433 143.463 78.1941 142.637 78.1941H130.421V145.125H141.647ZM141.647 248.442C143.628 248.442 145.279 247.543 146.599 245.746C147.92 244.399 148.911 242.153 149.736 238.559C150.479 235.415 151.057 231.821 151.387 226.88C151.717 222.388 151.882 217.447 151.882 211.607C151.882 205.767 151.717 200.826 151.387 196.334C151.057 191.393 150.479 187.799 149.736 184.655C148.911 181.511 147.92 178.815 146.599 177.468C145.279 175.671 143.628 174.772 141.647 174.772H130.421V248.442H141.647Z" fill="#333333"/>
<path d="M86.8507 159.5L108.642 45.8516H118.382L98.0765 149.617L118.712 280.784H109.137L92.2985 174.323L86.8507 199.029V280.784H79.4219V45.8516H86.8507V159.5Z" fill="#333333"/>
<rect x="120.248" y="270.764" width="187.84" height="33.7038" transform="rotate(-7.04054 120.248 270.764)" fill="#EC3396"/>
<rect x="120.248" y="270.764" width="187.84" height="33.7038" transform="rotate(-7.04054 120.248 270.764)" stroke="#333333" stroke-width="2"/>
<path d="M138.472 290.027L136.996 290.209L135.543 278.439L144.611 277.319L146.064 289.089L144.589 289.272L143.301 278.844L137.184 279.6L138.472 290.027ZM152.552 288.456C149.949 288.778 147.757 287.113 147.444 284.577C147.131 282.04 148.851 279.892 151.454 279.571C154.04 279.251 156.232 280.916 156.545 283.453C156.858 285.989 155.138 288.137 152.552 288.456ZM152.39 287.147C154.164 286.928 155.355 285.4 155.134 283.61C154.915 281.836 153.39 280.661 151.616 280.88C149.842 281.099 148.632 282.612 148.851 284.386C149.072 286.176 150.616 287.366 152.39 287.147ZM166.604 286.721C163.951 287.049 161.843 285.373 161.529 282.837C161.216 280.301 162.854 278.163 165.506 277.835C166.584 277.702 167.572 277.934 168.383 278.507L168.561 279.949C167.798 279.353 166.895 278.993 165.801 279.128C163.994 279.352 162.769 280.883 162.988 282.657C163.207 284.431 164.77 285.635 166.577 285.411C167.671 285.276 168.457 284.691 169.055 283.944L169.231 285.37C168.585 286.14 167.681 286.588 166.604 286.721ZM173.936 276.794C176.539 276.473 178.577 278.123 178.9 281.146L171.639 282.043C171.945 283.705 173.375 284.656 175.033 284.451C176.442 284.277 177.241 283.388 177.522 282.528L178.817 282.52C178.548 284.017 177.189 285.414 175.166 285.663C172.597 285.981 170.473 284.459 170.141 281.773C169.832 279.27 171.416 277.105 173.936 276.794ZM174.083 277.988C172.509 278.182 171.434 279.426 171.502 280.932L177.254 280.222C177.024 278.769 175.741 277.783 174.083 277.988ZM184.874 275.46C187.477 275.139 189.393 276.888 189.702 279.391C190.015 281.928 188.523 284.014 185.903 284.337C184.411 284.522 183.057 283.915 182.236 282.72L182.939 288.406L181.496 288.584L179.971 276.234L181.198 276.082L181.655 278.012L181.659 278.045C182.03 276.687 183.183 275.669 184.874 275.46ZM185.462 283.079C187.302 282.852 188.466 281.378 188.241 279.555C188.014 277.715 186.526 276.569 184.686 276.796C182.862 277.021 181.739 278.557 181.958 280.331C182.175 282.088 183.638 283.304 185.462 283.079ZM193.066 281.248L197.581 274.059L198.924 273.893L199.978 282.431L198.536 282.609L197.74 276.16L193.215 283.266L191.889 283.43L190.834 274.892L192.26 274.716L193.066 281.248ZM208.583 274.669L208.559 272.703L209.803 272.55L210.857 281.087L209.398 281.267L209.15 279.261C208.782 280.637 207.628 281.654 205.937 281.863C203.351 282.183 201.419 280.435 201.11 277.932C200.796 275.396 202.287 273.293 204.923 272.967C206.398 272.785 207.754 273.409 208.573 274.587L208.583 274.669ZM206.126 280.527C207.949 280.302 209.072 278.766 208.853 276.992C208.636 275.235 207.173 274.019 205.35 274.244C203.51 274.471 202.362 275.943 202.587 277.766C202.814 279.606 204.286 280.754 206.126 280.527ZM212.258 280.948L212.098 279.655C212.79 279.536 213.574 279.069 213.38 277.494L212.725 272.189L219.439 271.36L220.493 279.897L219.067 280.073L218.173 272.829L214.277 273.31L214.776 277.355C215.065 279.692 213.802 280.774 212.258 280.948ZM229.095 272.136L229.071 270.17L230.315 270.016L231.369 278.554L229.91 278.734L229.662 276.728C229.294 278.103 228.14 279.121 226.449 279.33C223.863 279.649 221.931 277.902 221.621 275.399C221.308 272.862 222.799 270.759 225.435 270.434C226.91 270.252 228.266 270.875 229.085 272.053L229.095 272.136ZM226.638 277.994C228.461 277.769 229.584 276.233 229.365 274.459C229.148 272.702 227.685 271.486 225.862 271.711C224.022 271.938 222.874 273.409 223.099 275.233C223.326 277.073 224.798 278.221 226.638 277.994ZM237.374 273.453L239.917 268.83L241.277 268.663L242.331 277.2L240.889 277.378C240.485 274.112 240.314 272.451 240.234 270.441C239.627 271.929 238.966 273.257 237.624 275.476C235.841 273.71 234.896 272.598 233.891 271.275C234.296 273.194 234.517 274.849 234.921 278.115L233.495 278.291L232.441 269.754L233.783 269.588L237.374 273.453ZM254.997 263.686L256.456 263.506L257.909 275.276L256.517 275.448L248.654 266.843C248.839 267.661 249.081 269.483 249.919 276.263L248.46 276.443L247.006 264.673L248.399 264.501L256.269 273.173C256.082 272.338 255.842 270.533 254.997 263.686ZM263.074 265.785C265.677 265.464 267.716 267.114 268.038 270.137L260.777 271.034C261.084 272.696 262.514 273.647 264.172 273.442C265.581 273.268 266.38 272.379 266.661 271.519L267.956 271.511C267.686 273.008 266.327 274.405 264.304 274.655C261.735 274.972 259.611 273.45 259.28 270.765C258.971 268.261 260.555 266.097 263.074 265.785ZM263.222 266.979C261.647 267.173 260.572 268.417 260.64 269.923L266.393 269.213C266.163 267.76 264.88 266.774 263.222 266.979ZM271.003 264.991L272.81 264.768L272.951 265.912L271.144 266.135L272.057 273.529L270.598 273.709L269.685 266.315L268.425 266.471L268.284 265.327L269.544 265.171L269.241 262.718L270.7 262.538L271.003 264.991ZM277.181 261.418C276.335 261.522 275.889 261.998 276.101 263.167L276.246 264.344L278.534 264.061L278.675 265.205L276.387 265.488L277.301 272.881L275.858 273.059L274.945 265.666L273.934 265.791L273.793 264.647L274.804 264.522L274.636 263.162C274.407 261.306 275.421 260.389 276.781 260.221C277.245 260.164 277.721 260.206 278.1 260.277L278.246 261.454C277.885 261.398 277.512 261.377 277.181 261.418ZM279.475 259.99L280.917 259.812L282.453 272.245L281.011 272.423L279.475 259.99ZM284.09 262.079C283.576 262.142 283.127 261.777 283.065 261.28C283.002 260.766 283.349 260.302 283.862 260.239C284.376 260.175 284.842 260.539 284.905 261.053C284.967 261.55 284.604 262.016 284.09 262.079ZM283.518 263.446L284.96 263.267L286.015 271.805L284.572 271.983L283.518 263.446ZM293.064 262.267L294.739 262.06L291.839 266.659L295.793 270.597L294.119 270.804C292.147 268.877 291.468 268.152 291.086 267.51C290.855 268.228 290.39 269.094 288.979 271.439L287.322 271.644L290.19 266.93L286.267 263.106L287.925 262.901C289.907 264.777 290.526 265.425 290.908 266.067C291.129 265.401 291.557 264.641 293.064 262.267Z" fill="white"/>
</svg>
