<svg width="325" height="325" viewBox="0 0 325 325" fill="none" xmlns="http://www.w3.org/2000/svg">
<rect x="1" y="1" width="323" height="323" fill="#EC3396"/>
<rect x="1" y="1" width="323" height="323" stroke="#333333" stroke-width="2"/>
<path d="M227.973 145.133C228.963 145.133 229.954 144.234 231.027 142.887C232.1 141.539 233.09 139.742 233.998 136.598C234.906 133.903 235.567 130.309 236.227 125.817C236.805 121.325 237.053 115.485 237.053 109.197C237.053 104.705 236.887 100.213 236.557 95.7205C236.145 91.6777 235.567 87.6349 234.906 84.4905C234.164 80.8969 233.338 78.6509 232.183 76.4048C231.109 74.608 229.871 73.7096 228.468 73.7096C227.725 73.7096 226.817 74.608 225.827 75.5064C224.754 76.4048 223.763 78.6509 222.855 81.7953C221.782 84.9397 220.957 89.4317 220.214 95.2713C219.471 101.111 218.893 108.747 218.728 117.731H211.795C211.96 107.4 212.372 97.9665 212.95 89.8809C213.528 82.2445 214.271 75.0572 215.179 69.2176C216.087 63.378 217.077 58.4368 218.15 54.8432C219.306 50.8003 220.461 47.6559 221.617 45.4099C222.855 42.7147 224.011 41.3671 225.249 40.0195C226.487 39.1211 227.643 38.6719 228.716 38.6719C230.614 38.6719 232.513 40.0195 234.411 42.7147C236.31 45.4099 238.043 49.4527 239.529 54.8432C241.015 60.2336 242.17 67.4208 243.078 75.5064C243.986 84.0413 244.481 93.4745 244.481 104.705C244.481 112.341 244.234 118.181 243.904 123.571C243.573 129.411 243.078 133.903 242.418 138.395C241.84 142.438 241.18 145.582 240.354 148.726C239.611 151.422 238.868 153.668 238.208 155.914V156.812C238.951 157.71 239.776 159.058 240.684 161.304C241.592 163.55 242.418 166.694 243.243 170.737C243.986 175.229 244.646 180.62 245.224 186.908C245.719 193.647 245.967 201.283 245.967 210.716C245.967 224.192 245.389 235.422 244.399 244.856C243.408 254.738 242.005 262.374 240.354 269.112C238.703 275.401 236.805 280.342 234.741 283.487C232.595 286.631 230.532 287.979 228.386 287.979C225.662 287.979 223.185 286.182 220.957 282.139C218.728 278.546 216.83 273.155 215.179 265.968C213.61 259.23 212.29 250.695 211.382 240.813C210.391 230.93 209.814 220.149 209.648 208.47H217.077C217.325 217.005 217.738 224.192 218.48 230.032C219.223 235.422 220.049 240.364 221.122 243.508C222.112 246.652 223.268 249.348 224.506 250.695C225.744 252.492 226.982 252.941 228.303 252.941C231.687 252.941 234.246 249.348 235.979 241.711C237.713 234.075 238.538 224.192 238.538 211.615C238.538 206.224 238.373 201.283 238.126 197.24C237.795 193.197 237.218 189.154 236.557 186.459C235.814 183.315 234.824 181.069 233.668 179.272C232.43 177.924 230.944 177.475 229.211 177.475H228.055C227.56 177.475 227.147 177.475 226.652 177.924H225.331L224.176 178.823V145.133H227.973Z" fill="white"/>
<path d="M173.991 225.981H174.156L195.37 45.8516H203.872V280.784H196.36V100.654H196.195L175.064 280.784H166.562V45.8516H173.991V225.981Z" fill="white"/>
<path d="M141.399 45.8516C146.682 45.8516 150.561 51.242 153.203 62.0228C155.844 72.8037 157.082 88.0765 157.082 108.291C157.082 119.071 156.669 128.505 155.679 135.692C154.688 143.328 153.45 149.617 151.882 155.457C154.111 159.949 155.927 167.136 157.247 175.671C158.651 184.655 159.311 195.885 159.311 209.81C159.311 220.591 158.981 230.474 158.32 239.458C157.577 247.992 156.587 255.629 155.266 261.918C153.863 267.757 152.13 272.249 150.066 275.843C147.92 278.987 145.361 280.784 142.555 280.784H122.992V45.8516H141.399ZM141.647 145.125C144.123 145.125 146.104 142.43 147.507 137.04C148.993 131.649 149.736 123.114 149.736 111.884C149.736 105.595 149.488 100.205 149.076 95.7129C148.663 91.6701 148.168 88.0765 147.507 85.3813C146.764 82.6861 146.104 80.8893 145.196 79.5417C144.371 78.6433 143.463 78.1941 142.637 78.1941H130.421V145.125H141.647ZM141.647 248.442C143.628 248.442 145.279 247.543 146.599 245.746C147.92 244.399 148.911 242.153 149.736 238.559C150.479 235.415 151.057 231.821 151.387 226.88C151.717 222.388 151.882 217.447 151.882 211.607C151.882 205.767 151.717 200.826 151.387 196.334C151.057 191.393 150.479 187.799 149.736 184.655C148.911 181.511 147.92 178.815 146.599 177.468C145.279 175.671 143.628 174.772 141.647 174.772H130.421V248.442H141.647Z" fill="white"/>
<path d="M86.8507 159.5L108.642 45.8516H118.382L98.0765 149.617L118.712 280.784H109.137L92.2985 174.323L86.8507 199.029V280.784H79.4219V45.8516H86.8507V159.5Z" fill="white"/>
<rect x="120.248" y="271.007" width="189.84" height="33.7038" transform="rotate(-7.04054 120.248 271.007)" fill="#047FCF"/>
<rect x="120.248" y="271.007" width="189.84" height="33.7038" transform="rotate(-7.04054 120.248 271.007)" stroke="#333333" stroke-width="2"/>
<path d="M138.836 290.224L136.897 290.464L135.443 278.693L144.826 277.535L146.28 289.305L144.34 289.544L143.104 279.531L137.6 280.211L138.836 290.224ZM152.648 288.687C149.996 289.014 147.806 287.366 147.487 284.78C147.17 282.21 148.89 280.062 151.543 279.735C154.212 279.405 156.403 281.07 156.721 283.639C157.04 286.226 155.317 288.357 152.648 288.687ZM152.437 286.979C154.029 286.783 155.075 285.442 154.881 283.867C154.684 282.275 153.345 281.246 151.754 281.442C150.179 281.637 149.147 282.959 149.344 284.551C149.538 286.125 150.863 287.174 152.437 286.979ZM166.59 286.982C163.838 287.322 161.763 285.642 161.443 283.056C161.126 280.487 162.731 278.353 165.483 278.013C166.527 277.884 167.494 278.084 168.283 278.61L168.51 280.45C167.786 279.9 166.889 279.59 165.878 279.715C164.237 279.917 163.141 281.264 163.335 282.839C163.53 284.414 164.918 285.438 166.56 285.235C167.571 285.11 168.365 284.591 168.934 283.881L169.161 285.722C168.524 286.423 167.635 286.853 166.59 286.982ZM173.831 276.982C176.45 276.659 178.549 278.251 178.871 281.543L171.958 282.397C172.24 283.726 173.465 284.517 174.891 284.341C176.118 284.189 176.836 283.461 177.108 282.67L178.805 282.646C178.531 284.245 177.091 285.668 175.069 285.918C172.45 286.241 170.308 284.705 169.976 282.019C169.661 279.466 171.261 277.299 173.831 276.982ZM174.021 278.524C172.662 278.692 171.728 279.716 171.78 280.955L176.737 280.343C176.538 279.139 175.43 278.35 174.021 278.524ZM184.885 275.634C187.505 275.31 189.36 277.117 189.668 279.604C189.983 282.157 188.544 284.27 185.891 284.598C184.598 284.758 183.327 284.275 182.541 283.228L183.207 288.615L181.3 288.851L179.767 276.434L181.342 276.24L181.884 277.906L181.89 277.956C182.211 276.738 183.327 275.826 184.885 275.634ZM185.314 282.919C186.938 282.718 187.958 281.431 187.759 279.823C187.558 278.198 186.257 277.198 184.632 277.398C183.024 277.597 182.011 278.934 182.205 280.509C182.398 282.067 183.706 283.117 185.314 282.919ZM193.272 280.825L197.227 274.278L198.951 274.065L200.014 282.669L198.14 282.9L197.416 277.031L193.465 283.477L191.725 283.692L190.662 275.088L192.535 274.857L193.272 280.825ZM208.158 274.594L208.254 272.916L209.878 272.715L210.941 281.319L209.018 281.557L208.801 279.799C208.482 281.034 207.364 281.929 205.806 282.122C203.186 282.445 201.314 280.64 201.007 278.153C200.691 275.6 202.147 273.485 204.799 273.157C206.092 272.998 207.364 273.48 208.15 274.528L208.158 274.594ZM206.059 280.357C207.667 280.158 208.68 278.821 208.485 277.246C208.293 275.688 206.985 274.638 205.377 274.836C203.752 275.037 202.733 276.324 202.932 277.932C203.132 279.557 204.434 280.557 206.059 280.357ZM212.26 281.207L212.068 279.514C212.727 279.399 213.378 278.948 213.208 277.572L212.567 272.383L219.546 271.521L220.609 280.125L218.736 280.356L217.882 273.443L214.616 273.847L215.052 277.378C215.347 279.765 214.071 281.017 212.26 281.207ZM228.734 272.053L228.83 270.375L230.455 270.174L231.517 278.778L229.594 279.015L229.377 277.258C229.058 278.492 227.94 279.388 226.382 279.58C223.763 279.904 221.89 278.099 221.583 275.612C221.268 273.059 222.724 270.944 225.376 270.616C226.669 270.456 227.94 270.939 228.726 271.986L228.734 272.053ZM226.635 277.816C228.243 277.617 229.257 276.28 229.062 274.705C228.87 273.147 227.562 272.096 225.954 272.295C224.329 272.496 223.31 273.783 223.508 275.391C223.709 277.016 225.011 278.016 226.635 277.816ZM237.399 272.952L239.742 269.027L241.499 268.81L242.562 277.414L240.688 277.645C240.256 274.147 240.128 272.834 240.149 271.097C239.72 272.261 239.174 273.288 237.716 275.521C235.869 273.78 235.107 272.932 234.322 271.884C234.74 273.499 234.92 274.823 235.35 278.304L233.477 278.536L232.414 269.932L234.172 269.715L237.399 272.952ZM254.831 263.949L256.72 263.715L258.174 275.486L256.367 275.709L249.111 267.786C249.308 268.704 249.562 270.625 250.283 276.46L248.377 276.696L246.923 264.925L248.746 264.7L256.011 272.69C255.795 271.757 255.557 269.834 254.831 263.949ZM263.244 265.939C265.864 265.616 267.962 267.208 268.285 270.501L261.372 271.354C261.654 272.683 262.879 273.474 264.305 273.298C265.531 273.146 266.249 272.418 266.522 271.627L268.219 271.603C267.945 273.202 266.505 274.625 264.483 274.875C261.863 275.198 259.721 273.662 259.389 270.976C259.074 268.423 260.675 266.257 263.244 265.939ZM263.435 267.481C262.075 267.649 261.142 268.673 261.194 269.912L266.15 269.3C265.951 268.096 264.844 267.307 263.435 267.481ZM271.622 265.09L273.529 264.854L273.713 266.346L271.807 266.582L272.685 273.694L270.795 273.927L269.917 266.815L268.574 266.981L268.39 265.489L269.732 265.323L269.423 262.82L271.313 262.586L271.622 265.09ZM278.301 261.875C277.472 261.977 277.009 262.455 277.275 263.651L277.365 264.38L279.619 264.102L279.804 265.594L277.549 265.872L278.427 272.984L276.538 273.218L275.659 266.106L274.631 266.233L274.447 264.741L275.475 264.614L275.352 263.619C275.086 261.464 276.314 260.504 277.773 260.324C278.287 260.261 278.796 260.299 279.192 260.368L279.382 261.91C279.022 261.853 278.649 261.832 278.301 261.875ZM280.493 260.106L282.4 259.871L283.935 272.304L282.029 272.54L280.493 260.106ZM285.664 262.261C285.034 262.339 284.475 261.903 284.399 261.29C284.321 260.66 284.757 260.101 285.387 260.023C286.001 259.948 286.559 260.384 286.637 261.014C286.713 261.627 286.277 262.186 285.664 262.261ZM284.835 263.458L286.742 263.222L287.804 271.826L285.898 272.062L284.835 263.458ZM294.639 262.247L296.811 261.979L293.962 266.572L297.874 270.583L295.702 270.851C294.028 269.156 293.344 268.382 292.995 267.735C292.83 268.445 292.387 269.358 291.193 271.408L289.021 271.676L291.852 266.934L287.959 263.072L290.13 262.804C291.814 264.447 292.435 265.111 292.763 265.727C292.922 265.101 293.36 264.29 294.639 262.247Z" fill="white"/>
</svg>
