<svg width="196" height="213" viewBox="0 0 196 213" fill="none" xmlns="http://www.w3.org/2000/svg">
<path d="M6.00336 1.53906L1.00098 7.37518L1.27889 209.416L6.28127 202.746L11.0057 208.582L16.8419 203.302L21.2884 208.582L26.5687 202.746L31.849 208.582L37.1293 203.302L41.8538 208.582L47.412 202.746L51.8585 208.582L57.1388 202.746L62.4191 208.582L67.4215 202.746L72.4239 208.582L77.7042 202.746L82.7066 208.582L87.431 202.746L92.7113 208.582L97.9916 202.746L102.716 208.582L108.274 202.746L113.277 208.582L118.279 202.746L123.281 208.582L128.284 202.746L133.564 208.582L138.567 202.746L143.569 208.582L148.849 202.746L153.574 208.582L158.854 202.746L163.856 208.582L168.859 202.19L173.861 208.582L179.141 202.19L183.866 208.582L189.146 202.746L194.149 207.471L193.593 6.54145L188.312 1.53906L183.866 6.54145L178.308 1.53906L173.027 6.54145L168.303 1.53906L163.301 7.37518L158.298 1.53906L152.462 6.54145L147.738 1.53906L142.179 6.54145L138.011 1.53906L132.452 6.54145L127.172 1.53906L122.448 6.54145L117.167 1.53906L112.165 6.54145L107.163 1.53906L102.16 7.37518L97.1579 1.53906L92.1555 7.37518L86.8752 1.53906L82.1507 7.37518L77.1484 1.53906L72.146 7.37518L66.8657 1.53906L62.1412 7.37518L56.583 1.53906L52.1364 7.37518L46.5782 1.53906L41.5759 7.37518L36.5735 1.53906L31.0153 7.37518L26.2908 1.53906L21.0105 7.37518L16.286 1.53906L11.0057 7.37518L6.00336 1.53906Z" fill="#EC3396"/>
<path fill-rule="evenodd" clip-rule="evenodd" d="M56.4979 0L62.0798 5.86101L66.823 0.00174034L72.1252 5.8621L77.1479 0.00231957L82.1283 5.81282L86.8325 0.00174034L92.1348 5.8621L97.1574 0.00231957L102.16 5.83844L107.106 0.0682143L112.165 5.12708L117.148 0.14355L122.408 5.12654L127.132 0.12415L132.469 5.18028L138.113 0.100682L142.282 5.10307L147.794 0.142529L152.534 5.16189L158.406 0.128862L163.3 5.83843L168.266 0.0443562L173.066 5.12653L178.29 0.177891L183.786 5.1249L188.25 0.103033L194.591 6.11004L195.155 209.796L189.202 204.174L183.787 210.159L179.097 203.813L173.84 210.178L168.858 203.813L163.891 210.16L158.833 204.259L153.531 210.119L148.806 204.283L143.548 210.095L138.566 204.282L133.584 210.095L128.304 204.259L123.281 210.119L118.279 204.282L113.276 210.119L108.235 204.237L102.655 210.096L97.9489 204.283L92.7109 210.073L87.4728 204.283L82.7281 210.144L77.6834 204.259L72.4031 210.095L67.421 204.282L62.4389 210.095L57.1384 204.236L51.7921 210.145L47.3268 204.285L41.8304 210.056L37.0885 204.756L31.8123 210.032L26.5682 204.236L21.2609 210.102L16.7439 204.738L10.8928 210.032L6.31092 204.372L0.282537 212.41L0 7.00569L6.00289 0.00231946L11.0256 5.8621L16.3278 0.00174034L21.0523 5.83786L26.3326 0.00174022L31.0758 5.86101L36.6121 0.0478936L41.5754 5.83843L46.5387 0.0478936L52.0513 5.83612L56.4979 0ZM158.189 2.94896L152.389 7.9207L147.68 2.93529L142.076 7.97952L137.907 2.97714L132.435 7.90231L127.211 2.95367L122.487 7.95605L117.186 2.93427L112.165 7.95551L107.219 3.0096L102.16 8.91161L97.1574 3.0755L92.1753 8.88795L86.917 3.07608L82.1722 8.93723L77.1479 3.0755L72.1658 8.88795L66.9074 3.07608L62.2017 8.88904L56.6672 3.07782L52.2207 8.91394L46.6168 3.02993L41.5754 8.91161L36.5339 3.02993L30.9538 8.88904L26.2481 3.07608L20.9678 8.91219L16.2433 3.07608L10.985 8.88795L6.00289 3.0755L2.00102 7.74435L2.2743 206.421L6.25069 201.119L11.1178 207.132L16.9389 201.865L21.315 207.062L26.5682 201.255L31.8848 207.132L37.1692 201.847L41.8762 207.108L47.4962 201.207L51.9241 207.019L57.1384 201.255L62.3984 207.069L67.421 201.209L72.4437 207.069L77.724 201.233L82.6841 207.02L87.3884 201.209L92.7109 207.092L98.0334 201.209L102.777 207.068L108.313 201.255L113.276 207.045L118.279 201.209L123.281 207.045L128.263 201.233L133.543 207.069L138.566 201.209L143.589 207.069L148.891 201.209L153.615 207.045L158.874 201.233L163.821 207.004L168.858 200.568L173.882 206.986L179.185 200.567L183.943 207.005L189.09 201.317L193.142 205.144L192.593 6.97255L188.374 2.97479L183.944 7.9577L178.325 2.89993L172.988 7.95605L168.338 3.03347L163.3 8.91162L158.189 2.94896Z" fill="#333333"/>
<path d="M163.991 105.163C163.991 141.846 134.253 171.583 97.57 171.583C60.8869 171.583 31.1494 141.846 31.1494 105.163C31.1494 68.4797 60.8869 38.7422 97.57 38.7422C134.253 38.7422 163.991 68.4797 163.991 105.163Z" fill="#EC3396"/>
<path fill-rule="evenodd" clip-rule="evenodd" d="M97.57 169.583C133.148 169.583 161.991 140.741 161.991 105.163C161.991 69.5842 133.148 40.7422 97.57 40.7422C61.9915 40.7422 33.1494 69.5842 33.1494 105.163C33.1494 140.741 61.9915 169.583 97.57 169.583ZM97.57 171.583C134.253 171.583 163.991 141.846 163.991 105.163C163.991 68.4797 134.253 38.7422 97.57 38.7422C60.8869 38.7422 31.1494 68.4797 31.1494 105.163C31.1494 141.846 60.8869 171.583 97.57 171.583Z" fill="#333333"/>
</svg>
