<svg width="47" height="47" viewBox="0 0 47 47" fill="none" xmlns="http://www.w3.org/2000/svg">
<path d="M23.5 8.09666e-08C18.8521 8.09666e-08 14.3087 1.37825 10.4441 3.96046C6.57955 6.54268 3.5675 10.2129 1.78884 14.5069C0.0101822 18.801 -0.455196 23.5261 0.451556 28.0846C1.35831 32.6432 3.59647 36.8305 6.883 40.117C10.1695 43.4035 14.3568 45.6417 18.9154 46.5484C23.4739 47.4552 28.199 46.9898 32.4931 45.2112C36.7871 43.4325 40.4573 40.4204 43.0395 36.5559C45.6217 32.6913 47 28.1479 47 23.5C47.0003 20.4139 46.3926 17.3579 45.2117 14.5066C44.0308 11.6554 42.2998 9.06464 40.1176 6.88242C37.9354 4.70019 35.3446 2.9692 32.4934 1.78831C29.6421 0.607415 26.5861 -0.0002561 23.5 8.09666e-08ZM30.9719 35.6083C30.8839 35.8276 30.7501 36.0256 30.5793 36.189C30.4086 36.3524 30.2049 36.4773 29.9819 36.5556C29.7589 36.6338 29.5218 36.6634 29.2864 36.6425C29.051 36.6216 28.8229 36.5506 28.6172 36.4343L22.2377 31.4773L18.1432 35.2547C18.0482 35.3249 17.9371 35.3701 17.8201 35.3861C17.703 35.402 17.5838 35.3883 17.4735 35.3462L18.2584 28.3233L18.2835 28.3432L18.2996 28.2046C18.2996 28.2046 29.7793 17.753 30.247 17.3077C30.7204 16.8635 30.5642 16.7672 30.5642 16.7672C30.5912 16.2254 29.7146 16.7672 29.7146 16.7672L14.5042 26.5526L8.16981 24.3953C8.16981 24.3953 7.19691 24.0464 7.10526 23.2791C7.00891 22.5177 8.20151 22.1041 8.20151 22.1041L33.3865 12.0989C33.3865 12.0989 35.4568 11.1765 35.4568 12.7041L30.9719 35.6083Z" fill="white"/>
</svg>
