<svg width="325" height="160" viewBox="0 0 325 160" fill="none" xmlns="http://www.w3.org/2000/svg">
<path d="M29.7825 109.186C30.0002 116.115 30.5444 121.155 31.2519 124.724C32.5581 130.814 34.8438 133.963 38.0548 133.963C40.014 133.963 41.5923 133.123 42.7896 131.444C45.0754 128.294 46.2182 122.415 46.2182 114.016C46.2182 108.976 45.674 105.197 44.5311 102.467C43.3882 99.7375 41.5923 97.4278 39.1432 95.3281L35.0071 91.7585C30.9798 88.189 28.1498 84.4095 26.5715 80.21C23.9592 73.0709 22.5987 62.3622 22.5987 47.4541C22.5987 33.8058 23.9048 22.6772 26.4627 13.6483C28.9661 4.8294 32.7213 0.209971 37.6738 0.209971C41.81 0.209971 45.3475 4.40945 48.2319 12.8084C51.1707 21.4173 52.6946 33.5958 52.8034 49.7638H44.9665C44.8032 40.5249 43.7692 34.0157 41.8644 30.2362C40.6127 27.7165 38.98 26.4567 37.1296 26.4567C35.0071 26.4567 33.32 28.1365 32.0683 31.4961C30.8165 34.6457 30.1635 39.2651 30.1635 45.1444C30.1635 50.6037 30.8165 54.5932 32.0683 57.3228C32.8302 59.0026 34.5173 61.1024 37.1296 63.6221L43.878 69.7113C46.8713 72.6509 49.1027 76.2205 50.5721 80.8399C52.9123 87.769 54.1096 98.2677 54.1096 111.706C54.1096 125.354 52.749 136.903 50.0278 145.932C47.2523 155.171 43.3882 159.79 38.3813 159.79C33.32 159.79 29.2927 155.171 26.3538 146.142C23.415 137.323 22 124.934 22 109.186H29.7825Z" fill="#333333"/>
<path d="M82.5724 110.236V4.61943H90.1916V155.801H82.0281L66.0278 48.5039V155.801H58.4086V4.61943H66.953L82.5724 110.236Z" fill="#333333"/>
<path d="M126.311 142.362C123.372 154.121 119.127 160 113.522 160C107.916 160 103.617 154.121 100.678 142.362C96.7049 127.874 94.6913 107.297 94.6913 80C94.6913 52.2835 96.7049 31.4961 100.678 17.6378C103.617 5.87926 107.916 0 113.522 0C119.127 0 123.372 5.87926 126.311 17.6378C130.284 31.4961 132.243 52.2835 132.243 80C132.243 107.297 130.284 127.874 126.311 142.362ZM121.25 119.475C123.1 110.236 124.08 97.0079 124.08 80C124.08 63.2021 123.1 49.9738 121.25 40.7349C119.29 31.4961 116.733 26.8766 113.522 26.8766C110.256 26.8766 107.698 31.4961 105.739 40.7349C103.78 49.9738 102.855 62.9921 102.855 80C102.855 97.0079 103.78 110.236 105.739 119.475C107.698 128.714 110.256 133.333 113.522 133.333C116.733 133.333 119.29 128.714 121.25 119.475Z" fill="#333333"/>
<path d="M163.227 51.8635C162.629 41.5748 161.105 34.2257 158.71 30.2362C157.35 27.9265 155.826 26.8766 154.193 26.8766C151.037 26.8766 148.479 31.4961 146.411 40.5249C144.397 49.7638 143.363 63.6221 143.363 82.0997C143.363 100.577 144.451 113.806 146.683 121.575C148.86 129.344 151.363 133.123 154.193 133.123C156.914 133.123 159.146 129.974 160.941 123.885C162.683 117.795 163.771 109.816 164.152 99.9475H155.118V74.7507H171.391V155.801H166.003L165.186 136.903C163.608 144.042 162.193 149.081 160.941 152.021C158.765 157.27 156.098 159.79 152.941 159.79C147.771 159.79 143.526 152.861 140.206 139.003C136.723 125.144 135.036 106.037 135.036 81.6798C135.036 57.3228 136.778 37.7953 140.261 22.8871C143.744 8.18898 148.37 0.839897 154.084 0.839897C159.037 0.839897 163.064 5.66929 166.112 15.3281C169.105 24.9869 170.846 37.3753 171.282 51.8635H163.227Z" fill="#333333"/>
<path d="M203.953 51.8635C203.354 41.5748 201.831 34.2257 199.436 30.2362C198.075 27.9265 196.552 26.8766 194.919 26.8766C191.762 26.8766 189.204 31.4961 187.136 40.5249C185.123 49.7638 184.089 63.6221 184.089 82.0997C184.089 100.577 185.177 113.806 187.408 121.575C189.585 129.344 192.089 133.123 194.919 133.123C197.64 133.123 199.871 129.974 201.667 123.885C203.409 117.795 204.497 109.816 204.878 99.9475H195.844V74.7507H212.117V155.801H206.729L205.912 136.903C204.334 144.042 202.919 149.081 201.667 152.021C199.49 157.27 196.824 159.79 193.667 159.79C188.497 159.79 184.252 152.861 180.932 139.003C177.449 125.144 175.762 106.037 175.762 81.6798C175.762 57.3228 177.504 37.7953 180.987 22.8871C184.47 8.18898 189.096 0.839897 194.81 0.839897C199.763 0.839897 203.79 5.66929 206.838 15.3281C209.831 24.9869 211.572 37.3753 212.008 51.8635H203.953Z" fill="#333333"/>
<path d="M217.685 4.61943H225.849V155.801H217.685V4.61943Z" fill="#333333"/>
<path d="M255.907 110.236V4.61943H263.527V155.801H255.363L239.363 48.5039V155.801H231.744V4.61943H240.288L255.907 110.236Z" fill="#333333"/>
<path d="M295.837 51.8635C295.238 41.5748 293.714 34.2257 291.319 30.2362C289.959 27.9265 288.435 26.8766 286.802 26.8766C283.646 26.8766 281.088 31.4961 279.02 40.5249C277.006 49.7638 275.972 63.6221 275.972 82.0997C275.972 100.577 277.061 113.806 279.292 121.575C281.469 129.344 283.972 133.123 286.802 133.123C289.523 133.123 291.755 129.974 293.551 123.885C295.292 117.795 296.381 109.816 296.762 99.9475H287.728V74.7507H304V155.801H298.612L297.796 136.903C296.218 144.042 294.803 149.081 293.551 152.021C291.374 157.27 288.707 159.79 285.551 159.79C280.38 159.79 276.135 152.861 272.816 139.003C269.333 125.144 267.645 106.037 267.645 81.6798C267.645 57.3228 269.387 37.7953 272.87 22.8871C276.353 8.18898 280.979 0.839897 286.693 0.839897C291.646 0.839897 295.673 5.66929 298.721 15.3281C301.714 24.9869 303.456 37.3753 303.891 51.8635H295.837Z" fill="#333333"/>
</svg>
