<svg width="363" height="220" viewBox="0 0 363 220" fill="none" xmlns="http://www.w3.org/2000/svg">
<g clip-path="url(#clip0_2651_1316)">
<rect width="555" height="126" transform="matrix(1 0 0 -1 0 126)" fill="url(#paint0_linear_2651_1316)"/>
<path d="M146.5 73.1874H142L149.578 49.4544L142.671 26.8125H147.092L151.907 43.362H151.986L156.722 26.8125H161.143L154.236 49.4544L161.893 73.1874H157.354L151.907 55.4558H151.828L146.5 73.1874Z" fill="#333333"/>
<path d="M171.956 73.1841C165.681 73.1841 161.893 63.7563 161.893 50.0431C161.893 36.4156 165.681 26.8164 171.995 26.8164C178.231 26.8164 182.019 36.3299 182.019 49.9574C182.019 63.6706 178.231 73.1841 171.956 73.1841ZM171.995 66.2418C176.1 66.2418 177.994 59.1281 177.994 50.0431C177.994 40.8724 176.1 33.8444 171.995 33.8444C167.812 33.8444 165.918 40.8724 165.918 50.0431C165.918 59.1281 167.812 66.2418 171.995 66.2418Z" fill="#333333"/>
<path d="M186.519 73.1874H182.02L189.598 49.4544L182.691 26.8125H187.111L191.927 43.362H192.006L196.742 26.8125H201.163L194.255 49.4544L201.913 73.1874H197.374L191.927 55.4558H191.848L186.519 73.1874Z" fill="#333333"/>
<path d="M211.977 73.1841C205.703 73.1841 201.914 63.7563 201.914 50.0431C201.914 36.4156 205.703 26.8164 212.017 26.8164C218.252 26.8164 222.041 36.3299 222.041 49.9574C222.041 63.6706 218.252 73.1841 211.977 73.1841ZM212.017 66.2418C216.121 66.2418 218.016 59.1281 218.016 50.0431C218.016 40.8724 216.121 33.8444 212.017 33.8444C207.834 33.8444 205.939 40.8724 205.939 50.0431C205.939 59.1281 207.834 66.2418 212.017 66.2418Z" fill="#333333"/>
</g>
<rect x="1" y="1" width="361" height="98" stroke="#333333" stroke-width="2"/>
<rect x="1" y="121" width="361" height="98" fill="#EC3396"/>
<rect x="1" y="121" width="361" height="98" stroke="#333333" stroke-width="2"/>
<path d="M145.98 193.187H141.48L149.059 169.454L142.151 146.812H146.572L151.388 163.362H151.466L156.203 146.812H160.624L153.716 169.454L161.374 193.187H156.834L151.388 175.456H151.309L145.98 193.187Z" fill="white"/>
<path d="M171.436 193.184C165.162 193.184 161.373 183.756 161.373 170.043C161.373 156.416 165.162 146.816 171.476 146.816C177.711 146.816 181.5 156.33 181.5 169.957C181.5 183.671 177.711 193.184 171.436 193.184ZM171.476 186.242C175.58 186.242 177.475 179.128 177.475 170.043C177.475 160.872 175.58 153.844 171.476 153.844C167.293 153.844 165.398 160.872 165.398 170.043C165.398 179.128 167.293 186.242 171.476 186.242Z" fill="white"/>
<path d="M186 193.187H181.5L189.078 169.454L182.171 146.812H186.592L191.407 163.362H191.486L196.222 146.812H200.643L193.736 169.454L201.393 193.187H196.854L191.407 175.456H191.328L186 193.187Z" fill="white"/>
<path d="M211.458 193.184C205.183 193.184 201.395 183.756 201.395 170.043C201.395 156.416 205.183 146.816 211.497 146.816C217.733 146.816 221.521 156.33 221.521 169.957C221.521 183.671 217.733 193.184 211.458 193.184ZM211.497 186.242C215.602 186.242 217.496 179.128 217.496 170.043C217.496 160.872 215.602 153.844 211.497 153.844C207.314 153.844 205.42 160.872 205.42 170.043C205.42 179.128 207.314 186.242 211.497 186.242Z" fill="white"/>
<defs>
<linearGradient id="paint0_linear_2651_1316" x1="277.5" y1="17.64" x2="277.5" y2="126" gradientUnits="userSpaceOnUse">
<stop offset="0.07" stop-color="white"/>
<stop offset="1" stop-color="#EC3396"/>
</linearGradient>
<clipPath id="clip0_2651_1316">
<rect width="363" height="100" fill="white"/>
</clipPath>
</defs>
</svg>
