<svg width="1193" height="511" viewBox="0 0 1193 511" fill="none" xmlns="http://www.w3.org/2000/svg">
<path d="M1122.3 172.845H1137.91C1139.11 172.845 1140.52 172.845 1142.49 173.419C1144.23 173.419 1146.2 175.142 1148.27 177.438C1150.34 179.735 1152.52 183.179 1154.6 188.346C1156.67 193.513 1158.52 200.403 1160.27 209.589C1162.02 219.348 1163.33 230.831 1164.42 245.184C1165.51 259.536 1166.05 277.334 1166.05 298.002C1166.05 318.67 1165.51 336.468 1164.42 350.82C1163.33 364.599 1162.02 376.081 1160.38 385.841C1158.74 395.027 1156.89 401.917 1154.92 407.084C1152.85 411.676 1150.89 415.695 1149.03 417.992C1147.07 420.288 1145.32 422.011 1143.8 422.011C1142.27 422.585 1141.07 422.585 1140.31 422.585H1105.94V10.3711H1122.3V172.845ZM1193 422.585H1176.64V10.3711H1193V422.585ZM1136.16 351.395C1137.69 351.395 1139.21 350.82 1140.74 349.672C1142.38 348.524 1143.8 346.228 1145.11 342.209C1146.52 338.764 1147.51 333.023 1148.38 325.559C1149.25 318.096 1149.69 308.336 1149.69 296.28C1149.69 283.075 1149.25 273.315 1148.49 265.852C1147.61 258.388 1146.52 252.647 1145.11 249.202C1143.8 245.184 1142.27 242.887 1140.63 242.313C1138.89 241.165 1137.25 240.591 1135.5 240.591H1122.3V351.395H1136.16Z" fill="#333333"/>
<path d="M1024.74 351.394C1025.61 339.912 1026.37 327.856 1027.24 315.799C1028.01 303.743 1028.77 290.538 1029.43 276.186C1030.19 261.833 1030.85 246.332 1031.39 229.682C1032.05 212.459 1032.48 193.513 1032.92 171.697C1033.46 150.455 1033.79 126.342 1034.12 99.9328C1034.34 73.5236 1034.55 43.6697 1034.66 10.3711H1088.01V351.394H1095.65V510.998H1081.47V422.585H1032.05V510.998H1017.86V351.394H1024.74ZM1049.06 81.5612C1048.96 89.0246 1048.96 98.7846 1048.96 110.267C1048.85 121.749 1048.74 134.38 1048.52 148.732C1048.41 163.085 1048.19 178.586 1047.86 195.236C1047.43 211.311 1046.99 228.534 1046.45 245.758C1045.9 263.555 1045.14 281.353 1044.26 299.15C1043.39 316.948 1042.3 334.171 1041.1 351.394H1071.65V81.5612H1049.06Z" fill="#333333"/>
<path d="M985.168 10.3711C988.332 10.3711 991.169 12.0934 993.678 15.5381C996.078 18.4087 998.151 23.0016 999.897 28.1686C1001.64 33.3356 1003.17 39.6509 1004.37 47.1144C1005.68 54.0037 1006.55 61.4672 1007.32 68.9307C1007.97 76.9683 1008.52 85.0059 1008.84 93.0435C1009.06 101.081 1009.28 108.545 1009.28 116.008C1009.28 126.342 1009.06 135.528 1008.73 144.14C1008.3 152.177 1007.86 159.641 1007.1 166.53C1006.22 173.419 1005.35 179.735 1004.04 184.902C1002.84 190.643 1001.42 195.81 999.678 200.403C1002.3 205.57 1004.37 211.885 1006.01 219.348C1007.64 227.386 1008.84 235.424 1009.72 244.035C1010.59 253.221 1011.13 262.407 1011.35 271.593C1011.68 281.353 1011.79 290.539 1011.79 299.15C1011.79 319.244 1011.13 337.042 1009.72 351.969C1008.3 367.47 1006.33 380.1 1003.82 390.434C1001.42 400.768 998.26 409.38 994.66 414.547C991.059 419.714 987.132 422.585 982.659 422.585H946.765V10.3711H985.168ZM982.659 172.845C984.077 172.845 985.495 171.697 986.805 170.549C988.114 168.826 989.314 165.956 990.296 161.937C991.278 158.492 992.15 153.325 992.696 147.584C993.241 141.269 993.569 134.38 993.569 125.768C993.569 117.156 993.351 109.693 992.805 103.952C992.26 98.2105 991.496 93.6176 990.514 90.1729C989.532 87.3023 988.441 85.0059 987.132 83.2835C985.823 82.1353 984.514 81.5612 983.095 81.5612H962.475V172.845H982.659ZM982.877 351.395C984.732 351.395 986.368 350.246 987.896 347.95C989.423 345.653 990.732 342.209 991.932 337.616C993.023 333.023 993.896 327.282 994.551 320.392C995.096 313.503 995.423 304.891 995.423 295.706C995.423 283.649 994.987 273.889 994.332 267C993.569 259.536 992.587 254.369 991.387 250.351C990.078 246.332 988.768 243.461 987.241 242.313C985.604 241.165 984.077 240.591 982.441 240.591H962.475V351.395H982.877Z" fill="#333333"/>
<path d="M935.672 422.585H917.889L912.87 337.616H883.959L878.504 422.585H861.266L889.305 10.3711H907.961L935.672 422.585ZM898.578 103.377H898.36L888.323 266.426H908.288L898.578 103.377Z" fill="#333333"/>
<path d="M830.829 10.3711C834.974 10.3711 838.575 13.8158 841.739 19.5569C844.793 25.2981 847.303 33.9097 849.375 45.392C851.339 56.8743 852.867 70.653 853.849 87.3023C854.83 103.377 855.376 121.749 855.376 142.417C855.376 161.937 854.721 179.735 853.63 195.236C852.43 211.885 850.685 225.664 848.503 237.146C846.321 249.202 843.593 258.388 840.429 264.703C837.156 271.019 833.556 274.463 829.519 274.463H811.627V422.585H795.262V10.3711H830.829ZM827.119 203.273C830.829 203.273 833.774 198.68 835.847 188.92C837.92 179.735 839.011 164.234 839.011 142.417C839.011 131.509 838.684 122.323 838.247 114.86C837.593 107.396 836.829 100.507 835.847 95.914C834.865 90.747 833.556 87.3023 832.138 85.0059C830.61 82.7094 828.974 81.5612 827.119 81.5612H811.627V203.273H827.119Z" fill="#333333"/>
<path d="M778.714 422.585H762.349V81.5612H731.583V422.585H715.218V10.3711H778.714V422.585Z" fill="#333333"/>
<path d="M701.254 81.5612H659.469V172.845H697.872V244.035H659.469V347.95H703.109V422.585H643.759V10.3711H701.254V81.5612Z" fill="#333333"/>
<path d="M580.08 167.104H610.846V10.3711H627.211V422.585H610.846V238.294H580.08V422.585H563.715V10.3711H580.08V167.104Z" fill="#333333"/>
<path d="M470.326 291.113H470.544L501.528 10.3711H518.111V422.585H502.401V143.565H502.183L471.199 422.585H454.616V10.3711H470.326V291.113Z" fill="#333333"/>
<path d="M385.228 10.3711C388.392 10.3711 391.229 12.0934 393.738 15.5381C396.138 18.4087 398.211 23.0016 399.957 28.1686C401.702 33.3356 403.229 39.6509 404.43 47.1144C405.739 54.0037 406.612 61.4672 407.375 68.9307C408.03 76.9683 408.575 85.0059 408.903 93.0435C409.121 101.081 409.339 108.545 409.339 116.008C409.339 126.342 409.121 135.528 408.794 144.14C408.357 152.177 407.921 159.641 407.157 166.53C406.284 173.419 405.411 179.735 404.102 184.902C402.902 190.643 401.484 195.81 399.738 200.403C402.357 205.57 404.43 211.885 406.066 219.348C407.703 227.386 408.903 235.424 409.775 244.035C410.648 253.221 411.194 262.407 411.412 271.593C411.739 281.353 411.848 290.539 411.848 299.15C411.848 319.244 411.194 337.042 409.775 351.969C408.357 367.47 406.393 380.1 403.884 390.434C401.484 400.768 398.32 409.38 394.72 414.547C391.119 419.714 387.192 422.585 382.719 422.585H346.825V10.3711H385.228ZM382.719 172.845C384.137 172.845 385.555 171.697 386.865 170.549C388.174 168.826 389.374 165.956 390.356 161.937C391.338 158.492 392.21 153.325 392.756 147.584C393.301 141.269 393.629 134.38 393.629 125.768C393.629 117.156 393.411 109.693 392.865 103.952C392.32 98.2105 391.556 93.6176 390.574 90.1729C389.592 87.3023 388.501 85.0059 387.192 83.2835C385.883 82.1353 384.574 81.5612 383.155 81.5612H362.535V172.845H382.719ZM382.937 351.395C384.792 351.395 386.428 350.246 387.956 347.95C389.483 345.653 390.792 342.209 391.992 337.616C393.083 333.023 393.956 327.282 394.611 320.392C395.156 313.503 395.483 304.891 395.483 295.706C395.483 283.649 395.047 273.889 394.392 267C393.629 259.536 392.647 254.369 391.447 250.351C390.138 246.332 388.828 243.461 387.301 242.313C385.665 241.165 384.137 240.591 382.501 240.591H362.535V351.395H382.937Z" fill="#333333"/>
<path d="M257.765 216.441C257.765 185.439 258.529 157.307 260.056 130.898C261.693 104.489 263.984 81.5241 267.148 62.0043C270.312 42.4844 274.13 27.5575 278.931 16.6493C283.622 5.74116 289.186 0 295.405 0C301.187 0 306.424 5.74116 311.115 16.6493C315.697 27.5575 319.734 42.4844 323.007 62.0043C326.171 81.5241 328.68 104.489 330.425 130.898C332.171 157.307 333.044 185.439 333.044 216.441C333.044 246.869 332.171 275.575 330.425 301.984C328.68 328.393 326.171 351.358 323.007 370.877C319.734 389.823 315.697 405.324 311.115 416.232C306.424 427.141 301.187 432.882 295.405 432.882C289.186 432.882 283.622 427.141 278.931 416.232C274.13 405.324 270.312 389.823 267.148 370.877C263.984 351.358 261.693 328.393 260.056 301.984C258.529 275.575 257.765 246.869 257.765 216.441ZM295.405 358.247C298.787 358.247 301.732 354.802 304.351 347.913C306.969 340.449 309.26 330.689 311.115 318.059C312.86 305.428 314.279 290.501 315.261 273.278C316.243 256.055 316.679 237.109 316.679 216.441C316.679 195.773 316.243 176.827 315.261 159.604C314.279 142.38 312.86 127.453 311.115 114.823C309.26 102.192 306.969 92.4323 304.351 85.5429C301.732 78.0795 298.787 74.6348 295.405 74.6348C292.023 74.6348 289.077 78.0795 286.458 85.5429C283.84 92.4323 281.658 102.192 279.803 114.823C277.949 127.453 276.53 142.38 275.658 159.604C274.567 176.827 274.13 195.773 274.13 216.441C274.13 237.109 274.567 256.055 275.658 273.278C276.53 290.501 277.949 305.428 279.803 318.059C281.658 330.689 283.84 340.449 286.458 347.913C289.077 354.802 292.023 358.247 295.405 358.247Z" fill="#333333"/>
<path d="M199.617 377.804C194.38 376.081 189.58 371.489 185.434 362.877C181.179 354.265 177.579 343.357 174.524 329.004C171.579 314.651 169.288 298.002 167.651 279.056C166.015 259.536 165.251 238.868 165.251 216.478C165.251 206.144 165.469 195.236 165.906 183.179C166.342 171.123 166.997 159.641 168.088 147.584C169.069 135.528 170.488 124.62 172.124 113.712C173.87 102.803 175.943 93.6176 178.561 85.0059C181.07 76.3941 184.125 69.5048 187.616 63.7637C191.108 58.5967 195.035 55.7261 199.617 55.1519V10.3711H215.328V55.1519C219.91 55.7261 223.946 58.5967 227.438 63.7637C230.82 69.5048 233.874 76.3941 236.493 85.0059C239.002 93.6176 241.075 102.803 242.821 113.712C244.457 124.62 245.875 135.528 246.857 147.584C247.948 159.641 248.603 171.123 249.039 183.179C249.476 195.236 249.694 206.144 249.694 216.478C249.694 238.868 248.93 259.536 247.294 279.056C245.657 298.002 243.366 314.651 240.42 329.004C237.366 343.357 233.765 354.265 229.62 362.877C225.365 371.489 220.564 376.081 215.328 377.804V422.585H199.617V377.804ZM199.617 114.86C195.908 115.434 192.853 118.879 190.453 125.194C187.944 131.509 186.089 139.547 184.671 148.732C183.252 158.492 182.27 168.826 181.725 180.309C181.179 191.791 180.852 202.699 180.961 213.607C180.961 232.553 181.507 248.628 182.707 261.833C183.798 275.037 185.325 285.946 187.071 293.983C188.926 302.595 190.889 308.336 193.18 312.355C195.362 315.8 197.544 318.096 199.617 318.096V114.86ZM215.328 317.522C217.4 317.522 219.582 315.225 221.873 311.781C224.055 307.762 226.019 302.021 227.874 293.409C229.62 285.371 231.147 274.463 232.347 261.259C233.438 248.054 233.984 231.405 233.984 213.033C233.984 202.125 233.765 191.217 233.22 179.735C232.565 168.826 231.692 158.492 230.165 148.732C228.747 139.547 226.892 131.509 224.492 125.194C222.092 118.879 219.037 115.434 215.328 114.86V317.522Z" fill="#333333"/>
<path d="M106.591 291.113H106.809L137.794 10.3711H154.377V422.585H138.666V143.565H138.448L107.464 422.585H90.8809V10.3711H106.591V291.113Z" fill="#333333"/>
<path d="M37.6392 331.301H37.8574L51.604 10.3711H75.6058V422.585H60.5501V78.1165H60.3319L45.4944 422.585H29.5659L15.2739 78.1165H15.0557V422.585H0V10.3711H23.8927L37.6392 331.301Z" fill="#333333"/>
</svg>
