<svg width="380" height="340" viewBox="0 0 380 340" fill="none" xmlns="http://www.w3.org/2000/svg">
<path d="M92.7885 111.778V0H101.866V160H92.1401L73.0775 46.4444V160H64V0H74.1797L92.7885 111.778Z" fill="#333333"/>
<path d="M118.833 62.4444H141.462V90.2222H118.833V131.333H144.639V160H109.302V0H143.472V28.4444H118.833V62.4444Z" fill="#333333"/>
<path d="M170.25 28.4444V160H160.394V28.4444H146.389V0H184.19V28.4444H170.25Z" fill="#333333"/>
<path d="M221.04 28.4444H197.698V65.1111H218.187V92.8889H197.698V160H187.972V0.222219H221.04V28.4444Z" fill="#333333"/>
<path d="M235.455 131.333H258.538V160H225.665V0H235.455V131.333Z" fill="#333333"/>
<path d="M262.579 0H272.305V160H262.579V0Z" fill="#333333"/>
<path d="M290.611 78.4444L276.281 0H287.952L296.252 52L304.81 0H316.092L301.828 77.1111L317 160H305.134L296.252 105.556L286.915 160H275.568L290.611 78.4444Z" fill="#333333"/>
<path d="M45.7257 340H34.7971L31.713 307.111H13.8786L10.5933 340H0L17.2309 180H28.6288L45.7257 340ZM22.8628 216.667L16.6275 279.556H28.897L22.8628 216.667Z" fill="#333333"/>
<path d="M79.4286 291.778V180H88.8151V340H78.7581L59.0464 226.444V340H49.6599V180H60.1862L79.4286 291.778Z" fill="#333333"/>
<path d="M124.462 183.556C127.815 187.333 130.564 194 132.642 203.778C134.318 211.778 135.458 220.444 136.061 229.556C136.732 238.889 137 247.778 137 256.222C137 277.333 135.726 295.333 133.111 310.222C129.625 330 124.261 340 116.953 340H96.1687V180H116.953C119.97 180.222 122.451 181.333 124.462 183.556ZM115.277 312.222C120.037 312.222 123.323 304.444 125.2 288.889C126.206 280.222 126.742 270.222 126.742 258.444C126.742 242.222 126.004 229.556 124.462 220.889C122.92 212.222 119.836 207.778 115.277 207.778H105.957V312.222H115.277Z" fill="#333333"/>
<path d="M164.687 198.699C169.47 186.162 175.468 180 182.845 180C192.653 180 199.787 188.287 204.326 205.286C206.839 214.635 208.217 224.197 208.379 233.758H196.22C195.409 226.321 194.356 220.797 193.14 217.185C190.951 210.598 187.628 207.198 183.25 207.198C178.873 207.198 175.387 211.873 172.793 221.222C170.199 230.571 168.983 243.958 168.983 260.956C168.983 278.167 170.28 291.129 173.036 299.628C175.712 308.127 179.197 312.377 183.331 312.377C187.628 312.377 190.87 308.765 193.14 301.328C194.356 297.503 195.328 291.554 196.22 283.692H208.298C207.163 300.266 204.488 313.865 200.192 324.276C195.815 334.9 190.221 340 183.493 340C175.063 340 168.497 332.988 163.714 318.752C158.932 304.728 156.5 285.179 156.5 260.531C156.5 233.971 159.256 213.147 164.687 198.699Z" fill="#333333"/>
<path d="M227.078 182.762V241.195H249.857V182.762H262.016V335.75H249.857V267.543H227.078V335.75H215V182.762H227.078Z" fill="#333333"/>
<path d="M270.177 182.762H282.336V335.75H270.177V182.762Z" fill="#333333"/>
<path d="M303.519 308.34H332.377V335.75H291.279V182.762H303.519V308.34Z" fill="#333333"/>
<path d="M350.642 308.34H379.5V335.75H338.402V182.762H350.642V308.34Z" fill="#333333"/>
</svg>
