<svg width="114" height="144" viewBox="0 0 114 144" fill="none" xmlns="http://www.w3.org/2000/svg">
<path d="M92.2418 121.846H87.75L98.0502 0H102.658L113.036 121.846H108.389L106.105 92.5349H94.5265L92.2418 121.846ZM100.296 17.3822L95.8043 76.6864H104.904L100.374 17.3822H100.296Z" fill="#EC3396"/>
<path d="M84.8543 122.018H56.1221V0.171875H60.3816V105.658H68.3584V0.171875H72.6179V105.658H80.5561V0.171875H84.8543V122.018Z" fill="#EC3396"/>
<path d="M32.4562 121.846H27.9644L38.2646 0H42.8726L53.2503 121.846H48.6035L46.3189 92.5349H34.7408L32.4562 121.846ZM40.5105 17.3822L36.0187 76.6864H45.1185L40.588 17.3822H40.5105Z" fill="#EC3396"/>
<path d="M4.95279 144H0.964355V105.827H2.97794C5.18513 105.827 5.80469 97.1361 6.03703 75.1527L6.81148 0H23.5784V105.827H26.7924V144H22.8427V122.017H4.95279V144ZM8.554 105.486V105.827H19.3189V16.1894H10.9161L10.1416 82.1396C10.0255 94.0686 9.44463 100.715 8.554 105.486Z" fill="#EC3396"/>
</svg>
