<svg width="284" height="160" viewBox="0 0 284 160" fill="none" xmlns="http://www.w3.org/2000/svg">
<path d="M7.61238 109.263C7.82532 116.211 8.35765 121.263 9.04969 124.842C10.3273 130.947 12.5631 134.105 15.7039 134.105C17.6203 134.105 19.164 133.263 20.3352 131.579C22.571 128.421 23.6889 122.526 23.6889 114.105C23.6889 109.053 23.1565 105.263 22.0386 102.526C20.9207 99.7895 19.164 97.4737 16.7685 95.3684L12.7228 91.7895C8.78352 88.2105 6.01538 84.4211 4.47161 80.2105C1.9164 73.0526 0.585568 62.3158 0.585568 47.3684C0.585568 33.6842 1.86317 22.5263 4.36514 13.4737C6.81388 4.63158 10.487 0 15.3312 0C19.377 0 22.8371 4.21053 25.6585 12.6316C28.5331 21.2632 30.0237 33.4737 30.1301 49.6842H22.4645C22.3048 40.4211 21.2934 33.8947 19.4302 30.1053C18.2058 27.579 16.6088 26.3158 14.7989 26.3158C12.7228 26.3158 11.0726 28 9.84819 31.3684C8.62382 34.5263 7.98502 39.1579 7.98502 45.0526C7.98502 50.5263 8.62382 54.5263 9.84819 57.2632C10.5935 58.9474 12.2437 61.0526 14.7989 63.579L21.3998 69.6842C24.3277 72.6316 26.5103 76.2105 27.9476 80.8421C30.2366 87.7895 31.4077 98.3158 31.4077 111.789C31.4077 125.474 30.0769 137.053 27.4152 146.105C24.7003 155.368 20.9207 160 16.0233 160C11.0726 160 7.13328 155.368 4.25868 146.316C1.38407 137.474 0 125.053 0 109.263H7.61238Z" fill="#333333"/>
<path d="M45.1948 4.42106V62.3158H60.1534V4.42106H68.1384V156H60.1534V88.4211H45.1948V156H37.263V4.42106H45.1948Z" fill="#333333"/>
<path d="M109.324 156H100.647L98.1982 124.842H84.0381L81.4297 156H73.0188L86.6998 4.42106H95.7495L109.324 156ZM91.1714 39.1579L86.2207 98.7368H95.9624L91.1714 39.1579Z" fill="#333333"/>
<path d="M139.916 51.7895C139.331 41.4737 137.84 34.1053 135.498 30.1053C134.167 27.7895 132.676 26.7368 131.079 26.7368C127.992 26.7368 125.49 31.3684 123.467 40.4211C121.497 49.6842 120.486 63.5789 120.486 82.1053C120.486 100.632 121.551 113.895 123.733 121.684C125.863 129.474 128.311 133.263 131.079 133.263C133.741 133.263 135.924 130.105 137.68 124C139.384 117.895 140.449 109.895 140.821 100H131.984V74.7368H147.901V156H142.631L141.833 137.053C140.289 144.211 138.905 149.263 137.68 152.211C135.551 157.474 132.943 160 129.855 160C124.798 160 120.646 153.053 117.398 139.158C113.992 125.263 112.341 106.105 112.341 81.6842C112.341 57.2632 114.045 37.6842 117.452 22.7368C120.859 8.00001 125.383 0.631583 130.973 0.631583C135.817 0.631583 139.757 5.47369 142.738 15.1579C145.665 24.8421 147.369 37.2632 147.795 51.7895H139.916Z" fill="#333333"/>
<path d="M181.349 51.7895C180.763 41.4737 179.273 34.1053 176.93 30.1053C175.6 27.7895 174.109 26.7368 172.512 26.7368C169.425 26.7368 166.923 31.3684 164.9 40.4211C162.93 49.6842 161.919 63.5789 161.919 82.1053C161.919 100.632 162.983 113.895 165.166 121.684C167.295 129.474 169.744 133.263 172.512 133.263C175.174 133.263 177.356 130.105 179.113 124C180.817 117.895 181.881 109.895 182.254 100H173.417V74.7368H189.334V156H184.064L183.265 137.053C181.721 144.211 180.337 149.263 179.113 152.211C176.984 157.474 174.375 160 171.288 160C166.231 160 162.078 153.053 158.831 139.158C155.424 125.263 153.774 106.105 153.774 81.6842C153.774 57.2632 155.477 37.6842 158.884 22.7368C162.291 8.00001 166.816 0.631583 172.406 0.631583C177.25 0.631583 181.189 5.47369 184.17 15.1579C187.098 24.8421 188.802 37.2632 189.227 51.7895H181.349Z" fill="#333333"/>
<path d="M196.378 4.42106H204.363V156H196.378V4.42106Z" fill="#333333"/>
<path d="M235.362 110.316V4.42106H242.814V156H234.829L219.179 48.4211V156H211.726V4.42106H220.084L235.362 110.316Z" fill="#333333"/>
<path d="M276.015 51.7895C275.429 41.4737 273.939 34.1053 271.597 30.1053C270.266 27.7895 268.775 26.7368 267.178 26.7368C264.091 26.7368 261.589 31.3684 259.566 40.4211C257.596 49.6842 256.585 63.5789 256.585 82.1053C256.585 100.632 257.649 113.895 259.832 121.684C261.961 129.474 264.41 133.263 267.178 133.263C269.84 133.263 272.022 130.105 273.779 124C275.483 117.895 276.547 109.895 276.92 100H268.083V74.7368H284V156H278.73L277.931 137.053C276.388 144.211 275.004 149.263 273.779 152.211C271.65 157.474 269.041 160 265.954 160C260.897 160 256.744 153.053 253.497 139.158C250.09 125.263 248.44 106.105 248.44 81.6842C248.44 57.2632 250.144 37.6842 253.55 22.7368C256.957 8.00001 261.482 0.631583 267.072 0.631583C271.916 0.631583 275.855 5.47369 278.836 15.1579C281.764 24.8421 283.468 37.2632 283.894 51.7895H276.015Z" fill="#333333"/>
</svg>
