<svg width="700" height="556" viewBox="0 0 700 556" fill="none" xmlns="http://www.w3.org/2000/svg">
<path d="M630.657 278C630.657 238.18 631.36 202.048 632.767 168.127C634.275 134.207 636.385 104.711 639.3 79.6393C642.214 54.5676 645.732 35.3952 650.153 21.3846C654.475 7.37404 659.6 0 665.328 0C670.655 0 675.479 7.37404 679.8 21.3846C684.021 35.3952 687.739 54.5676 690.754 79.6393C693.668 104.711 695.98 134.207 697.588 168.127C699.196 202.048 700 238.18 700 278C700 317.082 699.196 353.952 697.588 387.873C695.98 421.793 693.668 451.289 690.754 476.361C687.739 500.695 684.021 520.605 679.8 534.615C675.479 548.626 670.655 556 665.328 556C659.6 556 654.475 548.626 650.153 534.615C645.732 520.605 642.214 500.695 639.3 476.361C636.385 451.289 634.275 421.793 632.767 387.873C631.36 353.952 630.657 317.082 630.657 278ZM665.328 460.138C668.444 460.138 671.157 455.713 673.569 446.865C675.981 437.278 678.092 424.743 679.8 408.52C681.408 392.297 682.714 373.125 683.619 351.003C684.523 328.881 684.925 304.546 684.925 278C684.925 251.454 684.523 227.119 683.619 204.997C682.714 182.875 681.408 163.703 679.8 147.48C678.092 131.257 675.981 118.721 673.569 109.873C671.157 100.286 668.444 95.8621 665.328 95.8621C662.213 95.8621 659.5 100.286 657.088 109.873C654.676 118.721 652.666 131.257 650.957 147.48C649.249 163.703 647.942 182.875 647.138 204.997C646.134 227.119 645.732 251.454 645.732 278C645.732 304.546 646.134 328.881 647.138 351.003C647.942 373.125 649.249 392.297 650.957 408.52C652.666 424.743 654.676 437.278 657.088 446.865C659.5 455.713 662.213 460.138 665.328 460.138Z" fill="#333333"/>
<path d="M575.818 214.556H604.158V13.2461H619.233V542.7H604.158V305.994H575.818V542.7H560.744V13.2461H575.818V214.556Z" fill="#333333"/>
<path d="M502.689 373.835H502.89L531.431 13.2461H546.706V542.7H532.235V184.323H532.034L503.493 542.7H488.217V13.2461H502.689V373.835Z" fill="#333333"/>
<path d="M432.473 228.567L460.009 13.2461H479.506L450.06 230.042L481.214 542.7H462.12L439.809 308.206L432.473 363.511V542.7H417.399V13.2461H432.473V228.567Z" fill="#333333"/>
<path d="M351.774 13.2461C354.689 13.2461 357.302 15.4583 359.613 19.8827C361.824 23.5697 363.733 29.4689 365.341 36.1055C366.949 42.7421 368.356 50.8535 369.462 60.4397C370.668 69.2886 371.472 78.8748 372.175 88.4609C372.778 98.7845 373.281 109.108 373.582 119.432C373.783 129.755 373.984 139.342 373.984 148.928C373.984 162.201 373.783 173.999 373.482 185.06C373.08 195.384 372.678 204.97 371.974 213.819C371.17 222.668 370.366 230.779 369.16 237.416C368.055 244.79 366.748 251.426 365.14 257.326C367.552 263.962 369.462 272.074 370.969 281.66C372.477 291.983 373.582 302.307 374.386 313.368C375.19 325.167 375.693 336.965 375.894 348.763C376.195 361.299 376.296 373.098 376.296 384.159C376.296 409.968 375.693 432.827 374.386 451.999C373.08 471.909 371.271 488.132 368.959 501.405C366.748 514.678 363.834 525.739 360.518 532.376C357.201 539.013 353.583 542.7 349.463 542.7H316.399V13.2461H351.774ZM349.463 221.93C350.769 221.93 352.076 220.456 353.282 218.981C354.488 216.769 355.593 213.082 356.498 207.92C357.402 203.495 358.206 196.859 358.709 189.485C359.211 181.373 359.513 172.525 359.513 161.464C359.513 150.403 359.312 140.816 358.809 133.442C358.307 126.068 357.603 120.169 356.699 115.745C355.794 112.058 354.789 109.108 353.583 106.896C352.377 105.421 351.171 104.684 349.865 104.684H330.871V221.93H349.463ZM349.664 451.262C351.372 451.262 352.88 449.787 354.287 446.838C355.694 443.888 356.9 439.464 358.005 433.564C359.01 427.665 359.814 420.291 360.417 411.442C360.92 402.594 361.221 391.533 361.221 379.734C361.221 364.249 360.819 351.713 360.216 342.864C359.513 333.278 358.608 326.641 357.503 321.479C356.297 316.318 355.091 312.631 353.684 311.156C352.176 309.681 350.769 308.944 349.262 308.944H330.871V451.262H349.664Z" fill="#333333"/>
<path d="M260.624 169.602C260.322 162.966 259.92 157.066 259.418 149.692C258.915 143.056 258.212 136.419 257.508 129.783C256.704 123.883 255.8 117.984 254.594 112.822C253.488 107.66 252.081 103.973 250.474 100.286C248.866 97.3369 247.057 95.8621 244.846 95.8621C243.941 95.8621 242.836 96.5995 241.63 98.0743C240.424 100.286 239.117 103.236 237.811 107.66C236.504 112.822 235.198 119.459 233.892 127.57C232.686 135.682 231.48 146.743 230.575 160.016C229.47 174.027 228.666 190.249 228.063 209.422C227.46 228.594 227.158 251.454 227.158 278C227.158 306.759 227.56 331.83 228.364 354.69C229.168 377.549 230.374 396.721 231.882 412.207C233.389 427.692 235.298 439.491 237.509 447.602C239.62 455.714 242.132 460.138 244.846 460.138C248.062 460.138 250.574 456.451 252.584 449.814C254.594 442.44 256.202 433.592 257.408 423.268C258.614 412.944 259.518 401.883 260.021 390.822C260.624 379.761 261.126 369.438 261.428 361.326H276.402C275.598 394.509 274.291 423.268 272.382 447.602C270.472 471.936 268.161 491.846 265.448 508.069C262.734 524.292 259.719 536.09 256.302 544.202C252.885 552.313 249.268 556 245.449 556C240.122 556 235.299 549.363 231.178 536.09C227.058 523.554 223.54 504.382 220.726 480.785C217.913 456.451 215.802 426.955 214.295 392.297C212.787 358.377 212.084 320.032 212.084 278C212.084 245.554 212.486 216.058 213.39 189.512C214.194 162.966 215.4 139.369 216.908 118.721C218.415 98.0743 220.224 81.114 222.334 65.6287C224.344 50.8806 226.555 38.3449 229.068 28.7586C231.48 19.1724 233.992 11.7984 236.705 6.63662C239.419 2.21223 242.132 0 244.846 0C248.765 0 252.282 2.94962 255.297 8.84883C258.312 15.4854 261.026 22.8594 263.337 33.183C265.649 43.5066 267.558 54.5676 269.166 67.8408C270.774 81.1141 272.181 94.3873 273.186 107.66C274.191 121.671 274.894 135.682 275.497 148.955C276 162.966 276.301 175.501 276.402 187.3H261.327L260.624 169.602Z" fill="#333333"/>
<path d="M158.953 228.567L186.489 13.2461H205.985L176.54 230.042L207.694 542.7H188.6L166.289 308.206L158.953 363.511V542.7H143.878V13.2461H158.953V228.567Z" fill="#333333"/>
<path d="M129.307 104.684H90.817V221.93H126.192V313.368H90.817V446.838H131.016V542.7H76.3455V13.2461H129.307V104.684Z" fill="#333333"/>
<path d="M48.54 169.602C48.2385 162.966 47.8365 157.066 47.334 149.692C46.8315 143.056 46.1281 136.419 45.4246 129.783C44.6206 123.883 43.7161 117.984 42.5102 112.822C41.4047 107.66 39.9978 103.973 38.3898 100.286C36.7819 97.3369 34.9729 95.8621 32.762 95.8621C31.8575 95.8621 30.752 96.5995 29.5461 98.0743C28.3401 100.286 27.0337 103.236 25.7272 107.66C24.4207 112.822 23.1143 119.459 21.8078 127.57C20.6019 135.682 19.3959 146.743 18.4914 160.016C17.386 174.027 16.582 190.249 15.979 209.422C15.376 228.594 15.0745 251.454 15.0745 278C15.0745 306.759 15.4765 331.83 16.2805 354.69C17.0845 377.549 18.2904 396.721 19.7979 412.207C21.3053 427.692 23.2148 439.491 25.4257 447.602C27.5361 455.714 30.0486 460.138 32.762 460.138C35.9779 460.138 38.4903 456.451 40.5002 449.814C42.5102 442.44 44.1181 433.592 45.3241 423.268C46.5301 412.944 47.4345 401.883 47.937 390.822C48.54 379.761 49.0425 369.438 49.344 361.326H64.318C63.514 394.509 62.2076 423.268 60.2981 447.602C58.3887 471.936 56.0773 491.846 53.3638 508.069C50.6504 524.292 47.6355 536.09 44.2186 544.202C40.8017 552.313 37.1838 556 33.365 556C28.0386 556 23.2148 549.363 19.0944 536.09C14.974 523.554 11.4566 504.382 8.64273 480.785C5.82882 456.451 3.71838 426.955 2.21093 392.297C0.703478 358.377 0 320.032 0 278C0 245.554 0.401987 216.058 1.30646 189.512C2.11043 162.966 3.3164 139.369 4.82385 118.721C6.3313 98.0743 8.14025 81.114 10.2507 65.6287C12.2606 50.8806 14.4715 38.3449 16.984 28.7586C19.3959 19.1724 21.9083 11.7984 24.6217 6.63662C27.3351 2.21223 30.0486 0 32.762 0C36.6814 0 40.1987 2.94962 43.2137 8.84883C46.2286 15.4854 48.942 22.8594 51.2534 33.183C53.5648 43.5066 55.4743 54.5676 57.0822 67.8408C58.6902 81.1141 60.0971 94.3873 61.1021 107.66C62.1071 121.671 62.8105 135.682 63.4135 148.955C63.916 162.966 64.2175 175.501 64.318 187.3H49.2435L48.54 169.602Z" fill="#333333"/>
</svg>
