<svg width="557" height="460" viewBox="0 0 557 460" fill="none" xmlns="http://www.w3.org/2000/svg">
<rect x="1" y="1" width="555" height="98" fill="#333333"/>
<rect x="1" y="1" width="555" height="98" stroke="#333333" stroke-width="2"/>
<path d="M242.98 73.1874H238.48L246.059 49.4544L239.151 26.8125H243.572L248.388 43.362H248.466L253.203 26.8125H257.624L250.716 49.4544L258.374 73.1874H253.834L248.388 55.4558H248.309L242.98 73.1874Z" fill="#EC3396"/>
<path d="M268.438 73.1841C262.164 73.1841 258.375 63.7563 258.375 50.0431C258.375 36.4156 262.164 26.8164 268.478 26.8164C274.713 26.8164 278.502 36.3299 278.502 49.9574C278.502 63.6706 274.713 73.1841 268.438 73.1841ZM268.478 66.2418C272.582 66.2418 274.476 59.1281 274.476 50.0431C274.476 40.8724 272.582 33.8444 268.478 33.8444C264.295 33.8444 262.4 40.8724 262.4 50.0431C262.4 59.1281 264.295 66.2418 268.478 66.2418Z" fill="#EC3396"/>
<path d="M283 73.1874H278.5L286.078 49.4544L279.171 26.8125H283.592L288.407 43.362H288.486L293.222 26.8125H297.643L290.736 49.4544L298.393 73.1874H293.854L288.407 55.4558H288.328L283 73.1874Z" fill="#EC3396"/>
<path d="M308.458 73.1841C302.183 73.1841 298.395 63.7563 298.395 50.0431C298.395 36.4156 302.183 26.8164 308.497 26.8164C314.733 26.8164 318.521 36.3299 318.521 49.9574C318.521 63.6706 314.733 73.1841 308.458 73.1841ZM308.497 66.2418C312.602 66.2418 314.496 59.1281 314.496 50.0431C314.496 40.8724 312.602 33.8444 308.497 33.8444C304.314 33.8444 302.42 40.8724 302.42 50.0431C302.42 59.1281 304.314 66.2418 308.497 66.2418Z" fill="#EC3396"/>
<rect x="1" y="121" width="555" height="98" fill="url(#paint0_linear_2651_1395)"/>
<rect x="1" y="121" width="555" height="98" stroke="#333333" stroke-width="2"/>
<path d="M242.98 193.187H238.48L246.059 169.454L239.151 146.812H243.572L248.388 163.362H248.466L253.203 146.812H257.624L250.716 169.454L258.374 193.187H253.834L248.388 175.456H248.309L242.98 193.187Z" fill="white"/>
<path d="M268.438 193.184C262.164 193.184 258.375 183.756 258.375 170.043C258.375 156.416 262.164 146.816 268.478 146.816C274.713 146.816 278.502 156.33 278.502 169.957C278.502 183.671 274.713 193.184 268.438 193.184ZM268.478 186.242C272.582 186.242 274.476 179.128 274.476 170.043C274.476 160.872 272.582 153.844 268.478 153.844C264.295 153.844 262.4 160.872 262.4 170.043C262.4 179.128 264.295 186.242 268.478 186.242Z" fill="white"/>
<path d="M283 193.187H278.5L286.078 169.454L279.171 146.812H283.592L288.407 163.362H288.486L293.222 146.812H297.643L290.736 169.454L298.393 193.187H293.854L288.407 175.456H288.328L283 193.187Z" fill="white"/>
<path d="M308.458 193.184C302.183 193.184 298.395 183.756 298.395 170.043C298.395 156.416 302.183 146.816 308.497 146.816C314.733 146.816 318.521 156.33 318.521 169.957C318.521 183.671 314.733 193.184 308.458 193.184ZM308.497 186.242C312.602 186.242 314.496 179.128 314.496 170.043C314.496 160.872 312.602 153.844 308.497 153.844C304.314 153.844 302.42 160.872 302.42 170.043C302.42 179.128 304.314 186.242 308.497 186.242Z" fill="white"/>
<rect x="1" y="241" width="555" height="98" fill="white"/>
<rect x="1" y="241" width="555" height="98" stroke="#333333" stroke-width="2"/>
<path d="M242.98 313.187H238.48L246.059 289.454L239.151 266.812H243.572L248.388 283.362H248.466L253.203 266.812H257.624L250.716 289.454L258.374 313.187H253.834L248.388 295.456H248.309L242.98 313.187Z" fill="#A7D408"/>
<path d="M268.438 313.184C262.164 313.184 258.375 303.756 258.375 290.043C258.375 276.416 262.164 266.816 268.478 266.816C274.713 266.816 278.502 276.33 278.502 289.957C278.502 303.671 274.713 313.184 268.438 313.184ZM268.478 306.242C272.582 306.242 274.476 299.128 274.476 290.043C274.476 280.872 272.582 273.844 268.478 273.844C264.295 273.844 262.4 280.872 262.4 290.043C262.4 299.128 264.295 306.242 268.478 306.242Z" fill="#A7D408"/>
<path d="M283 313.187H278.5L286.078 289.454L279.171 266.812H283.592L288.407 283.362H288.486L293.222 266.812H297.643L290.736 289.454L298.393 313.187H293.854L288.407 295.456H288.328L283 313.187Z" fill="#A7D408"/>
<path d="M308.458 313.184C302.183 313.184 298.395 303.756 298.395 290.043C298.395 276.416 302.183 266.816 308.497 266.816C314.733 266.816 318.521 276.33 318.521 289.957C318.521 303.671 314.733 313.184 308.458 313.184ZM308.497 306.242C312.602 306.242 314.496 299.128 314.496 290.043C314.496 280.872 312.602 273.844 308.497 273.844C304.314 273.844 302.42 280.872 302.42 290.043C302.42 299.128 304.314 306.242 308.497 306.242Z" fill="#A7D408"/>
<rect x="1" y="361" width="555" height="98" fill="white"/>
<rect x="1" y="361" width="555" height="98" stroke="#333333" stroke-width="2"/>
<path d="M242.98 434.187H243.724L243.938 433.475L248.358 418.766L252.879 433.481L253.096 434.187H253.834H258.374H259.747L259.325 432.88L251.764 409.446L258.58 387.104L258.974 385.812H257.624H253.203H252.449L252.242 386.537L248.419 399.892L244.532 386.533L244.323 385.812H243.572H239.151H237.801L238.195 387.104L245.011 409.448L237.528 432.883L237.111 434.187H238.48H242.98Z" stroke="#333333" stroke-width="2"/>
<path d="M257.375 410.043C257.375 416.972 258.33 422.906 260.133 427.147C261.924 431.358 264.699 434.184 268.438 434.184C272.182 434.184 274.955 431.331 276.744 427.103C278.547 422.841 279.502 416.887 279.502 409.957C279.502 403.07 278.547 397.138 276.749 392.887C274.966 388.673 272.204 385.816 268.478 385.816C264.713 385.816 261.931 388.693 260.138 392.93C258.33 397.202 257.375 403.156 257.375 410.043ZM273.476 410.043C273.476 414.536 273.006 418.462 272.069 421.229C271.102 424.084 269.823 425.242 268.478 425.242C267.085 425.242 265.79 424.071 264.817 421.226C263.871 418.461 263.4 414.537 263.4 410.043C263.4 405.506 263.872 401.582 264.816 398.829C265.787 396.001 267.08 394.844 268.478 394.844C269.828 394.844 271.105 395.988 272.069 398.826C273.005 401.581 273.476 405.506 273.476 410.043Z" stroke="#333333" stroke-width="2"/>
<path d="M283 434.187H283.743L283.957 433.475L288.378 418.766L292.898 433.481L293.115 434.187H293.854H298.393H299.766L299.345 432.88L291.784 409.446L298.6 387.104L298.994 385.812H297.643H293.222H292.469L292.261 386.537L288.439 399.892L284.552 386.533L284.342 385.812H283.592H279.171H277.82L278.215 387.104L285.031 409.448L277.547 432.883L277.131 434.187H278.5H283Z" stroke="#333333" stroke-width="2"/>
<path d="M297.395 410.043C297.395 416.972 298.349 422.906 300.153 427.147C301.944 431.358 304.718 434.184 308.458 434.184C312.202 434.184 314.975 431.331 316.764 427.103C318.567 422.841 319.521 416.887 319.521 409.957C319.521 403.07 318.567 397.138 316.769 392.887C314.986 388.673 312.224 385.816 308.497 385.816C304.733 385.816 301.95 388.693 300.157 392.93C298.349 397.202 297.395 403.156 297.395 410.043ZM313.496 410.043C313.496 414.536 313.025 418.462 312.089 421.229C311.122 424.084 309.843 425.242 308.497 425.242C307.104 425.242 305.809 424.071 304.836 421.226C303.891 418.461 303.42 414.537 303.42 410.043C303.42 405.506 303.891 401.582 304.836 398.829C305.806 396.001 307.099 394.844 308.497 394.844C309.848 394.844 311.124 395.988 312.089 398.826C313.025 401.581 313.496 405.506 313.496 410.043Z" stroke="#333333" stroke-width="2"/>
<defs>
<linearGradient id="paint0_linear_2651_1395" x1="0" y1="170" x2="557" y2="170" gradientUnits="userSpaceOnUse">
<stop stop-color="#EC3396"/>
<stop offset="0.475" stop-color="#A7D408"/>
<stop offset="1" stop-color="#047FCF"/>
</linearGradient>
</defs>
</svg>
